G04 #@! TF.GenerationSoftware,KiCad,Pcbnew,(5.0.1)-3*
G04 #@! TF.CreationDate,2019-05-30T14:31:15+02:00*
G04 #@! TF.ProjectId,SudTempControl,53756454656D70436F6E74726F6C2E6B,rev?*
G04 #@! TF.SameCoordinates,Original*
G04 #@! TF.FileFunction,Copper,L1,Top,Signal*
G04 #@! TF.FilePolarity,Positive*
%FSLAX46Y46*%
G04 Gerber Fmt 4.6, Leading zero omitted, Abs format (unit mm)*
G04 Created by KiCad (PCBNEW (5.0.1)-3) date 30.05.2019 14:31:15*
%MOMM*%
%LPD*%
G01*
G04 APERTURE LIST*
G04 #@! TA.AperFunction,ComponentPad*
%ADD10R,1.700000X1.700000*%
G04 #@! TD*
G04 #@! TA.AperFunction,ComponentPad*
%ADD11O,1.700000X1.700000*%
G04 #@! TD*
G04 #@! TA.AperFunction,SMDPad,CuDef*
%ADD12R,0.700000X1.500000*%
G04 #@! TD*
G04 #@! TA.AperFunction,SMDPad,CuDef*
%ADD13R,1.000000X0.800000*%
G04 #@! TD*
G04 #@! TA.AperFunction,ComponentPad*
%ADD14C,3.000000*%
G04 #@! TD*
G04 #@! TA.AperFunction,ComponentPad*
%ADD15O,1.800000X2.600000*%
G04 #@! TD*
G04 #@! TA.AperFunction,ComponentPad*
%ADD16R,1.800000X2.600000*%
G04 #@! TD*
G04 #@! TA.AperFunction,SMDPad,CuDef*
%ADD17R,1.600000X3.000000*%
G04 #@! TD*
G04 #@! TA.AperFunction,SMDPad,CuDef*
%ADD18R,7.340000X6.350000*%
G04 #@! TD*
G04 #@! TA.AperFunction,SMDPad,CuDef*
%ADD19R,3.000000X1.600000*%
G04 #@! TD*
G04 #@! TA.AperFunction,ComponentPad*
%ADD20C,2.600000*%
G04 #@! TD*
G04 #@! TA.AperFunction,ComponentPad*
%ADD21R,2.600000X2.600000*%
G04 #@! TD*
G04 #@! TA.AperFunction,ComponentPad*
%ADD22C,2.000000*%
G04 #@! TD*
G04 #@! TA.AperFunction,ComponentPad*
%ADD23R,2.000000X2.000000*%
G04 #@! TD*
G04 #@! TA.AperFunction,ComponentPad*
%ADD24R,1.520000X1.520000*%
G04 #@! TD*
G04 #@! TA.AperFunction,ComponentPad*
%ADD25C,1.520000*%
G04 #@! TD*
G04 #@! TA.AperFunction,ComponentPad*
%ADD26O,1.800000X1.150000*%
G04 #@! TD*
G04 #@! TA.AperFunction,ComponentPad*
%ADD27O,2.000000X1.450000*%
G04 #@! TD*
G04 #@! TA.AperFunction,SMDPad,CuDef*
%ADD28R,1.300000X0.450000*%
G04 #@! TD*
G04 #@! TA.AperFunction,ComponentPad*
%ADD29C,1.500000*%
G04 #@! TD*
G04 #@! TA.AperFunction,ComponentPad*
%ADD30C,1.800000*%
G04 #@! TD*
G04 #@! TA.AperFunction,ComponentPad*
%ADD31R,1.800000X1.800000*%
G04 #@! TD*
G04 #@! TA.AperFunction,ComponentPad*
%ADD32R,2.000000X3.200000*%
G04 #@! TD*
G04 #@! TA.AperFunction,ViaPad*
%ADD33C,3.600000*%
G04 #@! TD*
G04 #@! TA.AperFunction,ViaPad*
%ADD34C,1.100000*%
G04 #@! TD*
G04 #@! TA.AperFunction,ViaPad*
%ADD35C,0.800000*%
G04 #@! TD*
G04 #@! TA.AperFunction,ViaPad*
%ADD36C,1.300000*%
G04 #@! TD*
G04 #@! TA.AperFunction,ViaPad*
%ADD37C,1.000000*%
G04 #@! TD*
G04 #@! TA.AperFunction,ViaPad*
%ADD38C,1.500000*%
G04 #@! TD*
G04 #@! TA.AperFunction,ViaPad*
%ADD39C,1.200000*%
G04 #@! TD*
G04 #@! TA.AperFunction,Conductor*
%ADD40C,0.600000*%
G04 #@! TD*
G04 #@! TA.AperFunction,Conductor*
%ADD41C,0.750000*%
G04 #@! TD*
G04 #@! TA.AperFunction,Conductor*
%ADD42C,0.700000*%
G04 #@! TD*
G04 #@! TA.AperFunction,Conductor*
%ADD43C,0.500000*%
G04 #@! TD*
G04 #@! TA.AperFunction,Conductor*
%ADD44C,0.400000*%
G04 #@! TD*
G04 #@! TA.AperFunction,Conductor*
%ADD45C,1.300000*%
G04 #@! TD*
G04 #@! TA.AperFunction,Conductor*
%ADD46C,1.100000*%
G04 #@! TD*
G04 #@! TA.AperFunction,Conductor*
%ADD47C,0.254000*%
G04 #@! TD*
G04 APERTURE END LIST*
D10*
G04 #@! TO.P,J3,1*
G04 #@! TO.N,+12V*
X181000000Y-76500000D03*
D11*
G04 #@! TO.P,J3,2*
G04 #@! TO.N,GND*
X181000000Y-73960000D03*
G04 #@! TD*
D12*
G04 #@! TO.P,SW2,1*
G04 #@! TO.N,+VSW*
X199750000Y-74430000D03*
G04 #@! TO.P,SW2,2*
G04 #@! TO.N,+BATT*
X196750000Y-74430000D03*
G04 #@! TO.P,SW2,3*
G04 #@! TO.N,N/C*
X195250000Y-74430000D03*
D13*
G04 #@! TO.P,SW2,*
G04 #@! TO.N,*
X201150000Y-71570000D03*
X193850000Y-71570000D03*
X193850000Y-73780000D03*
X201150000Y-73780000D03*
G04 #@! TD*
D10*
G04 #@! TO.P,J6,1*
G04 #@! TO.N,Net-(J6-Pad1)*
X111900000Y-89950000D03*
D11*
G04 #@! TO.P,J6,2*
G04 #@! TO.N,Net-(J6-Pad2)*
X114440000Y-89950000D03*
G04 #@! TO.P,J6,3*
G04 #@! TO.N,Net-(J6-Pad3)*
X116980000Y-89950000D03*
G04 #@! TD*
D14*
G04 #@! TO.P,U2,*
G04 #@! TO.N,*
X188801001Y-74640601D03*
X188800481Y-105641301D03*
X113801901Y-105641301D03*
X113801901Y-74640601D03*
D15*
G04 #@! TO.P,U2,16*
G04 #@! TO.N,Net-(T1-Pad3)*
X157401001Y-74640601D03*
G04 #@! TO.P,U2,15*
G04 #@! TO.N,Net-(R4-Pad2)*
X154861001Y-74640601D03*
G04 #@! TO.P,U2,14*
G04 #@! TO.N,Net-(U1-Pad26)*
X152321001Y-74640601D03*
G04 #@! TO.P,U2,13*
G04 #@! TO.N,Net-(U1-Pad25)*
X149781001Y-74640601D03*
G04 #@! TO.P,U2,12*
G04 #@! TO.N,Net-(U1-Pad24)*
X147241001Y-74640601D03*
G04 #@! TO.P,U2,11*
G04 #@! TO.N,Net-(U1-Pad23)*
X144701001Y-74640601D03*
G04 #@! TO.P,U2,10*
G04 #@! TO.N,Net-(U2-Pad10)*
X142161001Y-74640601D03*
G04 #@! TO.P,U2,9*
G04 #@! TO.N,Net-(U2-Pad9)*
X139621001Y-74640601D03*
G04 #@! TO.P,U2,8*
G04 #@! TO.N,Net-(U2-Pad8)*
X137081001Y-74640601D03*
G04 #@! TO.P,U2,7*
G04 #@! TO.N,Net-(U2-Pad7)*
X134541001Y-74640601D03*
G04 #@! TO.P,U2,6*
G04 #@! TO.N,Net-(U1-Pad28)*
X132001001Y-74640601D03*
G04 #@! TO.P,U2,5*
G04 #@! TO.N,GND*
X129461001Y-74640601D03*
G04 #@! TO.P,U2,4*
G04 #@! TO.N,Net-(U1-Pad27)*
X126921001Y-74640601D03*
G04 #@! TO.P,U2,3*
G04 #@! TO.N,Net-(P1-Pad2)*
X124381001Y-74640601D03*
G04 #@! TO.P,U2,2*
G04 #@! TO.N,+5V*
X121841001Y-74640601D03*
D16*
G04 #@! TO.P,U2,1*
G04 #@! TO.N,GND*
X119301001Y-74640601D03*
G04 #@! TD*
D17*
G04 #@! TO.P,C19,1*
G04 #@! TO.N,+12V*
X184700000Y-83500000D03*
G04 #@! TO.P,C19,2*
G04 #@! TO.N,GND*
X184700000Y-79100000D03*
G04 #@! TD*
D18*
G04 #@! TO.P,BT1,2*
G04 #@! TO.N,GND*
X195330000Y-121500000D03*
G04 #@! TO.P,BT1,1*
G04 #@! TO.N,+BATT*
X116670000Y-121500000D03*
G04 #@! TD*
D19*
G04 #@! TO.P,C16,2*
G04 #@! TO.N,GND*
X145800000Y-106800000D03*
G04 #@! TO.P,C16,1*
G04 #@! TO.N,Net-(C10-Pad2)*
X141400000Y-106800000D03*
G04 #@! TD*
D17*
G04 #@! TO.P,C15,1*
G04 #@! TO.N,+5V*
X170000000Y-85700000D03*
G04 #@! TO.P,C15,2*
G04 #@! TO.N,GND*
X170000000Y-81300000D03*
G04 #@! TD*
D20*
G04 #@! TO.P,J2,4*
G04 #@! TO.N,GND*
X212760000Y-128000000D03*
G04 #@! TO.P,J2,3*
G04 #@! TO.N,Net-(J2-Pad3)*
X217840000Y-128000000D03*
G04 #@! TO.P,J2,2*
G04 #@! TO.N,Net-(J2-Pad2)*
X222920000Y-128000000D03*
D21*
G04 #@! TO.P,J2,1*
G04 #@! TO.N,+5V*
X228000000Y-128000000D03*
G04 #@! TD*
D22*
G04 #@! TO.P,BZ1,2*
G04 #@! TO.N,GND*
X164350000Y-99250000D03*
D23*
G04 #@! TO.P,BZ1,1*
G04 #@! TO.N,Net-(BZ1-Pad1)*
X156750000Y-99250000D03*
G04 #@! TD*
D11*
G04 #@! TO.P,J4,4*
G04 #@! TO.N,Net-(C7-Pad2)*
X194000000Y-96380000D03*
G04 #@! TO.P,J4,3*
G04 #@! TO.N,Net-(C4-Pad2)*
X194000000Y-98920000D03*
G04 #@! TO.P,J4,2*
G04 #@! TO.N,Net-(C2-Pad2)*
X194000000Y-101460000D03*
D10*
G04 #@! TO.P,J4,1*
G04 #@! TO.N,GND*
X194000000Y-104000000D03*
G04 #@! TD*
D24*
G04 #@! TO.P,U4,1*
G04 #@! TO.N,GND*
X215000000Y-83500000D03*
D25*
G04 #@! TO.P,U4,2*
G04 #@! TO.N,Net-(R9-Pad2)*
X217540000Y-82230000D03*
G04 #@! TO.P,U4,3*
G04 #@! TO.N,+5V*
X215000000Y-80960000D03*
G04 #@! TO.P,U4,4*
G04 #@! TO.N,N/C*
X217540000Y-79690000D03*
G04 #@! TO.P,U4,5*
X215000000Y-78420000D03*
G04 #@! TO.P,U4,6*
X217540000Y-77150000D03*
G04 #@! TD*
D24*
G04 #@! TO.P,U5,1*
G04 #@! TO.N,GND*
X215000000Y-99500000D03*
D25*
G04 #@! TO.P,U5,2*
G04 #@! TO.N,Net-(R9-Pad2)*
X217540000Y-98230000D03*
G04 #@! TO.P,U5,3*
G04 #@! TO.N,+5V*
X215000000Y-96960000D03*
G04 #@! TO.P,U5,4*
G04 #@! TO.N,N/C*
X217540000Y-95690000D03*
G04 #@! TO.P,U5,5*
X215000000Y-94420000D03*
G04 #@! TO.P,U5,6*
X217540000Y-93150000D03*
G04 #@! TD*
D24*
G04 #@! TO.P,U6,1*
G04 #@! TO.N,GND*
X215000000Y-116000000D03*
D25*
G04 #@! TO.P,U6,2*
G04 #@! TO.N,Net-(R9-Pad2)*
X217540000Y-114730000D03*
G04 #@! TO.P,U6,3*
G04 #@! TO.N,+5V*
X215000000Y-113460000D03*
G04 #@! TO.P,U6,4*
G04 #@! TO.N,N/C*
X217540000Y-112190000D03*
G04 #@! TO.P,U6,5*
X215000000Y-110920000D03*
G04 #@! TO.P,U6,6*
X217540000Y-109650000D03*
G04 #@! TD*
D26*
G04 #@! TO.P,J5,6*
G04 #@! TO.N,GND*
X110200000Y-101000000D03*
X110200000Y-93250000D03*
D27*
X114000000Y-100850000D03*
X114000000Y-93400000D03*
D28*
G04 #@! TO.P,J5,5*
X114050000Y-98425000D03*
G04 #@! TO.P,J5,4*
G04 #@! TO.N,Net-(J5-Pad4)*
X114050000Y-97775000D03*
G04 #@! TO.P,J5,3*
G04 #@! TO.N,Net-(J5-Pad3)*
X114050000Y-97125000D03*
G04 #@! TO.P,J5,2*
G04 #@! TO.N,Net-(J5-Pad2)*
X114050000Y-96475000D03*
G04 #@! TO.P,J5,1*
G04 #@! TO.N,Net-(C10-Pad2)*
X114050000Y-95825000D03*
G04 #@! TD*
D11*
G04 #@! TO.P,J1,6*
G04 #@! TO.N,GND*
X116540000Y-84780000D03*
G04 #@! TO.P,J1,5*
G04 #@! TO.N,Net-(J1-Pad5)*
X114000000Y-84780000D03*
G04 #@! TO.P,J1,4*
G04 #@! TO.N,Net-(J1-Pad4)*
X116540000Y-82240000D03*
G04 #@! TO.P,J1,3*
G04 #@! TO.N,Net-(J1-Pad3)*
X114000000Y-82240000D03*
G04 #@! TO.P,J1,2*
G04 #@! TO.N,+5V*
X116540000Y-79700000D03*
D10*
G04 #@! TO.P,J1,1*
G04 #@! TO.N,Net-(J1-Pad1)*
X114000000Y-79700000D03*
G04 #@! TD*
D29*
G04 #@! TO.P,Y1,2*
G04 #@! TO.N,Net-(C5-Pad2)*
X133900000Y-98500000D03*
G04 #@! TO.P,Y1,1*
G04 #@! TO.N,Net-(C6-Pad1)*
X129000000Y-98500000D03*
G04 #@! TD*
D30*
G04 #@! TO.P,D3,2*
G04 #@! TO.N,Net-(C10-Pad2)*
X201460000Y-84500000D03*
D31*
G04 #@! TO.P,D3,1*
G04 #@! TO.N,Net-(D3-Pad1)*
X204000000Y-84500000D03*
G04 #@! TD*
D30*
G04 #@! TO.P,D2,2*
G04 #@! TO.N,Net-(C10-Pad2)*
X207000000Y-84500000D03*
D31*
G04 #@! TO.P,D2,1*
G04 #@! TO.N,Net-(D2-Pad1)*
X209540000Y-84500000D03*
G04 #@! TD*
D23*
G04 #@! TO.P,SW1,A*
G04 #@! TO.N,Net-(C2-Pad2)*
X206000000Y-93000000D03*
D22*
G04 #@! TO.P,SW1,C*
G04 #@! TO.N,GND*
X203500000Y-93000000D03*
G04 #@! TO.P,SW1,B*
G04 #@! TO.N,Net-(C4-Pad2)*
X201000000Y-93000000D03*
D32*
G04 #@! TO.P,SW1,MP*
G04 #@! TO.N,N/C*
X209100000Y-100500000D03*
X197900000Y-100500000D03*
D22*
G04 #@! TO.P,SW1,S2*
G04 #@! TO.N,GND*
X206000000Y-107500000D03*
G04 #@! TO.P,SW1,S1*
G04 #@! TO.N,Net-(C7-Pad2)*
X201000000Y-107500000D03*
G04 #@! TD*
D33*
G04 #@! TO.N,*
X210250000Y-74700000D03*
X204674560Y-74650000D03*
X111675000Y-129653700D03*
X204674560Y-129651160D03*
X111675000Y-74650000D03*
X228070000Y-121380000D03*
D34*
G04 #@! TO.N,GND*
X184700000Y-78000000D03*
D35*
X198500000Y-119300000D03*
X192200000Y-119300000D03*
X192200000Y-123400000D03*
X192200000Y-122400000D03*
X192200000Y-121400000D03*
X192200000Y-120400000D03*
X198500000Y-120400000D03*
X198500000Y-121400000D03*
X198500000Y-122400000D03*
X198500000Y-123400000D03*
X170000000Y-79000000D03*
X149700000Y-105000000D03*
D36*
G04 #@! TO.N,+5V*
X176000000Y-86800000D03*
D35*
X132750000Y-79800000D03*
X134800000Y-88300000D03*
X148200000Y-86000000D03*
D37*
X155000000Y-81500000D03*
D35*
X134000000Y-87400000D03*
X136375000Y-97100000D03*
X168000000Y-83850000D03*
X215250000Y-88750000D03*
G04 #@! TO.N,Net-(R9-Pad2)*
X150600000Y-88000000D03*
G04 #@! TO.N,Net-(C8-Pad1)*
X143475000Y-93475000D03*
X129600000Y-93500000D03*
G04 #@! TO.N,Net-(D3-Pad1)*
X133200000Y-117000000D03*
X158300000Y-116200000D03*
D38*
G04 #@! TO.N,+BATT*
X125800000Y-122100000D03*
D39*
X196750000Y-76280000D03*
X196790000Y-84750000D03*
D35*
G04 #@! TO.N,Net-(D2-Pad1)*
X133200000Y-119500000D03*
X159800000Y-117200000D03*
G04 #@! TO.N,Net-(P1-Pad2)*
X152425000Y-82750000D03*
X137850000Y-77250000D03*
D36*
G04 #@! TO.N,Net-(C10-Pad2)*
X140875000Y-111075000D03*
D35*
G04 #@! TO.N,Net-(U1-Pad27)*
X137500000Y-86000000D03*
G04 #@! TO.N,Net-(U1-Pad28)*
X145050000Y-84000000D03*
G04 #@! TO.N,Net-(J1-Pad5)*
X141850000Y-88400000D03*
G04 #@! TO.N,Net-(R16-Pad2)*
X137100000Y-89300000D03*
X126600000Y-93000000D03*
D39*
G04 #@! TO.N,+VSW*
X199750000Y-77000000D03*
G04 #@! TO.N,+12V*
X184700000Y-84400000D03*
D35*
G04 #@! TO.N,Net-(J6-Pad3)*
X126400000Y-90300000D03*
G04 #@! TO.N,Net-(J6-Pad2)*
X128250000Y-94800000D03*
G04 #@! TD*
D40*
G04 #@! TO.N,Net-(C7-Pad2)*
X198880000Y-96380000D02*
X194000000Y-96380000D01*
X201000000Y-107500000D02*
X201000000Y-98500000D01*
X201000000Y-98500000D02*
X198880000Y-96380000D01*
D41*
G04 #@! TO.N,GND*
X170000000Y-81600000D02*
X170000000Y-79000000D01*
X170000000Y-79000000D02*
X170000000Y-79000000D01*
D42*
X147900000Y-106800000D02*
X149700000Y-105000000D01*
X145800000Y-106800000D02*
X147900000Y-106800000D01*
X149700000Y-105000000D02*
X149700000Y-105000000D01*
D43*
X115060001Y-98450001D02*
X114050000Y-98450001D01*
X115450001Y-98450001D02*
X115060001Y-98450001D01*
X116000000Y-99000000D02*
X115450001Y-98450001D01*
X116000000Y-100350000D02*
X116000000Y-99000000D01*
X115500000Y-100850000D02*
X116000000Y-100350000D01*
X114000000Y-100850000D02*
X115500000Y-100850000D01*
D41*
G04 #@! TO.N,+5V*
X176000000Y-86800000D02*
X175800000Y-86800000D01*
D40*
G04 #@! TO.N,Net-(R9-Pad2)*
X184600000Y-88000000D02*
X150600000Y-88000000D01*
X192900000Y-79700000D02*
X184600000Y-88000000D01*
X220100000Y-79670000D02*
X220100000Y-76400000D01*
X217540000Y-82230000D02*
X220100000Y-79670000D01*
X218800000Y-75100000D02*
X214000000Y-75100000D01*
X214000000Y-75100000D02*
X209400000Y-79700000D01*
X220100000Y-76400000D02*
X218800000Y-75100000D01*
X209400000Y-79700000D02*
X192900000Y-79700000D01*
D44*
G04 #@! TO.N,Net-(C8-Pad1)*
X143450000Y-93500000D02*
X143475000Y-93475000D01*
X129600000Y-93500000D02*
X143450000Y-93500000D01*
D40*
G04 #@! TO.N,Net-(D3-Pad1)*
X134000000Y-116200000D02*
X133200000Y-117000000D01*
X158300000Y-116200000D02*
X134000000Y-116200000D01*
D43*
G04 #@! TO.N,+BATT*
X117770000Y-122600000D02*
X116670000Y-121500000D01*
D45*
X117270000Y-122100000D02*
X116670000Y-121500000D01*
X125800000Y-122100000D02*
X117270000Y-122100000D01*
X126860660Y-122100000D02*
X125800000Y-122100000D01*
X160642081Y-122100000D02*
X126860660Y-122100000D01*
X196790000Y-85952081D02*
X160642081Y-122100000D01*
X196790000Y-84750000D02*
X196790000Y-84750000D01*
D46*
X196750000Y-74430000D02*
X196750000Y-76280000D01*
X196750000Y-76280000D02*
X196750000Y-76280000D01*
D45*
X196790000Y-84750000D02*
X196790000Y-85952081D01*
D40*
G04 #@! TO.N,Net-(D2-Pad1)*
X135500000Y-117200000D02*
X133200000Y-119500000D01*
X159800000Y-117200000D02*
X135500000Y-117200000D01*
D44*
G04 #@! TO.N,Net-(P1-Pad2)*
X138750000Y-77250000D02*
X137850000Y-77250000D01*
X152425000Y-82750000D02*
X144250000Y-82750000D01*
X144250000Y-82750000D02*
X138750000Y-77250000D01*
D45*
G04 #@! TO.N,Net-(C10-Pad2)*
X140875000Y-107325000D02*
X141400000Y-106800000D01*
X140875000Y-111075000D02*
X140875000Y-107325000D01*
X141400000Y-106800000D02*
X125400000Y-106800000D01*
X125400000Y-106800000D02*
X121400000Y-102800000D01*
X121400000Y-102800000D02*
X121400000Y-98200000D01*
D43*
X114500000Y-95800000D02*
X115550000Y-95800000D01*
D45*
X121400000Y-98200000D02*
X121400000Y-98100000D01*
X121400000Y-98100000D02*
X119100000Y-95800000D01*
X119100000Y-95800000D02*
X115700000Y-95800000D01*
D40*
X204700000Y-82200000D02*
X207000000Y-84500000D01*
X172200000Y-102700000D02*
X192700000Y-82200000D01*
X144100000Y-102700000D02*
X172200000Y-102700000D01*
X141400000Y-106800000D02*
X141400000Y-105400000D01*
X141400000Y-105400000D02*
X144100000Y-102700000D01*
X201460000Y-82260000D02*
X201460000Y-84500000D01*
X201400000Y-82200000D02*
X201460000Y-82260000D01*
X201400000Y-82200000D02*
X204700000Y-82200000D01*
X192700000Y-82200000D02*
X201400000Y-82200000D01*
D44*
G04 #@! TO.N,Net-(U1-Pad27)*
X137500000Y-86000000D02*
X136500000Y-86000000D01*
X126921001Y-76421001D02*
X126921001Y-74640601D01*
X136500000Y-86000000D02*
X126921001Y-76421001D01*
G04 #@! TO.N,Net-(U1-Pad28)*
X132001001Y-75040601D02*
X132001001Y-74640601D01*
X140560401Y-83600001D02*
X132001001Y-75040601D01*
X144650001Y-83600001D02*
X140560401Y-83600001D01*
X145050000Y-84000000D02*
X144650001Y-83600001D01*
G04 #@! TO.N,Net-(J1-Pad5)*
X137300000Y-88400000D02*
X137300000Y-88400000D01*
X114000000Y-86350000D02*
X114000000Y-84780000D01*
X137300000Y-88400000D02*
X134700000Y-85800000D01*
X141850000Y-88400000D02*
X137300000Y-88400000D01*
X134700000Y-85800000D02*
X121650000Y-85800000D01*
X121650000Y-85800000D02*
X120100000Y-87350000D01*
X120100000Y-87350000D02*
X115000000Y-87350000D01*
X115000000Y-87350000D02*
X114000000Y-86350000D01*
G04 #@! TO.N,Net-(R16-Pad2)*
X130300000Y-89300000D02*
X126600000Y-93000000D01*
X137100000Y-89300000D02*
X130300000Y-89300000D01*
D42*
G04 #@! TO.N,+VSW*
X199750000Y-77000000D02*
X199750000Y-77000000D01*
X199750000Y-77000000D02*
X199750000Y-77000000D01*
D46*
X199750000Y-74430000D02*
X199750000Y-77000000D01*
D44*
G04 #@! TO.N,Net-(J6-Pad3)*
X117330000Y-90300000D02*
X116980000Y-89950000D01*
X126400000Y-90300000D02*
X117330000Y-90300000D01*
G04 #@! TO.N,Net-(J6-Pad2)*
X122700000Y-94800000D02*
X128250000Y-94800000D01*
X120050000Y-92150000D02*
X122700000Y-94800000D01*
X115437919Y-92150000D02*
X120050000Y-92150000D01*
X114440000Y-89950000D02*
X114440000Y-91152081D01*
X114440000Y-91152081D02*
X115437919Y-92150000D01*
G04 #@! TD*
D47*
G04 #@! TO.N,+5V*
G36*
X192751843Y-72217765D02*
X192892191Y-72427809D01*
X193102235Y-72568157D01*
X193350000Y-72617440D01*
X194350000Y-72617440D01*
X194597765Y-72568157D01*
X194807809Y-72427809D01*
X194948157Y-72217765D01*
X194966211Y-72127000D01*
X195050523Y-72127000D01*
X194915000Y-72454180D01*
X194915000Y-72885820D01*
X194975782Y-73032560D01*
X194900000Y-73032560D01*
X194883720Y-73035798D01*
X194807809Y-72922191D01*
X194597765Y-72781843D01*
X194350000Y-72732560D01*
X193350000Y-72732560D01*
X193102235Y-72781843D01*
X192892191Y-72922191D01*
X192751843Y-73132235D01*
X192702560Y-73380000D01*
X192702560Y-74180000D01*
X192751843Y-74427765D01*
X192892191Y-74637809D01*
X193102235Y-74778157D01*
X193350000Y-74827440D01*
X194252560Y-74827440D01*
X194252560Y-75180000D01*
X194301843Y-75427765D01*
X194442191Y-75637809D01*
X194652235Y-75778157D01*
X194900000Y-75827440D01*
X195565001Y-75827440D01*
X195565001Y-75913631D01*
X195515000Y-76034343D01*
X195515000Y-76525657D01*
X195703018Y-76979571D01*
X196050429Y-77326982D01*
X196504343Y-77515000D01*
X196995657Y-77515000D01*
X197449571Y-77326982D01*
X197796982Y-76979571D01*
X197985000Y-76525657D01*
X197985000Y-76034343D01*
X197935000Y-75913633D01*
X197935000Y-74313290D01*
X197866245Y-73967636D01*
X197747440Y-73789832D01*
X197747440Y-73680000D01*
X197698157Y-73432235D01*
X197557809Y-73222191D01*
X197347765Y-73081843D01*
X197100000Y-73032560D01*
X197024218Y-73032560D01*
X197085000Y-72885820D01*
X197085000Y-72454180D01*
X196949477Y-72127000D01*
X198050523Y-72127000D01*
X197915000Y-72454180D01*
X197915000Y-72885820D01*
X198080182Y-73284603D01*
X198385397Y-73589818D01*
X198752560Y-73741903D01*
X198752560Y-73789832D01*
X198633755Y-73967637D01*
X198565000Y-74313291D01*
X198565001Y-76633631D01*
X198515000Y-76754343D01*
X198515000Y-77245657D01*
X198703018Y-77699571D01*
X199050429Y-78046982D01*
X199504343Y-78235000D01*
X199995657Y-78235000D01*
X200449571Y-78046982D01*
X200796982Y-77699571D01*
X200985000Y-77245657D01*
X200985000Y-76754343D01*
X200935000Y-76633633D01*
X200935000Y-74827440D01*
X201650000Y-74827440D01*
X201897765Y-74778157D01*
X202107809Y-74637809D01*
X202239560Y-74440631D01*
X202239560Y-75134352D01*
X202610267Y-76029316D01*
X203295244Y-76714293D01*
X204190208Y-77085000D01*
X205158912Y-77085000D01*
X206053876Y-76714293D01*
X206738853Y-76029316D01*
X207109560Y-75134352D01*
X207109560Y-74165648D01*
X206738853Y-73270684D01*
X206053876Y-72585707D01*
X205158912Y-72215000D01*
X204190208Y-72215000D01*
X203295244Y-72585707D01*
X202610267Y-73270684D01*
X202297440Y-74025914D01*
X202297440Y-73380000D01*
X202248157Y-73132235D01*
X202107809Y-72922191D01*
X201897765Y-72781843D01*
X201650000Y-72732560D01*
X200650000Y-72732560D01*
X200402235Y-72781843D01*
X200192191Y-72922191D01*
X200116280Y-73035798D01*
X200100000Y-73032560D01*
X200024218Y-73032560D01*
X200085000Y-72885820D01*
X200085000Y-72454180D01*
X199949477Y-72127000D01*
X200033789Y-72127000D01*
X200051843Y-72217765D01*
X200192191Y-72427809D01*
X200402235Y-72568157D01*
X200650000Y-72617440D01*
X201650000Y-72617440D01*
X201897765Y-72568157D01*
X202107809Y-72427809D01*
X202248157Y-72217765D01*
X202266211Y-72127000D01*
X230873000Y-72127000D01*
X230873000Y-132873000D01*
X109127000Y-132873000D01*
X109127000Y-129169348D01*
X109240000Y-129169348D01*
X109240000Y-130138052D01*
X109610707Y-131033016D01*
X110295684Y-131717993D01*
X111190648Y-132088700D01*
X112159352Y-132088700D01*
X113054316Y-131717993D01*
X113739293Y-131033016D01*
X114110000Y-130138052D01*
X114110000Y-129169348D01*
X114052515Y-129030567D01*
X126040000Y-129030567D01*
X126040000Y-129969433D01*
X126399289Y-130836833D01*
X127063167Y-131500711D01*
X127930567Y-131860000D01*
X128869433Y-131860000D01*
X129736833Y-131500711D01*
X130400711Y-130836833D01*
X130760000Y-129969433D01*
X130760000Y-129166808D01*
X202239560Y-129166808D01*
X202239560Y-130135512D01*
X202610267Y-131030476D01*
X203295244Y-131715453D01*
X204190208Y-132086160D01*
X205158912Y-132086160D01*
X206053876Y-131715453D01*
X206738853Y-131030476D01*
X207109560Y-130135512D01*
X207109560Y-129166808D01*
X206738853Y-128271844D01*
X206082114Y-127615105D01*
X210825000Y-127615105D01*
X210825000Y-128384895D01*
X211119586Y-129096090D01*
X211663910Y-129640414D01*
X212375105Y-129935000D01*
X213144895Y-129935000D01*
X213856090Y-129640414D01*
X214400414Y-129096090D01*
X214695000Y-128384895D01*
X214695000Y-127615105D01*
X215905000Y-127615105D01*
X215905000Y-128384895D01*
X216199586Y-129096090D01*
X216743910Y-129640414D01*
X217455105Y-129935000D01*
X218224895Y-129935000D01*
X218936090Y-129640414D01*
X219480414Y-129096090D01*
X219775000Y-128384895D01*
X219775000Y-127615105D01*
X220985000Y-127615105D01*
X220985000Y-128384895D01*
X221279586Y-129096090D01*
X221823910Y-129640414D01*
X222535105Y-129935000D01*
X223304895Y-129935000D01*
X224016090Y-129640414D01*
X224560414Y-129096090D01*
X224855000Y-128384895D01*
X224855000Y-128285750D01*
X226065000Y-128285750D01*
X226065000Y-129426310D01*
X226161673Y-129659699D01*
X226340302Y-129838327D01*
X226573691Y-129935000D01*
X227714250Y-129935000D01*
X227873000Y-129776250D01*
X227873000Y-128127000D01*
X228127000Y-128127000D01*
X228127000Y-129776250D01*
X228285750Y-129935000D01*
X229426309Y-129935000D01*
X229659698Y-129838327D01*
X229838327Y-129659699D01*
X229935000Y-129426310D01*
X229935000Y-128285750D01*
X229776250Y-128127000D01*
X228127000Y-128127000D01*
X227873000Y-128127000D01*
X226223750Y-128127000D01*
X226065000Y-128285750D01*
X224855000Y-128285750D01*
X224855000Y-127615105D01*
X224560414Y-126903910D01*
X224230194Y-126573690D01*
X226065000Y-126573690D01*
X226065000Y-127714250D01*
X226223750Y-127873000D01*
X227873000Y-127873000D01*
X227873000Y-126223750D01*
X228127000Y-126223750D01*
X228127000Y-127873000D01*
X229776250Y-127873000D01*
X229935000Y-127714250D01*
X229935000Y-126573690D01*
X229838327Y-126340301D01*
X229659698Y-126161673D01*
X229426309Y-126065000D01*
X228285750Y-126065000D01*
X228127000Y-126223750D01*
X227873000Y-126223750D01*
X227714250Y-126065000D01*
X226573691Y-126065000D01*
X226340302Y-126161673D01*
X226161673Y-126340301D01*
X226065000Y-126573690D01*
X224230194Y-126573690D01*
X224016090Y-126359586D01*
X223304895Y-126065000D01*
X222535105Y-126065000D01*
X221823910Y-126359586D01*
X221279586Y-126903910D01*
X220985000Y-127615105D01*
X219775000Y-127615105D01*
X219480414Y-126903910D01*
X218936090Y-126359586D01*
X218224895Y-126065000D01*
X217455105Y-126065000D01*
X216743910Y-126359586D01*
X216199586Y-126903910D01*
X215905000Y-127615105D01*
X214695000Y-127615105D01*
X214400414Y-126903910D01*
X213856090Y-126359586D01*
X213144895Y-126065000D01*
X212375105Y-126065000D01*
X211663910Y-126359586D01*
X211119586Y-126903910D01*
X210825000Y-127615105D01*
X206082114Y-127615105D01*
X206053876Y-127586867D01*
X205158912Y-127216160D01*
X204190208Y-127216160D01*
X203295244Y-127586867D01*
X202610267Y-128271844D01*
X202239560Y-129166808D01*
X130760000Y-129166808D01*
X130760000Y-129030567D01*
X130400711Y-128163167D01*
X129736833Y-127499289D01*
X128869433Y-127140000D01*
X127930567Y-127140000D01*
X127063167Y-127499289D01*
X126399289Y-128163167D01*
X126040000Y-129030567D01*
X114052515Y-129030567D01*
X113739293Y-128274384D01*
X113054316Y-127589407D01*
X112159352Y-127218700D01*
X111190648Y-127218700D01*
X110295684Y-127589407D01*
X109610707Y-128274384D01*
X109240000Y-129169348D01*
X109127000Y-129169348D01*
X109127000Y-118325000D01*
X112352560Y-118325000D01*
X112352560Y-124675000D01*
X112401843Y-124922765D01*
X112542191Y-125132809D01*
X112752235Y-125273157D01*
X113000000Y-125322440D01*
X120340000Y-125322440D01*
X120587765Y-125273157D01*
X120797809Y-125132809D01*
X120938157Y-124922765D01*
X120987440Y-124675000D01*
X120987440Y-123385000D01*
X125283084Y-123385000D01*
X125524506Y-123485000D01*
X126075494Y-123485000D01*
X126316916Y-123385000D01*
X160515523Y-123385000D01*
X160642081Y-123410174D01*
X160768639Y-123385000D01*
X161143463Y-123310443D01*
X161568514Y-123026433D01*
X161640205Y-122919140D01*
X166234345Y-118325000D01*
X191012560Y-118325000D01*
X191012560Y-124675000D01*
X191061843Y-124922765D01*
X191202191Y-125132809D01*
X191412235Y-125273157D01*
X191660000Y-125322440D01*
X199000000Y-125322440D01*
X199247765Y-125273157D01*
X199457809Y-125132809D01*
X199598157Y-124922765D01*
X199647440Y-124675000D01*
X199647440Y-120895648D01*
X225635000Y-120895648D01*
X225635000Y-121864352D01*
X226005707Y-122759316D01*
X226690684Y-123444293D01*
X227585648Y-123815000D01*
X228554352Y-123815000D01*
X229449316Y-123444293D01*
X230134293Y-122759316D01*
X230505000Y-121864352D01*
X230505000Y-120895648D01*
X230134293Y-120000684D01*
X229449316Y-119315707D01*
X228554352Y-118945000D01*
X227585648Y-118945000D01*
X226690684Y-119315707D01*
X226005707Y-120000684D01*
X225635000Y-120895648D01*
X199647440Y-120895648D01*
X199647440Y-118325000D01*
X199598157Y-118077235D01*
X199457809Y-117867191D01*
X199247765Y-117726843D01*
X199000000Y-117677560D01*
X191660000Y-117677560D01*
X191412235Y-117726843D01*
X191202191Y-117867191D01*
X191061843Y-118077235D01*
X191012560Y-118325000D01*
X166234345Y-118325000D01*
X167098887Y-117460458D01*
X221630000Y-117460458D01*
X221630000Y-118359542D01*
X221974065Y-119190187D01*
X222609813Y-119825935D01*
X223440458Y-120170000D01*
X224339542Y-120170000D01*
X225170187Y-119825935D01*
X225805935Y-119190187D01*
X226150000Y-118359542D01*
X226150000Y-117460458D01*
X225805935Y-116629813D01*
X225170187Y-115994065D01*
X224339542Y-115650000D01*
X223440458Y-115650000D01*
X222609813Y-115994065D01*
X221974065Y-116629813D01*
X221630000Y-117460458D01*
X167098887Y-117460458D01*
X171528778Y-113030567D01*
X181240000Y-113030567D01*
X181240000Y-113969433D01*
X181599289Y-114836833D01*
X182263167Y-115500711D01*
X183130567Y-115860000D01*
X184069433Y-115860000D01*
X184936833Y-115500711D01*
X185197544Y-115240000D01*
X213592560Y-115240000D01*
X213592560Y-116760000D01*
X213641843Y-117007765D01*
X213782191Y-117217809D01*
X213992235Y-117358157D01*
X214240000Y-117407440D01*
X215760000Y-117407440D01*
X216007765Y-117358157D01*
X216217809Y-117217809D01*
X216358157Y-117007765D01*
X216407440Y-116760000D01*
X216407440Y-115570268D01*
X216749796Y-115912624D01*
X217262517Y-116125000D01*
X217817483Y-116125000D01*
X218330204Y-115912624D01*
X218722624Y-115520204D01*
X218935000Y-115007483D01*
X218935000Y-114452517D01*
X218722624Y-113939796D01*
X218330204Y-113547376D01*
X218119260Y-113460000D01*
X218330204Y-113372624D01*
X218722624Y-112980204D01*
X218935000Y-112467483D01*
X218935000Y-111912517D01*
X218722624Y-111399796D01*
X218330204Y-111007376D01*
X218119260Y-110920000D01*
X218330204Y-110832624D01*
X218722624Y-110440204D01*
X218935000Y-109927483D01*
X218935000Y-109372517D01*
X218722624Y-108859796D01*
X218330204Y-108467376D01*
X217817483Y-108255000D01*
X217262517Y-108255000D01*
X216749796Y-108467376D01*
X216357376Y-108859796D01*
X216145000Y-109372517D01*
X216145000Y-109927483D01*
X216357376Y-110440204D01*
X216749796Y-110832624D01*
X216960740Y-110920000D01*
X216749796Y-111007376D01*
X216357376Y-111399796D01*
X216145000Y-111912517D01*
X216145000Y-112467483D01*
X216357376Y-112980204D01*
X216749796Y-113372624D01*
X216960740Y-113460000D01*
X216749796Y-113547376D01*
X216357376Y-113939796D01*
X216145000Y-114452517D01*
X216145000Y-114733541D01*
X216007765Y-114641843D01*
X215760000Y-114592560D01*
X215755166Y-114592560D01*
X215799159Y-114438764D01*
X215000000Y-113639605D01*
X214200841Y-114438764D01*
X214244834Y-114592560D01*
X214240000Y-114592560D01*
X213992235Y-114641843D01*
X213782191Y-114782191D01*
X213641843Y-114992235D01*
X213592560Y-115240000D01*
X185197544Y-115240000D01*
X185600711Y-114836833D01*
X185960000Y-113969433D01*
X185960000Y-113252780D01*
X213592845Y-113252780D01*
X213620659Y-113807049D01*
X213779258Y-114189941D01*
X214021236Y-114259159D01*
X214820395Y-113460000D01*
X215179605Y-113460000D01*
X215978764Y-114259159D01*
X216220742Y-114189941D01*
X216407155Y-113667220D01*
X216379341Y-113112951D01*
X216220742Y-112730059D01*
X215978764Y-112660841D01*
X215179605Y-113460000D01*
X214820395Y-113460000D01*
X214021236Y-112660841D01*
X213779258Y-112730059D01*
X213592845Y-113252780D01*
X185960000Y-113252780D01*
X185960000Y-113030567D01*
X185600711Y-112163167D01*
X184936833Y-111499289D01*
X184069433Y-111140000D01*
X183130567Y-111140000D01*
X182263167Y-111499289D01*
X181599289Y-112163167D01*
X181240000Y-113030567D01*
X171528778Y-113030567D01*
X173916828Y-110642517D01*
X213605000Y-110642517D01*
X213605000Y-111197483D01*
X213817376Y-111710204D01*
X214209796Y-112102624D01*
X214404859Y-112183422D01*
X214270059Y-112239258D01*
X214200841Y-112481236D01*
X215000000Y-113280395D01*
X215799159Y-112481236D01*
X215729941Y-112239258D01*
X215585069Y-112187594D01*
X215790204Y-112102624D01*
X216182624Y-111710204D01*
X216395000Y-111197483D01*
X216395000Y-110642517D01*
X216182624Y-110129796D01*
X215790204Y-109737376D01*
X215277483Y-109525000D01*
X214722517Y-109525000D01*
X214209796Y-109737376D01*
X213817376Y-110129796D01*
X213605000Y-110642517D01*
X173916828Y-110642517D01*
X179342722Y-105216623D01*
X186665481Y-105216623D01*
X186665481Y-106065979D01*
X186990515Y-106850681D01*
X187591101Y-107451267D01*
X188375803Y-107776301D01*
X189225159Y-107776301D01*
X190009861Y-107451267D01*
X190610447Y-106850681D01*
X190935481Y-106065979D01*
X190935481Y-105216623D01*
X190610447Y-104431921D01*
X190009861Y-103831335D01*
X189225159Y-103506301D01*
X188375803Y-103506301D01*
X187591101Y-103831335D01*
X186990515Y-104431921D01*
X186665481Y-105216623D01*
X179342722Y-105216623D01*
X188179345Y-96380000D01*
X192485908Y-96380000D01*
X192601161Y-96959418D01*
X192929375Y-97450625D01*
X193227761Y-97650000D01*
X192929375Y-97849375D01*
X192601161Y-98340582D01*
X192485908Y-98920000D01*
X192601161Y-99499418D01*
X192929375Y-99990625D01*
X193227761Y-100190000D01*
X192929375Y-100389375D01*
X192601161Y-100880582D01*
X192485908Y-101460000D01*
X192601161Y-102039418D01*
X192929375Y-102530625D01*
X192947619Y-102542816D01*
X192902235Y-102551843D01*
X192692191Y-102692191D01*
X192551843Y-102902235D01*
X192502560Y-103150000D01*
X192502560Y-104850000D01*
X192551843Y-105097765D01*
X192692191Y-105307809D01*
X192902235Y-105448157D01*
X193150000Y-105497440D01*
X194850000Y-105497440D01*
X195097765Y-105448157D01*
X195307809Y-105307809D01*
X195448157Y-105097765D01*
X195497440Y-104850000D01*
X195497440Y-103150000D01*
X195448157Y-102902235D01*
X195307809Y-102692191D01*
X195097765Y-102551843D01*
X195052381Y-102542816D01*
X195070625Y-102530625D01*
X195398839Y-102039418D01*
X195514092Y-101460000D01*
X195398839Y-100880582D01*
X195070625Y-100389375D01*
X194772239Y-100190000D01*
X195070625Y-99990625D01*
X195398839Y-99499418D01*
X195514092Y-98920000D01*
X195510114Y-98900000D01*
X196252560Y-98900000D01*
X196252560Y-102100000D01*
X196301843Y-102347765D01*
X196442191Y-102557809D01*
X196652235Y-102698157D01*
X196900000Y-102747440D01*
X198900000Y-102747440D01*
X199147765Y-102698157D01*
X199357809Y-102557809D01*
X199498157Y-102347765D01*
X199547440Y-102100000D01*
X199547440Y-98900000D01*
X199498157Y-98652235D01*
X199357809Y-98442191D01*
X199147765Y-98301843D01*
X198900000Y-98252560D01*
X196900000Y-98252560D01*
X196652235Y-98301843D01*
X196442191Y-98442191D01*
X196301843Y-98652235D01*
X196252560Y-98900000D01*
X195510114Y-98900000D01*
X195398839Y-98340582D01*
X195070625Y-97849375D01*
X194772239Y-97650000D01*
X195070625Y-97450625D01*
X195161247Y-97315000D01*
X198492711Y-97315000D01*
X200065001Y-98887291D01*
X200065000Y-106122761D01*
X199613914Y-106573847D01*
X199365000Y-107174778D01*
X199365000Y-107825222D01*
X199613914Y-108426153D01*
X200073847Y-108886086D01*
X200674778Y-109135000D01*
X201325222Y-109135000D01*
X201926153Y-108886086D01*
X202386086Y-108426153D01*
X202635000Y-107825222D01*
X202635000Y-107174778D01*
X204365000Y-107174778D01*
X204365000Y-107825222D01*
X204613914Y-108426153D01*
X205073847Y-108886086D01*
X205674778Y-109135000D01*
X206325222Y-109135000D01*
X206926153Y-108886086D01*
X207386086Y-108426153D01*
X207635000Y-107825222D01*
X207635000Y-107300458D01*
X221630000Y-107300458D01*
X221630000Y-108199542D01*
X221974065Y-109030187D01*
X222609813Y-109665935D01*
X223440458Y-110010000D01*
X224339542Y-110010000D01*
X225170187Y-109665935D01*
X225805935Y-109030187D01*
X226150000Y-108199542D01*
X226150000Y-107300458D01*
X225805935Y-106469813D01*
X225170187Y-105834065D01*
X224339542Y-105490000D01*
X223440458Y-105490000D01*
X222609813Y-105834065D01*
X221974065Y-106469813D01*
X221630000Y-107300458D01*
X207635000Y-107300458D01*
X207635000Y-107174778D01*
X207386086Y-106573847D01*
X206926153Y-106113914D01*
X206325222Y-105865000D01*
X205674778Y-105865000D01*
X205073847Y-106113914D01*
X204613914Y-106573847D01*
X204365000Y-107174778D01*
X202635000Y-107174778D01*
X202386086Y-106573847D01*
X201935000Y-106122761D01*
X201935000Y-98900000D01*
X207452560Y-98900000D01*
X207452560Y-102100000D01*
X207501843Y-102347765D01*
X207642191Y-102557809D01*
X207852235Y-102698157D01*
X208100000Y-102747440D01*
X210100000Y-102747440D01*
X210347765Y-102698157D01*
X210557809Y-102557809D01*
X210698157Y-102347765D01*
X210747440Y-102100000D01*
X210747440Y-100960458D01*
X221630000Y-100960458D01*
X221630000Y-101859542D01*
X221974065Y-102690187D01*
X222609813Y-103325935D01*
X223440458Y-103670000D01*
X224339542Y-103670000D01*
X225170187Y-103325935D01*
X225805935Y-102690187D01*
X226150000Y-101859542D01*
X226150000Y-100960458D01*
X225805935Y-100129813D01*
X225170187Y-99494065D01*
X224339542Y-99150000D01*
X223440458Y-99150000D01*
X222609813Y-99494065D01*
X221974065Y-100129813D01*
X221630000Y-100960458D01*
X210747440Y-100960458D01*
X210747440Y-98900000D01*
X210715615Y-98740000D01*
X213592560Y-98740000D01*
X213592560Y-100260000D01*
X213641843Y-100507765D01*
X213782191Y-100717809D01*
X213992235Y-100858157D01*
X214240000Y-100907440D01*
X215760000Y-100907440D01*
X216007765Y-100858157D01*
X216217809Y-100717809D01*
X216358157Y-100507765D01*
X216407440Y-100260000D01*
X216407440Y-99070268D01*
X216749796Y-99412624D01*
X217262517Y-99625000D01*
X217817483Y-99625000D01*
X218330204Y-99412624D01*
X218722624Y-99020204D01*
X218935000Y-98507483D01*
X218935000Y-97952517D01*
X218722624Y-97439796D01*
X218330204Y-97047376D01*
X218119260Y-96960000D01*
X218330204Y-96872624D01*
X218722624Y-96480204D01*
X218935000Y-95967483D01*
X218935000Y-95412517D01*
X218722624Y-94899796D01*
X218330204Y-94507376D01*
X218119260Y-94420000D01*
X218330204Y-94332624D01*
X218722624Y-93940204D01*
X218935000Y-93427483D01*
X218935000Y-92872517D01*
X218722624Y-92359796D01*
X218330204Y-91967376D01*
X217817483Y-91755000D01*
X217262517Y-91755000D01*
X216749796Y-91967376D01*
X216357376Y-92359796D01*
X216145000Y-92872517D01*
X216145000Y-93427483D01*
X216357376Y-93940204D01*
X216749796Y-94332624D01*
X216960740Y-94420000D01*
X216749796Y-94507376D01*
X216357376Y-94899796D01*
X216145000Y-95412517D01*
X216145000Y-95967483D01*
X216357376Y-96480204D01*
X216749796Y-96872624D01*
X216960740Y-96960000D01*
X216749796Y-97047376D01*
X216357376Y-97439796D01*
X216145000Y-97952517D01*
X216145000Y-98233541D01*
X216007765Y-98141843D01*
X215760000Y-98092560D01*
X215755166Y-98092560D01*
X215799159Y-97938764D01*
X215000000Y-97139605D01*
X214200841Y-97938764D01*
X214244834Y-98092560D01*
X214240000Y-98092560D01*
X213992235Y-98141843D01*
X213782191Y-98282191D01*
X213641843Y-98492235D01*
X213592560Y-98740000D01*
X210715615Y-98740000D01*
X210698157Y-98652235D01*
X210557809Y-98442191D01*
X210347765Y-98301843D01*
X210100000Y-98252560D01*
X208100000Y-98252560D01*
X207852235Y-98301843D01*
X207642191Y-98442191D01*
X207501843Y-98652235D01*
X207452560Y-98900000D01*
X201935000Y-98900000D01*
X201935000Y-98592086D01*
X201953317Y-98500000D01*
X201926893Y-98367155D01*
X201880750Y-98135181D01*
X201674097Y-97825903D01*
X201596031Y-97773741D01*
X200575070Y-96752780D01*
X213592845Y-96752780D01*
X213620659Y-97307049D01*
X213779258Y-97689941D01*
X214021236Y-97759159D01*
X214820395Y-96960000D01*
X215179605Y-96960000D01*
X215978764Y-97759159D01*
X216220742Y-97689941D01*
X216407155Y-97167220D01*
X216379341Y-96612951D01*
X216220742Y-96230059D01*
X215978764Y-96160841D01*
X215179605Y-96960000D01*
X214820395Y-96960000D01*
X214021236Y-96160841D01*
X213779258Y-96230059D01*
X213592845Y-96752780D01*
X200575070Y-96752780D01*
X199606261Y-95783972D01*
X199554097Y-95705903D01*
X199244819Y-95499250D01*
X198972086Y-95445000D01*
X198880000Y-95426683D01*
X198787914Y-95445000D01*
X195161247Y-95445000D01*
X195070625Y-95309375D01*
X194579418Y-94981161D01*
X194146256Y-94895000D01*
X193853744Y-94895000D01*
X193420582Y-94981161D01*
X192929375Y-95309375D01*
X192601161Y-95800582D01*
X192485908Y-96380000D01*
X188179345Y-96380000D01*
X191884567Y-92674778D01*
X199365000Y-92674778D01*
X199365000Y-93325222D01*
X199613914Y-93926153D01*
X200073847Y-94386086D01*
X200674778Y-94635000D01*
X201325222Y-94635000D01*
X201926153Y-94386086D01*
X202250000Y-94062239D01*
X202573847Y-94386086D01*
X203174778Y-94635000D01*
X203825222Y-94635000D01*
X204426153Y-94386086D01*
X204466984Y-94345255D01*
X204542191Y-94457809D01*
X204752235Y-94598157D01*
X205000000Y-94647440D01*
X207000000Y-94647440D01*
X207247765Y-94598157D01*
X207457809Y-94457809D01*
X207598157Y-94247765D01*
X207619091Y-94142517D01*
X213605000Y-94142517D01*
X213605000Y-94697483D01*
X213817376Y-95210204D01*
X214209796Y-95602624D01*
X214404859Y-95683422D01*
X214270059Y-95739258D01*
X214200841Y-95981236D01*
X215000000Y-96780395D01*
X215799159Y-95981236D01*
X215729941Y-95739258D01*
X215585069Y-95687594D01*
X215790204Y-95602624D01*
X216182624Y-95210204D01*
X216395000Y-94697483D01*
X216395000Y-94142517D01*
X216182624Y-93629796D01*
X215790204Y-93237376D01*
X215277483Y-93025000D01*
X214722517Y-93025000D01*
X214209796Y-93237376D01*
X213817376Y-93629796D01*
X213605000Y-94142517D01*
X207619091Y-94142517D01*
X207647440Y-94000000D01*
X207647440Y-92000000D01*
X207598157Y-91752235D01*
X207457809Y-91542191D01*
X207247765Y-91401843D01*
X207000000Y-91352560D01*
X205000000Y-91352560D01*
X204752235Y-91401843D01*
X204542191Y-91542191D01*
X204466984Y-91654745D01*
X204426153Y-91613914D01*
X203825222Y-91365000D01*
X203174778Y-91365000D01*
X202573847Y-91613914D01*
X202250000Y-91937761D01*
X201926153Y-91613914D01*
X201325222Y-91365000D01*
X200674778Y-91365000D01*
X200073847Y-91613914D01*
X199613914Y-92073847D01*
X199365000Y-92674778D01*
X191884567Y-92674778D01*
X193758887Y-90800458D01*
X221630000Y-90800458D01*
X221630000Y-91699542D01*
X221974065Y-92530187D01*
X222609813Y-93165935D01*
X223440458Y-93510000D01*
X224339542Y-93510000D01*
X225170187Y-93165935D01*
X225805935Y-92530187D01*
X226150000Y-91699542D01*
X226150000Y-90800458D01*
X225805935Y-89969813D01*
X225170187Y-89334065D01*
X224339542Y-88990000D01*
X223440458Y-88990000D01*
X222609813Y-89334065D01*
X221974065Y-89969813D01*
X221630000Y-90800458D01*
X193758887Y-90800458D01*
X197609143Y-86950203D01*
X197716433Y-86878514D01*
X198000443Y-86453463D01*
X198075000Y-86078639D01*
X198075000Y-86078635D01*
X198100173Y-85952082D01*
X198075000Y-85825529D01*
X198075000Y-84876558D01*
X198100174Y-84750000D01*
X198000443Y-84248618D01*
X197716433Y-83823567D01*
X197291382Y-83539557D01*
X196916558Y-83465000D01*
X196790000Y-83439826D01*
X196303725Y-83536552D01*
X196288618Y-83539557D01*
X195863567Y-83823567D01*
X195579557Y-84248618D01*
X195479826Y-84750000D01*
X195505000Y-84876558D01*
X195505000Y-85419816D01*
X160109817Y-120815000D01*
X126316916Y-120815000D01*
X126075494Y-120715000D01*
X125524506Y-120715000D01*
X125283084Y-120815000D01*
X120987440Y-120815000D01*
X120987440Y-118325000D01*
X120938157Y-118077235D01*
X120797809Y-117867191D01*
X120587765Y-117726843D01*
X120340000Y-117677560D01*
X113000000Y-117677560D01*
X112752235Y-117726843D01*
X112542191Y-117867191D01*
X112401843Y-118077235D01*
X112352560Y-118325000D01*
X109127000Y-118325000D01*
X109127000Y-116794126D01*
X132165000Y-116794126D01*
X132165000Y-117205874D01*
X132322569Y-117586280D01*
X132613720Y-117877431D01*
X132994126Y-118035000D01*
X133342711Y-118035000D01*
X132855142Y-118522569D01*
X132613720Y-118622569D01*
X132322569Y-118913720D01*
X132165000Y-119294126D01*
X132165000Y-119705874D01*
X132322569Y-120086280D01*
X132613720Y-120377431D01*
X132994126Y-120535000D01*
X133405874Y-120535000D01*
X133786280Y-120377431D01*
X134077431Y-120086280D01*
X134177431Y-119844858D01*
X135887290Y-118135000D01*
X159352704Y-118135000D01*
X159594126Y-118235000D01*
X160005874Y-118235000D01*
X160386280Y-118077431D01*
X160677431Y-117786280D01*
X160835000Y-117405874D01*
X160835000Y-116994126D01*
X160677431Y-116613720D01*
X160386280Y-116322569D01*
X160005874Y-116165000D01*
X159594126Y-116165000D01*
X159352704Y-116265000D01*
X159335000Y-116265000D01*
X159335000Y-115994126D01*
X159177431Y-115613720D01*
X158886280Y-115322569D01*
X158505874Y-115165000D01*
X158094126Y-115165000D01*
X157852704Y-115265000D01*
X134092086Y-115265000D01*
X134000000Y-115246683D01*
X133907914Y-115265000D01*
X133635181Y-115319250D01*
X133325903Y-115525903D01*
X133273741Y-115603970D01*
X132855141Y-116022569D01*
X132613720Y-116122569D01*
X132322569Y-116413720D01*
X132165000Y-116794126D01*
X109127000Y-116794126D01*
X109127000Y-113135990D01*
X118240000Y-113135990D01*
X118240000Y-113864010D01*
X118518601Y-114536612D01*
X119033388Y-115051399D01*
X119705990Y-115330000D01*
X120434010Y-115330000D01*
X121106612Y-115051399D01*
X121621399Y-114536612D01*
X121900000Y-113864010D01*
X121900000Y-113135990D01*
X121621399Y-112463388D01*
X121106612Y-111948601D01*
X120434010Y-111670000D01*
X119705990Y-111670000D01*
X119033388Y-111948601D01*
X118518601Y-112463388D01*
X118240000Y-113135990D01*
X109127000Y-113135990D01*
X109127000Y-105216623D01*
X111666901Y-105216623D01*
X111666901Y-106065979D01*
X111991935Y-106850681D01*
X112592521Y-107451267D01*
X113377223Y-107776301D01*
X114226579Y-107776301D01*
X115011281Y-107451267D01*
X115611867Y-106850681D01*
X115936901Y-106065979D01*
X115936901Y-105216623D01*
X115611867Y-104431921D01*
X115011281Y-103831335D01*
X114226579Y-103506301D01*
X113377223Y-103506301D01*
X112592521Y-103831335D01*
X111991935Y-104431921D01*
X111666901Y-105216623D01*
X109127000Y-105216623D01*
X109127000Y-101955456D01*
X109402882Y-102139795D01*
X109755827Y-102210000D01*
X110644173Y-102210000D01*
X110997118Y-102139795D01*
X111397361Y-101872361D01*
X111664795Y-101472118D01*
X111758705Y-101000000D01*
X111664795Y-100527882D01*
X111397361Y-100127639D01*
X110997118Y-99860205D01*
X110644173Y-99790000D01*
X109755827Y-99790000D01*
X109402882Y-99860205D01*
X109127000Y-100044544D01*
X109127000Y-94205456D01*
X109402882Y-94389795D01*
X109755827Y-94460000D01*
X110644173Y-94460000D01*
X110997118Y-94389795D01*
X111397361Y-94122361D01*
X111664795Y-93722118D01*
X111758705Y-93250000D01*
X111664795Y-92777882D01*
X111397361Y-92377639D01*
X110997118Y-92110205D01*
X110644173Y-92040000D01*
X109755827Y-92040000D01*
X109402882Y-92110205D01*
X109127000Y-92294544D01*
X109127000Y-89100000D01*
X110402560Y-89100000D01*
X110402560Y-90800000D01*
X110451843Y-91047765D01*
X110592191Y-91257809D01*
X110802235Y-91398157D01*
X111050000Y-91447440D01*
X112750000Y-91447440D01*
X112997765Y-91398157D01*
X113207809Y-91257809D01*
X113348157Y-91047765D01*
X113357184Y-91002381D01*
X113369375Y-91020625D01*
X113592096Y-91169443D01*
X113653448Y-91477881D01*
X113653449Y-91477882D01*
X113838000Y-91754082D01*
X113907718Y-91800666D01*
X114147052Y-92040000D01*
X113591057Y-92040000D01*
X113194355Y-92118909D01*
X112744495Y-92419495D01*
X112443909Y-92869355D01*
X112338357Y-93400000D01*
X112406639Y-93743279D01*
X112203807Y-93878807D01*
X111975052Y-94221163D01*
X111894724Y-94625000D01*
X111975052Y-95028837D01*
X112203807Y-95371193D01*
X112546163Y-95599948D01*
X112752560Y-95641003D01*
X112752560Y-96050000D01*
X112772451Y-96150000D01*
X112752560Y-96250000D01*
X112752560Y-96700000D01*
X112772451Y-96800000D01*
X112752560Y-96900000D01*
X112752560Y-97350000D01*
X112772451Y-97450000D01*
X112752560Y-97550000D01*
X112752560Y-98000000D01*
X112772451Y-98099999D01*
X112752560Y-98200000D01*
X112752560Y-98608997D01*
X112546163Y-98650052D01*
X112203807Y-98878807D01*
X111975052Y-99221163D01*
X111894724Y-99625000D01*
X111975052Y-100028837D01*
X112203807Y-100371193D01*
X112406639Y-100506721D01*
X112338357Y-100850000D01*
X112443909Y-101380645D01*
X112744495Y-101830505D01*
X113194355Y-102131091D01*
X113591057Y-102210000D01*
X114408943Y-102210000D01*
X114805645Y-102131091D01*
X115255505Y-101830505D01*
X115319319Y-101735000D01*
X115412839Y-101735000D01*
X115500000Y-101752337D01*
X115587161Y-101735000D01*
X115587165Y-101735000D01*
X115845310Y-101683652D01*
X116138049Y-101488049D01*
X116187425Y-101414153D01*
X116564154Y-101037424D01*
X116638049Y-100988049D01*
X116833652Y-100695310D01*
X116885000Y-100437165D01*
X116885000Y-100437161D01*
X116902337Y-100350000D01*
X116885000Y-100262839D01*
X116885000Y-99087159D01*
X116902337Y-98999999D01*
X116885000Y-98912840D01*
X116885000Y-98912835D01*
X116833652Y-98654690D01*
X116638049Y-98361951D01*
X116564153Y-98312575D01*
X116137426Y-97885848D01*
X116088050Y-97811952D01*
X115795311Y-97616349D01*
X115537166Y-97565001D01*
X115537162Y-97565001D01*
X115450001Y-97547664D01*
X115362840Y-97565001D01*
X115347440Y-97565001D01*
X115347440Y-97550000D01*
X115327549Y-97450000D01*
X115347440Y-97350000D01*
X115347440Y-97040045D01*
X115573442Y-97085000D01*
X118567736Y-97085000D01*
X120115001Y-98632266D01*
X120115000Y-102673442D01*
X120089826Y-102800000D01*
X120142502Y-103064818D01*
X120189557Y-103301381D01*
X120473567Y-103726433D01*
X120580860Y-103798124D01*
X124401877Y-107619142D01*
X124473567Y-107726433D01*
X124898618Y-108010443D01*
X125273442Y-108085000D01*
X125273446Y-108085000D01*
X125399999Y-108110173D01*
X125526552Y-108085000D01*
X139482885Y-108085000D01*
X139590001Y-108156573D01*
X139590000Y-110819398D01*
X139590000Y-111330602D01*
X139639383Y-111449825D01*
X139664557Y-111576381D01*
X139736245Y-111683670D01*
X139785629Y-111802894D01*
X139876879Y-111894144D01*
X139948567Y-112001433D01*
X140055857Y-112073122D01*
X140147106Y-112164371D01*
X140266328Y-112213754D01*
X140373618Y-112285443D01*
X140500177Y-112310617D01*
X140619398Y-112360000D01*
X140748442Y-112360000D01*
X140875000Y-112385174D01*
X141001558Y-112360000D01*
X141130602Y-112360000D01*
X141249824Y-112310617D01*
X141376381Y-112285443D01*
X141483670Y-112213755D01*
X141602894Y-112164371D01*
X141694144Y-112073121D01*
X141801433Y-112001433D01*
X141873122Y-111894143D01*
X141964371Y-111802894D01*
X142013754Y-111683672D01*
X142085443Y-111576382D01*
X142110617Y-111449824D01*
X142160000Y-111330602D01*
X142160000Y-108247440D01*
X142900000Y-108247440D01*
X143147765Y-108198157D01*
X143357809Y-108057809D01*
X143498157Y-107847765D01*
X143547440Y-107600000D01*
X143547440Y-106000000D01*
X143652560Y-106000000D01*
X143652560Y-107600000D01*
X143701843Y-107847765D01*
X143842191Y-108057809D01*
X144052235Y-108198157D01*
X144300000Y-108247440D01*
X147300000Y-108247440D01*
X147547765Y-108198157D01*
X147757809Y-108057809D01*
X147898157Y-107847765D01*
X147907084Y-107802887D01*
X147997008Y-107785000D01*
X147997012Y-107785000D01*
X148284328Y-107727849D01*
X148610145Y-107510145D01*
X148665098Y-107427902D01*
X150165569Y-105927431D01*
X150286280Y-105877431D01*
X150577431Y-105586280D01*
X150735000Y-105205874D01*
X150735000Y-104794126D01*
X150577431Y-104413720D01*
X150286280Y-104122569D01*
X149905874Y-103965000D01*
X149494126Y-103965000D01*
X149113720Y-104122569D01*
X148822569Y-104413720D01*
X148772569Y-104534431D01*
X147760613Y-105546387D01*
X147757809Y-105542191D01*
X147547765Y-105401843D01*
X147300000Y-105352560D01*
X144300000Y-105352560D01*
X144052235Y-105401843D01*
X143842191Y-105542191D01*
X143701843Y-105752235D01*
X143652560Y-106000000D01*
X143547440Y-106000000D01*
X143498157Y-105752235D01*
X143357809Y-105542191D01*
X143147765Y-105401843D01*
X142900000Y-105352560D01*
X142769729Y-105352560D01*
X144487289Y-103635000D01*
X172107914Y-103635000D01*
X172200000Y-103653317D01*
X172292086Y-103635000D01*
X172564819Y-103580750D01*
X172874097Y-103374097D01*
X172926261Y-103296028D01*
X193087290Y-83135000D01*
X200525000Y-83135000D01*
X200525000Y-83264183D01*
X200158690Y-83630493D01*
X199925000Y-84194670D01*
X199925000Y-84805330D01*
X200158690Y-85369507D01*
X200590493Y-85801310D01*
X201154670Y-86035000D01*
X201765330Y-86035000D01*
X202329507Y-85801310D01*
X202498725Y-85632092D01*
X202501843Y-85647765D01*
X202642191Y-85857809D01*
X202852235Y-85998157D01*
X203100000Y-86047440D01*
X204900000Y-86047440D01*
X205147765Y-85998157D01*
X205357809Y-85857809D01*
X205498157Y-85647765D01*
X205547440Y-85400000D01*
X205547440Y-85004358D01*
X205698690Y-85369507D01*
X206130493Y-85801310D01*
X206694670Y-86035000D01*
X207305330Y-86035000D01*
X207869507Y-85801310D01*
X208038725Y-85632092D01*
X208041843Y-85647765D01*
X208182191Y-85857809D01*
X208392235Y-85998157D01*
X208640000Y-86047440D01*
X210440000Y-86047440D01*
X210687765Y-85998157D01*
X210897809Y-85857809D01*
X211038157Y-85647765D01*
X211087440Y-85400000D01*
X211087440Y-84960458D01*
X221630000Y-84960458D01*
X221630000Y-85859542D01*
X221974065Y-86690187D01*
X222609813Y-87325935D01*
X223440458Y-87670000D01*
X224339542Y-87670000D01*
X225170187Y-87325935D01*
X225805935Y-86690187D01*
X226150000Y-85859542D01*
X226150000Y-84960458D01*
X225805935Y-84129813D01*
X225170187Y-83494065D01*
X224339542Y-83150000D01*
X223440458Y-83150000D01*
X222609813Y-83494065D01*
X221974065Y-84129813D01*
X221630000Y-84960458D01*
X211087440Y-84960458D01*
X211087440Y-83600000D01*
X211038157Y-83352235D01*
X210897809Y-83142191D01*
X210687765Y-83001843D01*
X210440000Y-82952560D01*
X208640000Y-82952560D01*
X208392235Y-83001843D01*
X208182191Y-83142191D01*
X208041843Y-83352235D01*
X208038725Y-83367908D01*
X207869507Y-83198690D01*
X207305330Y-82965000D01*
X206787290Y-82965000D01*
X205426261Y-81603972D01*
X205374097Y-81525903D01*
X205064819Y-81319250D01*
X204792086Y-81265000D01*
X204700000Y-81246683D01*
X204607914Y-81265000D01*
X201492086Y-81265000D01*
X201400000Y-81246683D01*
X201307914Y-81265000D01*
X192792085Y-81265000D01*
X192699999Y-81246683D01*
X192669549Y-81252740D01*
X193169509Y-80752780D01*
X213592845Y-80752780D01*
X213620659Y-81307049D01*
X213779258Y-81689941D01*
X214021236Y-81759159D01*
X214820395Y-80960000D01*
X215179605Y-80960000D01*
X215978764Y-81759159D01*
X216220742Y-81689941D01*
X216407155Y-81167220D01*
X216379341Y-80612951D01*
X216220742Y-80230059D01*
X215978764Y-80160841D01*
X215179605Y-80960000D01*
X214820395Y-80960000D01*
X214021236Y-80160841D01*
X213779258Y-80230059D01*
X213592845Y-80752780D01*
X193169509Y-80752780D01*
X193287289Y-80635000D01*
X209307914Y-80635000D01*
X209400000Y-80653317D01*
X209492086Y-80635000D01*
X209764819Y-80580750D01*
X210074097Y-80374097D01*
X210126261Y-80296028D01*
X212279772Y-78142517D01*
X213605000Y-78142517D01*
X213605000Y-78697483D01*
X213817376Y-79210204D01*
X214209796Y-79602624D01*
X214404859Y-79683422D01*
X214270059Y-79739258D01*
X214200841Y-79981236D01*
X215000000Y-80780395D01*
X215799159Y-79981236D01*
X215729941Y-79739258D01*
X215585069Y-79687594D01*
X215790204Y-79602624D01*
X216182624Y-79210204D01*
X216395000Y-78697483D01*
X216395000Y-78142517D01*
X216182624Y-77629796D01*
X215790204Y-77237376D01*
X215277483Y-77025000D01*
X214722517Y-77025000D01*
X214209796Y-77237376D01*
X213817376Y-77629796D01*
X213605000Y-78142517D01*
X212279772Y-78142517D01*
X214387290Y-76035000D01*
X216682172Y-76035000D01*
X216357376Y-76359796D01*
X216145000Y-76872517D01*
X216145000Y-77427483D01*
X216357376Y-77940204D01*
X216749796Y-78332624D01*
X216960740Y-78420000D01*
X216749796Y-78507376D01*
X216357376Y-78899796D01*
X216145000Y-79412517D01*
X216145000Y-79967483D01*
X216357376Y-80480204D01*
X216749796Y-80872624D01*
X216960740Y-80960000D01*
X216749796Y-81047376D01*
X216357376Y-81439796D01*
X216145000Y-81952517D01*
X216145000Y-82233541D01*
X216007765Y-82141843D01*
X215760000Y-82092560D01*
X215755166Y-82092560D01*
X215799159Y-81938764D01*
X215000000Y-81139605D01*
X214200841Y-81938764D01*
X214244834Y-82092560D01*
X214240000Y-82092560D01*
X213992235Y-82141843D01*
X213782191Y-82282191D01*
X213641843Y-82492235D01*
X213592560Y-82740000D01*
X213592560Y-84260000D01*
X213641843Y-84507765D01*
X213782191Y-84717809D01*
X213992235Y-84858157D01*
X214240000Y-84907440D01*
X215760000Y-84907440D01*
X216007765Y-84858157D01*
X216217809Y-84717809D01*
X216358157Y-84507765D01*
X216407440Y-84260000D01*
X216407440Y-83070268D01*
X216749796Y-83412624D01*
X217262517Y-83625000D01*
X217817483Y-83625000D01*
X218330204Y-83412624D01*
X218722624Y-83020204D01*
X218935000Y-82507483D01*
X218935000Y-82157289D01*
X220696031Y-80396259D01*
X220774097Y-80344097D01*
X220980750Y-80034819D01*
X221035000Y-79762086D01*
X221035000Y-79762085D01*
X221053317Y-79670000D01*
X221035000Y-79577914D01*
X221035000Y-76492086D01*
X221053317Y-76400000D01*
X220980750Y-76035181D01*
X220925850Y-75953018D01*
X220774097Y-75725903D01*
X220696028Y-75673739D01*
X219822747Y-74800458D01*
X221630000Y-74800458D01*
X221630000Y-75699542D01*
X221974065Y-76530187D01*
X222609813Y-77165935D01*
X223440458Y-77510000D01*
X224339542Y-77510000D01*
X225170187Y-77165935D01*
X225805935Y-76530187D01*
X226150000Y-75699542D01*
X226150000Y-74800458D01*
X225805935Y-73969813D01*
X225170187Y-73334065D01*
X224339542Y-72990000D01*
X223440458Y-72990000D01*
X222609813Y-73334065D01*
X221974065Y-73969813D01*
X221630000Y-74800458D01*
X219822747Y-74800458D01*
X219526261Y-74503972D01*
X219474097Y-74425903D01*
X219164819Y-74219250D01*
X218892086Y-74165000D01*
X218800000Y-74146683D01*
X218707914Y-74165000D01*
X214092081Y-74165000D01*
X213999999Y-74146684D01*
X213907917Y-74165000D01*
X213907914Y-74165000D01*
X213635181Y-74219250D01*
X213325903Y-74425903D01*
X213273741Y-74503969D01*
X212685000Y-75092710D01*
X212685000Y-74215648D01*
X212314293Y-73320684D01*
X211629316Y-72635707D01*
X210734352Y-72265000D01*
X209765648Y-72265000D01*
X208870684Y-72635707D01*
X208185707Y-73320684D01*
X207815000Y-74215648D01*
X207815000Y-75184352D01*
X208185707Y-76079316D01*
X208870684Y-76764293D01*
X209765648Y-77135000D01*
X210642711Y-77135000D01*
X209012711Y-78765000D01*
X192992086Y-78765000D01*
X192900000Y-78746683D01*
X192807914Y-78765000D01*
X192535181Y-78819250D01*
X192225903Y-79025903D01*
X192173739Y-79103972D01*
X186115094Y-85162617D01*
X186147440Y-85000000D01*
X186147440Y-82000000D01*
X186098157Y-81752235D01*
X185957809Y-81542191D01*
X185747765Y-81401843D01*
X185500000Y-81352560D01*
X183900000Y-81352560D01*
X183652235Y-81401843D01*
X183442191Y-81542191D01*
X183301843Y-81752235D01*
X183252560Y-82000000D01*
X183252560Y-85000000D01*
X183301843Y-85247765D01*
X183442191Y-85457809D01*
X183652235Y-85598157D01*
X183900000Y-85647440D01*
X185500000Y-85647440D01*
X185662617Y-85615094D01*
X184212711Y-87065000D01*
X171435000Y-87065000D01*
X171435000Y-85985750D01*
X171276250Y-85827000D01*
X170127000Y-85827000D01*
X170127000Y-85847000D01*
X169873000Y-85847000D01*
X169873000Y-85827000D01*
X168723750Y-85827000D01*
X168565000Y-85985750D01*
X168565000Y-87065000D01*
X151047296Y-87065000D01*
X150805874Y-86965000D01*
X150394126Y-86965000D01*
X150013720Y-87122569D01*
X149722569Y-87413720D01*
X149565000Y-87794126D01*
X149565000Y-88205874D01*
X149722569Y-88586280D01*
X150013720Y-88877431D01*
X150394126Y-89035000D01*
X150805874Y-89035000D01*
X151047296Y-88935000D01*
X184507914Y-88935000D01*
X184600000Y-88953317D01*
X184630450Y-88947260D01*
X171812711Y-101765000D01*
X144192086Y-101765000D01*
X144100000Y-101746683D01*
X144007914Y-101765000D01*
X143735181Y-101819250D01*
X143425903Y-102025903D01*
X143373739Y-102103972D01*
X140803970Y-104673741D01*
X140725904Y-104725903D01*
X140673742Y-104803969D01*
X140673741Y-104803970D01*
X140519250Y-105035182D01*
X140456119Y-105352560D01*
X139900000Y-105352560D01*
X139652235Y-105401843D01*
X139482885Y-105515000D01*
X125932265Y-105515000D01*
X122685000Y-102267736D01*
X122685000Y-98226552D01*
X122685406Y-98224506D01*
X127615000Y-98224506D01*
X127615000Y-98775494D01*
X127825853Y-99284540D01*
X128215460Y-99674147D01*
X128724506Y-99885000D01*
X129275494Y-99885000D01*
X129784540Y-99674147D01*
X130174147Y-99284540D01*
X130385000Y-98775494D01*
X130385000Y-98224506D01*
X132515000Y-98224506D01*
X132515000Y-98775494D01*
X132725853Y-99284540D01*
X133115460Y-99674147D01*
X133624506Y-99885000D01*
X134175494Y-99885000D01*
X134684540Y-99674147D01*
X135074147Y-99284540D01*
X135285000Y-98775494D01*
X135285000Y-98250000D01*
X155102560Y-98250000D01*
X155102560Y-100250000D01*
X155151843Y-100497765D01*
X155292191Y-100707809D01*
X155502235Y-100848157D01*
X155750000Y-100897440D01*
X157750000Y-100897440D01*
X157997765Y-100848157D01*
X158207809Y-100707809D01*
X158348157Y-100497765D01*
X158397440Y-100250000D01*
X158397440Y-98924778D01*
X162715000Y-98924778D01*
X162715000Y-99575222D01*
X162963914Y-100176153D01*
X163423847Y-100636086D01*
X164024778Y-100885000D01*
X164675222Y-100885000D01*
X165276153Y-100636086D01*
X165736086Y-100176153D01*
X165985000Y-99575222D01*
X165985000Y-98924778D01*
X165736086Y-98323847D01*
X165276153Y-97863914D01*
X164675222Y-97615000D01*
X164024778Y-97615000D01*
X163423847Y-97863914D01*
X162963914Y-98323847D01*
X162715000Y-98924778D01*
X158397440Y-98924778D01*
X158397440Y-98250000D01*
X158348157Y-98002235D01*
X158207809Y-97792191D01*
X157997765Y-97651843D01*
X157750000Y-97602560D01*
X155750000Y-97602560D01*
X155502235Y-97651843D01*
X155292191Y-97792191D01*
X155151843Y-98002235D01*
X155102560Y-98250000D01*
X135285000Y-98250000D01*
X135285000Y-98224506D01*
X135074147Y-97715460D01*
X134684540Y-97325853D01*
X134175494Y-97115000D01*
X133624506Y-97115000D01*
X133115460Y-97325853D01*
X132725853Y-97715460D01*
X132515000Y-98224506D01*
X130385000Y-98224506D01*
X130174147Y-97715460D01*
X129784540Y-97325853D01*
X129275494Y-97115000D01*
X128724506Y-97115000D01*
X128215460Y-97325853D01*
X127825853Y-97715460D01*
X127615000Y-98224506D01*
X122685406Y-98224506D01*
X122710173Y-98099999D01*
X122685000Y-97973446D01*
X122685000Y-97973443D01*
X122610443Y-97598619D01*
X122495693Y-97426883D01*
X122398122Y-97280857D01*
X122398121Y-97280856D01*
X122326433Y-97173567D01*
X122219143Y-97101878D01*
X120098124Y-94980859D01*
X120026433Y-94873567D01*
X119601382Y-94589557D01*
X119226558Y-94515000D01*
X119100000Y-94489826D01*
X118973442Y-94515000D01*
X115573442Y-94515000D01*
X115198618Y-94589557D01*
X114773567Y-94873567D01*
X114745882Y-94915000D01*
X114412835Y-94915000D01*
X114224007Y-94952560D01*
X113940120Y-94952560D01*
X113978423Y-94760000D01*
X114408943Y-94760000D01*
X114805645Y-94681091D01*
X115255505Y-94380505D01*
X115556091Y-93930645D01*
X115661643Y-93400000D01*
X115579094Y-92985000D01*
X119704133Y-92985000D01*
X122051415Y-95332283D01*
X122097999Y-95402001D01*
X122323753Y-95552845D01*
X122374199Y-95586552D01*
X122700000Y-95651358D01*
X122782237Y-95635000D01*
X127621289Y-95635000D01*
X127663720Y-95677431D01*
X128044126Y-95835000D01*
X128455874Y-95835000D01*
X128836280Y-95677431D01*
X129127431Y-95386280D01*
X129285000Y-95005874D01*
X129285000Y-94594126D01*
X129232836Y-94468192D01*
X129394126Y-94535000D01*
X129805874Y-94535000D01*
X130186280Y-94377431D01*
X130228711Y-94335000D01*
X142871289Y-94335000D01*
X142888720Y-94352431D01*
X143269126Y-94510000D01*
X143680874Y-94510000D01*
X144061280Y-94352431D01*
X144352431Y-94061280D01*
X144510000Y-93680874D01*
X144510000Y-93269126D01*
X144352431Y-92888720D01*
X144061280Y-92597569D01*
X143680874Y-92440000D01*
X143269126Y-92440000D01*
X142888720Y-92597569D01*
X142821289Y-92665000D01*
X130228711Y-92665000D01*
X130186280Y-92622569D01*
X129805874Y-92465000D01*
X129394126Y-92465000D01*
X129013720Y-92622569D01*
X128722569Y-92913720D01*
X128565000Y-93294126D01*
X128565000Y-93705874D01*
X128617164Y-93831808D01*
X128455874Y-93765000D01*
X128044126Y-93765000D01*
X127663720Y-93922569D01*
X127621289Y-93965000D01*
X126974869Y-93965000D01*
X127186280Y-93877431D01*
X127477431Y-93586280D01*
X127635000Y-93205874D01*
X127635000Y-93145867D01*
X130645868Y-90135000D01*
X136471289Y-90135000D01*
X136513720Y-90177431D01*
X136894126Y-90335000D01*
X137305874Y-90335000D01*
X137686280Y-90177431D01*
X137977431Y-89886280D01*
X138135000Y-89505874D01*
X138135000Y-89235000D01*
X141221289Y-89235000D01*
X141263720Y-89277431D01*
X141644126Y-89435000D01*
X142055874Y-89435000D01*
X142436280Y-89277431D01*
X142727431Y-88986280D01*
X142885000Y-88605874D01*
X142885000Y-88194126D01*
X142727431Y-87813720D01*
X142436280Y-87522569D01*
X142055874Y-87365000D01*
X141644126Y-87365000D01*
X141263720Y-87522569D01*
X141221289Y-87565000D01*
X137645869Y-87565000D01*
X136989822Y-86908953D01*
X137294126Y-87035000D01*
X137705874Y-87035000D01*
X138086280Y-86877431D01*
X138377431Y-86586280D01*
X138535000Y-86205874D01*
X138535000Y-85794126D01*
X138377431Y-85413720D01*
X138086280Y-85122569D01*
X137705874Y-84965000D01*
X137294126Y-84965000D01*
X136913720Y-85122569D01*
X136871289Y-85165000D01*
X136845869Y-85165000D01*
X127908063Y-76227196D01*
X128027674Y-76147274D01*
X128191001Y-75902837D01*
X128354329Y-76147274D01*
X128862075Y-76486539D01*
X129461001Y-76605673D01*
X130059928Y-76486539D01*
X130567674Y-76147274D01*
X130731001Y-75902837D01*
X130894329Y-76147274D01*
X131402075Y-76486539D01*
X132001001Y-76605673D01*
X132321462Y-76541929D01*
X139911816Y-84132284D01*
X139958400Y-84202002D01*
X140234600Y-84386553D01*
X140478164Y-84435001D01*
X140560401Y-84451359D01*
X140642638Y-84435001D01*
X144109907Y-84435001D01*
X144172569Y-84586280D01*
X144463720Y-84877431D01*
X144844126Y-85035000D01*
X145255874Y-85035000D01*
X145636280Y-84877431D01*
X145927431Y-84586280D01*
X146085000Y-84205874D01*
X146085000Y-84073691D01*
X168565000Y-84073691D01*
X168565000Y-85414250D01*
X168723750Y-85573000D01*
X169873000Y-85573000D01*
X169873000Y-83723750D01*
X170127000Y-83723750D01*
X170127000Y-85573000D01*
X171276250Y-85573000D01*
X171435000Y-85414250D01*
X171435000Y-84073691D01*
X171338327Y-83840302D01*
X171159699Y-83661673D01*
X170926310Y-83565000D01*
X170285750Y-83565000D01*
X170127000Y-83723750D01*
X169873000Y-83723750D01*
X169714250Y-83565000D01*
X169073690Y-83565000D01*
X168840301Y-83661673D01*
X168661673Y-83840302D01*
X168565000Y-84073691D01*
X146085000Y-84073691D01*
X146085000Y-83794126D01*
X145998377Y-83585000D01*
X151796289Y-83585000D01*
X151838720Y-83627431D01*
X152219126Y-83785000D01*
X152630874Y-83785000D01*
X153011280Y-83627431D01*
X153302431Y-83336280D01*
X153460000Y-82955874D01*
X153460000Y-82544126D01*
X153302431Y-82163720D01*
X153011280Y-81872569D01*
X152630874Y-81715000D01*
X152219126Y-81715000D01*
X151838720Y-81872569D01*
X151796289Y-81915000D01*
X144595868Y-81915000D01*
X142480868Y-79800000D01*
X168552560Y-79800000D01*
X168552560Y-82800000D01*
X168601843Y-83047765D01*
X168742191Y-83257809D01*
X168952235Y-83398157D01*
X169200000Y-83447440D01*
X170800000Y-83447440D01*
X171047765Y-83398157D01*
X171257809Y-83257809D01*
X171398157Y-83047765D01*
X171447440Y-82800000D01*
X171447440Y-79800000D01*
X171398157Y-79552235D01*
X171257809Y-79342191D01*
X171047765Y-79201843D01*
X171035000Y-79199304D01*
X171035000Y-78794126D01*
X170877431Y-78413720D01*
X170586280Y-78122569D01*
X170205874Y-77965000D01*
X169794126Y-77965000D01*
X169413720Y-78122569D01*
X169122569Y-78413720D01*
X168965000Y-78794126D01*
X168965000Y-79199304D01*
X168952235Y-79201843D01*
X168742191Y-79342191D01*
X168601843Y-79552235D01*
X168552560Y-79800000D01*
X142480868Y-79800000D01*
X139398587Y-76717720D01*
X139352001Y-76647999D01*
X139147781Y-76511544D01*
X139621001Y-76605673D01*
X140219928Y-76486539D01*
X140727674Y-76147274D01*
X140891001Y-75902837D01*
X141054329Y-76147274D01*
X141562075Y-76486539D01*
X142161001Y-76605673D01*
X142759928Y-76486539D01*
X143267674Y-76147274D01*
X143431001Y-75902837D01*
X143594329Y-76147274D01*
X144102075Y-76486539D01*
X144701001Y-76605673D01*
X145299928Y-76486539D01*
X145807674Y-76147274D01*
X145971001Y-75902837D01*
X146134329Y-76147274D01*
X146642075Y-76486539D01*
X147241001Y-76605673D01*
X147839928Y-76486539D01*
X148347674Y-76147274D01*
X148511001Y-75902837D01*
X148674329Y-76147274D01*
X149182075Y-76486539D01*
X149781001Y-76605673D01*
X150379928Y-76486539D01*
X150887674Y-76147274D01*
X151051001Y-75902837D01*
X151214329Y-76147274D01*
X151722075Y-76486539D01*
X152321001Y-76605673D01*
X152919928Y-76486539D01*
X153427674Y-76147274D01*
X153591001Y-75902837D01*
X153754329Y-76147274D01*
X154262075Y-76486539D01*
X154861001Y-76605673D01*
X155459928Y-76486539D01*
X155967674Y-76147274D01*
X156131001Y-75902837D01*
X156294329Y-76147274D01*
X156802075Y-76486539D01*
X157401001Y-76605673D01*
X157999928Y-76486539D01*
X158507674Y-76147274D01*
X158846939Y-75639528D01*
X158936001Y-75191782D01*
X158936001Y-74089419D01*
X158910258Y-73960000D01*
X179485908Y-73960000D01*
X179601161Y-74539418D01*
X179929375Y-75030625D01*
X179947619Y-75042816D01*
X179902235Y-75051843D01*
X179692191Y-75192191D01*
X179551843Y-75402235D01*
X179502560Y-75650000D01*
X179502560Y-77350000D01*
X179551843Y-77597765D01*
X179692191Y-77807809D01*
X179902235Y-77948157D01*
X180150000Y-77997440D01*
X181850000Y-77997440D01*
X182097765Y-77948157D01*
X182307809Y-77807809D01*
X182446663Y-77600000D01*
X183252560Y-77600000D01*
X183252560Y-80600000D01*
X183301843Y-80847765D01*
X183442191Y-81057809D01*
X183652235Y-81198157D01*
X183900000Y-81247440D01*
X185500000Y-81247440D01*
X185747765Y-81198157D01*
X185957809Y-81057809D01*
X186098157Y-80847765D01*
X186147440Y-80600000D01*
X186147440Y-77600000D01*
X186098157Y-77352235D01*
X185957809Y-77142191D01*
X185747765Y-77001843D01*
X185500000Y-76952560D01*
X185267812Y-76952560D01*
X184935711Y-76815000D01*
X184464289Y-76815000D01*
X184132188Y-76952560D01*
X183900000Y-76952560D01*
X183652235Y-77001843D01*
X183442191Y-77142191D01*
X183301843Y-77352235D01*
X183252560Y-77600000D01*
X182446663Y-77600000D01*
X182448157Y-77597765D01*
X182497440Y-77350000D01*
X182497440Y-75650000D01*
X182448157Y-75402235D01*
X182307809Y-75192191D01*
X182097765Y-75051843D01*
X182052381Y-75042816D01*
X182070625Y-75030625D01*
X182398839Y-74539418D01*
X182463185Y-74215923D01*
X186666001Y-74215923D01*
X186666001Y-75065279D01*
X186991035Y-75849981D01*
X187591621Y-76450567D01*
X188376323Y-76775601D01*
X189225679Y-76775601D01*
X190010381Y-76450567D01*
X190610967Y-75849981D01*
X190936001Y-75065279D01*
X190936001Y-74215923D01*
X190610967Y-73431221D01*
X190010381Y-72830635D01*
X189225679Y-72505601D01*
X188376323Y-72505601D01*
X187591621Y-72830635D01*
X186991035Y-73431221D01*
X186666001Y-74215923D01*
X182463185Y-74215923D01*
X182514092Y-73960000D01*
X182398839Y-73380582D01*
X182070625Y-72889375D01*
X181579418Y-72561161D01*
X181146256Y-72475000D01*
X180853744Y-72475000D01*
X180420582Y-72561161D01*
X179929375Y-72889375D01*
X179601161Y-73380582D01*
X179485908Y-73960000D01*
X158910258Y-73960000D01*
X158846939Y-73641674D01*
X158507674Y-73133928D01*
X157999927Y-72794663D01*
X157401001Y-72675529D01*
X156802074Y-72794663D01*
X156294328Y-73133928D01*
X156131001Y-73378364D01*
X155967674Y-73133928D01*
X155459927Y-72794663D01*
X154861001Y-72675529D01*
X154262074Y-72794663D01*
X153754328Y-73133928D01*
X153591001Y-73378364D01*
X153427674Y-73133928D01*
X152919927Y-72794663D01*
X152321001Y-72675529D01*
X151722074Y-72794663D01*
X151214328Y-73133928D01*
X151051001Y-73378364D01*
X150887674Y-73133928D01*
X150379927Y-72794663D01*
X149781001Y-72675529D01*
X149182074Y-72794663D01*
X148674328Y-73133928D01*
X148511001Y-73378364D01*
X148347674Y-73133928D01*
X147839927Y-72794663D01*
X147241001Y-72675529D01*
X146642074Y-72794663D01*
X146134328Y-73133928D01*
X145971001Y-73378364D01*
X145807674Y-73133928D01*
X145299927Y-72794663D01*
X144701001Y-72675529D01*
X144102074Y-72794663D01*
X143594328Y-73133928D01*
X143431001Y-73378364D01*
X143267674Y-73133928D01*
X142759927Y-72794663D01*
X142161001Y-72675529D01*
X141562074Y-72794663D01*
X141054328Y-73133928D01*
X140891001Y-73378364D01*
X140727674Y-73133928D01*
X140219927Y-72794663D01*
X139621001Y-72675529D01*
X139022074Y-72794663D01*
X138514328Y-73133928D01*
X138351001Y-73378364D01*
X138187674Y-73133928D01*
X137679927Y-72794663D01*
X137081001Y-72675529D01*
X136482074Y-72794663D01*
X135974328Y-73133928D01*
X135811001Y-73378364D01*
X135647674Y-73133928D01*
X135139927Y-72794663D01*
X134541001Y-72675529D01*
X133942074Y-72794663D01*
X133434328Y-73133928D01*
X133271001Y-73378364D01*
X133107674Y-73133928D01*
X132599927Y-72794663D01*
X132001001Y-72675529D01*
X131402074Y-72794663D01*
X130894328Y-73133928D01*
X130731001Y-73378364D01*
X130567674Y-73133928D01*
X130059927Y-72794663D01*
X129461001Y-72675529D01*
X128862074Y-72794663D01*
X128354328Y-73133928D01*
X128191001Y-73378364D01*
X128027674Y-73133928D01*
X127519927Y-72794663D01*
X126921001Y-72675529D01*
X126322074Y-72794663D01*
X125814328Y-73133928D01*
X125651001Y-73378364D01*
X125487674Y-73133928D01*
X124979927Y-72794663D01*
X124381001Y-72675529D01*
X123782074Y-72794663D01*
X123274328Y-73133928D01*
X123099299Y-73395879D01*
X122836607Y-73065389D01*
X122311087Y-72773845D01*
X122205741Y-72749565D01*
X121968001Y-72870223D01*
X121968001Y-74513601D01*
X121988001Y-74513601D01*
X121988001Y-74767601D01*
X121968001Y-74767601D01*
X121968001Y-76410979D01*
X122205741Y-76531637D01*
X122311087Y-76507357D01*
X122836607Y-76215813D01*
X123099299Y-75885323D01*
X123274329Y-76147274D01*
X123782075Y-76486539D01*
X124381001Y-76605673D01*
X124979928Y-76486539D01*
X125487674Y-76147274D01*
X125651001Y-75902837D01*
X125814329Y-76147274D01*
X126086001Y-76328799D01*
X126086001Y-76338768D01*
X126069644Y-76421001D01*
X126086001Y-76503234D01*
X126086001Y-76503237D01*
X126134449Y-76746801D01*
X126319000Y-77023002D01*
X126388721Y-77069588D01*
X134284131Y-84965000D01*
X121732232Y-84965000D01*
X121649999Y-84948643D01*
X121567766Y-84965000D01*
X121567763Y-84965000D01*
X121324199Y-85013448D01*
X121047999Y-85197999D01*
X121001415Y-85267717D01*
X119754133Y-86515000D01*
X115345868Y-86515000D01*
X114837357Y-86006490D01*
X115070625Y-85850625D01*
X115270000Y-85552239D01*
X115469375Y-85850625D01*
X115960582Y-86178839D01*
X116393744Y-86265000D01*
X116686256Y-86265000D01*
X117119418Y-86178839D01*
X117610625Y-85850625D01*
X117938839Y-85359418D01*
X118054092Y-84780000D01*
X117938839Y-84200582D01*
X117610625Y-83709375D01*
X117312239Y-83510000D01*
X117610625Y-83310625D01*
X117938839Y-82819418D01*
X118054092Y-82240000D01*
X117938839Y-81660582D01*
X117610625Y-81169375D01*
X117291522Y-80956157D01*
X117421358Y-80895183D01*
X117811645Y-80466924D01*
X117981476Y-80056890D01*
X117860155Y-79827000D01*
X116667000Y-79827000D01*
X116667000Y-79847000D01*
X116413000Y-79847000D01*
X116413000Y-79827000D01*
X116393000Y-79827000D01*
X116393000Y-79573000D01*
X116413000Y-79573000D01*
X116413000Y-78379181D01*
X116667000Y-78379181D01*
X116667000Y-79573000D01*
X117860155Y-79573000D01*
X117981476Y-79343110D01*
X117811645Y-78933076D01*
X117421358Y-78504817D01*
X116896892Y-78258514D01*
X116667000Y-78379181D01*
X116413000Y-78379181D01*
X116183108Y-78258514D01*
X115658642Y-78504817D01*
X115469961Y-78711855D01*
X115448157Y-78602235D01*
X115307809Y-78392191D01*
X115097765Y-78251843D01*
X114850000Y-78202560D01*
X113150000Y-78202560D01*
X112902235Y-78251843D01*
X112692191Y-78392191D01*
X112551843Y-78602235D01*
X112502560Y-78850000D01*
X112502560Y-80550000D01*
X112551843Y-80797765D01*
X112692191Y-81007809D01*
X112902235Y-81148157D01*
X112947619Y-81157184D01*
X112929375Y-81169375D01*
X112601161Y-81660582D01*
X112485908Y-82240000D01*
X112601161Y-82819418D01*
X112929375Y-83310625D01*
X113227761Y-83510000D01*
X112929375Y-83709375D01*
X112601161Y-84200582D01*
X112485908Y-84780000D01*
X112601161Y-85359418D01*
X112929375Y-85850625D01*
X113165000Y-86008065D01*
X113165000Y-86267767D01*
X113148643Y-86350000D01*
X113165000Y-86432233D01*
X113165000Y-86432236D01*
X113213448Y-86675800D01*
X113397999Y-86952001D01*
X113467720Y-86998587D01*
X114351415Y-87882282D01*
X114397999Y-87952001D01*
X114674199Y-88136552D01*
X114917763Y-88185000D01*
X115000000Y-88201358D01*
X115082237Y-88185000D01*
X120017767Y-88185000D01*
X120100000Y-88201357D01*
X120182233Y-88185000D01*
X120182237Y-88185000D01*
X120425801Y-88136552D01*
X120702001Y-87952001D01*
X120748587Y-87882280D01*
X121995868Y-86635000D01*
X134354133Y-86635000D01*
X136184131Y-88465000D01*
X130382232Y-88465000D01*
X130299999Y-88448643D01*
X130217766Y-88465000D01*
X130217763Y-88465000D01*
X129974199Y-88513448D01*
X129697999Y-88697999D01*
X129651415Y-88767717D01*
X126454133Y-91965000D01*
X126394126Y-91965000D01*
X126013720Y-92122569D01*
X125722569Y-92413720D01*
X125565000Y-92794126D01*
X125565000Y-93205874D01*
X125722569Y-93586280D01*
X126013720Y-93877431D01*
X126225131Y-93965000D01*
X123045868Y-93965000D01*
X120698587Y-91617720D01*
X120652001Y-91547999D01*
X120375801Y-91363448D01*
X120132237Y-91315000D01*
X120132233Y-91315000D01*
X120050000Y-91298643D01*
X119967767Y-91315000D01*
X117610062Y-91315000D01*
X117879451Y-91135000D01*
X125771289Y-91135000D01*
X125813720Y-91177431D01*
X126194126Y-91335000D01*
X126605874Y-91335000D01*
X126986280Y-91177431D01*
X127277431Y-90886280D01*
X127435000Y-90505874D01*
X127435000Y-90094126D01*
X127277431Y-89713720D01*
X126986280Y-89422569D01*
X126605874Y-89265000D01*
X126194126Y-89265000D01*
X125813720Y-89422569D01*
X125771289Y-89465000D01*
X118397620Y-89465000D01*
X118378839Y-89370582D01*
X118050625Y-88879375D01*
X117559418Y-88551161D01*
X117126256Y-88465000D01*
X116833744Y-88465000D01*
X116400582Y-88551161D01*
X115909375Y-88879375D01*
X115710000Y-89177761D01*
X115510625Y-88879375D01*
X115019418Y-88551161D01*
X114586256Y-88465000D01*
X114293744Y-88465000D01*
X113860582Y-88551161D01*
X113369375Y-88879375D01*
X113357184Y-88897619D01*
X113348157Y-88852235D01*
X113207809Y-88642191D01*
X112997765Y-88501843D01*
X112750000Y-88452560D01*
X111050000Y-88452560D01*
X110802235Y-88501843D01*
X110592191Y-88642191D01*
X110451843Y-88852235D01*
X110402560Y-89100000D01*
X109127000Y-89100000D01*
X109127000Y-74165648D01*
X109240000Y-74165648D01*
X109240000Y-75134352D01*
X109610707Y-76029316D01*
X110295684Y-76714293D01*
X111190648Y-77085000D01*
X112159352Y-77085000D01*
X113054316Y-76714293D01*
X113105542Y-76663067D01*
X113377223Y-76775601D01*
X114226579Y-76775601D01*
X115011281Y-76450567D01*
X115611867Y-75849981D01*
X115936901Y-75065279D01*
X115936901Y-74215923D01*
X115611867Y-73431221D01*
X115521247Y-73340601D01*
X117753561Y-73340601D01*
X117753561Y-75940601D01*
X117802844Y-76188366D01*
X117943192Y-76398410D01*
X118153236Y-76538758D01*
X118401001Y-76588041D01*
X120201001Y-76588041D01*
X120448766Y-76538758D01*
X120658810Y-76398410D01*
X120799158Y-76188366D01*
X120804046Y-76163792D01*
X120845395Y-76215813D01*
X121370915Y-76507357D01*
X121476261Y-76531637D01*
X121714001Y-76410979D01*
X121714001Y-74767601D01*
X121694001Y-74767601D01*
X121694001Y-74513601D01*
X121714001Y-74513601D01*
X121714001Y-72870223D01*
X121476261Y-72749565D01*
X121370915Y-72773845D01*
X120845395Y-73065389D01*
X120804046Y-73117410D01*
X120799158Y-73092836D01*
X120658810Y-72882792D01*
X120448766Y-72742444D01*
X120201001Y-72693161D01*
X118401001Y-72693161D01*
X118153236Y-72742444D01*
X117943192Y-72882792D01*
X117802844Y-73092836D01*
X117753561Y-73340601D01*
X115521247Y-73340601D01*
X115011281Y-72830635D01*
X114226579Y-72505601D01*
X113377223Y-72505601D01*
X113092250Y-72623641D01*
X113054316Y-72585707D01*
X112159352Y-72215000D01*
X111190648Y-72215000D01*
X110295684Y-72585707D01*
X109610707Y-73270684D01*
X109240000Y-74165648D01*
X109127000Y-74165648D01*
X109127000Y-72127000D01*
X192733789Y-72127000D01*
X192751843Y-72217765D01*
X192751843Y-72217765D01*
G37*
X192751843Y-72217765D02*
X192892191Y-72427809D01*
X193102235Y-72568157D01*
X193350000Y-72617440D01*
X194350000Y-72617440D01*
X194597765Y-72568157D01*
X194807809Y-72427809D01*
X194948157Y-72217765D01*
X194966211Y-72127000D01*
X195050523Y-72127000D01*
X194915000Y-72454180D01*
X194915000Y-72885820D01*
X194975782Y-73032560D01*
X194900000Y-73032560D01*
X194883720Y-73035798D01*
X194807809Y-72922191D01*
X194597765Y-72781843D01*
X194350000Y-72732560D01*
X193350000Y-72732560D01*
X193102235Y-72781843D01*
X192892191Y-72922191D01*
X192751843Y-73132235D01*
X192702560Y-73380000D01*
X192702560Y-74180000D01*
X192751843Y-74427765D01*
X192892191Y-74637809D01*
X193102235Y-74778157D01*
X193350000Y-74827440D01*
X194252560Y-74827440D01*
X194252560Y-75180000D01*
X194301843Y-75427765D01*
X194442191Y-75637809D01*
X194652235Y-75778157D01*
X194900000Y-75827440D01*
X195565001Y-75827440D01*
X195565001Y-75913631D01*
X195515000Y-76034343D01*
X195515000Y-76525657D01*
X195703018Y-76979571D01*
X196050429Y-77326982D01*
X196504343Y-77515000D01*
X196995657Y-77515000D01*
X197449571Y-77326982D01*
X197796982Y-76979571D01*
X197985000Y-76525657D01*
X197985000Y-76034343D01*
X197935000Y-75913633D01*
X197935000Y-74313290D01*
X197866245Y-73967636D01*
X197747440Y-73789832D01*
X197747440Y-73680000D01*
X197698157Y-73432235D01*
X197557809Y-73222191D01*
X197347765Y-73081843D01*
X197100000Y-73032560D01*
X197024218Y-73032560D01*
X197085000Y-72885820D01*
X197085000Y-72454180D01*
X196949477Y-72127000D01*
X198050523Y-72127000D01*
X197915000Y-72454180D01*
X197915000Y-72885820D01*
X198080182Y-73284603D01*
X198385397Y-73589818D01*
X198752560Y-73741903D01*
X198752560Y-73789832D01*
X198633755Y-73967637D01*
X198565000Y-74313291D01*
X198565001Y-76633631D01*
X198515000Y-76754343D01*
X198515000Y-77245657D01*
X198703018Y-77699571D01*
X199050429Y-78046982D01*
X199504343Y-78235000D01*
X199995657Y-78235000D01*
X200449571Y-78046982D01*
X200796982Y-77699571D01*
X200985000Y-77245657D01*
X200985000Y-76754343D01*
X200935000Y-76633633D01*
X200935000Y-74827440D01*
X201650000Y-74827440D01*
X201897765Y-74778157D01*
X202107809Y-74637809D01*
X202239560Y-74440631D01*
X202239560Y-75134352D01*
X202610267Y-76029316D01*
X203295244Y-76714293D01*
X204190208Y-77085000D01*
X205158912Y-77085000D01*
X206053876Y-76714293D01*
X206738853Y-76029316D01*
X207109560Y-75134352D01*
X207109560Y-74165648D01*
X206738853Y-73270684D01*
X206053876Y-72585707D01*
X205158912Y-72215000D01*
X204190208Y-72215000D01*
X203295244Y-72585707D01*
X202610267Y-73270684D01*
X202297440Y-74025914D01*
X202297440Y-73380000D01*
X202248157Y-73132235D01*
X202107809Y-72922191D01*
X201897765Y-72781843D01*
X201650000Y-72732560D01*
X200650000Y-72732560D01*
X200402235Y-72781843D01*
X200192191Y-72922191D01*
X200116280Y-73035798D01*
X200100000Y-73032560D01*
X200024218Y-73032560D01*
X200085000Y-72885820D01*
X200085000Y-72454180D01*
X199949477Y-72127000D01*
X200033789Y-72127000D01*
X200051843Y-72217765D01*
X200192191Y-72427809D01*
X200402235Y-72568157D01*
X200650000Y-72617440D01*
X201650000Y-72617440D01*
X201897765Y-72568157D01*
X202107809Y-72427809D01*
X202248157Y-72217765D01*
X202266211Y-72127000D01*
X230873000Y-72127000D01*
X230873000Y-132873000D01*
X109127000Y-132873000D01*
X109127000Y-129169348D01*
X109240000Y-129169348D01*
X109240000Y-130138052D01*
X109610707Y-131033016D01*
X110295684Y-131717993D01*
X111190648Y-132088700D01*
X112159352Y-132088700D01*
X113054316Y-131717993D01*
X113739293Y-131033016D01*
X114110000Y-130138052D01*
X114110000Y-129169348D01*
X114052515Y-129030567D01*
X126040000Y-129030567D01*
X126040000Y-129969433D01*
X126399289Y-130836833D01*
X127063167Y-131500711D01*
X127930567Y-131860000D01*
X128869433Y-131860000D01*
X129736833Y-131500711D01*
X130400711Y-130836833D01*
X130760000Y-129969433D01*
X130760000Y-129166808D01*
X202239560Y-129166808D01*
X202239560Y-130135512D01*
X202610267Y-131030476D01*
X203295244Y-131715453D01*
X204190208Y-132086160D01*
X205158912Y-132086160D01*
X206053876Y-131715453D01*
X206738853Y-131030476D01*
X207109560Y-130135512D01*
X207109560Y-129166808D01*
X206738853Y-128271844D01*
X206082114Y-127615105D01*
X210825000Y-127615105D01*
X210825000Y-128384895D01*
X211119586Y-129096090D01*
X211663910Y-129640414D01*
X212375105Y-129935000D01*
X213144895Y-129935000D01*
X213856090Y-129640414D01*
X214400414Y-129096090D01*
X214695000Y-128384895D01*
X214695000Y-127615105D01*
X215905000Y-127615105D01*
X215905000Y-128384895D01*
X216199586Y-129096090D01*
X216743910Y-129640414D01*
X217455105Y-129935000D01*
X218224895Y-129935000D01*
X218936090Y-129640414D01*
X219480414Y-129096090D01*
X219775000Y-128384895D01*
X219775000Y-127615105D01*
X220985000Y-127615105D01*
X220985000Y-128384895D01*
X221279586Y-129096090D01*
X221823910Y-129640414D01*
X222535105Y-129935000D01*
X223304895Y-129935000D01*
X224016090Y-129640414D01*
X224560414Y-129096090D01*
X224855000Y-128384895D01*
X224855000Y-128285750D01*
X226065000Y-128285750D01*
X226065000Y-129426310D01*
X226161673Y-129659699D01*
X226340302Y-129838327D01*
X226573691Y-129935000D01*
X227714250Y-129935000D01*
X227873000Y-129776250D01*
X227873000Y-128127000D01*
X228127000Y-128127000D01*
X228127000Y-129776250D01*
X228285750Y-129935000D01*
X229426309Y-129935000D01*
X229659698Y-129838327D01*
X229838327Y-129659699D01*
X229935000Y-129426310D01*
X229935000Y-128285750D01*
X229776250Y-128127000D01*
X228127000Y-128127000D01*
X227873000Y-128127000D01*
X226223750Y-128127000D01*
X226065000Y-128285750D01*
X224855000Y-128285750D01*
X224855000Y-127615105D01*
X224560414Y-126903910D01*
X224230194Y-126573690D01*
X226065000Y-126573690D01*
X226065000Y-127714250D01*
X226223750Y-127873000D01*
X227873000Y-127873000D01*
X227873000Y-126223750D01*
X228127000Y-126223750D01*
X228127000Y-127873000D01*
X229776250Y-127873000D01*
X229935000Y-127714250D01*
X229935000Y-126573690D01*
X229838327Y-126340301D01*
X229659698Y-126161673D01*
X229426309Y-126065000D01*
X228285750Y-126065000D01*
X228127000Y-126223750D01*
X227873000Y-126223750D01*
X227714250Y-126065000D01*
X226573691Y-126065000D01*
X226340302Y-126161673D01*
X226161673Y-126340301D01*
X226065000Y-126573690D01*
X224230194Y-126573690D01*
X224016090Y-126359586D01*
X223304895Y-126065000D01*
X222535105Y-126065000D01*
X221823910Y-126359586D01*
X221279586Y-126903910D01*
X220985000Y-127615105D01*
X219775000Y-127615105D01*
X219480414Y-126903910D01*
X218936090Y-126359586D01*
X218224895Y-126065000D01*
X217455105Y-126065000D01*
X216743910Y-126359586D01*
X216199586Y-126903910D01*
X215905000Y-127615105D01*
X214695000Y-127615105D01*
X214400414Y-126903910D01*
X213856090Y-126359586D01*
X213144895Y-126065000D01*
X212375105Y-126065000D01*
X211663910Y-126359586D01*
X211119586Y-126903910D01*
X210825000Y-127615105D01*
X206082114Y-127615105D01*
X206053876Y-127586867D01*
X205158912Y-127216160D01*
X204190208Y-127216160D01*
X203295244Y-127586867D01*
X202610267Y-128271844D01*
X202239560Y-129166808D01*
X130760000Y-129166808D01*
X130760000Y-129030567D01*
X130400711Y-128163167D01*
X129736833Y-127499289D01*
X128869433Y-127140000D01*
X127930567Y-127140000D01*
X127063167Y-127499289D01*
X126399289Y-128163167D01*
X126040000Y-129030567D01*
X114052515Y-129030567D01*
X113739293Y-128274384D01*
X113054316Y-127589407D01*
X112159352Y-127218700D01*
X111190648Y-127218700D01*
X110295684Y-127589407D01*
X109610707Y-128274384D01*
X109240000Y-129169348D01*
X109127000Y-129169348D01*
X109127000Y-118325000D01*
X112352560Y-118325000D01*
X112352560Y-124675000D01*
X112401843Y-124922765D01*
X112542191Y-125132809D01*
X112752235Y-125273157D01*
X113000000Y-125322440D01*
X120340000Y-125322440D01*
X120587765Y-125273157D01*
X120797809Y-125132809D01*
X120938157Y-124922765D01*
X120987440Y-124675000D01*
X120987440Y-123385000D01*
X125283084Y-123385000D01*
X125524506Y-123485000D01*
X126075494Y-123485000D01*
X126316916Y-123385000D01*
X160515523Y-123385000D01*
X160642081Y-123410174D01*
X160768639Y-123385000D01*
X161143463Y-123310443D01*
X161568514Y-123026433D01*
X161640205Y-122919140D01*
X166234345Y-118325000D01*
X191012560Y-118325000D01*
X191012560Y-124675000D01*
X191061843Y-124922765D01*
X191202191Y-125132809D01*
X191412235Y-125273157D01*
X191660000Y-125322440D01*
X199000000Y-125322440D01*
X199247765Y-125273157D01*
X199457809Y-125132809D01*
X199598157Y-124922765D01*
X199647440Y-124675000D01*
X199647440Y-120895648D01*
X225635000Y-120895648D01*
X225635000Y-121864352D01*
X226005707Y-122759316D01*
X226690684Y-123444293D01*
X227585648Y-123815000D01*
X228554352Y-123815000D01*
X229449316Y-123444293D01*
X230134293Y-122759316D01*
X230505000Y-121864352D01*
X230505000Y-120895648D01*
X230134293Y-120000684D01*
X229449316Y-119315707D01*
X228554352Y-118945000D01*
X227585648Y-118945000D01*
X226690684Y-119315707D01*
X226005707Y-120000684D01*
X225635000Y-120895648D01*
X199647440Y-120895648D01*
X199647440Y-118325000D01*
X199598157Y-118077235D01*
X199457809Y-117867191D01*
X199247765Y-117726843D01*
X199000000Y-117677560D01*
X191660000Y-117677560D01*
X191412235Y-117726843D01*
X191202191Y-117867191D01*
X191061843Y-118077235D01*
X191012560Y-118325000D01*
X166234345Y-118325000D01*
X167098887Y-117460458D01*
X221630000Y-117460458D01*
X221630000Y-118359542D01*
X221974065Y-119190187D01*
X222609813Y-119825935D01*
X223440458Y-120170000D01*
X224339542Y-120170000D01*
X225170187Y-119825935D01*
X225805935Y-119190187D01*
X226150000Y-118359542D01*
X226150000Y-117460458D01*
X225805935Y-116629813D01*
X225170187Y-115994065D01*
X224339542Y-115650000D01*
X223440458Y-115650000D01*
X222609813Y-115994065D01*
X221974065Y-116629813D01*
X221630000Y-117460458D01*
X167098887Y-117460458D01*
X171528778Y-113030567D01*
X181240000Y-113030567D01*
X181240000Y-113969433D01*
X181599289Y-114836833D01*
X182263167Y-115500711D01*
X183130567Y-115860000D01*
X184069433Y-115860000D01*
X184936833Y-115500711D01*
X185197544Y-115240000D01*
X213592560Y-115240000D01*
X213592560Y-116760000D01*
X213641843Y-117007765D01*
X213782191Y-117217809D01*
X213992235Y-117358157D01*
X214240000Y-117407440D01*
X215760000Y-117407440D01*
X216007765Y-117358157D01*
X216217809Y-117217809D01*
X216358157Y-117007765D01*
X216407440Y-116760000D01*
X216407440Y-115570268D01*
X216749796Y-115912624D01*
X217262517Y-116125000D01*
X217817483Y-116125000D01*
X218330204Y-115912624D01*
X218722624Y-115520204D01*
X218935000Y-115007483D01*
X218935000Y-114452517D01*
X218722624Y-113939796D01*
X218330204Y-113547376D01*
X218119260Y-113460000D01*
X218330204Y-113372624D01*
X218722624Y-112980204D01*
X218935000Y-112467483D01*
X218935000Y-111912517D01*
X218722624Y-111399796D01*
X218330204Y-111007376D01*
X218119260Y-110920000D01*
X218330204Y-110832624D01*
X218722624Y-110440204D01*
X218935000Y-109927483D01*
X218935000Y-109372517D01*
X218722624Y-108859796D01*
X218330204Y-108467376D01*
X217817483Y-108255000D01*
X217262517Y-108255000D01*
X216749796Y-108467376D01*
X216357376Y-108859796D01*
X216145000Y-109372517D01*
X216145000Y-109927483D01*
X216357376Y-110440204D01*
X216749796Y-110832624D01*
X216960740Y-110920000D01*
X216749796Y-111007376D01*
X216357376Y-111399796D01*
X216145000Y-111912517D01*
X216145000Y-112467483D01*
X216357376Y-112980204D01*
X216749796Y-113372624D01*
X216960740Y-113460000D01*
X216749796Y-113547376D01*
X216357376Y-113939796D01*
X216145000Y-114452517D01*
X216145000Y-114733541D01*
X216007765Y-114641843D01*
X215760000Y-114592560D01*
X215755166Y-114592560D01*
X215799159Y-114438764D01*
X215000000Y-113639605D01*
X214200841Y-114438764D01*
X214244834Y-114592560D01*
X214240000Y-114592560D01*
X213992235Y-114641843D01*
X213782191Y-114782191D01*
X213641843Y-114992235D01*
X213592560Y-115240000D01*
X185197544Y-115240000D01*
X185600711Y-114836833D01*
X185960000Y-113969433D01*
X185960000Y-113252780D01*
X213592845Y-113252780D01*
X213620659Y-113807049D01*
X213779258Y-114189941D01*
X214021236Y-114259159D01*
X214820395Y-113460000D01*
X215179605Y-113460000D01*
X215978764Y-114259159D01*
X216220742Y-114189941D01*
X216407155Y-113667220D01*
X216379341Y-113112951D01*
X216220742Y-112730059D01*
X215978764Y-112660841D01*
X215179605Y-113460000D01*
X214820395Y-113460000D01*
X214021236Y-112660841D01*
X213779258Y-112730059D01*
X213592845Y-113252780D01*
X185960000Y-113252780D01*
X185960000Y-113030567D01*
X185600711Y-112163167D01*
X184936833Y-111499289D01*
X184069433Y-111140000D01*
X183130567Y-111140000D01*
X182263167Y-111499289D01*
X181599289Y-112163167D01*
X181240000Y-113030567D01*
X171528778Y-113030567D01*
X173916828Y-110642517D01*
X213605000Y-110642517D01*
X213605000Y-111197483D01*
X213817376Y-111710204D01*
X214209796Y-112102624D01*
X214404859Y-112183422D01*
X214270059Y-112239258D01*
X214200841Y-112481236D01*
X215000000Y-113280395D01*
X215799159Y-112481236D01*
X215729941Y-112239258D01*
X215585069Y-112187594D01*
X215790204Y-112102624D01*
X216182624Y-111710204D01*
X216395000Y-111197483D01*
X216395000Y-110642517D01*
X216182624Y-110129796D01*
X215790204Y-109737376D01*
X215277483Y-109525000D01*
X214722517Y-109525000D01*
X214209796Y-109737376D01*
X213817376Y-110129796D01*
X213605000Y-110642517D01*
X173916828Y-110642517D01*
X179342722Y-105216623D01*
X186665481Y-105216623D01*
X186665481Y-106065979D01*
X186990515Y-106850681D01*
X187591101Y-107451267D01*
X188375803Y-107776301D01*
X189225159Y-107776301D01*
X190009861Y-107451267D01*
X190610447Y-106850681D01*
X190935481Y-106065979D01*
X190935481Y-105216623D01*
X190610447Y-104431921D01*
X190009861Y-103831335D01*
X189225159Y-103506301D01*
X188375803Y-103506301D01*
X187591101Y-103831335D01*
X186990515Y-104431921D01*
X186665481Y-105216623D01*
X179342722Y-105216623D01*
X188179345Y-96380000D01*
X192485908Y-96380000D01*
X192601161Y-96959418D01*
X192929375Y-97450625D01*
X193227761Y-97650000D01*
X192929375Y-97849375D01*
X192601161Y-98340582D01*
X192485908Y-98920000D01*
X192601161Y-99499418D01*
X192929375Y-99990625D01*
X193227761Y-100190000D01*
X192929375Y-100389375D01*
X192601161Y-100880582D01*
X192485908Y-101460000D01*
X192601161Y-102039418D01*
X192929375Y-102530625D01*
X192947619Y-102542816D01*
X192902235Y-102551843D01*
X192692191Y-102692191D01*
X192551843Y-102902235D01*
X192502560Y-103150000D01*
X192502560Y-104850000D01*
X192551843Y-105097765D01*
X192692191Y-105307809D01*
X192902235Y-105448157D01*
X193150000Y-105497440D01*
X194850000Y-105497440D01*
X195097765Y-105448157D01*
X195307809Y-105307809D01*
X195448157Y-105097765D01*
X195497440Y-104850000D01*
X195497440Y-103150000D01*
X195448157Y-102902235D01*
X195307809Y-102692191D01*
X195097765Y-102551843D01*
X195052381Y-102542816D01*
X195070625Y-102530625D01*
X195398839Y-102039418D01*
X195514092Y-101460000D01*
X195398839Y-100880582D01*
X195070625Y-100389375D01*
X194772239Y-100190000D01*
X195070625Y-99990625D01*
X195398839Y-99499418D01*
X195514092Y-98920000D01*
X195510114Y-98900000D01*
X196252560Y-98900000D01*
X196252560Y-102100000D01*
X196301843Y-102347765D01*
X196442191Y-102557809D01*
X196652235Y-102698157D01*
X196900000Y-102747440D01*
X198900000Y-102747440D01*
X199147765Y-102698157D01*
X199357809Y-102557809D01*
X199498157Y-102347765D01*
X199547440Y-102100000D01*
X199547440Y-98900000D01*
X199498157Y-98652235D01*
X199357809Y-98442191D01*
X199147765Y-98301843D01*
X198900000Y-98252560D01*
X196900000Y-98252560D01*
X196652235Y-98301843D01*
X196442191Y-98442191D01*
X196301843Y-98652235D01*
X196252560Y-98900000D01*
X195510114Y-98900000D01*
X195398839Y-98340582D01*
X195070625Y-97849375D01*
X194772239Y-97650000D01*
X195070625Y-97450625D01*
X195161247Y-97315000D01*
X198492711Y-97315000D01*
X200065001Y-98887291D01*
X200065000Y-106122761D01*
X199613914Y-106573847D01*
X199365000Y-107174778D01*
X199365000Y-107825222D01*
X199613914Y-108426153D01*
X200073847Y-108886086D01*
X200674778Y-109135000D01*
X201325222Y-109135000D01*
X201926153Y-108886086D01*
X202386086Y-108426153D01*
X202635000Y-107825222D01*
X202635000Y-107174778D01*
X204365000Y-107174778D01*
X204365000Y-107825222D01*
X204613914Y-108426153D01*
X205073847Y-108886086D01*
X205674778Y-109135000D01*
X206325222Y-109135000D01*
X206926153Y-108886086D01*
X207386086Y-108426153D01*
X207635000Y-107825222D01*
X207635000Y-107300458D01*
X221630000Y-107300458D01*
X221630000Y-108199542D01*
X221974065Y-109030187D01*
X222609813Y-109665935D01*
X223440458Y-110010000D01*
X224339542Y-110010000D01*
X225170187Y-109665935D01*
X225805935Y-109030187D01*
X226150000Y-108199542D01*
X226150000Y-107300458D01*
X225805935Y-106469813D01*
X225170187Y-105834065D01*
X224339542Y-105490000D01*
X223440458Y-105490000D01*
X222609813Y-105834065D01*
X221974065Y-106469813D01*
X221630000Y-107300458D01*
X207635000Y-107300458D01*
X207635000Y-107174778D01*
X207386086Y-106573847D01*
X206926153Y-106113914D01*
X206325222Y-105865000D01*
X205674778Y-105865000D01*
X205073847Y-106113914D01*
X204613914Y-106573847D01*
X204365000Y-107174778D01*
X202635000Y-107174778D01*
X202386086Y-106573847D01*
X201935000Y-106122761D01*
X201935000Y-98900000D01*
X207452560Y-98900000D01*
X207452560Y-102100000D01*
X207501843Y-102347765D01*
X207642191Y-102557809D01*
X207852235Y-102698157D01*
X208100000Y-102747440D01*
X210100000Y-102747440D01*
X210347765Y-102698157D01*
X210557809Y-102557809D01*
X210698157Y-102347765D01*
X210747440Y-102100000D01*
X210747440Y-100960458D01*
X221630000Y-100960458D01*
X221630000Y-101859542D01*
X221974065Y-102690187D01*
X222609813Y-103325935D01*
X223440458Y-103670000D01*
X224339542Y-103670000D01*
X225170187Y-103325935D01*
X225805935Y-102690187D01*
X226150000Y-101859542D01*
X226150000Y-100960458D01*
X225805935Y-100129813D01*
X225170187Y-99494065D01*
X224339542Y-99150000D01*
X223440458Y-99150000D01*
X222609813Y-99494065D01*
X221974065Y-100129813D01*
X221630000Y-100960458D01*
X210747440Y-100960458D01*
X210747440Y-98900000D01*
X210715615Y-98740000D01*
X213592560Y-98740000D01*
X213592560Y-100260000D01*
X213641843Y-100507765D01*
X213782191Y-100717809D01*
X213992235Y-100858157D01*
X214240000Y-100907440D01*
X215760000Y-100907440D01*
X216007765Y-100858157D01*
X216217809Y-100717809D01*
X216358157Y-100507765D01*
X216407440Y-100260000D01*
X216407440Y-99070268D01*
X216749796Y-99412624D01*
X217262517Y-99625000D01*
X217817483Y-99625000D01*
X218330204Y-99412624D01*
X218722624Y-99020204D01*
X218935000Y-98507483D01*
X218935000Y-97952517D01*
X218722624Y-97439796D01*
X218330204Y-97047376D01*
X218119260Y-96960000D01*
X218330204Y-96872624D01*
X218722624Y-96480204D01*
X218935000Y-95967483D01*
X218935000Y-95412517D01*
X218722624Y-94899796D01*
X218330204Y-94507376D01*
X218119260Y-94420000D01*
X218330204Y-94332624D01*
X218722624Y-93940204D01*
X218935000Y-93427483D01*
X218935000Y-92872517D01*
X218722624Y-92359796D01*
X218330204Y-91967376D01*
X217817483Y-91755000D01*
X217262517Y-91755000D01*
X216749796Y-91967376D01*
X216357376Y-92359796D01*
X216145000Y-92872517D01*
X216145000Y-93427483D01*
X216357376Y-93940204D01*
X216749796Y-94332624D01*
X216960740Y-94420000D01*
X216749796Y-94507376D01*
X216357376Y-94899796D01*
X216145000Y-95412517D01*
X216145000Y-95967483D01*
X216357376Y-96480204D01*
X216749796Y-96872624D01*
X216960740Y-96960000D01*
X216749796Y-97047376D01*
X216357376Y-97439796D01*
X216145000Y-97952517D01*
X216145000Y-98233541D01*
X216007765Y-98141843D01*
X215760000Y-98092560D01*
X215755166Y-98092560D01*
X215799159Y-97938764D01*
X215000000Y-97139605D01*
X214200841Y-97938764D01*
X214244834Y-98092560D01*
X214240000Y-98092560D01*
X213992235Y-98141843D01*
X213782191Y-98282191D01*
X213641843Y-98492235D01*
X213592560Y-98740000D01*
X210715615Y-98740000D01*
X210698157Y-98652235D01*
X210557809Y-98442191D01*
X210347765Y-98301843D01*
X210100000Y-98252560D01*
X208100000Y-98252560D01*
X207852235Y-98301843D01*
X207642191Y-98442191D01*
X207501843Y-98652235D01*
X207452560Y-98900000D01*
X201935000Y-98900000D01*
X201935000Y-98592086D01*
X201953317Y-98500000D01*
X201926893Y-98367155D01*
X201880750Y-98135181D01*
X201674097Y-97825903D01*
X201596031Y-97773741D01*
X200575070Y-96752780D01*
X213592845Y-96752780D01*
X213620659Y-97307049D01*
X213779258Y-97689941D01*
X214021236Y-97759159D01*
X214820395Y-96960000D01*
X215179605Y-96960000D01*
X215978764Y-97759159D01*
X216220742Y-97689941D01*
X216407155Y-97167220D01*
X216379341Y-96612951D01*
X216220742Y-96230059D01*
X215978764Y-96160841D01*
X215179605Y-96960000D01*
X214820395Y-96960000D01*
X214021236Y-96160841D01*
X213779258Y-96230059D01*
X213592845Y-96752780D01*
X200575070Y-96752780D01*
X199606261Y-95783972D01*
X199554097Y-95705903D01*
X199244819Y-95499250D01*
X198972086Y-95445000D01*
X198880000Y-95426683D01*
X198787914Y-95445000D01*
X195161247Y-95445000D01*
X195070625Y-95309375D01*
X194579418Y-94981161D01*
X194146256Y-94895000D01*
X193853744Y-94895000D01*
X193420582Y-94981161D01*
X192929375Y-95309375D01*
X192601161Y-95800582D01*
X192485908Y-96380000D01*
X188179345Y-96380000D01*
X191884567Y-92674778D01*
X199365000Y-92674778D01*
X199365000Y-93325222D01*
X199613914Y-93926153D01*
X200073847Y-94386086D01*
X200674778Y-94635000D01*
X201325222Y-94635000D01*
X201926153Y-94386086D01*
X202250000Y-94062239D01*
X202573847Y-94386086D01*
X203174778Y-94635000D01*
X203825222Y-94635000D01*
X204426153Y-94386086D01*
X204466984Y-94345255D01*
X204542191Y-94457809D01*
X204752235Y-94598157D01*
X205000000Y-94647440D01*
X207000000Y-94647440D01*
X207247765Y-94598157D01*
X207457809Y-94457809D01*
X207598157Y-94247765D01*
X207619091Y-94142517D01*
X213605000Y-94142517D01*
X213605000Y-94697483D01*
X213817376Y-95210204D01*
X214209796Y-95602624D01*
X214404859Y-95683422D01*
X214270059Y-95739258D01*
X214200841Y-95981236D01*
X215000000Y-96780395D01*
X215799159Y-95981236D01*
X215729941Y-95739258D01*
X215585069Y-95687594D01*
X215790204Y-95602624D01*
X216182624Y-95210204D01*
X216395000Y-94697483D01*
X216395000Y-94142517D01*
X216182624Y-93629796D01*
X215790204Y-93237376D01*
X215277483Y-93025000D01*
X214722517Y-93025000D01*
X214209796Y-93237376D01*
X213817376Y-93629796D01*
X213605000Y-94142517D01*
X207619091Y-94142517D01*
X207647440Y-94000000D01*
X207647440Y-92000000D01*
X207598157Y-91752235D01*
X207457809Y-91542191D01*
X207247765Y-91401843D01*
X207000000Y-91352560D01*
X205000000Y-91352560D01*
X204752235Y-91401843D01*
X204542191Y-91542191D01*
X204466984Y-91654745D01*
X204426153Y-91613914D01*
X203825222Y-91365000D01*
X203174778Y-91365000D01*
X202573847Y-91613914D01*
X202250000Y-91937761D01*
X201926153Y-91613914D01*
X201325222Y-91365000D01*
X200674778Y-91365000D01*
X200073847Y-91613914D01*
X199613914Y-92073847D01*
X199365000Y-92674778D01*
X191884567Y-92674778D01*
X193758887Y-90800458D01*
X221630000Y-90800458D01*
X221630000Y-91699542D01*
X221974065Y-92530187D01*
X222609813Y-93165935D01*
X223440458Y-93510000D01*
X224339542Y-93510000D01*
X225170187Y-93165935D01*
X225805935Y-92530187D01*
X226150000Y-91699542D01*
X226150000Y-90800458D01*
X225805935Y-89969813D01*
X225170187Y-89334065D01*
X224339542Y-88990000D01*
X223440458Y-88990000D01*
X222609813Y-89334065D01*
X221974065Y-89969813D01*
X221630000Y-90800458D01*
X193758887Y-90800458D01*
X197609143Y-86950203D01*
X197716433Y-86878514D01*
X198000443Y-86453463D01*
X198075000Y-86078639D01*
X198075000Y-86078635D01*
X198100173Y-85952082D01*
X198075000Y-85825529D01*
X198075000Y-84876558D01*
X198100174Y-84750000D01*
X198000443Y-84248618D01*
X197716433Y-83823567D01*
X197291382Y-83539557D01*
X196916558Y-83465000D01*
X196790000Y-83439826D01*
X196303725Y-83536552D01*
X196288618Y-83539557D01*
X195863567Y-83823567D01*
X195579557Y-84248618D01*
X195479826Y-84750000D01*
X195505000Y-84876558D01*
X195505000Y-85419816D01*
X160109817Y-120815000D01*
X126316916Y-120815000D01*
X126075494Y-120715000D01*
X125524506Y-120715000D01*
X125283084Y-120815000D01*
X120987440Y-120815000D01*
X120987440Y-118325000D01*
X120938157Y-118077235D01*
X120797809Y-117867191D01*
X120587765Y-117726843D01*
X120340000Y-117677560D01*
X113000000Y-117677560D01*
X112752235Y-117726843D01*
X112542191Y-117867191D01*
X112401843Y-118077235D01*
X112352560Y-118325000D01*
X109127000Y-118325000D01*
X109127000Y-116794126D01*
X132165000Y-116794126D01*
X132165000Y-117205874D01*
X132322569Y-117586280D01*
X132613720Y-117877431D01*
X132994126Y-118035000D01*
X133342711Y-118035000D01*
X132855142Y-118522569D01*
X132613720Y-118622569D01*
X132322569Y-118913720D01*
X132165000Y-119294126D01*
X132165000Y-119705874D01*
X132322569Y-120086280D01*
X132613720Y-120377431D01*
X132994126Y-120535000D01*
X133405874Y-120535000D01*
X133786280Y-120377431D01*
X134077431Y-120086280D01*
X134177431Y-119844858D01*
X135887290Y-118135000D01*
X159352704Y-118135000D01*
X159594126Y-118235000D01*
X160005874Y-118235000D01*
X160386280Y-118077431D01*
X160677431Y-117786280D01*
X160835000Y-117405874D01*
X160835000Y-116994126D01*
X160677431Y-116613720D01*
X160386280Y-116322569D01*
X160005874Y-116165000D01*
X159594126Y-116165000D01*
X159352704Y-116265000D01*
X159335000Y-116265000D01*
X159335000Y-115994126D01*
X159177431Y-115613720D01*
X158886280Y-115322569D01*
X158505874Y-115165000D01*
X158094126Y-115165000D01*
X157852704Y-115265000D01*
X134092086Y-115265000D01*
X134000000Y-115246683D01*
X133907914Y-115265000D01*
X133635181Y-115319250D01*
X133325903Y-115525903D01*
X133273741Y-115603970D01*
X132855141Y-116022569D01*
X132613720Y-116122569D01*
X132322569Y-116413720D01*
X132165000Y-116794126D01*
X109127000Y-116794126D01*
X109127000Y-113135990D01*
X118240000Y-113135990D01*
X118240000Y-113864010D01*
X118518601Y-114536612D01*
X119033388Y-115051399D01*
X119705990Y-115330000D01*
X120434010Y-115330000D01*
X121106612Y-115051399D01*
X121621399Y-114536612D01*
X121900000Y-113864010D01*
X121900000Y-113135990D01*
X121621399Y-112463388D01*
X121106612Y-111948601D01*
X120434010Y-111670000D01*
X119705990Y-111670000D01*
X119033388Y-111948601D01*
X118518601Y-112463388D01*
X118240000Y-113135990D01*
X109127000Y-113135990D01*
X109127000Y-105216623D01*
X111666901Y-105216623D01*
X111666901Y-106065979D01*
X111991935Y-106850681D01*
X112592521Y-107451267D01*
X113377223Y-107776301D01*
X114226579Y-107776301D01*
X115011281Y-107451267D01*
X115611867Y-106850681D01*
X115936901Y-106065979D01*
X115936901Y-105216623D01*
X115611867Y-104431921D01*
X115011281Y-103831335D01*
X114226579Y-103506301D01*
X113377223Y-103506301D01*
X112592521Y-103831335D01*
X111991935Y-104431921D01*
X111666901Y-105216623D01*
X109127000Y-105216623D01*
X109127000Y-101955456D01*
X109402882Y-102139795D01*
X109755827Y-102210000D01*
X110644173Y-102210000D01*
X110997118Y-102139795D01*
X111397361Y-101872361D01*
X111664795Y-101472118D01*
X111758705Y-101000000D01*
X111664795Y-100527882D01*
X111397361Y-100127639D01*
X110997118Y-99860205D01*
X110644173Y-99790000D01*
X109755827Y-99790000D01*
X109402882Y-99860205D01*
X109127000Y-100044544D01*
X109127000Y-94205456D01*
X109402882Y-94389795D01*
X109755827Y-94460000D01*
X110644173Y-94460000D01*
X110997118Y-94389795D01*
X111397361Y-94122361D01*
X111664795Y-93722118D01*
X111758705Y-93250000D01*
X111664795Y-92777882D01*
X111397361Y-92377639D01*
X110997118Y-92110205D01*
X110644173Y-92040000D01*
X109755827Y-92040000D01*
X109402882Y-92110205D01*
X109127000Y-92294544D01*
X109127000Y-89100000D01*
X110402560Y-89100000D01*
X110402560Y-90800000D01*
X110451843Y-91047765D01*
X110592191Y-91257809D01*
X110802235Y-91398157D01*
X111050000Y-91447440D01*
X112750000Y-91447440D01*
X112997765Y-91398157D01*
X113207809Y-91257809D01*
X113348157Y-91047765D01*
X113357184Y-91002381D01*
X113369375Y-91020625D01*
X113592096Y-91169443D01*
X113653448Y-91477881D01*
X113653449Y-91477882D01*
X113838000Y-91754082D01*
X113907718Y-91800666D01*
X114147052Y-92040000D01*
X113591057Y-92040000D01*
X113194355Y-92118909D01*
X112744495Y-92419495D01*
X112443909Y-92869355D01*
X112338357Y-93400000D01*
X112406639Y-93743279D01*
X112203807Y-93878807D01*
X111975052Y-94221163D01*
X111894724Y-94625000D01*
X111975052Y-95028837D01*
X112203807Y-95371193D01*
X112546163Y-95599948D01*
X112752560Y-95641003D01*
X112752560Y-96050000D01*
X112772451Y-96150000D01*
X112752560Y-96250000D01*
X112752560Y-96700000D01*
X112772451Y-96800000D01*
X112752560Y-96900000D01*
X112752560Y-97350000D01*
X112772451Y-97450000D01*
X112752560Y-97550000D01*
X112752560Y-98000000D01*
X112772451Y-98099999D01*
X112752560Y-98200000D01*
X112752560Y-98608997D01*
X112546163Y-98650052D01*
X112203807Y-98878807D01*
X111975052Y-99221163D01*
X111894724Y-99625000D01*
X111975052Y-100028837D01*
X112203807Y-100371193D01*
X112406639Y-100506721D01*
X112338357Y-100850000D01*
X112443909Y-101380645D01*
X112744495Y-101830505D01*
X113194355Y-102131091D01*
X113591057Y-102210000D01*
X114408943Y-102210000D01*
X114805645Y-102131091D01*
X115255505Y-101830505D01*
X115319319Y-101735000D01*
X115412839Y-101735000D01*
X115500000Y-101752337D01*
X115587161Y-101735000D01*
X115587165Y-101735000D01*
X115845310Y-101683652D01*
X116138049Y-101488049D01*
X116187425Y-101414153D01*
X116564154Y-101037424D01*
X116638049Y-100988049D01*
X116833652Y-100695310D01*
X116885000Y-100437165D01*
X116885000Y-100437161D01*
X116902337Y-100350000D01*
X116885000Y-100262839D01*
X116885000Y-99087159D01*
X116902337Y-98999999D01*
X116885000Y-98912840D01*
X116885000Y-98912835D01*
X116833652Y-98654690D01*
X116638049Y-98361951D01*
X116564153Y-98312575D01*
X116137426Y-97885848D01*
X116088050Y-97811952D01*
X115795311Y-97616349D01*
X115537166Y-97565001D01*
X115537162Y-97565001D01*
X115450001Y-97547664D01*
X115362840Y-97565001D01*
X115347440Y-97565001D01*
X115347440Y-97550000D01*
X115327549Y-97450000D01*
X115347440Y-97350000D01*
X115347440Y-97040045D01*
X115573442Y-97085000D01*
X118567736Y-97085000D01*
X120115001Y-98632266D01*
X120115000Y-102673442D01*
X120089826Y-102800000D01*
X120142502Y-103064818D01*
X120189557Y-103301381D01*
X120473567Y-103726433D01*
X120580860Y-103798124D01*
X124401877Y-107619142D01*
X124473567Y-107726433D01*
X124898618Y-108010443D01*
X125273442Y-108085000D01*
X125273446Y-108085000D01*
X125399999Y-108110173D01*
X125526552Y-108085000D01*
X139482885Y-108085000D01*
X139590001Y-108156573D01*
X139590000Y-110819398D01*
X139590000Y-111330602D01*
X139639383Y-111449825D01*
X139664557Y-111576381D01*
X139736245Y-111683670D01*
X139785629Y-111802894D01*
X139876879Y-111894144D01*
X139948567Y-112001433D01*
X140055857Y-112073122D01*
X140147106Y-112164371D01*
X140266328Y-112213754D01*
X140373618Y-112285443D01*
X140500177Y-112310617D01*
X140619398Y-112360000D01*
X140748442Y-112360000D01*
X140875000Y-112385174D01*
X141001558Y-112360000D01*
X141130602Y-112360000D01*
X141249824Y-112310617D01*
X141376381Y-112285443D01*
X141483670Y-112213755D01*
X141602894Y-112164371D01*
X141694144Y-112073121D01*
X141801433Y-112001433D01*
X141873122Y-111894143D01*
X141964371Y-111802894D01*
X142013754Y-111683672D01*
X142085443Y-111576382D01*
X142110617Y-111449824D01*
X142160000Y-111330602D01*
X142160000Y-108247440D01*
X142900000Y-108247440D01*
X143147765Y-108198157D01*
X143357809Y-108057809D01*
X143498157Y-107847765D01*
X143547440Y-107600000D01*
X143547440Y-106000000D01*
X143652560Y-106000000D01*
X143652560Y-107600000D01*
X143701843Y-107847765D01*
X143842191Y-108057809D01*
X144052235Y-108198157D01*
X144300000Y-108247440D01*
X147300000Y-108247440D01*
X147547765Y-108198157D01*
X147757809Y-108057809D01*
X147898157Y-107847765D01*
X147907084Y-107802887D01*
X147997008Y-107785000D01*
X147997012Y-107785000D01*
X148284328Y-107727849D01*
X148610145Y-107510145D01*
X148665098Y-107427902D01*
X150165569Y-105927431D01*
X150286280Y-105877431D01*
X150577431Y-105586280D01*
X150735000Y-105205874D01*
X150735000Y-104794126D01*
X150577431Y-104413720D01*
X150286280Y-104122569D01*
X149905874Y-103965000D01*
X149494126Y-103965000D01*
X149113720Y-104122569D01*
X148822569Y-104413720D01*
X148772569Y-104534431D01*
X147760613Y-105546387D01*
X147757809Y-105542191D01*
X147547765Y-105401843D01*
X147300000Y-105352560D01*
X144300000Y-105352560D01*
X144052235Y-105401843D01*
X143842191Y-105542191D01*
X143701843Y-105752235D01*
X143652560Y-106000000D01*
X143547440Y-106000000D01*
X143498157Y-105752235D01*
X143357809Y-105542191D01*
X143147765Y-105401843D01*
X142900000Y-105352560D01*
X142769729Y-105352560D01*
X144487289Y-103635000D01*
X172107914Y-103635000D01*
X172200000Y-103653317D01*
X172292086Y-103635000D01*
X172564819Y-103580750D01*
X172874097Y-103374097D01*
X172926261Y-103296028D01*
X193087290Y-83135000D01*
X200525000Y-83135000D01*
X200525000Y-83264183D01*
X200158690Y-83630493D01*
X199925000Y-84194670D01*
X199925000Y-84805330D01*
X200158690Y-85369507D01*
X200590493Y-85801310D01*
X201154670Y-86035000D01*
X201765330Y-86035000D01*
X202329507Y-85801310D01*
X202498725Y-85632092D01*
X202501843Y-85647765D01*
X202642191Y-85857809D01*
X202852235Y-85998157D01*
X203100000Y-86047440D01*
X204900000Y-86047440D01*
X205147765Y-85998157D01*
X205357809Y-85857809D01*
X205498157Y-85647765D01*
X205547440Y-85400000D01*
X205547440Y-85004358D01*
X205698690Y-85369507D01*
X206130493Y-85801310D01*
X206694670Y-86035000D01*
X207305330Y-86035000D01*
X207869507Y-85801310D01*
X208038725Y-85632092D01*
X208041843Y-85647765D01*
X208182191Y-85857809D01*
X208392235Y-85998157D01*
X208640000Y-86047440D01*
X210440000Y-86047440D01*
X210687765Y-85998157D01*
X210897809Y-85857809D01*
X211038157Y-85647765D01*
X211087440Y-85400000D01*
X211087440Y-84960458D01*
X221630000Y-84960458D01*
X221630000Y-85859542D01*
X221974065Y-86690187D01*
X222609813Y-87325935D01*
X223440458Y-87670000D01*
X224339542Y-87670000D01*
X225170187Y-87325935D01*
X225805935Y-86690187D01*
X226150000Y-85859542D01*
X226150000Y-84960458D01*
X225805935Y-84129813D01*
X225170187Y-83494065D01*
X224339542Y-83150000D01*
X223440458Y-83150000D01*
X222609813Y-83494065D01*
X221974065Y-84129813D01*
X221630000Y-84960458D01*
X211087440Y-84960458D01*
X211087440Y-83600000D01*
X211038157Y-83352235D01*
X210897809Y-83142191D01*
X210687765Y-83001843D01*
X210440000Y-82952560D01*
X208640000Y-82952560D01*
X208392235Y-83001843D01*
X208182191Y-83142191D01*
X208041843Y-83352235D01*
X208038725Y-83367908D01*
X207869507Y-83198690D01*
X207305330Y-82965000D01*
X206787290Y-82965000D01*
X205426261Y-81603972D01*
X205374097Y-81525903D01*
X205064819Y-81319250D01*
X204792086Y-81265000D01*
X204700000Y-81246683D01*
X204607914Y-81265000D01*
X201492086Y-81265000D01*
X201400000Y-81246683D01*
X201307914Y-81265000D01*
X192792085Y-81265000D01*
X192699999Y-81246683D01*
X192669549Y-81252740D01*
X193169509Y-80752780D01*
X213592845Y-80752780D01*
X213620659Y-81307049D01*
X213779258Y-81689941D01*
X214021236Y-81759159D01*
X214820395Y-80960000D01*
X215179605Y-80960000D01*
X215978764Y-81759159D01*
X216220742Y-81689941D01*
X216407155Y-81167220D01*
X216379341Y-80612951D01*
X216220742Y-80230059D01*
X215978764Y-80160841D01*
X215179605Y-80960000D01*
X214820395Y-80960000D01*
X214021236Y-80160841D01*
X213779258Y-80230059D01*
X213592845Y-80752780D01*
X193169509Y-80752780D01*
X193287289Y-80635000D01*
X209307914Y-80635000D01*
X209400000Y-80653317D01*
X209492086Y-80635000D01*
X209764819Y-80580750D01*
X210074097Y-80374097D01*
X210126261Y-80296028D01*
X212279772Y-78142517D01*
X213605000Y-78142517D01*
X213605000Y-78697483D01*
X213817376Y-79210204D01*
X214209796Y-79602624D01*
X214404859Y-79683422D01*
X214270059Y-79739258D01*
X214200841Y-79981236D01*
X215000000Y-80780395D01*
X215799159Y-79981236D01*
X215729941Y-79739258D01*
X215585069Y-79687594D01*
X215790204Y-79602624D01*
X216182624Y-79210204D01*
X216395000Y-78697483D01*
X216395000Y-78142517D01*
X216182624Y-77629796D01*
X215790204Y-77237376D01*
X215277483Y-77025000D01*
X214722517Y-77025000D01*
X214209796Y-77237376D01*
X213817376Y-77629796D01*
X213605000Y-78142517D01*
X212279772Y-78142517D01*
X214387290Y-76035000D01*
X216682172Y-76035000D01*
X216357376Y-76359796D01*
X216145000Y-76872517D01*
X216145000Y-77427483D01*
X216357376Y-77940204D01*
X216749796Y-78332624D01*
X216960740Y-78420000D01*
X216749796Y-78507376D01*
X216357376Y-78899796D01*
X216145000Y-79412517D01*
X216145000Y-79967483D01*
X216357376Y-80480204D01*
X216749796Y-80872624D01*
X216960740Y-80960000D01*
X216749796Y-81047376D01*
X216357376Y-81439796D01*
X216145000Y-81952517D01*
X216145000Y-82233541D01*
X216007765Y-82141843D01*
X215760000Y-82092560D01*
X215755166Y-82092560D01*
X215799159Y-81938764D01*
X215000000Y-81139605D01*
X214200841Y-81938764D01*
X214244834Y-82092560D01*
X214240000Y-82092560D01*
X213992235Y-82141843D01*
X213782191Y-82282191D01*
X213641843Y-82492235D01*
X213592560Y-82740000D01*
X213592560Y-84260000D01*
X213641843Y-84507765D01*
X213782191Y-84717809D01*
X213992235Y-84858157D01*
X214240000Y-84907440D01*
X215760000Y-84907440D01*
X216007765Y-84858157D01*
X216217809Y-84717809D01*
X216358157Y-84507765D01*
X216407440Y-84260000D01*
X216407440Y-83070268D01*
X216749796Y-83412624D01*
X217262517Y-83625000D01*
X217817483Y-83625000D01*
X218330204Y-83412624D01*
X218722624Y-83020204D01*
X218935000Y-82507483D01*
X218935000Y-82157289D01*
X220696031Y-80396259D01*
X220774097Y-80344097D01*
X220980750Y-80034819D01*
X221035000Y-79762086D01*
X221035000Y-79762085D01*
X221053317Y-79670000D01*
X221035000Y-79577914D01*
X221035000Y-76492086D01*
X221053317Y-76400000D01*
X220980750Y-76035181D01*
X220925850Y-75953018D01*
X220774097Y-75725903D01*
X220696028Y-75673739D01*
X219822747Y-74800458D01*
X221630000Y-74800458D01*
X221630000Y-75699542D01*
X221974065Y-76530187D01*
X222609813Y-77165935D01*
X223440458Y-77510000D01*
X224339542Y-77510000D01*
X225170187Y-77165935D01*
X225805935Y-76530187D01*
X226150000Y-75699542D01*
X226150000Y-74800458D01*
X225805935Y-73969813D01*
X225170187Y-73334065D01*
X224339542Y-72990000D01*
X223440458Y-72990000D01*
X222609813Y-73334065D01*
X221974065Y-73969813D01*
X221630000Y-74800458D01*
X219822747Y-74800458D01*
X219526261Y-74503972D01*
X219474097Y-74425903D01*
X219164819Y-74219250D01*
X218892086Y-74165000D01*
X218800000Y-74146683D01*
X218707914Y-74165000D01*
X214092081Y-74165000D01*
X213999999Y-74146684D01*
X213907917Y-74165000D01*
X213907914Y-74165000D01*
X213635181Y-74219250D01*
X213325903Y-74425903D01*
X213273741Y-74503969D01*
X212685000Y-75092710D01*
X212685000Y-74215648D01*
X212314293Y-73320684D01*
X211629316Y-72635707D01*
X210734352Y-72265000D01*
X209765648Y-72265000D01*
X208870684Y-72635707D01*
X208185707Y-73320684D01*
X207815000Y-74215648D01*
X207815000Y-75184352D01*
X208185707Y-76079316D01*
X208870684Y-76764293D01*
X209765648Y-77135000D01*
X210642711Y-77135000D01*
X209012711Y-78765000D01*
X192992086Y-78765000D01*
X192900000Y-78746683D01*
X192807914Y-78765000D01*
X192535181Y-78819250D01*
X192225903Y-79025903D01*
X192173739Y-79103972D01*
X186115094Y-85162617D01*
X186147440Y-85000000D01*
X186147440Y-82000000D01*
X186098157Y-81752235D01*
X185957809Y-81542191D01*
X185747765Y-81401843D01*
X185500000Y-81352560D01*
X183900000Y-81352560D01*
X183652235Y-81401843D01*
X183442191Y-81542191D01*
X183301843Y-81752235D01*
X183252560Y-82000000D01*
X183252560Y-85000000D01*
X183301843Y-85247765D01*
X183442191Y-85457809D01*
X183652235Y-85598157D01*
X183900000Y-85647440D01*
X185500000Y-85647440D01*
X185662617Y-85615094D01*
X184212711Y-87065000D01*
X171435000Y-87065000D01*
X171435000Y-85985750D01*
X171276250Y-85827000D01*
X170127000Y-85827000D01*
X170127000Y-85847000D01*
X169873000Y-85847000D01*
X169873000Y-85827000D01*
X168723750Y-85827000D01*
X168565000Y-85985750D01*
X168565000Y-87065000D01*
X151047296Y-87065000D01*
X150805874Y-86965000D01*
X150394126Y-86965000D01*
X150013720Y-87122569D01*
X149722569Y-87413720D01*
X149565000Y-87794126D01*
X149565000Y-88205874D01*
X149722569Y-88586280D01*
X150013720Y-88877431D01*
X150394126Y-89035000D01*
X150805874Y-89035000D01*
X151047296Y-88935000D01*
X184507914Y-88935000D01*
X184600000Y-88953317D01*
X184630450Y-88947260D01*
X171812711Y-101765000D01*
X144192086Y-101765000D01*
X144100000Y-101746683D01*
X144007914Y-101765000D01*
X143735181Y-101819250D01*
X143425903Y-102025903D01*
X143373739Y-102103972D01*
X140803970Y-104673741D01*
X140725904Y-104725903D01*
X140673742Y-104803969D01*
X140673741Y-104803970D01*
X140519250Y-105035182D01*
X140456119Y-105352560D01*
X139900000Y-105352560D01*
X139652235Y-105401843D01*
X139482885Y-105515000D01*
X125932265Y-105515000D01*
X122685000Y-102267736D01*
X122685000Y-98226552D01*
X122685406Y-98224506D01*
X127615000Y-98224506D01*
X127615000Y-98775494D01*
X127825853Y-99284540D01*
X128215460Y-99674147D01*
X128724506Y-99885000D01*
X129275494Y-99885000D01*
X129784540Y-99674147D01*
X130174147Y-99284540D01*
X130385000Y-98775494D01*
X130385000Y-98224506D01*
X132515000Y-98224506D01*
X132515000Y-98775494D01*
X132725853Y-99284540D01*
X133115460Y-99674147D01*
X133624506Y-99885000D01*
X134175494Y-99885000D01*
X134684540Y-99674147D01*
X135074147Y-99284540D01*
X135285000Y-98775494D01*
X135285000Y-98250000D01*
X155102560Y-98250000D01*
X155102560Y-100250000D01*
X155151843Y-100497765D01*
X155292191Y-100707809D01*
X155502235Y-100848157D01*
X155750000Y-100897440D01*
X157750000Y-100897440D01*
X157997765Y-100848157D01*
X158207809Y-100707809D01*
X158348157Y-100497765D01*
X158397440Y-100250000D01*
X158397440Y-98924778D01*
X162715000Y-98924778D01*
X162715000Y-99575222D01*
X162963914Y-100176153D01*
X163423847Y-100636086D01*
X164024778Y-100885000D01*
X164675222Y-100885000D01*
X165276153Y-100636086D01*
X165736086Y-100176153D01*
X165985000Y-99575222D01*
X165985000Y-98924778D01*
X165736086Y-98323847D01*
X165276153Y-97863914D01*
X164675222Y-97615000D01*
X164024778Y-97615000D01*
X163423847Y-97863914D01*
X162963914Y-98323847D01*
X162715000Y-98924778D01*
X158397440Y-98924778D01*
X158397440Y-98250000D01*
X158348157Y-98002235D01*
X158207809Y-97792191D01*
X157997765Y-97651843D01*
X157750000Y-97602560D01*
X155750000Y-97602560D01*
X155502235Y-97651843D01*
X155292191Y-97792191D01*
X155151843Y-98002235D01*
X155102560Y-98250000D01*
X135285000Y-98250000D01*
X135285000Y-98224506D01*
X135074147Y-97715460D01*
X134684540Y-97325853D01*
X134175494Y-97115000D01*
X133624506Y-97115000D01*
X133115460Y-97325853D01*
X132725853Y-97715460D01*
X132515000Y-98224506D01*
X130385000Y-98224506D01*
X130174147Y-97715460D01*
X129784540Y-97325853D01*
X129275494Y-97115000D01*
X128724506Y-97115000D01*
X128215460Y-97325853D01*
X127825853Y-97715460D01*
X127615000Y-98224506D01*
X122685406Y-98224506D01*
X122710173Y-98099999D01*
X122685000Y-97973446D01*
X122685000Y-97973443D01*
X122610443Y-97598619D01*
X122495693Y-97426883D01*
X122398122Y-97280857D01*
X122398121Y-97280856D01*
X122326433Y-97173567D01*
X122219143Y-97101878D01*
X120098124Y-94980859D01*
X120026433Y-94873567D01*
X119601382Y-94589557D01*
X119226558Y-94515000D01*
X119100000Y-94489826D01*
X118973442Y-94515000D01*
X115573442Y-94515000D01*
X115198618Y-94589557D01*
X114773567Y-94873567D01*
X114745882Y-94915000D01*
X114412835Y-94915000D01*
X114224007Y-94952560D01*
X113940120Y-94952560D01*
X113978423Y-94760000D01*
X114408943Y-94760000D01*
X114805645Y-94681091D01*
X115255505Y-94380505D01*
X115556091Y-93930645D01*
X115661643Y-93400000D01*
X115579094Y-92985000D01*
X119704133Y-92985000D01*
X122051415Y-95332283D01*
X122097999Y-95402001D01*
X122323753Y-95552845D01*
X122374199Y-95586552D01*
X122700000Y-95651358D01*
X122782237Y-95635000D01*
X127621289Y-95635000D01*
X127663720Y-95677431D01*
X128044126Y-95835000D01*
X128455874Y-95835000D01*
X128836280Y-95677431D01*
X129127431Y-95386280D01*
X129285000Y-95005874D01*
X129285000Y-94594126D01*
X129232836Y-94468192D01*
X129394126Y-94535000D01*
X129805874Y-94535000D01*
X130186280Y-94377431D01*
X130228711Y-94335000D01*
X142871289Y-94335000D01*
X142888720Y-94352431D01*
X143269126Y-94510000D01*
X143680874Y-94510000D01*
X144061280Y-94352431D01*
X144352431Y-94061280D01*
X144510000Y-93680874D01*
X144510000Y-93269126D01*
X144352431Y-92888720D01*
X144061280Y-92597569D01*
X143680874Y-92440000D01*
X143269126Y-92440000D01*
X142888720Y-92597569D01*
X142821289Y-92665000D01*
X130228711Y-92665000D01*
X130186280Y-92622569D01*
X129805874Y-92465000D01*
X129394126Y-92465000D01*
X129013720Y-92622569D01*
X128722569Y-92913720D01*
X128565000Y-93294126D01*
X128565000Y-93705874D01*
X128617164Y-93831808D01*
X128455874Y-93765000D01*
X128044126Y-93765000D01*
X127663720Y-93922569D01*
X127621289Y-93965000D01*
X126974869Y-93965000D01*
X127186280Y-93877431D01*
X127477431Y-93586280D01*
X127635000Y-93205874D01*
X127635000Y-93145867D01*
X130645868Y-90135000D01*
X136471289Y-90135000D01*
X136513720Y-90177431D01*
X136894126Y-90335000D01*
X137305874Y-90335000D01*
X137686280Y-90177431D01*
X137977431Y-89886280D01*
X138135000Y-89505874D01*
X138135000Y-89235000D01*
X141221289Y-89235000D01*
X141263720Y-89277431D01*
X141644126Y-89435000D01*
X142055874Y-89435000D01*
X142436280Y-89277431D01*
X142727431Y-88986280D01*
X142885000Y-88605874D01*
X142885000Y-88194126D01*
X142727431Y-87813720D01*
X142436280Y-87522569D01*
X142055874Y-87365000D01*
X141644126Y-87365000D01*
X141263720Y-87522569D01*
X141221289Y-87565000D01*
X137645869Y-87565000D01*
X136989822Y-86908953D01*
X137294126Y-87035000D01*
X137705874Y-87035000D01*
X138086280Y-86877431D01*
X138377431Y-86586280D01*
X138535000Y-86205874D01*
X138535000Y-85794126D01*
X138377431Y-85413720D01*
X138086280Y-85122569D01*
X137705874Y-84965000D01*
X137294126Y-84965000D01*
X136913720Y-85122569D01*
X136871289Y-85165000D01*
X136845869Y-85165000D01*
X127908063Y-76227196D01*
X128027674Y-76147274D01*
X128191001Y-75902837D01*
X128354329Y-76147274D01*
X128862075Y-76486539D01*
X129461001Y-76605673D01*
X130059928Y-76486539D01*
X130567674Y-76147274D01*
X130731001Y-75902837D01*
X130894329Y-76147274D01*
X131402075Y-76486539D01*
X132001001Y-76605673D01*
X132321462Y-76541929D01*
X139911816Y-84132284D01*
X139958400Y-84202002D01*
X140234600Y-84386553D01*
X140478164Y-84435001D01*
X140560401Y-84451359D01*
X140642638Y-84435001D01*
X144109907Y-84435001D01*
X144172569Y-84586280D01*
X144463720Y-84877431D01*
X144844126Y-85035000D01*
X145255874Y-85035000D01*
X145636280Y-84877431D01*
X145927431Y-84586280D01*
X146085000Y-84205874D01*
X146085000Y-84073691D01*
X168565000Y-84073691D01*
X168565000Y-85414250D01*
X168723750Y-85573000D01*
X169873000Y-85573000D01*
X169873000Y-83723750D01*
X170127000Y-83723750D01*
X170127000Y-85573000D01*
X171276250Y-85573000D01*
X171435000Y-85414250D01*
X171435000Y-84073691D01*
X171338327Y-83840302D01*
X171159699Y-83661673D01*
X170926310Y-83565000D01*
X170285750Y-83565000D01*
X170127000Y-83723750D01*
X169873000Y-83723750D01*
X169714250Y-83565000D01*
X169073690Y-83565000D01*
X168840301Y-83661673D01*
X168661673Y-83840302D01*
X168565000Y-84073691D01*
X146085000Y-84073691D01*
X146085000Y-83794126D01*
X145998377Y-83585000D01*
X151796289Y-83585000D01*
X151838720Y-83627431D01*
X152219126Y-83785000D01*
X152630874Y-83785000D01*
X153011280Y-83627431D01*
X153302431Y-83336280D01*
X153460000Y-82955874D01*
X153460000Y-82544126D01*
X153302431Y-82163720D01*
X153011280Y-81872569D01*
X152630874Y-81715000D01*
X152219126Y-81715000D01*
X151838720Y-81872569D01*
X151796289Y-81915000D01*
X144595868Y-81915000D01*
X142480868Y-79800000D01*
X168552560Y-79800000D01*
X168552560Y-82800000D01*
X168601843Y-83047765D01*
X168742191Y-83257809D01*
X168952235Y-83398157D01*
X169200000Y-83447440D01*
X170800000Y-83447440D01*
X171047765Y-83398157D01*
X171257809Y-83257809D01*
X171398157Y-83047765D01*
X171447440Y-82800000D01*
X171447440Y-79800000D01*
X171398157Y-79552235D01*
X171257809Y-79342191D01*
X171047765Y-79201843D01*
X171035000Y-79199304D01*
X171035000Y-78794126D01*
X170877431Y-78413720D01*
X170586280Y-78122569D01*
X170205874Y-77965000D01*
X169794126Y-77965000D01*
X169413720Y-78122569D01*
X169122569Y-78413720D01*
X168965000Y-78794126D01*
X168965000Y-79199304D01*
X168952235Y-79201843D01*
X168742191Y-79342191D01*
X168601843Y-79552235D01*
X168552560Y-79800000D01*
X142480868Y-79800000D01*
X139398587Y-76717720D01*
X139352001Y-76647999D01*
X139147781Y-76511544D01*
X139621001Y-76605673D01*
X140219928Y-76486539D01*
X140727674Y-76147274D01*
X140891001Y-75902837D01*
X141054329Y-76147274D01*
X141562075Y-76486539D01*
X142161001Y-76605673D01*
X142759928Y-76486539D01*
X143267674Y-76147274D01*
X143431001Y-75902837D01*
X143594329Y-76147274D01*
X144102075Y-76486539D01*
X144701001Y-76605673D01*
X145299928Y-76486539D01*
X145807674Y-76147274D01*
X145971001Y-75902837D01*
X146134329Y-76147274D01*
X146642075Y-76486539D01*
X147241001Y-76605673D01*
X147839928Y-76486539D01*
X148347674Y-76147274D01*
X148511001Y-75902837D01*
X148674329Y-76147274D01*
X149182075Y-76486539D01*
X149781001Y-76605673D01*
X150379928Y-76486539D01*
X150887674Y-76147274D01*
X151051001Y-75902837D01*
X151214329Y-76147274D01*
X151722075Y-76486539D01*
X152321001Y-76605673D01*
X152919928Y-76486539D01*
X153427674Y-76147274D01*
X153591001Y-75902837D01*
X153754329Y-76147274D01*
X154262075Y-76486539D01*
X154861001Y-76605673D01*
X155459928Y-76486539D01*
X155967674Y-76147274D01*
X156131001Y-75902837D01*
X156294329Y-76147274D01*
X156802075Y-76486539D01*
X157401001Y-76605673D01*
X157999928Y-76486539D01*
X158507674Y-76147274D01*
X158846939Y-75639528D01*
X158936001Y-75191782D01*
X158936001Y-74089419D01*
X158910258Y-73960000D01*
X179485908Y-73960000D01*
X179601161Y-74539418D01*
X179929375Y-75030625D01*
X179947619Y-75042816D01*
X179902235Y-75051843D01*
X179692191Y-75192191D01*
X179551843Y-75402235D01*
X179502560Y-75650000D01*
X179502560Y-77350000D01*
X179551843Y-77597765D01*
X179692191Y-77807809D01*
X179902235Y-77948157D01*
X180150000Y-77997440D01*
X181850000Y-77997440D01*
X182097765Y-77948157D01*
X182307809Y-77807809D01*
X182446663Y-77600000D01*
X183252560Y-77600000D01*
X183252560Y-80600000D01*
X183301843Y-80847765D01*
X183442191Y-81057809D01*
X183652235Y-81198157D01*
X183900000Y-81247440D01*
X185500000Y-81247440D01*
X185747765Y-81198157D01*
X185957809Y-81057809D01*
X186098157Y-80847765D01*
X186147440Y-80600000D01*
X186147440Y-77600000D01*
X186098157Y-77352235D01*
X185957809Y-77142191D01*
X185747765Y-77001843D01*
X185500000Y-76952560D01*
X185267812Y-76952560D01*
X184935711Y-76815000D01*
X184464289Y-76815000D01*
X184132188Y-76952560D01*
X183900000Y-76952560D01*
X183652235Y-77001843D01*
X183442191Y-77142191D01*
X183301843Y-77352235D01*
X183252560Y-77600000D01*
X182446663Y-77600000D01*
X182448157Y-77597765D01*
X182497440Y-77350000D01*
X182497440Y-75650000D01*
X182448157Y-75402235D01*
X182307809Y-75192191D01*
X182097765Y-75051843D01*
X182052381Y-75042816D01*
X182070625Y-75030625D01*
X182398839Y-74539418D01*
X182463185Y-74215923D01*
X186666001Y-74215923D01*
X186666001Y-75065279D01*
X186991035Y-75849981D01*
X187591621Y-76450567D01*
X188376323Y-76775601D01*
X189225679Y-76775601D01*
X190010381Y-76450567D01*
X190610967Y-75849981D01*
X190936001Y-75065279D01*
X190936001Y-74215923D01*
X190610967Y-73431221D01*
X190010381Y-72830635D01*
X189225679Y-72505601D01*
X188376323Y-72505601D01*
X187591621Y-72830635D01*
X186991035Y-73431221D01*
X186666001Y-74215923D01*
X182463185Y-74215923D01*
X182514092Y-73960000D01*
X182398839Y-73380582D01*
X182070625Y-72889375D01*
X181579418Y-72561161D01*
X181146256Y-72475000D01*
X180853744Y-72475000D01*
X180420582Y-72561161D01*
X179929375Y-72889375D01*
X179601161Y-73380582D01*
X179485908Y-73960000D01*
X158910258Y-73960000D01*
X158846939Y-73641674D01*
X158507674Y-73133928D01*
X157999927Y-72794663D01*
X157401001Y-72675529D01*
X156802074Y-72794663D01*
X156294328Y-73133928D01*
X156131001Y-73378364D01*
X155967674Y-73133928D01*
X155459927Y-72794663D01*
X154861001Y-72675529D01*
X154262074Y-72794663D01*
X153754328Y-73133928D01*
X153591001Y-73378364D01*
X153427674Y-73133928D01*
X152919927Y-72794663D01*
X152321001Y-72675529D01*
X151722074Y-72794663D01*
X151214328Y-73133928D01*
X151051001Y-73378364D01*
X150887674Y-73133928D01*
X150379927Y-72794663D01*
X149781001Y-72675529D01*
X149182074Y-72794663D01*
X148674328Y-73133928D01*
X148511001Y-73378364D01*
X148347674Y-73133928D01*
X147839927Y-72794663D01*
X147241001Y-72675529D01*
X146642074Y-72794663D01*
X146134328Y-73133928D01*
X145971001Y-73378364D01*
X145807674Y-73133928D01*
X145299927Y-72794663D01*
X144701001Y-72675529D01*
X144102074Y-72794663D01*
X143594328Y-73133928D01*
X143431001Y-73378364D01*
X143267674Y-73133928D01*
X142759927Y-72794663D01*
X142161001Y-72675529D01*
X141562074Y-72794663D01*
X141054328Y-73133928D01*
X140891001Y-73378364D01*
X140727674Y-73133928D01*
X140219927Y-72794663D01*
X139621001Y-72675529D01*
X139022074Y-72794663D01*
X138514328Y-73133928D01*
X138351001Y-73378364D01*
X138187674Y-73133928D01*
X137679927Y-72794663D01*
X137081001Y-72675529D01*
X136482074Y-72794663D01*
X135974328Y-73133928D01*
X135811001Y-73378364D01*
X135647674Y-73133928D01*
X135139927Y-72794663D01*
X134541001Y-72675529D01*
X133942074Y-72794663D01*
X133434328Y-73133928D01*
X133271001Y-73378364D01*
X133107674Y-73133928D01*
X132599927Y-72794663D01*
X132001001Y-72675529D01*
X131402074Y-72794663D01*
X130894328Y-73133928D01*
X130731001Y-73378364D01*
X130567674Y-73133928D01*
X130059927Y-72794663D01*
X129461001Y-72675529D01*
X128862074Y-72794663D01*
X128354328Y-73133928D01*
X128191001Y-73378364D01*
X128027674Y-73133928D01*
X127519927Y-72794663D01*
X126921001Y-72675529D01*
X126322074Y-72794663D01*
X125814328Y-73133928D01*
X125651001Y-73378364D01*
X125487674Y-73133928D01*
X124979927Y-72794663D01*
X124381001Y-72675529D01*
X123782074Y-72794663D01*
X123274328Y-73133928D01*
X123099299Y-73395879D01*
X122836607Y-73065389D01*
X122311087Y-72773845D01*
X122205741Y-72749565D01*
X121968001Y-72870223D01*
X121968001Y-74513601D01*
X121988001Y-74513601D01*
X121988001Y-74767601D01*
X121968001Y-74767601D01*
X121968001Y-76410979D01*
X122205741Y-76531637D01*
X122311087Y-76507357D01*
X122836607Y-76215813D01*
X123099299Y-75885323D01*
X123274329Y-76147274D01*
X123782075Y-76486539D01*
X124381001Y-76605673D01*
X124979928Y-76486539D01*
X125487674Y-76147274D01*
X125651001Y-75902837D01*
X125814329Y-76147274D01*
X126086001Y-76328799D01*
X126086001Y-76338768D01*
X126069644Y-76421001D01*
X126086001Y-76503234D01*
X126086001Y-76503237D01*
X126134449Y-76746801D01*
X126319000Y-77023002D01*
X126388721Y-77069588D01*
X134284131Y-84965000D01*
X121732232Y-84965000D01*
X121649999Y-84948643D01*
X121567766Y-84965000D01*
X121567763Y-84965000D01*
X121324199Y-85013448D01*
X121047999Y-85197999D01*
X121001415Y-85267717D01*
X119754133Y-86515000D01*
X115345868Y-86515000D01*
X114837357Y-86006490D01*
X115070625Y-85850625D01*
X115270000Y-85552239D01*
X115469375Y-85850625D01*
X115960582Y-86178839D01*
X116393744Y-86265000D01*
X116686256Y-86265000D01*
X117119418Y-86178839D01*
X117610625Y-85850625D01*
X117938839Y-85359418D01*
X118054092Y-84780000D01*
X117938839Y-84200582D01*
X117610625Y-83709375D01*
X117312239Y-83510000D01*
X117610625Y-83310625D01*
X117938839Y-82819418D01*
X118054092Y-82240000D01*
X117938839Y-81660582D01*
X117610625Y-81169375D01*
X117291522Y-80956157D01*
X117421358Y-80895183D01*
X117811645Y-80466924D01*
X117981476Y-80056890D01*
X117860155Y-79827000D01*
X116667000Y-79827000D01*
X116667000Y-79847000D01*
X116413000Y-79847000D01*
X116413000Y-79827000D01*
X116393000Y-79827000D01*
X116393000Y-79573000D01*
X116413000Y-79573000D01*
X116413000Y-78379181D01*
X116667000Y-78379181D01*
X116667000Y-79573000D01*
X117860155Y-79573000D01*
X117981476Y-79343110D01*
X117811645Y-78933076D01*
X117421358Y-78504817D01*
X116896892Y-78258514D01*
X116667000Y-78379181D01*
X116413000Y-78379181D01*
X116183108Y-78258514D01*
X115658642Y-78504817D01*
X115469961Y-78711855D01*
X115448157Y-78602235D01*
X115307809Y-78392191D01*
X115097765Y-78251843D01*
X114850000Y-78202560D01*
X113150000Y-78202560D01*
X112902235Y-78251843D01*
X112692191Y-78392191D01*
X112551843Y-78602235D01*
X112502560Y-78850000D01*
X112502560Y-80550000D01*
X112551843Y-80797765D01*
X112692191Y-81007809D01*
X112902235Y-81148157D01*
X112947619Y-81157184D01*
X112929375Y-81169375D01*
X112601161Y-81660582D01*
X112485908Y-82240000D01*
X112601161Y-82819418D01*
X112929375Y-83310625D01*
X113227761Y-83510000D01*
X112929375Y-83709375D01*
X112601161Y-84200582D01*
X112485908Y-84780000D01*
X112601161Y-85359418D01*
X112929375Y-85850625D01*
X113165000Y-86008065D01*
X113165000Y-86267767D01*
X113148643Y-86350000D01*
X113165000Y-86432233D01*
X113165000Y-86432236D01*
X113213448Y-86675800D01*
X113397999Y-86952001D01*
X113467720Y-86998587D01*
X114351415Y-87882282D01*
X114397999Y-87952001D01*
X114674199Y-88136552D01*
X114917763Y-88185000D01*
X115000000Y-88201358D01*
X115082237Y-88185000D01*
X120017767Y-88185000D01*
X120100000Y-88201357D01*
X120182233Y-88185000D01*
X120182237Y-88185000D01*
X120425801Y-88136552D01*
X120702001Y-87952001D01*
X120748587Y-87882280D01*
X121995868Y-86635000D01*
X134354133Y-86635000D01*
X136184131Y-88465000D01*
X130382232Y-88465000D01*
X130299999Y-88448643D01*
X130217766Y-88465000D01*
X130217763Y-88465000D01*
X129974199Y-88513448D01*
X129697999Y-88697999D01*
X129651415Y-88767717D01*
X126454133Y-91965000D01*
X126394126Y-91965000D01*
X126013720Y-92122569D01*
X125722569Y-92413720D01*
X125565000Y-92794126D01*
X125565000Y-93205874D01*
X125722569Y-93586280D01*
X126013720Y-93877431D01*
X126225131Y-93965000D01*
X123045868Y-93965000D01*
X120698587Y-91617720D01*
X120652001Y-91547999D01*
X120375801Y-91363448D01*
X120132237Y-91315000D01*
X120132233Y-91315000D01*
X120050000Y-91298643D01*
X119967767Y-91315000D01*
X117610062Y-91315000D01*
X117879451Y-91135000D01*
X125771289Y-91135000D01*
X125813720Y-91177431D01*
X126194126Y-91335000D01*
X126605874Y-91335000D01*
X126986280Y-91177431D01*
X127277431Y-90886280D01*
X127435000Y-90505874D01*
X127435000Y-90094126D01*
X127277431Y-89713720D01*
X126986280Y-89422569D01*
X126605874Y-89265000D01*
X126194126Y-89265000D01*
X125813720Y-89422569D01*
X125771289Y-89465000D01*
X118397620Y-89465000D01*
X118378839Y-89370582D01*
X118050625Y-88879375D01*
X117559418Y-88551161D01*
X117126256Y-88465000D01*
X116833744Y-88465000D01*
X116400582Y-88551161D01*
X115909375Y-88879375D01*
X115710000Y-89177761D01*
X115510625Y-88879375D01*
X115019418Y-88551161D01*
X114586256Y-88465000D01*
X114293744Y-88465000D01*
X113860582Y-88551161D01*
X113369375Y-88879375D01*
X113357184Y-88897619D01*
X113348157Y-88852235D01*
X113207809Y-88642191D01*
X112997765Y-88501843D01*
X112750000Y-88452560D01*
X111050000Y-88452560D01*
X110802235Y-88501843D01*
X110592191Y-88642191D01*
X110451843Y-88852235D01*
X110402560Y-89100000D01*
X109127000Y-89100000D01*
X109127000Y-74165648D01*
X109240000Y-74165648D01*
X109240000Y-75134352D01*
X109610707Y-76029316D01*
X110295684Y-76714293D01*
X111190648Y-77085000D01*
X112159352Y-77085000D01*
X113054316Y-76714293D01*
X113105542Y-76663067D01*
X113377223Y-76775601D01*
X114226579Y-76775601D01*
X115011281Y-76450567D01*
X115611867Y-75849981D01*
X115936901Y-75065279D01*
X115936901Y-74215923D01*
X115611867Y-73431221D01*
X115521247Y-73340601D01*
X117753561Y-73340601D01*
X117753561Y-75940601D01*
X117802844Y-76188366D01*
X117943192Y-76398410D01*
X118153236Y-76538758D01*
X118401001Y-76588041D01*
X120201001Y-76588041D01*
X120448766Y-76538758D01*
X120658810Y-76398410D01*
X120799158Y-76188366D01*
X120804046Y-76163792D01*
X120845395Y-76215813D01*
X121370915Y-76507357D01*
X121476261Y-76531637D01*
X121714001Y-76410979D01*
X121714001Y-74767601D01*
X121694001Y-74767601D01*
X121694001Y-74513601D01*
X121714001Y-74513601D01*
X121714001Y-72870223D01*
X121476261Y-72749565D01*
X121370915Y-72773845D01*
X120845395Y-73065389D01*
X120804046Y-73117410D01*
X120799158Y-73092836D01*
X120658810Y-72882792D01*
X120448766Y-72742444D01*
X120201001Y-72693161D01*
X118401001Y-72693161D01*
X118153236Y-72742444D01*
X117943192Y-72882792D01*
X117802844Y-73092836D01*
X117753561Y-73340601D01*
X115521247Y-73340601D01*
X115011281Y-72830635D01*
X114226579Y-72505601D01*
X113377223Y-72505601D01*
X113092250Y-72623641D01*
X113054316Y-72585707D01*
X112159352Y-72215000D01*
X111190648Y-72215000D01*
X110295684Y-72585707D01*
X109610707Y-73270684D01*
X109240000Y-74165648D01*
X109127000Y-74165648D01*
X109127000Y-72127000D01*
X192733789Y-72127000D01*
X192751843Y-72217765D01*
G04 #@! TD*
M02*
