G04 #@! TF.GenerationSoftware,KiCad,Pcbnew,(5.0.1)-3*
G04 #@! TF.CreationDate,2019-05-30T14:31:15+02:00*
G04 #@! TF.ProjectId,SudTempControl,53756454656D70436F6E74726F6C2E6B,rev?*
G04 #@! TF.SameCoordinates,Original*
G04 #@! TF.FileFunction,Legend,Top*
G04 #@! TF.FilePolarity,Positive*
%FSLAX46Y46*%
G04 Gerber Fmt 4.6, Leading zero omitted, Abs format (unit mm)*
G04 Created by KiCad (PCBNEW (5.0.1)-3) date 30.05.2019 14:31:15*
%MOMM*%
%LPD*%
G01*
G04 APERTURE LIST*
%ADD10C,0.120000*%
%ADD11C,0.100000*%
%ADD12C,0.150000*%
G04 APERTURE END LIST*
D10*
G04 #@! TO.C,J3*
X182330000Y-72630000D02*
X179670000Y-72630000D01*
X182330000Y-75230000D02*
X182330000Y-72630000D01*
X179670000Y-75230000D02*
X179670000Y-72630000D01*
X182330000Y-75230000D02*
X179670000Y-75230000D01*
X182330000Y-76500000D02*
X182330000Y-77830000D01*
X182330000Y-77830000D02*
X181000000Y-77830000D01*
G04 #@! TO.C,SW2*
X196100000Y-74120000D02*
X195900000Y-74120000D01*
X198900000Y-69980000D02*
X198700000Y-69770000D01*
X197600000Y-69980000D02*
X197800000Y-69770000D01*
X198900000Y-71270000D02*
X198900000Y-69980000D01*
X198700000Y-69770000D02*
X197800000Y-69770000D01*
X197600000Y-69980000D02*
X197600000Y-71270000D01*
X200350000Y-71270000D02*
X194650000Y-71270000D01*
X199100000Y-74120000D02*
X197400000Y-74120000D01*
X200950000Y-73070000D02*
X200950000Y-72280000D01*
X194050000Y-72280000D02*
X194050000Y-73070000D01*
G04 #@! TO.C,J6*
X118310000Y-91280000D02*
X118310000Y-88620000D01*
X113170000Y-91280000D02*
X118310000Y-91280000D01*
X113170000Y-88620000D02*
X118310000Y-88620000D01*
X113170000Y-91280000D02*
X113170000Y-88620000D01*
X111900000Y-91280000D02*
X110570000Y-91280000D01*
X110570000Y-91280000D02*
X110570000Y-89950000D01*
G04 #@! TO.C,U2*
X114301001Y-102640601D02*
X114301001Y-77640601D01*
X187301001Y-102640601D02*
X114301001Y-102640601D01*
X187301001Y-77640601D02*
X187301001Y-102640601D01*
X114301001Y-77640601D02*
X187301001Y-77640601D01*
X119501661Y-82639061D02*
G75*
G03X119001281Y-83139441I0J-500380D01*
G01*
X119001281Y-97139921D02*
G75*
G03X119501661Y-97640301I500380J0D01*
G01*
X183001661Y-97640301D02*
G75*
G03X183502041Y-97139921I0J500380D01*
G01*
X183501001Y-83140601D02*
G75*
G03X183001001Y-82640601I-500000J0D01*
G01*
X183501001Y-83140601D02*
X183501001Y-97140601D01*
X183001661Y-97640601D02*
X119501001Y-97640601D01*
X119001281Y-97139921D02*
X119001281Y-83140601D01*
X119501001Y-82640601D02*
X183001001Y-82640601D01*
X117801001Y-71640601D02*
X120801001Y-71640601D01*
X111171001Y-72000601D02*
X111961001Y-72000601D01*
X111161001Y-72000601D02*
X111161001Y-108280601D01*
X191441001Y-72000601D02*
X111961001Y-72000601D01*
X191441001Y-108280601D02*
X191441001Y-72000601D01*
X111161001Y-108280601D02*
X191441001Y-108280601D01*
G04 #@! TO.C,C19*
X187460000Y-78540000D02*
X185760000Y-78540000D01*
X181940000Y-78540000D02*
X183640000Y-78540000D01*
X181940000Y-82995563D02*
X181940000Y-78540000D01*
X187460000Y-82995563D02*
X187460000Y-78540000D01*
X186395563Y-84060000D02*
X185760000Y-84060000D01*
X183004437Y-84060000D02*
X183640000Y-84060000D01*
X183004437Y-84060000D02*
X181940000Y-82995563D01*
X186395563Y-84060000D02*
X187460000Y-82995563D01*
X183015000Y-84925000D02*
X183015000Y-84300000D01*
X182702500Y-84612500D02*
X183327500Y-84612500D01*
G04 #@! TO.C,BT1*
X113500000Y-116750000D02*
X113500000Y-114250000D01*
X112250000Y-115500000D02*
X114750000Y-115500000D01*
X199750000Y-115500000D02*
X197250000Y-115500000D01*
X194640000Y-118060000D02*
X194640000Y-111080000D01*
X194640000Y-111060000D02*
X117360000Y-111060000D01*
X117360000Y-111060000D02*
X117360000Y-118060000D01*
X194640000Y-124940000D02*
X194640000Y-131940000D01*
X194640000Y-131940000D02*
X117360000Y-131940000D01*
X117360000Y-131940000D02*
X117360000Y-124940000D01*
X117360000Y-118060000D02*
X113000000Y-118060000D01*
G04 #@! TO.C,C16*
X140287500Y-104802500D02*
X140287500Y-105427500D01*
X139975000Y-105115000D02*
X140600000Y-105115000D01*
X140840000Y-108495563D02*
X141904437Y-109560000D01*
X140840000Y-105104437D02*
X141904437Y-104040000D01*
X140840000Y-105104437D02*
X140840000Y-105740000D01*
X140840000Y-108495563D02*
X140840000Y-107860000D01*
X141904437Y-109560000D02*
X146360000Y-109560000D01*
X141904437Y-104040000D02*
X146360000Y-104040000D01*
X146360000Y-104040000D02*
X146360000Y-105740000D01*
X146360000Y-109560000D02*
X146360000Y-107860000D01*
G04 #@! TO.C,C15*
X172760000Y-80740000D02*
X171060000Y-80740000D01*
X167240000Y-80740000D02*
X168940000Y-80740000D01*
X167240000Y-85195563D02*
X167240000Y-80740000D01*
X172760000Y-85195563D02*
X172760000Y-80740000D01*
X171695563Y-86260000D02*
X171060000Y-86260000D01*
X168304437Y-86260000D02*
X168940000Y-86260000D01*
X168304437Y-86260000D02*
X167240000Y-85195563D01*
X171695563Y-86260000D02*
X172760000Y-85195563D01*
X168315000Y-87125000D02*
X168315000Y-86500000D01*
X168002500Y-86812500D02*
X168627500Y-86812500D01*
G04 #@! TO.C,J2*
X230840000Y-123100000D02*
X230340000Y-123100000D01*
X230840000Y-123840000D02*
X230840000Y-123100000D01*
X213987000Y-126977000D02*
X214034000Y-126931000D01*
X211690000Y-129275000D02*
X211725000Y-129239000D01*
X213794000Y-126761000D02*
X213829000Y-126726000D01*
X211485000Y-129069000D02*
X211532000Y-129023000D01*
X219067000Y-126977000D02*
X219114000Y-126931000D01*
X216770000Y-129275000D02*
X216805000Y-129239000D01*
X218874000Y-126761000D02*
X218909000Y-126726000D01*
X216565000Y-129069000D02*
X216612000Y-129023000D01*
X224147000Y-126977000D02*
X224194000Y-126931000D01*
X221850000Y-129275000D02*
X221885000Y-129239000D01*
X223954000Y-126761000D02*
X223989000Y-126726000D01*
X221645000Y-129069000D02*
X221692000Y-129023000D01*
X210160000Y-133261000D02*
X210160000Y-123340000D01*
X230600000Y-133261000D02*
X230600000Y-123340000D01*
X230600000Y-123340000D02*
X210160000Y-123340000D01*
X230600000Y-133261000D02*
X210160000Y-133261000D01*
X230600000Y-130301000D02*
X210160000Y-130301000D01*
X230600000Y-125400000D02*
X210160000Y-125400000D01*
X230600000Y-123900000D02*
X210160000Y-123900000D01*
X214440000Y-128000000D02*
G75*
G03X214440000Y-128000000I-1680000J0D01*
G01*
X219520000Y-128000000D02*
G75*
G03X219520000Y-128000000I-1680000J0D01*
G01*
X224600000Y-128000000D02*
G75*
G03X224600000Y-128000000I-1680000J0D01*
G01*
X227971195Y-126319747D02*
G75*
G02X228684000Y-126465000I28805J-1680253D01*
G01*
X229535426Y-127316958D02*
G75*
G02X229535000Y-128684000I-1535426J-683042D01*
G01*
X228683042Y-129535426D02*
G75*
G02X227316000Y-129535000I-683042J1535426D01*
G01*
X226464574Y-128683042D02*
G75*
G02X226465000Y-127316000I1535426J683042D01*
G01*
X227316682Y-126465244D02*
G75*
G02X228000000Y-126320000I683318J-1534756D01*
G01*
G04 #@! TO.C,J4*
X195330000Y-105330000D02*
X194000000Y-105330000D01*
X195330000Y-104000000D02*
X195330000Y-105330000D01*
X195330000Y-102730000D02*
X192670000Y-102730000D01*
X192670000Y-102730000D02*
X192670000Y-95050000D01*
X195330000Y-102730000D02*
X195330000Y-95050000D01*
X195330000Y-95050000D02*
X192670000Y-95050000D01*
G04 #@! TO.C,U4*
X213770000Y-86930000D02*
X213770000Y-73730000D01*
X213770000Y-73730000D02*
X222790000Y-73730000D01*
D11*
X231650000Y-73730000D02*
X231770000Y-73730000D01*
D10*
X231770000Y-73730000D02*
X224990000Y-73730000D01*
D11*
X231760000Y-73730000D02*
X231770000Y-73730000D01*
D10*
X231770000Y-73730000D02*
X231770000Y-86930000D01*
X231770000Y-86930000D02*
X224990000Y-86930000D01*
D11*
X222720000Y-86930000D02*
X222790000Y-86930000D01*
D10*
X222790000Y-86930000D02*
X213770000Y-86930000D01*
X215770000Y-87400000D02*
X214240000Y-87400000D01*
G04 #@! TO.C,U5*
X213770000Y-102930000D02*
X213770000Y-89730000D01*
X213770000Y-89730000D02*
X222790000Y-89730000D01*
D11*
X231650000Y-89730000D02*
X231770000Y-89730000D01*
D10*
X231770000Y-89730000D02*
X224990000Y-89730000D01*
D11*
X231760000Y-89730000D02*
X231770000Y-89730000D01*
D10*
X231770000Y-89730000D02*
X231770000Y-102930000D01*
X231770000Y-102930000D02*
X224990000Y-102930000D01*
D11*
X222720000Y-102930000D02*
X222790000Y-102930000D01*
D10*
X222790000Y-102930000D02*
X213770000Y-102930000D01*
X215770000Y-103400000D02*
X214240000Y-103400000D01*
G04 #@! TO.C,U6*
X213770000Y-119430000D02*
X213770000Y-106230000D01*
X213770000Y-106230000D02*
X222790000Y-106230000D01*
D11*
X231650000Y-106230000D02*
X231770000Y-106230000D01*
D10*
X231770000Y-106230000D02*
X224990000Y-106230000D01*
D11*
X231760000Y-106230000D02*
X231770000Y-106230000D01*
D10*
X231770000Y-106230000D02*
X231770000Y-119430000D01*
X231770000Y-119430000D02*
X224990000Y-119430000D01*
D11*
X222720000Y-119430000D02*
X222790000Y-119430000D01*
D10*
X222790000Y-119430000D02*
X213770000Y-119430000D01*
X215770000Y-119900000D02*
X214240000Y-119900000D01*
D12*
G04 #@! TO.C,J5*
X114550000Y-98925000D02*
X114550000Y-99925000D01*
X114550000Y-95325000D02*
X114550000Y-94325000D01*
X114975000Y-95325000D02*
X114550000Y-95325000D01*
X114975000Y-96050000D02*
X114975000Y-95325000D01*
X111400000Y-101275000D02*
X112800000Y-101275000D01*
X108850000Y-101275000D02*
X109000000Y-101275000D01*
X108850000Y-100975000D02*
X108850000Y-101275000D01*
X108400000Y-100975000D02*
X108850000Y-100975000D01*
X108850000Y-93275000D02*
X108400000Y-93275000D01*
X108850000Y-92975000D02*
X108850000Y-93275000D01*
X109000000Y-92975000D02*
X108850000Y-92975000D01*
X112800000Y-92975000D02*
X111400000Y-92975000D01*
D10*
G04 #@! TO.C,J1*
X112670000Y-78370000D02*
X114000000Y-78370000D01*
X112670000Y-79700000D02*
X112670000Y-78370000D01*
X115270000Y-78370000D02*
X117870000Y-78370000D01*
X115270000Y-80970000D02*
X115270000Y-78370000D01*
X112670000Y-80970000D02*
X115270000Y-80970000D01*
X117870000Y-78370000D02*
X117870000Y-86110000D01*
X112670000Y-80970000D02*
X112670000Y-86110000D01*
X112670000Y-86110000D02*
X117870000Y-86110000D01*
G04 #@! TO.C,Y1*
X134575000Y-101025000D02*
G75*
G03X134575000Y-95975000I0J2525000D01*
G01*
X128325000Y-101025000D02*
G75*
G02X128325000Y-95975000I0J2525000D01*
G01*
X128325000Y-101025000D02*
X134575000Y-101025000D01*
X128325000Y-95975000D02*
X134575000Y-95975000D01*
G04 #@! TO.C,D3*
X204290000Y-83420000D02*
X204290000Y-83264000D01*
X204290000Y-85736000D02*
X204290000Y-85580000D01*
X201688870Y-83420163D02*
G75*
G02X203770961Y-83420000I1041130J-1079837D01*
G01*
X201688870Y-85579837D02*
G75*
G03X203770961Y-85580000I1041130J1079837D01*
G01*
X201057665Y-83421392D02*
G75*
G02X204290000Y-83264484I1672335J-1078608D01*
G01*
X201057665Y-85578608D02*
G75*
G03X204290000Y-85735516I1672335J1078608D01*
G01*
G04 #@! TO.C,D2*
X209830000Y-83420000D02*
X209830000Y-83264000D01*
X209830000Y-85736000D02*
X209830000Y-85580000D01*
X207228870Y-83420163D02*
G75*
G02X209310961Y-83420000I1041130J-1079837D01*
G01*
X207228870Y-85579837D02*
G75*
G03X209310961Y-85580000I1041130J1079837D01*
G01*
X206597665Y-83421392D02*
G75*
G02X209830000Y-83264484I1672335J-1078608D01*
G01*
X206597665Y-85578608D02*
G75*
G03X209830000Y-85735516I1672335J1078608D01*
G01*
G04 #@! TO.C,SW1*
X206500000Y-100500000D02*
G75*
G03X206500000Y-100500000I-3000000J0D01*
G01*
X209400000Y-102500000D02*
X209400000Y-106600000D01*
X197600000Y-106600000D02*
X197600000Y-102500000D01*
X197600000Y-98500000D02*
X197600000Y-94400000D01*
X209400000Y-98500000D02*
X209400000Y-94400000D01*
X209400000Y-94400000D02*
X197600000Y-94400000D01*
X207300000Y-93000000D02*
X207600000Y-92700000D01*
X207600000Y-92700000D02*
X207600000Y-93300000D01*
X207600000Y-93300000D02*
X207300000Y-93000000D01*
X209400000Y-106600000D02*
X207000000Y-106600000D01*
X204800000Y-106600000D02*
X202200000Y-106600000D01*
X200000000Y-106600000D02*
X197600000Y-106600000D01*
X204000000Y-100500000D02*
X203000000Y-100500000D01*
X203500000Y-100000000D02*
X203500000Y-101000000D01*
G04 #@! TO.C,J3*
D12*
X180666666Y-78282380D02*
X180666666Y-78996666D01*
X180619047Y-79139523D01*
X180523809Y-79234761D01*
X180380952Y-79282380D01*
X180285714Y-79282380D01*
X181047619Y-78282380D02*
X181666666Y-78282380D01*
X181333333Y-78663333D01*
X181476190Y-78663333D01*
X181571428Y-78710952D01*
X181619047Y-78758571D01*
X181666666Y-78853809D01*
X181666666Y-79091904D01*
X181619047Y-79187142D01*
X181571428Y-79234761D01*
X181476190Y-79282380D01*
X181190476Y-79282380D01*
X181095238Y-79234761D01*
X181047619Y-79187142D01*
G04 #@! TO.C,SW2*
X196166666Y-76604761D02*
X196309523Y-76652380D01*
X196547619Y-76652380D01*
X196642857Y-76604761D01*
X196690476Y-76557142D01*
X196738095Y-76461904D01*
X196738095Y-76366666D01*
X196690476Y-76271428D01*
X196642857Y-76223809D01*
X196547619Y-76176190D01*
X196357142Y-76128571D01*
X196261904Y-76080952D01*
X196214285Y-76033333D01*
X196166666Y-75938095D01*
X196166666Y-75842857D01*
X196214285Y-75747619D01*
X196261904Y-75700000D01*
X196357142Y-75652380D01*
X196595238Y-75652380D01*
X196738095Y-75700000D01*
X197071428Y-75652380D02*
X197309523Y-76652380D01*
X197500000Y-75938095D01*
X197690476Y-76652380D01*
X197928571Y-75652380D01*
X198261904Y-75747619D02*
X198309523Y-75700000D01*
X198404761Y-75652380D01*
X198642857Y-75652380D01*
X198738095Y-75700000D01*
X198785714Y-75747619D01*
X198833333Y-75842857D01*
X198833333Y-75938095D01*
X198785714Y-76080952D01*
X198214285Y-76652380D01*
X198833333Y-76652380D01*
G04 #@! TO.C,J6*
X108902380Y-90283333D02*
X109616666Y-90283333D01*
X109759523Y-90330952D01*
X109854761Y-90426190D01*
X109902380Y-90569047D01*
X109902380Y-90664285D01*
X108902380Y-89378571D02*
X108902380Y-89569047D01*
X108950000Y-89664285D01*
X108997619Y-89711904D01*
X109140476Y-89807142D01*
X109330952Y-89854761D01*
X109711904Y-89854761D01*
X109807142Y-89807142D01*
X109854761Y-89759523D01*
X109902380Y-89664285D01*
X109902380Y-89473809D01*
X109854761Y-89378571D01*
X109807142Y-89330952D01*
X109711904Y-89283333D01*
X109473809Y-89283333D01*
X109378571Y-89330952D01*
X109330952Y-89378571D01*
X109283333Y-89473809D01*
X109283333Y-89664285D01*
X109330952Y-89759523D01*
X109378571Y-89807142D01*
X109473809Y-89854761D01*
G04 #@! TO.C,U2*
X115888095Y-73002380D02*
X115888095Y-73811904D01*
X115935714Y-73907142D01*
X115983333Y-73954761D01*
X116078571Y-74002380D01*
X116269047Y-74002380D01*
X116364285Y-73954761D01*
X116411904Y-73907142D01*
X116459523Y-73811904D01*
X116459523Y-73002380D01*
X116888095Y-73097619D02*
X116935714Y-73050000D01*
X117030952Y-73002380D01*
X117269047Y-73002380D01*
X117364285Y-73050000D01*
X117411904Y-73097619D01*
X117459523Y-73192857D01*
X117459523Y-73288095D01*
X117411904Y-73430952D01*
X116840476Y-74002380D01*
X117459523Y-74002380D01*
G04 #@! TO.C,C19*
X181357142Y-80092857D02*
X181404761Y-80140476D01*
X181452380Y-80283333D01*
X181452380Y-80378571D01*
X181404761Y-80521428D01*
X181309523Y-80616666D01*
X181214285Y-80664285D01*
X181023809Y-80711904D01*
X180880952Y-80711904D01*
X180690476Y-80664285D01*
X180595238Y-80616666D01*
X180500000Y-80521428D01*
X180452380Y-80378571D01*
X180452380Y-80283333D01*
X180500000Y-80140476D01*
X180547619Y-80092857D01*
X181452380Y-79140476D02*
X181452380Y-79711904D01*
X181452380Y-79426190D02*
X180452380Y-79426190D01*
X180595238Y-79521428D01*
X180690476Y-79616666D01*
X180738095Y-79711904D01*
X181452380Y-78664285D02*
X181452380Y-78473809D01*
X181404761Y-78378571D01*
X181357142Y-78330952D01*
X181214285Y-78235714D01*
X181023809Y-78188095D01*
X180642857Y-78188095D01*
X180547619Y-78235714D01*
X180500000Y-78283333D01*
X180452380Y-78378571D01*
X180452380Y-78569047D01*
X180500000Y-78664285D01*
X180547619Y-78711904D01*
X180642857Y-78759523D01*
X180880952Y-78759523D01*
X180976190Y-78711904D01*
X181023809Y-78664285D01*
X181071428Y-78569047D01*
X181071428Y-78378571D01*
X181023809Y-78283333D01*
X180976190Y-78235714D01*
X180880952Y-78188095D01*
G04 #@! TO.C,BT1*
X155214285Y-109928571D02*
X155357142Y-109976190D01*
X155404761Y-110023809D01*
X155452380Y-110119047D01*
X155452380Y-110261904D01*
X155404761Y-110357142D01*
X155357142Y-110404761D01*
X155261904Y-110452380D01*
X154880952Y-110452380D01*
X154880952Y-109452380D01*
X155214285Y-109452380D01*
X155309523Y-109500000D01*
X155357142Y-109547619D01*
X155404761Y-109642857D01*
X155404761Y-109738095D01*
X155357142Y-109833333D01*
X155309523Y-109880952D01*
X155214285Y-109928571D01*
X154880952Y-109928571D01*
X155738095Y-109452380D02*
X156309523Y-109452380D01*
X156023809Y-110452380D02*
X156023809Y-109452380D01*
X157166666Y-110452380D02*
X156595238Y-110452380D01*
X156880952Y-110452380D02*
X156880952Y-109452380D01*
X156785714Y-109595238D01*
X156690476Y-109690476D01*
X156595238Y-109738095D01*
G04 #@! TO.C,C16*
X142957142Y-103457142D02*
X142909523Y-103504761D01*
X142766666Y-103552380D01*
X142671428Y-103552380D01*
X142528571Y-103504761D01*
X142433333Y-103409523D01*
X142385714Y-103314285D01*
X142338095Y-103123809D01*
X142338095Y-102980952D01*
X142385714Y-102790476D01*
X142433333Y-102695238D01*
X142528571Y-102600000D01*
X142671428Y-102552380D01*
X142766666Y-102552380D01*
X142909523Y-102600000D01*
X142957142Y-102647619D01*
X143909523Y-103552380D02*
X143338095Y-103552380D01*
X143623809Y-103552380D02*
X143623809Y-102552380D01*
X143528571Y-102695238D01*
X143433333Y-102790476D01*
X143338095Y-102838095D01*
X144766666Y-102552380D02*
X144576190Y-102552380D01*
X144480952Y-102600000D01*
X144433333Y-102647619D01*
X144338095Y-102790476D01*
X144290476Y-102980952D01*
X144290476Y-103361904D01*
X144338095Y-103457142D01*
X144385714Y-103504761D01*
X144480952Y-103552380D01*
X144671428Y-103552380D01*
X144766666Y-103504761D01*
X144814285Y-103457142D01*
X144861904Y-103361904D01*
X144861904Y-103123809D01*
X144814285Y-103028571D01*
X144766666Y-102980952D01*
X144671428Y-102933333D01*
X144480952Y-102933333D01*
X144385714Y-102980952D01*
X144338095Y-103028571D01*
X144290476Y-103123809D01*
G04 #@! TO.C,C15*
X167607142Y-87892857D02*
X167654761Y-87940476D01*
X167702380Y-88083333D01*
X167702380Y-88178571D01*
X167654761Y-88321428D01*
X167559523Y-88416666D01*
X167464285Y-88464285D01*
X167273809Y-88511904D01*
X167130952Y-88511904D01*
X166940476Y-88464285D01*
X166845238Y-88416666D01*
X166750000Y-88321428D01*
X166702380Y-88178571D01*
X166702380Y-88083333D01*
X166750000Y-87940476D01*
X166797619Y-87892857D01*
X167702380Y-86940476D02*
X167702380Y-87511904D01*
X167702380Y-87226190D02*
X166702380Y-87226190D01*
X166845238Y-87321428D01*
X166940476Y-87416666D01*
X166988095Y-87511904D01*
X166702380Y-86035714D02*
X166702380Y-86511904D01*
X167178571Y-86559523D01*
X167130952Y-86511904D01*
X167083333Y-86416666D01*
X167083333Y-86178571D01*
X167130952Y-86083333D01*
X167178571Y-86035714D01*
X167273809Y-85988095D01*
X167511904Y-85988095D01*
X167607142Y-86035714D01*
X167654761Y-86083333D01*
X167702380Y-86178571D01*
X167702380Y-86416666D01*
X167654761Y-86511904D01*
X167607142Y-86559523D01*
G04 #@! TO.C,J2*
X219966666Y-130802380D02*
X219966666Y-131516666D01*
X219919047Y-131659523D01*
X219823809Y-131754761D01*
X219680952Y-131802380D01*
X219585714Y-131802380D01*
X220395238Y-130897619D02*
X220442857Y-130850000D01*
X220538095Y-130802380D01*
X220776190Y-130802380D01*
X220871428Y-130850000D01*
X220919047Y-130897619D01*
X220966666Y-130992857D01*
X220966666Y-131088095D01*
X220919047Y-131230952D01*
X220347619Y-131802380D01*
X220966666Y-131802380D01*
G04 #@! TO.C,J4*
X193666666Y-105782380D02*
X193666666Y-106496666D01*
X193619047Y-106639523D01*
X193523809Y-106734761D01*
X193380952Y-106782380D01*
X193285714Y-106782380D01*
X194571428Y-106115714D02*
X194571428Y-106782380D01*
X194333333Y-105734761D02*
X194095238Y-106449047D01*
X194714285Y-106449047D01*
G04 #@! TO.C,U4*
X212292380Y-85931904D02*
X213101904Y-85931904D01*
X213197142Y-85884285D01*
X213244761Y-85836666D01*
X213292380Y-85741428D01*
X213292380Y-85550952D01*
X213244761Y-85455714D01*
X213197142Y-85408095D01*
X213101904Y-85360476D01*
X212292380Y-85360476D01*
X212625714Y-84455714D02*
X213292380Y-84455714D01*
X212244761Y-84693809D02*
X212959047Y-84931904D01*
X212959047Y-84312857D01*
G04 #@! TO.C,U5*
X212292380Y-101931904D02*
X213101904Y-101931904D01*
X213197142Y-101884285D01*
X213244761Y-101836666D01*
X213292380Y-101741428D01*
X213292380Y-101550952D01*
X213244761Y-101455714D01*
X213197142Y-101408095D01*
X213101904Y-101360476D01*
X212292380Y-101360476D01*
X212292380Y-100408095D02*
X212292380Y-100884285D01*
X212768571Y-100931904D01*
X212720952Y-100884285D01*
X212673333Y-100789047D01*
X212673333Y-100550952D01*
X212720952Y-100455714D01*
X212768571Y-100408095D01*
X212863809Y-100360476D01*
X213101904Y-100360476D01*
X213197142Y-100408095D01*
X213244761Y-100455714D01*
X213292380Y-100550952D01*
X213292380Y-100789047D01*
X213244761Y-100884285D01*
X213197142Y-100931904D01*
G04 #@! TO.C,U6*
X212292380Y-118431904D02*
X213101904Y-118431904D01*
X213197142Y-118384285D01*
X213244761Y-118336666D01*
X213292380Y-118241428D01*
X213292380Y-118050952D01*
X213244761Y-117955714D01*
X213197142Y-117908095D01*
X213101904Y-117860476D01*
X212292380Y-117860476D01*
X212292380Y-116955714D02*
X212292380Y-117146190D01*
X212340000Y-117241428D01*
X212387619Y-117289047D01*
X212530476Y-117384285D01*
X212720952Y-117431904D01*
X213101904Y-117431904D01*
X213197142Y-117384285D01*
X213244761Y-117336666D01*
X213292380Y-117241428D01*
X213292380Y-117050952D01*
X213244761Y-116955714D01*
X213197142Y-116908095D01*
X213101904Y-116860476D01*
X212863809Y-116860476D01*
X212768571Y-116908095D01*
X212720952Y-116955714D01*
X212673333Y-117050952D01*
X212673333Y-117241428D01*
X212720952Y-117336666D01*
X212768571Y-117384285D01*
X212863809Y-117431904D01*
G04 #@! TO.C,J5*
X115102380Y-97458333D02*
X115816666Y-97458333D01*
X115959523Y-97505952D01*
X116054761Y-97601190D01*
X116102380Y-97744047D01*
X116102380Y-97839285D01*
X115102380Y-96505952D02*
X115102380Y-96982142D01*
X115578571Y-97029761D01*
X115530952Y-96982142D01*
X115483333Y-96886904D01*
X115483333Y-96648809D01*
X115530952Y-96553571D01*
X115578571Y-96505952D01*
X115673809Y-96458333D01*
X115911904Y-96458333D01*
X116007142Y-96505952D01*
X116054761Y-96553571D01*
X116102380Y-96648809D01*
X116102380Y-96886904D01*
X116054761Y-96982142D01*
X116007142Y-97029761D01*
G04 #@! TO.C,J1*
X112716666Y-76652380D02*
X112716666Y-77366666D01*
X112669047Y-77509523D01*
X112573809Y-77604761D01*
X112430952Y-77652380D01*
X112335714Y-77652380D01*
X113716666Y-77652380D02*
X113145238Y-77652380D01*
X113430952Y-77652380D02*
X113430952Y-76652380D01*
X113335714Y-76795238D01*
X113240476Y-76890476D01*
X113145238Y-76938095D01*
G04 #@! TO.C,Y1*
X130973809Y-94951190D02*
X130973809Y-95427380D01*
X130640476Y-94427380D02*
X130973809Y-94951190D01*
X131307142Y-94427380D01*
X132164285Y-95427380D02*
X131592857Y-95427380D01*
X131878571Y-95427380D02*
X131878571Y-94427380D01*
X131783333Y-94570238D01*
X131688095Y-94665476D01*
X131592857Y-94713095D01*
G04 #@! TO.C,D3*
X201991904Y-87912380D02*
X201991904Y-86912380D01*
X202230000Y-86912380D01*
X202372857Y-86960000D01*
X202468095Y-87055238D01*
X202515714Y-87150476D01*
X202563333Y-87340952D01*
X202563333Y-87483809D01*
X202515714Y-87674285D01*
X202468095Y-87769523D01*
X202372857Y-87864761D01*
X202230000Y-87912380D01*
X201991904Y-87912380D01*
X202896666Y-86912380D02*
X203515714Y-86912380D01*
X203182380Y-87293333D01*
X203325238Y-87293333D01*
X203420476Y-87340952D01*
X203468095Y-87388571D01*
X203515714Y-87483809D01*
X203515714Y-87721904D01*
X203468095Y-87817142D01*
X203420476Y-87864761D01*
X203325238Y-87912380D01*
X203039523Y-87912380D01*
X202944285Y-87864761D01*
X202896666Y-87817142D01*
G04 #@! TO.C,D2*
X207531904Y-87912380D02*
X207531904Y-86912380D01*
X207770000Y-86912380D01*
X207912857Y-86960000D01*
X208008095Y-87055238D01*
X208055714Y-87150476D01*
X208103333Y-87340952D01*
X208103333Y-87483809D01*
X208055714Y-87674285D01*
X208008095Y-87769523D01*
X207912857Y-87864761D01*
X207770000Y-87912380D01*
X207531904Y-87912380D01*
X208484285Y-87007619D02*
X208531904Y-86960000D01*
X208627142Y-86912380D01*
X208865238Y-86912380D01*
X208960476Y-86960000D01*
X209008095Y-87007619D01*
X209055714Y-87102857D01*
X209055714Y-87198095D01*
X209008095Y-87340952D01*
X208436666Y-87912380D01*
X209055714Y-87912380D01*
G04 #@! TO.C,SW1*
X211104761Y-97133333D02*
X211152380Y-96990476D01*
X211152380Y-96752380D01*
X211104761Y-96657142D01*
X211057142Y-96609523D01*
X210961904Y-96561904D01*
X210866666Y-96561904D01*
X210771428Y-96609523D01*
X210723809Y-96657142D01*
X210676190Y-96752380D01*
X210628571Y-96942857D01*
X210580952Y-97038095D01*
X210533333Y-97085714D01*
X210438095Y-97133333D01*
X210342857Y-97133333D01*
X210247619Y-97085714D01*
X210200000Y-97038095D01*
X210152380Y-96942857D01*
X210152380Y-96704761D01*
X210200000Y-96561904D01*
X210152380Y-96228571D02*
X211152380Y-95990476D01*
X210438095Y-95800000D01*
X211152380Y-95609523D01*
X210152380Y-95371428D01*
X211152380Y-94466666D02*
X211152380Y-95038095D01*
X211152380Y-94752380D02*
X210152380Y-94752380D01*
X210295238Y-94847619D01*
X210390476Y-94942857D01*
X210438095Y-95038095D01*
G04 #@! TD*
M02*
