G04 #@! TF.GenerationSoftware,KiCad,Pcbnew,(5.0.1)-3*
G04 #@! TF.CreationDate,2019-05-30T12:56:38+02:00*
G04 #@! TF.ProjectId,SudTempControl,53756454656D70436F6E74726F6C2E6B,rev?*
G04 #@! TF.SameCoordinates,Original*
G04 #@! TF.FileFunction,Paste,Bot*
G04 #@! TF.FilePolarity,Positive*
%FSLAX46Y46*%
G04 Gerber Fmt 4.6, Leading zero omitted, Abs format (unit mm)*
G04 Created by KiCad (PCBNEW (5.0.1)-3) date 30.05.2019 12:56:38*
%MOMM*%
%LPD*%
G01*
G04 APERTURE LIST*
%ADD10C,0.300000*%
%ADD11C,0.100000*%
%ADD12C,1.150000*%
%ADD13R,1.200000X2.200000*%
%ADD14R,2.750000X3.050000*%
%ADD15R,1.600000X0.550000*%
%ADD16R,0.550000X1.600000*%
%ADD17R,1.220000X0.650000*%
%ADD18R,3.000000X7.500000*%
%ADD19R,0.900000X1.200000*%
%ADD20R,1.450000X0.800000*%
%ADD21R,0.650000X1.220000*%
%ADD22R,2.500000X2.000000*%
G04 APERTURE END LIST*
D10*
X163928571Y-63578571D02*
X163071428Y-63578571D01*
X163500000Y-63578571D02*
X163500000Y-62078571D01*
X163357142Y-62292857D01*
X163214285Y-62435714D01*
X163071428Y-62507142D01*
X164500000Y-62221428D02*
X164571428Y-62150000D01*
X164714285Y-62078571D01*
X165071428Y-62078571D01*
X165214285Y-62150000D01*
X165285714Y-62221428D01*
X165357142Y-62364285D01*
X165357142Y-62507142D01*
X165285714Y-62721428D01*
X164428571Y-63578571D01*
X165357142Y-63578571D01*
X166642857Y-62578571D02*
X166642857Y-63578571D01*
X166285714Y-62007142D02*
X165928571Y-63078571D01*
X166857142Y-63078571D01*
X167500000Y-63507142D02*
X167500000Y-63578571D01*
X167428571Y-63721428D01*
X167357142Y-63792857D01*
X168428571Y-62078571D02*
X168571428Y-62078571D01*
X168714285Y-62150000D01*
X168785714Y-62221428D01*
X168857142Y-62364285D01*
X168928571Y-62650000D01*
X168928571Y-63007142D01*
X168857142Y-63292857D01*
X168785714Y-63435714D01*
X168714285Y-63507142D01*
X168571428Y-63578571D01*
X168428571Y-63578571D01*
X168285714Y-63507142D01*
X168214285Y-63435714D01*
X168142857Y-63292857D01*
X168071428Y-63007142D01*
X168071428Y-62650000D01*
X168142857Y-62364285D01*
X168214285Y-62221428D01*
X168285714Y-62150000D01*
X168428571Y-62078571D01*
X169857142Y-62078571D02*
X170000000Y-62078571D01*
X170142857Y-62150000D01*
X170214285Y-62221428D01*
X170285714Y-62364285D01*
X170357142Y-62650000D01*
X170357142Y-63007142D01*
X170285714Y-63292857D01*
X170214285Y-63435714D01*
X170142857Y-63507142D01*
X170000000Y-63578571D01*
X169857142Y-63578571D01*
X169714285Y-63507142D01*
X169642857Y-63435714D01*
X169571428Y-63292857D01*
X169500000Y-63007142D01*
X169500000Y-62650000D01*
X169571428Y-62364285D01*
X169642857Y-62221428D01*
X169714285Y-62150000D01*
X169857142Y-62078571D01*
X171285714Y-62078571D02*
X171428571Y-62078571D01*
X171571428Y-62150000D01*
X171642857Y-62221428D01*
X171714285Y-62364285D01*
X171785714Y-62650000D01*
X171785714Y-63007142D01*
X171714285Y-63292857D01*
X171642857Y-63435714D01*
X171571428Y-63507142D01*
X171428571Y-63578571D01*
X171285714Y-63578571D01*
X171142857Y-63507142D01*
X171071428Y-63435714D01*
X171000000Y-63292857D01*
X170928571Y-63007142D01*
X170928571Y-62650000D01*
X171000000Y-62364285D01*
X171071428Y-62221428D01*
X171142857Y-62150000D01*
X171285714Y-62078571D01*
X173571428Y-63578571D02*
X173571428Y-62578571D01*
X173571428Y-62721428D02*
X173642857Y-62650000D01*
X173785714Y-62578571D01*
X174000000Y-62578571D01*
X174142857Y-62650000D01*
X174214285Y-62792857D01*
X174214285Y-63578571D01*
X174214285Y-62792857D02*
X174285714Y-62650000D01*
X174428571Y-62578571D01*
X174642857Y-62578571D01*
X174785714Y-62650000D01*
X174857142Y-62792857D01*
X174857142Y-63578571D01*
X175571428Y-63578571D02*
X175571428Y-62578571D01*
X175571428Y-62721428D02*
X175642857Y-62650000D01*
X175785714Y-62578571D01*
X176000000Y-62578571D01*
X176142857Y-62650000D01*
X176214285Y-62792857D01*
X176214285Y-63578571D01*
X176214285Y-62792857D02*
X176285714Y-62650000D01*
X176428571Y-62578571D01*
X176642857Y-62578571D01*
X176785714Y-62650000D01*
X176857142Y-62792857D01*
X176857142Y-63578571D01*
X108000000Y-65000000D02*
X232000000Y-65000000D01*
X108000000Y-71000000D02*
X108000000Y-64413579D01*
X232000000Y-71000000D02*
X232000000Y-64413579D01*
X232000000Y-65000000D02*
X230873496Y-65586421D01*
X232000000Y-65000000D02*
X230873496Y-64413579D01*
X108000000Y-65000000D02*
X109126504Y-65586421D01*
X108000000Y-65000000D02*
X109126504Y-64413579D01*
X100405147Y-97000000D02*
X100405147Y-96714285D01*
X100333719Y-96571428D01*
X100262290Y-96500000D01*
X100048004Y-96357142D01*
X99762290Y-96285714D01*
X99190861Y-96285714D01*
X99048004Y-96357142D01*
X98976576Y-96428571D01*
X98905147Y-96571428D01*
X98905147Y-96857142D01*
X98976576Y-97000000D01*
X99048004Y-97071428D01*
X99190861Y-97142857D01*
X99548004Y-97142857D01*
X99690861Y-97071428D01*
X99762290Y-97000000D01*
X99833719Y-96857142D01*
X99833719Y-96571428D01*
X99762290Y-96428571D01*
X99690861Y-96357142D01*
X99548004Y-96285714D01*
X100405147Y-97642857D02*
X100405147Y-98571428D01*
X99833719Y-98071428D01*
X99833719Y-98285714D01*
X99762290Y-98428571D01*
X99690861Y-98500000D01*
X99548004Y-98571428D01*
X99190861Y-98571428D01*
X99048004Y-98500000D01*
X98976576Y-98428571D01*
X98905147Y-98285714D01*
X98905147Y-97857142D01*
X98976576Y-97714285D01*
X99048004Y-97642857D01*
X98976576Y-99285714D02*
X98905147Y-99285714D01*
X98762290Y-99214285D01*
X98690861Y-99142857D01*
X100405147Y-100214285D02*
X100405147Y-100357142D01*
X100333719Y-100500000D01*
X100262290Y-100571428D01*
X100119433Y-100642857D01*
X99833719Y-100714285D01*
X99476576Y-100714285D01*
X99190861Y-100642857D01*
X99048004Y-100571428D01*
X98976576Y-100500000D01*
X98905147Y-100357142D01*
X98905147Y-100214285D01*
X98976576Y-100071428D01*
X99048004Y-100000000D01*
X99190861Y-99928571D01*
X99476576Y-99857142D01*
X99833719Y-99857142D01*
X100119433Y-99928571D01*
X100262290Y-100000000D01*
X100333719Y-100071428D01*
X100405147Y-100214285D01*
X100405147Y-101642857D02*
X100405147Y-101785714D01*
X100333719Y-101928571D01*
X100262290Y-102000000D01*
X100119433Y-102071428D01*
X99833719Y-102142857D01*
X99476576Y-102142857D01*
X99190861Y-102071428D01*
X99048004Y-102000000D01*
X98976576Y-101928571D01*
X98905147Y-101785714D01*
X98905147Y-101642857D01*
X98976576Y-101500000D01*
X99048004Y-101428571D01*
X99190861Y-101357142D01*
X99476576Y-101285714D01*
X99833719Y-101285714D01*
X100119433Y-101357142D01*
X100262290Y-101428571D01*
X100333719Y-101500000D01*
X100405147Y-101642857D01*
X100405147Y-103071428D02*
X100405147Y-103214285D01*
X100333719Y-103357142D01*
X100262290Y-103428571D01*
X100119433Y-103500000D01*
X99833719Y-103571428D01*
X99476576Y-103571428D01*
X99190861Y-103500000D01*
X99048004Y-103428571D01*
X98976576Y-103357142D01*
X98905147Y-103214285D01*
X98905147Y-103071428D01*
X98976576Y-102928571D01*
X99048004Y-102857142D01*
X99190861Y-102785714D01*
X99476576Y-102714285D01*
X99833719Y-102714285D01*
X100119433Y-102785714D01*
X100262290Y-102857142D01*
X100333719Y-102928571D01*
X100405147Y-103071428D01*
X98905147Y-105357142D02*
X99905147Y-105357142D01*
X99762290Y-105357142D02*
X99833719Y-105428571D01*
X99905147Y-105571428D01*
X99905147Y-105785714D01*
X99833719Y-105928571D01*
X99690861Y-106000000D01*
X98905147Y-106000000D01*
X99690861Y-106000000D02*
X99833719Y-106071428D01*
X99905147Y-106214285D01*
X99905147Y-106428571D01*
X99833719Y-106571428D01*
X99690861Y-106642857D01*
X98905147Y-106642857D01*
X98905147Y-107357142D02*
X99905147Y-107357142D01*
X99762290Y-107357142D02*
X99833719Y-107428571D01*
X99905147Y-107571428D01*
X99905147Y-107785714D01*
X99833719Y-107928571D01*
X99690861Y-108000000D01*
X98905147Y-108000000D01*
X99690861Y-108000000D02*
X99833719Y-108071428D01*
X99905147Y-108214285D01*
X99905147Y-108428571D01*
X99833719Y-108571428D01*
X99690861Y-108642857D01*
X98905147Y-108642857D01*
X101683719Y-71000000D02*
X101683719Y-134000000D01*
X107683718Y-71000000D02*
X101097298Y-71000000D01*
X107683718Y-134000000D02*
X101097298Y-134000000D01*
X101683719Y-134000000D02*
X101097298Y-132873496D01*
X101683719Y-134000000D02*
X102270140Y-132873496D01*
X101683719Y-71000000D02*
X101097298Y-72126504D01*
X101683719Y-71000000D02*
X102270140Y-72126504D01*
D11*
G04 #@! TO.C,C18*
G36*
X180674505Y-81501204D02*
X180698773Y-81504804D01*
X180722572Y-81510765D01*
X180745671Y-81519030D01*
X180767850Y-81529520D01*
X180788893Y-81542132D01*
X180808599Y-81556747D01*
X180826777Y-81573223D01*
X180843253Y-81591401D01*
X180857868Y-81611107D01*
X180870480Y-81632150D01*
X180880970Y-81654329D01*
X180889235Y-81677428D01*
X180895196Y-81701227D01*
X180898796Y-81725495D01*
X180900000Y-81749999D01*
X180900000Y-82400001D01*
X180898796Y-82424505D01*
X180895196Y-82448773D01*
X180889235Y-82472572D01*
X180880970Y-82495671D01*
X180870480Y-82517850D01*
X180857868Y-82538893D01*
X180843253Y-82558599D01*
X180826777Y-82576777D01*
X180808599Y-82593253D01*
X180788893Y-82607868D01*
X180767850Y-82620480D01*
X180745671Y-82630970D01*
X180722572Y-82639235D01*
X180698773Y-82645196D01*
X180674505Y-82648796D01*
X180650001Y-82650000D01*
X179749999Y-82650000D01*
X179725495Y-82648796D01*
X179701227Y-82645196D01*
X179677428Y-82639235D01*
X179654329Y-82630970D01*
X179632150Y-82620480D01*
X179611107Y-82607868D01*
X179591401Y-82593253D01*
X179573223Y-82576777D01*
X179556747Y-82558599D01*
X179542132Y-82538893D01*
X179529520Y-82517850D01*
X179519030Y-82495671D01*
X179510765Y-82472572D01*
X179504804Y-82448773D01*
X179501204Y-82424505D01*
X179500000Y-82400001D01*
X179500000Y-81749999D01*
X179501204Y-81725495D01*
X179504804Y-81701227D01*
X179510765Y-81677428D01*
X179519030Y-81654329D01*
X179529520Y-81632150D01*
X179542132Y-81611107D01*
X179556747Y-81591401D01*
X179573223Y-81573223D01*
X179591401Y-81556747D01*
X179611107Y-81542132D01*
X179632150Y-81529520D01*
X179654329Y-81519030D01*
X179677428Y-81510765D01*
X179701227Y-81504804D01*
X179725495Y-81501204D01*
X179749999Y-81500000D01*
X180650001Y-81500000D01*
X180674505Y-81501204D01*
X180674505Y-81501204D01*
G37*
D12*
X180200000Y-82075000D03*
D11*
G36*
X180674505Y-83551204D02*
X180698773Y-83554804D01*
X180722572Y-83560765D01*
X180745671Y-83569030D01*
X180767850Y-83579520D01*
X180788893Y-83592132D01*
X180808599Y-83606747D01*
X180826777Y-83623223D01*
X180843253Y-83641401D01*
X180857868Y-83661107D01*
X180870480Y-83682150D01*
X180880970Y-83704329D01*
X180889235Y-83727428D01*
X180895196Y-83751227D01*
X180898796Y-83775495D01*
X180900000Y-83799999D01*
X180900000Y-84450001D01*
X180898796Y-84474505D01*
X180895196Y-84498773D01*
X180889235Y-84522572D01*
X180880970Y-84545671D01*
X180870480Y-84567850D01*
X180857868Y-84588893D01*
X180843253Y-84608599D01*
X180826777Y-84626777D01*
X180808599Y-84643253D01*
X180788893Y-84657868D01*
X180767850Y-84670480D01*
X180745671Y-84680970D01*
X180722572Y-84689235D01*
X180698773Y-84695196D01*
X180674505Y-84698796D01*
X180650001Y-84700000D01*
X179749999Y-84700000D01*
X179725495Y-84698796D01*
X179701227Y-84695196D01*
X179677428Y-84689235D01*
X179654329Y-84680970D01*
X179632150Y-84670480D01*
X179611107Y-84657868D01*
X179591401Y-84643253D01*
X179573223Y-84626777D01*
X179556747Y-84608599D01*
X179542132Y-84588893D01*
X179529520Y-84567850D01*
X179519030Y-84545671D01*
X179510765Y-84522572D01*
X179504804Y-84498773D01*
X179501204Y-84474505D01*
X179500000Y-84450001D01*
X179500000Y-83799999D01*
X179501204Y-83775495D01*
X179504804Y-83751227D01*
X179510765Y-83727428D01*
X179519030Y-83704329D01*
X179529520Y-83682150D01*
X179542132Y-83661107D01*
X179556747Y-83641401D01*
X179573223Y-83623223D01*
X179591401Y-83606747D01*
X179611107Y-83592132D01*
X179632150Y-83579520D01*
X179654329Y-83569030D01*
X179677428Y-83560765D01*
X179701227Y-83554804D01*
X179725495Y-83551204D01*
X179749999Y-83550000D01*
X180650001Y-83550000D01*
X180674505Y-83551204D01*
X180674505Y-83551204D01*
G37*
D12*
X180200000Y-84125000D03*
G04 #@! TD*
D13*
G04 #@! TO.C,U8*
X177380000Y-84100000D03*
X172820000Y-84100000D03*
D14*
X173575000Y-76125000D03*
X176625000Y-79475000D03*
X176625000Y-76125000D03*
X173575000Y-79475000D03*
G04 #@! TD*
D15*
G04 #@! TO.C,U1*
X140250000Y-90800000D03*
X140250000Y-90000000D03*
X140250000Y-89200000D03*
X140250000Y-88400000D03*
X140250000Y-87600000D03*
X140250000Y-86800000D03*
X140250000Y-86000000D03*
X140250000Y-85200000D03*
D16*
X138800000Y-83750000D03*
X138000000Y-83750000D03*
X137200000Y-83750000D03*
X136400000Y-83750000D03*
X135600000Y-83750000D03*
X134800000Y-83750000D03*
X134000000Y-83750000D03*
X133200000Y-83750000D03*
D15*
X131750000Y-85200000D03*
X131750000Y-86000000D03*
X131750000Y-86800000D03*
X131750000Y-87600000D03*
X131750000Y-88400000D03*
X131750000Y-89200000D03*
X131750000Y-90000000D03*
X131750000Y-90800000D03*
D16*
X133200000Y-92250000D03*
X134000000Y-92250000D03*
X134800000Y-92250000D03*
X135600000Y-92250000D03*
X136400000Y-92250000D03*
X137200000Y-92250000D03*
X138000000Y-92250000D03*
X138800000Y-92250000D03*
G04 #@! TD*
D11*
G04 #@! TO.C,C17*
G36*
X127124505Y-81301204D02*
X127148773Y-81304804D01*
X127172572Y-81310765D01*
X127195671Y-81319030D01*
X127217850Y-81329520D01*
X127238893Y-81342132D01*
X127258599Y-81356747D01*
X127276777Y-81373223D01*
X127293253Y-81391401D01*
X127307868Y-81411107D01*
X127320480Y-81432150D01*
X127330970Y-81454329D01*
X127339235Y-81477428D01*
X127345196Y-81501227D01*
X127348796Y-81525495D01*
X127350000Y-81549999D01*
X127350000Y-82450001D01*
X127348796Y-82474505D01*
X127345196Y-82498773D01*
X127339235Y-82522572D01*
X127330970Y-82545671D01*
X127320480Y-82567850D01*
X127307868Y-82588893D01*
X127293253Y-82608599D01*
X127276777Y-82626777D01*
X127258599Y-82643253D01*
X127238893Y-82657868D01*
X127217850Y-82670480D01*
X127195671Y-82680970D01*
X127172572Y-82689235D01*
X127148773Y-82695196D01*
X127124505Y-82698796D01*
X127100001Y-82700000D01*
X126449999Y-82700000D01*
X126425495Y-82698796D01*
X126401227Y-82695196D01*
X126377428Y-82689235D01*
X126354329Y-82680970D01*
X126332150Y-82670480D01*
X126311107Y-82657868D01*
X126291401Y-82643253D01*
X126273223Y-82626777D01*
X126256747Y-82608599D01*
X126242132Y-82588893D01*
X126229520Y-82567850D01*
X126219030Y-82545671D01*
X126210765Y-82522572D01*
X126204804Y-82498773D01*
X126201204Y-82474505D01*
X126200000Y-82450001D01*
X126200000Y-81549999D01*
X126201204Y-81525495D01*
X126204804Y-81501227D01*
X126210765Y-81477428D01*
X126219030Y-81454329D01*
X126229520Y-81432150D01*
X126242132Y-81411107D01*
X126256747Y-81391401D01*
X126273223Y-81373223D01*
X126291401Y-81356747D01*
X126311107Y-81342132D01*
X126332150Y-81329520D01*
X126354329Y-81319030D01*
X126377428Y-81310765D01*
X126401227Y-81304804D01*
X126425495Y-81301204D01*
X126449999Y-81300000D01*
X127100001Y-81300000D01*
X127124505Y-81301204D01*
X127124505Y-81301204D01*
G37*
D12*
X126775000Y-82000000D03*
D11*
G36*
X125074505Y-81301204D02*
X125098773Y-81304804D01*
X125122572Y-81310765D01*
X125145671Y-81319030D01*
X125167850Y-81329520D01*
X125188893Y-81342132D01*
X125208599Y-81356747D01*
X125226777Y-81373223D01*
X125243253Y-81391401D01*
X125257868Y-81411107D01*
X125270480Y-81432150D01*
X125280970Y-81454329D01*
X125289235Y-81477428D01*
X125295196Y-81501227D01*
X125298796Y-81525495D01*
X125300000Y-81549999D01*
X125300000Y-82450001D01*
X125298796Y-82474505D01*
X125295196Y-82498773D01*
X125289235Y-82522572D01*
X125280970Y-82545671D01*
X125270480Y-82567850D01*
X125257868Y-82588893D01*
X125243253Y-82608599D01*
X125226777Y-82626777D01*
X125208599Y-82643253D01*
X125188893Y-82657868D01*
X125167850Y-82670480D01*
X125145671Y-82680970D01*
X125122572Y-82689235D01*
X125098773Y-82695196D01*
X125074505Y-82698796D01*
X125050001Y-82700000D01*
X124399999Y-82700000D01*
X124375495Y-82698796D01*
X124351227Y-82695196D01*
X124327428Y-82689235D01*
X124304329Y-82680970D01*
X124282150Y-82670480D01*
X124261107Y-82657868D01*
X124241401Y-82643253D01*
X124223223Y-82626777D01*
X124206747Y-82608599D01*
X124192132Y-82588893D01*
X124179520Y-82567850D01*
X124169030Y-82545671D01*
X124160765Y-82522572D01*
X124154804Y-82498773D01*
X124151204Y-82474505D01*
X124150000Y-82450001D01*
X124150000Y-81549999D01*
X124151204Y-81525495D01*
X124154804Y-81501227D01*
X124160765Y-81477428D01*
X124169030Y-81454329D01*
X124179520Y-81432150D01*
X124192132Y-81411107D01*
X124206747Y-81391401D01*
X124223223Y-81373223D01*
X124241401Y-81356747D01*
X124261107Y-81342132D01*
X124282150Y-81329520D01*
X124304329Y-81319030D01*
X124327428Y-81310765D01*
X124351227Y-81304804D01*
X124375495Y-81301204D01*
X124399999Y-81300000D01*
X125050001Y-81300000D01*
X125074505Y-81301204D01*
X125074505Y-81301204D01*
G37*
D12*
X124725000Y-82000000D03*
G04 #@! TD*
D11*
G04 #@! TO.C,R15*
G36*
X127174505Y-79101204D02*
X127198773Y-79104804D01*
X127222572Y-79110765D01*
X127245671Y-79119030D01*
X127267850Y-79129520D01*
X127288893Y-79142132D01*
X127308599Y-79156747D01*
X127326777Y-79173223D01*
X127343253Y-79191401D01*
X127357868Y-79211107D01*
X127370480Y-79232150D01*
X127380970Y-79254329D01*
X127389235Y-79277428D01*
X127395196Y-79301227D01*
X127398796Y-79325495D01*
X127400000Y-79349999D01*
X127400000Y-80250001D01*
X127398796Y-80274505D01*
X127395196Y-80298773D01*
X127389235Y-80322572D01*
X127380970Y-80345671D01*
X127370480Y-80367850D01*
X127357868Y-80388893D01*
X127343253Y-80408599D01*
X127326777Y-80426777D01*
X127308599Y-80443253D01*
X127288893Y-80457868D01*
X127267850Y-80470480D01*
X127245671Y-80480970D01*
X127222572Y-80489235D01*
X127198773Y-80495196D01*
X127174505Y-80498796D01*
X127150001Y-80500000D01*
X126499999Y-80500000D01*
X126475495Y-80498796D01*
X126451227Y-80495196D01*
X126427428Y-80489235D01*
X126404329Y-80480970D01*
X126382150Y-80470480D01*
X126361107Y-80457868D01*
X126341401Y-80443253D01*
X126323223Y-80426777D01*
X126306747Y-80408599D01*
X126292132Y-80388893D01*
X126279520Y-80367850D01*
X126269030Y-80345671D01*
X126260765Y-80322572D01*
X126254804Y-80298773D01*
X126251204Y-80274505D01*
X126250000Y-80250001D01*
X126250000Y-79349999D01*
X126251204Y-79325495D01*
X126254804Y-79301227D01*
X126260765Y-79277428D01*
X126269030Y-79254329D01*
X126279520Y-79232150D01*
X126292132Y-79211107D01*
X126306747Y-79191401D01*
X126323223Y-79173223D01*
X126341401Y-79156747D01*
X126361107Y-79142132D01*
X126382150Y-79129520D01*
X126404329Y-79119030D01*
X126427428Y-79110765D01*
X126451227Y-79104804D01*
X126475495Y-79101204D01*
X126499999Y-79100000D01*
X127150001Y-79100000D01*
X127174505Y-79101204D01*
X127174505Y-79101204D01*
G37*
D12*
X126825000Y-79800000D03*
D11*
G36*
X125124505Y-79101204D02*
X125148773Y-79104804D01*
X125172572Y-79110765D01*
X125195671Y-79119030D01*
X125217850Y-79129520D01*
X125238893Y-79142132D01*
X125258599Y-79156747D01*
X125276777Y-79173223D01*
X125293253Y-79191401D01*
X125307868Y-79211107D01*
X125320480Y-79232150D01*
X125330970Y-79254329D01*
X125339235Y-79277428D01*
X125345196Y-79301227D01*
X125348796Y-79325495D01*
X125350000Y-79349999D01*
X125350000Y-80250001D01*
X125348796Y-80274505D01*
X125345196Y-80298773D01*
X125339235Y-80322572D01*
X125330970Y-80345671D01*
X125320480Y-80367850D01*
X125307868Y-80388893D01*
X125293253Y-80408599D01*
X125276777Y-80426777D01*
X125258599Y-80443253D01*
X125238893Y-80457868D01*
X125217850Y-80470480D01*
X125195671Y-80480970D01*
X125172572Y-80489235D01*
X125148773Y-80495196D01*
X125124505Y-80498796D01*
X125100001Y-80500000D01*
X124449999Y-80500000D01*
X124425495Y-80498796D01*
X124401227Y-80495196D01*
X124377428Y-80489235D01*
X124354329Y-80480970D01*
X124332150Y-80470480D01*
X124311107Y-80457868D01*
X124291401Y-80443253D01*
X124273223Y-80426777D01*
X124256747Y-80408599D01*
X124242132Y-80388893D01*
X124229520Y-80367850D01*
X124219030Y-80345671D01*
X124210765Y-80322572D01*
X124204804Y-80298773D01*
X124201204Y-80274505D01*
X124200000Y-80250001D01*
X124200000Y-79349999D01*
X124201204Y-79325495D01*
X124204804Y-79301227D01*
X124210765Y-79277428D01*
X124219030Y-79254329D01*
X124229520Y-79232150D01*
X124242132Y-79211107D01*
X124256747Y-79191401D01*
X124273223Y-79173223D01*
X124291401Y-79156747D01*
X124311107Y-79142132D01*
X124332150Y-79129520D01*
X124354329Y-79119030D01*
X124377428Y-79110765D01*
X124401227Y-79104804D01*
X124425495Y-79101204D01*
X124449999Y-79100000D01*
X125100001Y-79100000D01*
X125124505Y-79101204D01*
X125124505Y-79101204D01*
G37*
D12*
X124775000Y-79800000D03*
G04 #@! TD*
D11*
G04 #@! TO.C,R16*
G36*
X129474505Y-116826204D02*
X129498773Y-116829804D01*
X129522572Y-116835765D01*
X129545671Y-116844030D01*
X129567850Y-116854520D01*
X129588893Y-116867132D01*
X129608599Y-116881747D01*
X129626777Y-116898223D01*
X129643253Y-116916401D01*
X129657868Y-116936107D01*
X129670480Y-116957150D01*
X129680970Y-116979329D01*
X129689235Y-117002428D01*
X129695196Y-117026227D01*
X129698796Y-117050495D01*
X129700000Y-117074999D01*
X129700000Y-117725001D01*
X129698796Y-117749505D01*
X129695196Y-117773773D01*
X129689235Y-117797572D01*
X129680970Y-117820671D01*
X129670480Y-117842850D01*
X129657868Y-117863893D01*
X129643253Y-117883599D01*
X129626777Y-117901777D01*
X129608599Y-117918253D01*
X129588893Y-117932868D01*
X129567850Y-117945480D01*
X129545671Y-117955970D01*
X129522572Y-117964235D01*
X129498773Y-117970196D01*
X129474505Y-117973796D01*
X129450001Y-117975000D01*
X128549999Y-117975000D01*
X128525495Y-117973796D01*
X128501227Y-117970196D01*
X128477428Y-117964235D01*
X128454329Y-117955970D01*
X128432150Y-117945480D01*
X128411107Y-117932868D01*
X128391401Y-117918253D01*
X128373223Y-117901777D01*
X128356747Y-117883599D01*
X128342132Y-117863893D01*
X128329520Y-117842850D01*
X128319030Y-117820671D01*
X128310765Y-117797572D01*
X128304804Y-117773773D01*
X128301204Y-117749505D01*
X128300000Y-117725001D01*
X128300000Y-117074999D01*
X128301204Y-117050495D01*
X128304804Y-117026227D01*
X128310765Y-117002428D01*
X128319030Y-116979329D01*
X128329520Y-116957150D01*
X128342132Y-116936107D01*
X128356747Y-116916401D01*
X128373223Y-116898223D01*
X128391401Y-116881747D01*
X128411107Y-116867132D01*
X128432150Y-116854520D01*
X128454329Y-116844030D01*
X128477428Y-116835765D01*
X128501227Y-116829804D01*
X128525495Y-116826204D01*
X128549999Y-116825000D01*
X129450001Y-116825000D01*
X129474505Y-116826204D01*
X129474505Y-116826204D01*
G37*
D12*
X129000000Y-117400000D03*
D11*
G36*
X129474505Y-118876204D02*
X129498773Y-118879804D01*
X129522572Y-118885765D01*
X129545671Y-118894030D01*
X129567850Y-118904520D01*
X129588893Y-118917132D01*
X129608599Y-118931747D01*
X129626777Y-118948223D01*
X129643253Y-118966401D01*
X129657868Y-118986107D01*
X129670480Y-119007150D01*
X129680970Y-119029329D01*
X129689235Y-119052428D01*
X129695196Y-119076227D01*
X129698796Y-119100495D01*
X129700000Y-119124999D01*
X129700000Y-119775001D01*
X129698796Y-119799505D01*
X129695196Y-119823773D01*
X129689235Y-119847572D01*
X129680970Y-119870671D01*
X129670480Y-119892850D01*
X129657868Y-119913893D01*
X129643253Y-119933599D01*
X129626777Y-119951777D01*
X129608599Y-119968253D01*
X129588893Y-119982868D01*
X129567850Y-119995480D01*
X129545671Y-120005970D01*
X129522572Y-120014235D01*
X129498773Y-120020196D01*
X129474505Y-120023796D01*
X129450001Y-120025000D01*
X128549999Y-120025000D01*
X128525495Y-120023796D01*
X128501227Y-120020196D01*
X128477428Y-120014235D01*
X128454329Y-120005970D01*
X128432150Y-119995480D01*
X128411107Y-119982868D01*
X128391401Y-119968253D01*
X128373223Y-119951777D01*
X128356747Y-119933599D01*
X128342132Y-119913893D01*
X128329520Y-119892850D01*
X128319030Y-119870671D01*
X128310765Y-119847572D01*
X128304804Y-119823773D01*
X128301204Y-119799505D01*
X128300000Y-119775001D01*
X128300000Y-119124999D01*
X128301204Y-119100495D01*
X128304804Y-119076227D01*
X128310765Y-119052428D01*
X128319030Y-119029329D01*
X128329520Y-119007150D01*
X128342132Y-118986107D01*
X128356747Y-118966401D01*
X128373223Y-118948223D01*
X128391401Y-118931747D01*
X128411107Y-118917132D01*
X128432150Y-118904520D01*
X128454329Y-118894030D01*
X128477428Y-118885765D01*
X128501227Y-118879804D01*
X128525495Y-118876204D01*
X128549999Y-118875000D01*
X129450001Y-118875000D01*
X129474505Y-118876204D01*
X129474505Y-118876204D01*
G37*
D12*
X129000000Y-119450000D03*
G04 #@! TD*
D11*
G04 #@! TO.C,R17*
G36*
X129474505Y-113826204D02*
X129498773Y-113829804D01*
X129522572Y-113835765D01*
X129545671Y-113844030D01*
X129567850Y-113854520D01*
X129588893Y-113867132D01*
X129608599Y-113881747D01*
X129626777Y-113898223D01*
X129643253Y-113916401D01*
X129657868Y-113936107D01*
X129670480Y-113957150D01*
X129680970Y-113979329D01*
X129689235Y-114002428D01*
X129695196Y-114026227D01*
X129698796Y-114050495D01*
X129700000Y-114074999D01*
X129700000Y-114725001D01*
X129698796Y-114749505D01*
X129695196Y-114773773D01*
X129689235Y-114797572D01*
X129680970Y-114820671D01*
X129670480Y-114842850D01*
X129657868Y-114863893D01*
X129643253Y-114883599D01*
X129626777Y-114901777D01*
X129608599Y-114918253D01*
X129588893Y-114932868D01*
X129567850Y-114945480D01*
X129545671Y-114955970D01*
X129522572Y-114964235D01*
X129498773Y-114970196D01*
X129474505Y-114973796D01*
X129450001Y-114975000D01*
X128549999Y-114975000D01*
X128525495Y-114973796D01*
X128501227Y-114970196D01*
X128477428Y-114964235D01*
X128454329Y-114955970D01*
X128432150Y-114945480D01*
X128411107Y-114932868D01*
X128391401Y-114918253D01*
X128373223Y-114901777D01*
X128356747Y-114883599D01*
X128342132Y-114863893D01*
X128329520Y-114842850D01*
X128319030Y-114820671D01*
X128310765Y-114797572D01*
X128304804Y-114773773D01*
X128301204Y-114749505D01*
X128300000Y-114725001D01*
X128300000Y-114074999D01*
X128301204Y-114050495D01*
X128304804Y-114026227D01*
X128310765Y-114002428D01*
X128319030Y-113979329D01*
X128329520Y-113957150D01*
X128342132Y-113936107D01*
X128356747Y-113916401D01*
X128373223Y-113898223D01*
X128391401Y-113881747D01*
X128411107Y-113867132D01*
X128432150Y-113854520D01*
X128454329Y-113844030D01*
X128477428Y-113835765D01*
X128501227Y-113829804D01*
X128525495Y-113826204D01*
X128549999Y-113825000D01*
X129450001Y-113825000D01*
X129474505Y-113826204D01*
X129474505Y-113826204D01*
G37*
D12*
X129000000Y-114400000D03*
D11*
G36*
X129474505Y-111776204D02*
X129498773Y-111779804D01*
X129522572Y-111785765D01*
X129545671Y-111794030D01*
X129567850Y-111804520D01*
X129588893Y-111817132D01*
X129608599Y-111831747D01*
X129626777Y-111848223D01*
X129643253Y-111866401D01*
X129657868Y-111886107D01*
X129670480Y-111907150D01*
X129680970Y-111929329D01*
X129689235Y-111952428D01*
X129695196Y-111976227D01*
X129698796Y-112000495D01*
X129700000Y-112024999D01*
X129700000Y-112675001D01*
X129698796Y-112699505D01*
X129695196Y-112723773D01*
X129689235Y-112747572D01*
X129680970Y-112770671D01*
X129670480Y-112792850D01*
X129657868Y-112813893D01*
X129643253Y-112833599D01*
X129626777Y-112851777D01*
X129608599Y-112868253D01*
X129588893Y-112882868D01*
X129567850Y-112895480D01*
X129545671Y-112905970D01*
X129522572Y-112914235D01*
X129498773Y-112920196D01*
X129474505Y-112923796D01*
X129450001Y-112925000D01*
X128549999Y-112925000D01*
X128525495Y-112923796D01*
X128501227Y-112920196D01*
X128477428Y-112914235D01*
X128454329Y-112905970D01*
X128432150Y-112895480D01*
X128411107Y-112882868D01*
X128391401Y-112868253D01*
X128373223Y-112851777D01*
X128356747Y-112833599D01*
X128342132Y-112813893D01*
X128329520Y-112792850D01*
X128319030Y-112770671D01*
X128310765Y-112747572D01*
X128304804Y-112723773D01*
X128301204Y-112699505D01*
X128300000Y-112675001D01*
X128300000Y-112024999D01*
X128301204Y-112000495D01*
X128304804Y-111976227D01*
X128310765Y-111952428D01*
X128319030Y-111929329D01*
X128329520Y-111907150D01*
X128342132Y-111886107D01*
X128356747Y-111866401D01*
X128373223Y-111848223D01*
X128391401Y-111831747D01*
X128411107Y-111817132D01*
X128432150Y-111804520D01*
X128454329Y-111794030D01*
X128477428Y-111785765D01*
X128501227Y-111779804D01*
X128525495Y-111776204D01*
X128549999Y-111775000D01*
X129450001Y-111775000D01*
X129474505Y-111776204D01*
X129474505Y-111776204D01*
G37*
D12*
X129000000Y-112350000D03*
G04 #@! TD*
D11*
G04 #@! TO.C,R18*
G36*
X144574505Y-86551204D02*
X144598773Y-86554804D01*
X144622572Y-86560765D01*
X144645671Y-86569030D01*
X144667850Y-86579520D01*
X144688893Y-86592132D01*
X144708599Y-86606747D01*
X144726777Y-86623223D01*
X144743253Y-86641401D01*
X144757868Y-86661107D01*
X144770480Y-86682150D01*
X144780970Y-86704329D01*
X144789235Y-86727428D01*
X144795196Y-86751227D01*
X144798796Y-86775495D01*
X144800000Y-86799999D01*
X144800000Y-87700001D01*
X144798796Y-87724505D01*
X144795196Y-87748773D01*
X144789235Y-87772572D01*
X144780970Y-87795671D01*
X144770480Y-87817850D01*
X144757868Y-87838893D01*
X144743253Y-87858599D01*
X144726777Y-87876777D01*
X144708599Y-87893253D01*
X144688893Y-87907868D01*
X144667850Y-87920480D01*
X144645671Y-87930970D01*
X144622572Y-87939235D01*
X144598773Y-87945196D01*
X144574505Y-87948796D01*
X144550001Y-87950000D01*
X143899999Y-87950000D01*
X143875495Y-87948796D01*
X143851227Y-87945196D01*
X143827428Y-87939235D01*
X143804329Y-87930970D01*
X143782150Y-87920480D01*
X143761107Y-87907868D01*
X143741401Y-87893253D01*
X143723223Y-87876777D01*
X143706747Y-87858599D01*
X143692132Y-87838893D01*
X143679520Y-87817850D01*
X143669030Y-87795671D01*
X143660765Y-87772572D01*
X143654804Y-87748773D01*
X143651204Y-87724505D01*
X143650000Y-87700001D01*
X143650000Y-86799999D01*
X143651204Y-86775495D01*
X143654804Y-86751227D01*
X143660765Y-86727428D01*
X143669030Y-86704329D01*
X143679520Y-86682150D01*
X143692132Y-86661107D01*
X143706747Y-86641401D01*
X143723223Y-86623223D01*
X143741401Y-86606747D01*
X143761107Y-86592132D01*
X143782150Y-86579520D01*
X143804329Y-86569030D01*
X143827428Y-86560765D01*
X143851227Y-86554804D01*
X143875495Y-86551204D01*
X143899999Y-86550000D01*
X144550001Y-86550000D01*
X144574505Y-86551204D01*
X144574505Y-86551204D01*
G37*
D12*
X144225000Y-87250000D03*
D11*
G36*
X146624505Y-86551204D02*
X146648773Y-86554804D01*
X146672572Y-86560765D01*
X146695671Y-86569030D01*
X146717850Y-86579520D01*
X146738893Y-86592132D01*
X146758599Y-86606747D01*
X146776777Y-86623223D01*
X146793253Y-86641401D01*
X146807868Y-86661107D01*
X146820480Y-86682150D01*
X146830970Y-86704329D01*
X146839235Y-86727428D01*
X146845196Y-86751227D01*
X146848796Y-86775495D01*
X146850000Y-86799999D01*
X146850000Y-87700001D01*
X146848796Y-87724505D01*
X146845196Y-87748773D01*
X146839235Y-87772572D01*
X146830970Y-87795671D01*
X146820480Y-87817850D01*
X146807868Y-87838893D01*
X146793253Y-87858599D01*
X146776777Y-87876777D01*
X146758599Y-87893253D01*
X146738893Y-87907868D01*
X146717850Y-87920480D01*
X146695671Y-87930970D01*
X146672572Y-87939235D01*
X146648773Y-87945196D01*
X146624505Y-87948796D01*
X146600001Y-87950000D01*
X145949999Y-87950000D01*
X145925495Y-87948796D01*
X145901227Y-87945196D01*
X145877428Y-87939235D01*
X145854329Y-87930970D01*
X145832150Y-87920480D01*
X145811107Y-87907868D01*
X145791401Y-87893253D01*
X145773223Y-87876777D01*
X145756747Y-87858599D01*
X145742132Y-87838893D01*
X145729520Y-87817850D01*
X145719030Y-87795671D01*
X145710765Y-87772572D01*
X145704804Y-87748773D01*
X145701204Y-87724505D01*
X145700000Y-87700001D01*
X145700000Y-86799999D01*
X145701204Y-86775495D01*
X145704804Y-86751227D01*
X145710765Y-86727428D01*
X145719030Y-86704329D01*
X145729520Y-86682150D01*
X145742132Y-86661107D01*
X145756747Y-86641401D01*
X145773223Y-86623223D01*
X145791401Y-86606747D01*
X145811107Y-86592132D01*
X145832150Y-86579520D01*
X145854329Y-86569030D01*
X145877428Y-86560765D01*
X145901227Y-86554804D01*
X145925495Y-86551204D01*
X145949999Y-86550000D01*
X146600001Y-86550000D01*
X146624505Y-86551204D01*
X146624505Y-86551204D01*
G37*
D12*
X146275000Y-87250000D03*
G04 #@! TD*
D11*
G04 #@! TO.C,R14*
G36*
X131699505Y-79101204D02*
X131723773Y-79104804D01*
X131747572Y-79110765D01*
X131770671Y-79119030D01*
X131792850Y-79129520D01*
X131813893Y-79142132D01*
X131833599Y-79156747D01*
X131851777Y-79173223D01*
X131868253Y-79191401D01*
X131882868Y-79211107D01*
X131895480Y-79232150D01*
X131905970Y-79254329D01*
X131914235Y-79277428D01*
X131920196Y-79301227D01*
X131923796Y-79325495D01*
X131925000Y-79349999D01*
X131925000Y-80250001D01*
X131923796Y-80274505D01*
X131920196Y-80298773D01*
X131914235Y-80322572D01*
X131905970Y-80345671D01*
X131895480Y-80367850D01*
X131882868Y-80388893D01*
X131868253Y-80408599D01*
X131851777Y-80426777D01*
X131833599Y-80443253D01*
X131813893Y-80457868D01*
X131792850Y-80470480D01*
X131770671Y-80480970D01*
X131747572Y-80489235D01*
X131723773Y-80495196D01*
X131699505Y-80498796D01*
X131675001Y-80500000D01*
X131024999Y-80500000D01*
X131000495Y-80498796D01*
X130976227Y-80495196D01*
X130952428Y-80489235D01*
X130929329Y-80480970D01*
X130907150Y-80470480D01*
X130886107Y-80457868D01*
X130866401Y-80443253D01*
X130848223Y-80426777D01*
X130831747Y-80408599D01*
X130817132Y-80388893D01*
X130804520Y-80367850D01*
X130794030Y-80345671D01*
X130785765Y-80322572D01*
X130779804Y-80298773D01*
X130776204Y-80274505D01*
X130775000Y-80250001D01*
X130775000Y-79349999D01*
X130776204Y-79325495D01*
X130779804Y-79301227D01*
X130785765Y-79277428D01*
X130794030Y-79254329D01*
X130804520Y-79232150D01*
X130817132Y-79211107D01*
X130831747Y-79191401D01*
X130848223Y-79173223D01*
X130866401Y-79156747D01*
X130886107Y-79142132D01*
X130907150Y-79129520D01*
X130929329Y-79119030D01*
X130952428Y-79110765D01*
X130976227Y-79104804D01*
X131000495Y-79101204D01*
X131024999Y-79100000D01*
X131675001Y-79100000D01*
X131699505Y-79101204D01*
X131699505Y-79101204D01*
G37*
D12*
X131350000Y-79800000D03*
D11*
G36*
X129649505Y-79101204D02*
X129673773Y-79104804D01*
X129697572Y-79110765D01*
X129720671Y-79119030D01*
X129742850Y-79129520D01*
X129763893Y-79142132D01*
X129783599Y-79156747D01*
X129801777Y-79173223D01*
X129818253Y-79191401D01*
X129832868Y-79211107D01*
X129845480Y-79232150D01*
X129855970Y-79254329D01*
X129864235Y-79277428D01*
X129870196Y-79301227D01*
X129873796Y-79325495D01*
X129875000Y-79349999D01*
X129875000Y-80250001D01*
X129873796Y-80274505D01*
X129870196Y-80298773D01*
X129864235Y-80322572D01*
X129855970Y-80345671D01*
X129845480Y-80367850D01*
X129832868Y-80388893D01*
X129818253Y-80408599D01*
X129801777Y-80426777D01*
X129783599Y-80443253D01*
X129763893Y-80457868D01*
X129742850Y-80470480D01*
X129720671Y-80480970D01*
X129697572Y-80489235D01*
X129673773Y-80495196D01*
X129649505Y-80498796D01*
X129625001Y-80500000D01*
X128974999Y-80500000D01*
X128950495Y-80498796D01*
X128926227Y-80495196D01*
X128902428Y-80489235D01*
X128879329Y-80480970D01*
X128857150Y-80470480D01*
X128836107Y-80457868D01*
X128816401Y-80443253D01*
X128798223Y-80426777D01*
X128781747Y-80408599D01*
X128767132Y-80388893D01*
X128754520Y-80367850D01*
X128744030Y-80345671D01*
X128735765Y-80322572D01*
X128729804Y-80298773D01*
X128726204Y-80274505D01*
X128725000Y-80250001D01*
X128725000Y-79349999D01*
X128726204Y-79325495D01*
X128729804Y-79301227D01*
X128735765Y-79277428D01*
X128744030Y-79254329D01*
X128754520Y-79232150D01*
X128767132Y-79211107D01*
X128781747Y-79191401D01*
X128798223Y-79173223D01*
X128816401Y-79156747D01*
X128836107Y-79142132D01*
X128857150Y-79129520D01*
X128879329Y-79119030D01*
X128902428Y-79110765D01*
X128926227Y-79104804D01*
X128950495Y-79101204D01*
X128974999Y-79100000D01*
X129625001Y-79100000D01*
X129649505Y-79101204D01*
X129649505Y-79101204D01*
G37*
D12*
X129300000Y-79800000D03*
G04 #@! TD*
D11*
G04 #@! TO.C,C14*
G36*
X134549505Y-79051204D02*
X134573773Y-79054804D01*
X134597572Y-79060765D01*
X134620671Y-79069030D01*
X134642850Y-79079520D01*
X134663893Y-79092132D01*
X134683599Y-79106747D01*
X134701777Y-79123223D01*
X134718253Y-79141401D01*
X134732868Y-79161107D01*
X134745480Y-79182150D01*
X134755970Y-79204329D01*
X134764235Y-79227428D01*
X134770196Y-79251227D01*
X134773796Y-79275495D01*
X134775000Y-79299999D01*
X134775000Y-80200001D01*
X134773796Y-80224505D01*
X134770196Y-80248773D01*
X134764235Y-80272572D01*
X134755970Y-80295671D01*
X134745480Y-80317850D01*
X134732868Y-80338893D01*
X134718253Y-80358599D01*
X134701777Y-80376777D01*
X134683599Y-80393253D01*
X134663893Y-80407868D01*
X134642850Y-80420480D01*
X134620671Y-80430970D01*
X134597572Y-80439235D01*
X134573773Y-80445196D01*
X134549505Y-80448796D01*
X134525001Y-80450000D01*
X133874999Y-80450000D01*
X133850495Y-80448796D01*
X133826227Y-80445196D01*
X133802428Y-80439235D01*
X133779329Y-80430970D01*
X133757150Y-80420480D01*
X133736107Y-80407868D01*
X133716401Y-80393253D01*
X133698223Y-80376777D01*
X133681747Y-80358599D01*
X133667132Y-80338893D01*
X133654520Y-80317850D01*
X133644030Y-80295671D01*
X133635765Y-80272572D01*
X133629804Y-80248773D01*
X133626204Y-80224505D01*
X133625000Y-80200001D01*
X133625000Y-79299999D01*
X133626204Y-79275495D01*
X133629804Y-79251227D01*
X133635765Y-79227428D01*
X133644030Y-79204329D01*
X133654520Y-79182150D01*
X133667132Y-79161107D01*
X133681747Y-79141401D01*
X133698223Y-79123223D01*
X133716401Y-79106747D01*
X133736107Y-79092132D01*
X133757150Y-79079520D01*
X133779329Y-79069030D01*
X133802428Y-79060765D01*
X133826227Y-79054804D01*
X133850495Y-79051204D01*
X133874999Y-79050000D01*
X134525001Y-79050000D01*
X134549505Y-79051204D01*
X134549505Y-79051204D01*
G37*
D12*
X134200000Y-79750000D03*
D11*
G36*
X136599505Y-79051204D02*
X136623773Y-79054804D01*
X136647572Y-79060765D01*
X136670671Y-79069030D01*
X136692850Y-79079520D01*
X136713893Y-79092132D01*
X136733599Y-79106747D01*
X136751777Y-79123223D01*
X136768253Y-79141401D01*
X136782868Y-79161107D01*
X136795480Y-79182150D01*
X136805970Y-79204329D01*
X136814235Y-79227428D01*
X136820196Y-79251227D01*
X136823796Y-79275495D01*
X136825000Y-79299999D01*
X136825000Y-80200001D01*
X136823796Y-80224505D01*
X136820196Y-80248773D01*
X136814235Y-80272572D01*
X136805970Y-80295671D01*
X136795480Y-80317850D01*
X136782868Y-80338893D01*
X136768253Y-80358599D01*
X136751777Y-80376777D01*
X136733599Y-80393253D01*
X136713893Y-80407868D01*
X136692850Y-80420480D01*
X136670671Y-80430970D01*
X136647572Y-80439235D01*
X136623773Y-80445196D01*
X136599505Y-80448796D01*
X136575001Y-80450000D01*
X135924999Y-80450000D01*
X135900495Y-80448796D01*
X135876227Y-80445196D01*
X135852428Y-80439235D01*
X135829329Y-80430970D01*
X135807150Y-80420480D01*
X135786107Y-80407868D01*
X135766401Y-80393253D01*
X135748223Y-80376777D01*
X135731747Y-80358599D01*
X135717132Y-80338893D01*
X135704520Y-80317850D01*
X135694030Y-80295671D01*
X135685765Y-80272572D01*
X135679804Y-80248773D01*
X135676204Y-80224505D01*
X135675000Y-80200001D01*
X135675000Y-79299999D01*
X135676204Y-79275495D01*
X135679804Y-79251227D01*
X135685765Y-79227428D01*
X135694030Y-79204329D01*
X135704520Y-79182150D01*
X135717132Y-79161107D01*
X135731747Y-79141401D01*
X135748223Y-79123223D01*
X135766401Y-79106747D01*
X135786107Y-79092132D01*
X135807150Y-79079520D01*
X135829329Y-79069030D01*
X135852428Y-79060765D01*
X135876227Y-79054804D01*
X135900495Y-79051204D01*
X135924999Y-79050000D01*
X136575001Y-79050000D01*
X136599505Y-79051204D01*
X136599505Y-79051204D01*
G37*
D12*
X136250000Y-79750000D03*
G04 #@! TD*
D11*
G04 #@! TO.C,C13*
G36*
X180299505Y-88601204D02*
X180323773Y-88604804D01*
X180347572Y-88610765D01*
X180370671Y-88619030D01*
X180392850Y-88629520D01*
X180413893Y-88642132D01*
X180433599Y-88656747D01*
X180451777Y-88673223D01*
X180468253Y-88691401D01*
X180482868Y-88711107D01*
X180495480Y-88732150D01*
X180505970Y-88754329D01*
X180514235Y-88777428D01*
X180520196Y-88801227D01*
X180523796Y-88825495D01*
X180525000Y-88849999D01*
X180525000Y-89750001D01*
X180523796Y-89774505D01*
X180520196Y-89798773D01*
X180514235Y-89822572D01*
X180505970Y-89845671D01*
X180495480Y-89867850D01*
X180482868Y-89888893D01*
X180468253Y-89908599D01*
X180451777Y-89926777D01*
X180433599Y-89943253D01*
X180413893Y-89957868D01*
X180392850Y-89970480D01*
X180370671Y-89980970D01*
X180347572Y-89989235D01*
X180323773Y-89995196D01*
X180299505Y-89998796D01*
X180275001Y-90000000D01*
X179624999Y-90000000D01*
X179600495Y-89998796D01*
X179576227Y-89995196D01*
X179552428Y-89989235D01*
X179529329Y-89980970D01*
X179507150Y-89970480D01*
X179486107Y-89957868D01*
X179466401Y-89943253D01*
X179448223Y-89926777D01*
X179431747Y-89908599D01*
X179417132Y-89888893D01*
X179404520Y-89867850D01*
X179394030Y-89845671D01*
X179385765Y-89822572D01*
X179379804Y-89798773D01*
X179376204Y-89774505D01*
X179375000Y-89750001D01*
X179375000Y-88849999D01*
X179376204Y-88825495D01*
X179379804Y-88801227D01*
X179385765Y-88777428D01*
X179394030Y-88754329D01*
X179404520Y-88732150D01*
X179417132Y-88711107D01*
X179431747Y-88691401D01*
X179448223Y-88673223D01*
X179466401Y-88656747D01*
X179486107Y-88642132D01*
X179507150Y-88629520D01*
X179529329Y-88619030D01*
X179552428Y-88610765D01*
X179576227Y-88604804D01*
X179600495Y-88601204D01*
X179624999Y-88600000D01*
X180275001Y-88600000D01*
X180299505Y-88601204D01*
X180299505Y-88601204D01*
G37*
D12*
X179950000Y-89300000D03*
D11*
G36*
X178249505Y-88601204D02*
X178273773Y-88604804D01*
X178297572Y-88610765D01*
X178320671Y-88619030D01*
X178342850Y-88629520D01*
X178363893Y-88642132D01*
X178383599Y-88656747D01*
X178401777Y-88673223D01*
X178418253Y-88691401D01*
X178432868Y-88711107D01*
X178445480Y-88732150D01*
X178455970Y-88754329D01*
X178464235Y-88777428D01*
X178470196Y-88801227D01*
X178473796Y-88825495D01*
X178475000Y-88849999D01*
X178475000Y-89750001D01*
X178473796Y-89774505D01*
X178470196Y-89798773D01*
X178464235Y-89822572D01*
X178455970Y-89845671D01*
X178445480Y-89867850D01*
X178432868Y-89888893D01*
X178418253Y-89908599D01*
X178401777Y-89926777D01*
X178383599Y-89943253D01*
X178363893Y-89957868D01*
X178342850Y-89970480D01*
X178320671Y-89980970D01*
X178297572Y-89989235D01*
X178273773Y-89995196D01*
X178249505Y-89998796D01*
X178225001Y-90000000D01*
X177574999Y-90000000D01*
X177550495Y-89998796D01*
X177526227Y-89995196D01*
X177502428Y-89989235D01*
X177479329Y-89980970D01*
X177457150Y-89970480D01*
X177436107Y-89957868D01*
X177416401Y-89943253D01*
X177398223Y-89926777D01*
X177381747Y-89908599D01*
X177367132Y-89888893D01*
X177354520Y-89867850D01*
X177344030Y-89845671D01*
X177335765Y-89822572D01*
X177329804Y-89798773D01*
X177326204Y-89774505D01*
X177325000Y-89750001D01*
X177325000Y-88849999D01*
X177326204Y-88825495D01*
X177329804Y-88801227D01*
X177335765Y-88777428D01*
X177344030Y-88754329D01*
X177354520Y-88732150D01*
X177367132Y-88711107D01*
X177381747Y-88691401D01*
X177398223Y-88673223D01*
X177416401Y-88656747D01*
X177436107Y-88642132D01*
X177457150Y-88629520D01*
X177479329Y-88619030D01*
X177502428Y-88610765D01*
X177526227Y-88604804D01*
X177550495Y-88601204D01*
X177574999Y-88600000D01*
X178225001Y-88600000D01*
X178249505Y-88601204D01*
X178249505Y-88601204D01*
G37*
D12*
X177900000Y-89300000D03*
G04 #@! TD*
D17*
G04 #@! TO.C,T3*
X186210000Y-125200000D03*
X183590000Y-124250000D03*
X183590000Y-126150000D03*
G04 #@! TD*
D11*
G04 #@! TO.C,R13*
G36*
X178099505Y-129801204D02*
X178123773Y-129804804D01*
X178147572Y-129810765D01*
X178170671Y-129819030D01*
X178192850Y-129829520D01*
X178213893Y-129842132D01*
X178233599Y-129856747D01*
X178251777Y-129873223D01*
X178268253Y-129891401D01*
X178282868Y-129911107D01*
X178295480Y-129932150D01*
X178305970Y-129954329D01*
X178314235Y-129977428D01*
X178320196Y-130001227D01*
X178323796Y-130025495D01*
X178325000Y-130049999D01*
X178325000Y-130950001D01*
X178323796Y-130974505D01*
X178320196Y-130998773D01*
X178314235Y-131022572D01*
X178305970Y-131045671D01*
X178295480Y-131067850D01*
X178282868Y-131088893D01*
X178268253Y-131108599D01*
X178251777Y-131126777D01*
X178233599Y-131143253D01*
X178213893Y-131157868D01*
X178192850Y-131170480D01*
X178170671Y-131180970D01*
X178147572Y-131189235D01*
X178123773Y-131195196D01*
X178099505Y-131198796D01*
X178075001Y-131200000D01*
X177424999Y-131200000D01*
X177400495Y-131198796D01*
X177376227Y-131195196D01*
X177352428Y-131189235D01*
X177329329Y-131180970D01*
X177307150Y-131170480D01*
X177286107Y-131157868D01*
X177266401Y-131143253D01*
X177248223Y-131126777D01*
X177231747Y-131108599D01*
X177217132Y-131088893D01*
X177204520Y-131067850D01*
X177194030Y-131045671D01*
X177185765Y-131022572D01*
X177179804Y-130998773D01*
X177176204Y-130974505D01*
X177175000Y-130950001D01*
X177175000Y-130049999D01*
X177176204Y-130025495D01*
X177179804Y-130001227D01*
X177185765Y-129977428D01*
X177194030Y-129954329D01*
X177204520Y-129932150D01*
X177217132Y-129911107D01*
X177231747Y-129891401D01*
X177248223Y-129873223D01*
X177266401Y-129856747D01*
X177286107Y-129842132D01*
X177307150Y-129829520D01*
X177329329Y-129819030D01*
X177352428Y-129810765D01*
X177376227Y-129804804D01*
X177400495Y-129801204D01*
X177424999Y-129800000D01*
X178075001Y-129800000D01*
X178099505Y-129801204D01*
X178099505Y-129801204D01*
G37*
D12*
X177750000Y-130500000D03*
D11*
G36*
X180149505Y-129801204D02*
X180173773Y-129804804D01*
X180197572Y-129810765D01*
X180220671Y-129819030D01*
X180242850Y-129829520D01*
X180263893Y-129842132D01*
X180283599Y-129856747D01*
X180301777Y-129873223D01*
X180318253Y-129891401D01*
X180332868Y-129911107D01*
X180345480Y-129932150D01*
X180355970Y-129954329D01*
X180364235Y-129977428D01*
X180370196Y-130001227D01*
X180373796Y-130025495D01*
X180375000Y-130049999D01*
X180375000Y-130950001D01*
X180373796Y-130974505D01*
X180370196Y-130998773D01*
X180364235Y-131022572D01*
X180355970Y-131045671D01*
X180345480Y-131067850D01*
X180332868Y-131088893D01*
X180318253Y-131108599D01*
X180301777Y-131126777D01*
X180283599Y-131143253D01*
X180263893Y-131157868D01*
X180242850Y-131170480D01*
X180220671Y-131180970D01*
X180197572Y-131189235D01*
X180173773Y-131195196D01*
X180149505Y-131198796D01*
X180125001Y-131200000D01*
X179474999Y-131200000D01*
X179450495Y-131198796D01*
X179426227Y-131195196D01*
X179402428Y-131189235D01*
X179379329Y-131180970D01*
X179357150Y-131170480D01*
X179336107Y-131157868D01*
X179316401Y-131143253D01*
X179298223Y-131126777D01*
X179281747Y-131108599D01*
X179267132Y-131088893D01*
X179254520Y-131067850D01*
X179244030Y-131045671D01*
X179235765Y-131022572D01*
X179229804Y-130998773D01*
X179226204Y-130974505D01*
X179225000Y-130950001D01*
X179225000Y-130049999D01*
X179226204Y-130025495D01*
X179229804Y-130001227D01*
X179235765Y-129977428D01*
X179244030Y-129954329D01*
X179254520Y-129932150D01*
X179267132Y-129911107D01*
X179281747Y-129891401D01*
X179298223Y-129873223D01*
X179316401Y-129856747D01*
X179336107Y-129842132D01*
X179357150Y-129829520D01*
X179379329Y-129819030D01*
X179402428Y-129810765D01*
X179426227Y-129804804D01*
X179450495Y-129801204D01*
X179474999Y-129800000D01*
X180125001Y-129800000D01*
X180149505Y-129801204D01*
X180149505Y-129801204D01*
G37*
D12*
X179800000Y-130500000D03*
G04 #@! TD*
D11*
G04 #@! TO.C,R12*
G36*
X178124505Y-125501204D02*
X178148773Y-125504804D01*
X178172572Y-125510765D01*
X178195671Y-125519030D01*
X178217850Y-125529520D01*
X178238893Y-125542132D01*
X178258599Y-125556747D01*
X178276777Y-125573223D01*
X178293253Y-125591401D01*
X178307868Y-125611107D01*
X178320480Y-125632150D01*
X178330970Y-125654329D01*
X178339235Y-125677428D01*
X178345196Y-125701227D01*
X178348796Y-125725495D01*
X178350000Y-125749999D01*
X178350000Y-126650001D01*
X178348796Y-126674505D01*
X178345196Y-126698773D01*
X178339235Y-126722572D01*
X178330970Y-126745671D01*
X178320480Y-126767850D01*
X178307868Y-126788893D01*
X178293253Y-126808599D01*
X178276777Y-126826777D01*
X178258599Y-126843253D01*
X178238893Y-126857868D01*
X178217850Y-126870480D01*
X178195671Y-126880970D01*
X178172572Y-126889235D01*
X178148773Y-126895196D01*
X178124505Y-126898796D01*
X178100001Y-126900000D01*
X177449999Y-126900000D01*
X177425495Y-126898796D01*
X177401227Y-126895196D01*
X177377428Y-126889235D01*
X177354329Y-126880970D01*
X177332150Y-126870480D01*
X177311107Y-126857868D01*
X177291401Y-126843253D01*
X177273223Y-126826777D01*
X177256747Y-126808599D01*
X177242132Y-126788893D01*
X177229520Y-126767850D01*
X177219030Y-126745671D01*
X177210765Y-126722572D01*
X177204804Y-126698773D01*
X177201204Y-126674505D01*
X177200000Y-126650001D01*
X177200000Y-125749999D01*
X177201204Y-125725495D01*
X177204804Y-125701227D01*
X177210765Y-125677428D01*
X177219030Y-125654329D01*
X177229520Y-125632150D01*
X177242132Y-125611107D01*
X177256747Y-125591401D01*
X177273223Y-125573223D01*
X177291401Y-125556747D01*
X177311107Y-125542132D01*
X177332150Y-125529520D01*
X177354329Y-125519030D01*
X177377428Y-125510765D01*
X177401227Y-125504804D01*
X177425495Y-125501204D01*
X177449999Y-125500000D01*
X178100001Y-125500000D01*
X178124505Y-125501204D01*
X178124505Y-125501204D01*
G37*
D12*
X177775000Y-126200000D03*
D11*
G36*
X180174505Y-125501204D02*
X180198773Y-125504804D01*
X180222572Y-125510765D01*
X180245671Y-125519030D01*
X180267850Y-125529520D01*
X180288893Y-125542132D01*
X180308599Y-125556747D01*
X180326777Y-125573223D01*
X180343253Y-125591401D01*
X180357868Y-125611107D01*
X180370480Y-125632150D01*
X180380970Y-125654329D01*
X180389235Y-125677428D01*
X180395196Y-125701227D01*
X180398796Y-125725495D01*
X180400000Y-125749999D01*
X180400000Y-126650001D01*
X180398796Y-126674505D01*
X180395196Y-126698773D01*
X180389235Y-126722572D01*
X180380970Y-126745671D01*
X180370480Y-126767850D01*
X180357868Y-126788893D01*
X180343253Y-126808599D01*
X180326777Y-126826777D01*
X180308599Y-126843253D01*
X180288893Y-126857868D01*
X180267850Y-126870480D01*
X180245671Y-126880970D01*
X180222572Y-126889235D01*
X180198773Y-126895196D01*
X180174505Y-126898796D01*
X180150001Y-126900000D01*
X179499999Y-126900000D01*
X179475495Y-126898796D01*
X179451227Y-126895196D01*
X179427428Y-126889235D01*
X179404329Y-126880970D01*
X179382150Y-126870480D01*
X179361107Y-126857868D01*
X179341401Y-126843253D01*
X179323223Y-126826777D01*
X179306747Y-126808599D01*
X179292132Y-126788893D01*
X179279520Y-126767850D01*
X179269030Y-126745671D01*
X179260765Y-126722572D01*
X179254804Y-126698773D01*
X179251204Y-126674505D01*
X179250000Y-126650001D01*
X179250000Y-125749999D01*
X179251204Y-125725495D01*
X179254804Y-125701227D01*
X179260765Y-125677428D01*
X179269030Y-125654329D01*
X179279520Y-125632150D01*
X179292132Y-125611107D01*
X179306747Y-125591401D01*
X179323223Y-125573223D01*
X179341401Y-125556747D01*
X179361107Y-125542132D01*
X179382150Y-125529520D01*
X179404329Y-125519030D01*
X179427428Y-125510765D01*
X179451227Y-125504804D01*
X179475495Y-125501204D01*
X179499999Y-125500000D01*
X180150001Y-125500000D01*
X180174505Y-125501204D01*
X180174505Y-125501204D01*
G37*
D12*
X179825000Y-126200000D03*
G04 #@! TD*
D18*
G04 #@! TO.C,L1*
X172800000Y-101600000D03*
X177800000Y-101600000D03*
G04 #@! TD*
D19*
G04 #@! TO.C,D1*
X172750000Y-96000000D03*
X176050000Y-96000000D03*
G04 #@! TD*
D11*
G04 #@! TO.C,C3*
G36*
X174299505Y-88901204D02*
X174323773Y-88904804D01*
X174347572Y-88910765D01*
X174370671Y-88919030D01*
X174392850Y-88929520D01*
X174413893Y-88942132D01*
X174433599Y-88956747D01*
X174451777Y-88973223D01*
X174468253Y-88991401D01*
X174482868Y-89011107D01*
X174495480Y-89032150D01*
X174505970Y-89054329D01*
X174514235Y-89077428D01*
X174520196Y-89101227D01*
X174523796Y-89125495D01*
X174525000Y-89149999D01*
X174525000Y-90050001D01*
X174523796Y-90074505D01*
X174520196Y-90098773D01*
X174514235Y-90122572D01*
X174505970Y-90145671D01*
X174495480Y-90167850D01*
X174482868Y-90188893D01*
X174468253Y-90208599D01*
X174451777Y-90226777D01*
X174433599Y-90243253D01*
X174413893Y-90257868D01*
X174392850Y-90270480D01*
X174370671Y-90280970D01*
X174347572Y-90289235D01*
X174323773Y-90295196D01*
X174299505Y-90298796D01*
X174275001Y-90300000D01*
X173624999Y-90300000D01*
X173600495Y-90298796D01*
X173576227Y-90295196D01*
X173552428Y-90289235D01*
X173529329Y-90280970D01*
X173507150Y-90270480D01*
X173486107Y-90257868D01*
X173466401Y-90243253D01*
X173448223Y-90226777D01*
X173431747Y-90208599D01*
X173417132Y-90188893D01*
X173404520Y-90167850D01*
X173394030Y-90145671D01*
X173385765Y-90122572D01*
X173379804Y-90098773D01*
X173376204Y-90074505D01*
X173375000Y-90050001D01*
X173375000Y-89149999D01*
X173376204Y-89125495D01*
X173379804Y-89101227D01*
X173385765Y-89077428D01*
X173394030Y-89054329D01*
X173404520Y-89032150D01*
X173417132Y-89011107D01*
X173431747Y-88991401D01*
X173448223Y-88973223D01*
X173466401Y-88956747D01*
X173486107Y-88942132D01*
X173507150Y-88929520D01*
X173529329Y-88919030D01*
X173552428Y-88910765D01*
X173576227Y-88904804D01*
X173600495Y-88901204D01*
X173624999Y-88900000D01*
X174275001Y-88900000D01*
X174299505Y-88901204D01*
X174299505Y-88901204D01*
G37*
D12*
X173950000Y-89600000D03*
D11*
G36*
X176349505Y-88901204D02*
X176373773Y-88904804D01*
X176397572Y-88910765D01*
X176420671Y-88919030D01*
X176442850Y-88929520D01*
X176463893Y-88942132D01*
X176483599Y-88956747D01*
X176501777Y-88973223D01*
X176518253Y-88991401D01*
X176532868Y-89011107D01*
X176545480Y-89032150D01*
X176555970Y-89054329D01*
X176564235Y-89077428D01*
X176570196Y-89101227D01*
X176573796Y-89125495D01*
X176575000Y-89149999D01*
X176575000Y-90050001D01*
X176573796Y-90074505D01*
X176570196Y-90098773D01*
X176564235Y-90122572D01*
X176555970Y-90145671D01*
X176545480Y-90167850D01*
X176532868Y-90188893D01*
X176518253Y-90208599D01*
X176501777Y-90226777D01*
X176483599Y-90243253D01*
X176463893Y-90257868D01*
X176442850Y-90270480D01*
X176420671Y-90280970D01*
X176397572Y-90289235D01*
X176373773Y-90295196D01*
X176349505Y-90298796D01*
X176325001Y-90300000D01*
X175674999Y-90300000D01*
X175650495Y-90298796D01*
X175626227Y-90295196D01*
X175602428Y-90289235D01*
X175579329Y-90280970D01*
X175557150Y-90270480D01*
X175536107Y-90257868D01*
X175516401Y-90243253D01*
X175498223Y-90226777D01*
X175481747Y-90208599D01*
X175467132Y-90188893D01*
X175454520Y-90167850D01*
X175444030Y-90145671D01*
X175435765Y-90122572D01*
X175429804Y-90098773D01*
X175426204Y-90074505D01*
X175425000Y-90050001D01*
X175425000Y-89149999D01*
X175426204Y-89125495D01*
X175429804Y-89101227D01*
X175435765Y-89077428D01*
X175444030Y-89054329D01*
X175454520Y-89032150D01*
X175467132Y-89011107D01*
X175481747Y-88991401D01*
X175498223Y-88973223D01*
X175516401Y-88956747D01*
X175536107Y-88942132D01*
X175557150Y-88929520D01*
X175579329Y-88919030D01*
X175602428Y-88910765D01*
X175626227Y-88904804D01*
X175650495Y-88901204D01*
X175674999Y-88900000D01*
X176325001Y-88900000D01*
X176349505Y-88901204D01*
X176349505Y-88901204D01*
G37*
D12*
X176000000Y-89600000D03*
G04 #@! TD*
D11*
G04 #@! TO.C,C12*
G36*
X180749505Y-95101204D02*
X180773773Y-95104804D01*
X180797572Y-95110765D01*
X180820671Y-95119030D01*
X180842850Y-95129520D01*
X180863893Y-95142132D01*
X180883599Y-95156747D01*
X180901777Y-95173223D01*
X180918253Y-95191401D01*
X180932868Y-95211107D01*
X180945480Y-95232150D01*
X180955970Y-95254329D01*
X180964235Y-95277428D01*
X180970196Y-95301227D01*
X180973796Y-95325495D01*
X180975000Y-95349999D01*
X180975000Y-96250001D01*
X180973796Y-96274505D01*
X180970196Y-96298773D01*
X180964235Y-96322572D01*
X180955970Y-96345671D01*
X180945480Y-96367850D01*
X180932868Y-96388893D01*
X180918253Y-96408599D01*
X180901777Y-96426777D01*
X180883599Y-96443253D01*
X180863893Y-96457868D01*
X180842850Y-96470480D01*
X180820671Y-96480970D01*
X180797572Y-96489235D01*
X180773773Y-96495196D01*
X180749505Y-96498796D01*
X180725001Y-96500000D01*
X180074999Y-96500000D01*
X180050495Y-96498796D01*
X180026227Y-96495196D01*
X180002428Y-96489235D01*
X179979329Y-96480970D01*
X179957150Y-96470480D01*
X179936107Y-96457868D01*
X179916401Y-96443253D01*
X179898223Y-96426777D01*
X179881747Y-96408599D01*
X179867132Y-96388893D01*
X179854520Y-96367850D01*
X179844030Y-96345671D01*
X179835765Y-96322572D01*
X179829804Y-96298773D01*
X179826204Y-96274505D01*
X179825000Y-96250001D01*
X179825000Y-95349999D01*
X179826204Y-95325495D01*
X179829804Y-95301227D01*
X179835765Y-95277428D01*
X179844030Y-95254329D01*
X179854520Y-95232150D01*
X179867132Y-95211107D01*
X179881747Y-95191401D01*
X179898223Y-95173223D01*
X179916401Y-95156747D01*
X179936107Y-95142132D01*
X179957150Y-95129520D01*
X179979329Y-95119030D01*
X180002428Y-95110765D01*
X180026227Y-95104804D01*
X180050495Y-95101204D01*
X180074999Y-95100000D01*
X180725001Y-95100000D01*
X180749505Y-95101204D01*
X180749505Y-95101204D01*
G37*
D12*
X180400000Y-95800000D03*
D11*
G36*
X178699505Y-95101204D02*
X178723773Y-95104804D01*
X178747572Y-95110765D01*
X178770671Y-95119030D01*
X178792850Y-95129520D01*
X178813893Y-95142132D01*
X178833599Y-95156747D01*
X178851777Y-95173223D01*
X178868253Y-95191401D01*
X178882868Y-95211107D01*
X178895480Y-95232150D01*
X178905970Y-95254329D01*
X178914235Y-95277428D01*
X178920196Y-95301227D01*
X178923796Y-95325495D01*
X178925000Y-95349999D01*
X178925000Y-96250001D01*
X178923796Y-96274505D01*
X178920196Y-96298773D01*
X178914235Y-96322572D01*
X178905970Y-96345671D01*
X178895480Y-96367850D01*
X178882868Y-96388893D01*
X178868253Y-96408599D01*
X178851777Y-96426777D01*
X178833599Y-96443253D01*
X178813893Y-96457868D01*
X178792850Y-96470480D01*
X178770671Y-96480970D01*
X178747572Y-96489235D01*
X178723773Y-96495196D01*
X178699505Y-96498796D01*
X178675001Y-96500000D01*
X178024999Y-96500000D01*
X178000495Y-96498796D01*
X177976227Y-96495196D01*
X177952428Y-96489235D01*
X177929329Y-96480970D01*
X177907150Y-96470480D01*
X177886107Y-96457868D01*
X177866401Y-96443253D01*
X177848223Y-96426777D01*
X177831747Y-96408599D01*
X177817132Y-96388893D01*
X177804520Y-96367850D01*
X177794030Y-96345671D01*
X177785765Y-96322572D01*
X177779804Y-96298773D01*
X177776204Y-96274505D01*
X177775000Y-96250001D01*
X177775000Y-95349999D01*
X177776204Y-95325495D01*
X177779804Y-95301227D01*
X177785765Y-95277428D01*
X177794030Y-95254329D01*
X177804520Y-95232150D01*
X177817132Y-95211107D01*
X177831747Y-95191401D01*
X177848223Y-95173223D01*
X177866401Y-95156747D01*
X177886107Y-95142132D01*
X177907150Y-95129520D01*
X177929329Y-95119030D01*
X177952428Y-95110765D01*
X177976227Y-95104804D01*
X178000495Y-95101204D01*
X178024999Y-95100000D01*
X178675001Y-95100000D01*
X178699505Y-95101204D01*
X178699505Y-95101204D01*
G37*
D12*
X178350000Y-95800000D03*
G04 #@! TD*
D11*
G04 #@! TO.C,C11*
G36*
X141324505Y-121501204D02*
X141348773Y-121504804D01*
X141372572Y-121510765D01*
X141395671Y-121519030D01*
X141417850Y-121529520D01*
X141438893Y-121542132D01*
X141458599Y-121556747D01*
X141476777Y-121573223D01*
X141493253Y-121591401D01*
X141507868Y-121611107D01*
X141520480Y-121632150D01*
X141530970Y-121654329D01*
X141539235Y-121677428D01*
X141545196Y-121701227D01*
X141548796Y-121725495D01*
X141550000Y-121749999D01*
X141550000Y-122650001D01*
X141548796Y-122674505D01*
X141545196Y-122698773D01*
X141539235Y-122722572D01*
X141530970Y-122745671D01*
X141520480Y-122767850D01*
X141507868Y-122788893D01*
X141493253Y-122808599D01*
X141476777Y-122826777D01*
X141458599Y-122843253D01*
X141438893Y-122857868D01*
X141417850Y-122870480D01*
X141395671Y-122880970D01*
X141372572Y-122889235D01*
X141348773Y-122895196D01*
X141324505Y-122898796D01*
X141300001Y-122900000D01*
X140649999Y-122900000D01*
X140625495Y-122898796D01*
X140601227Y-122895196D01*
X140577428Y-122889235D01*
X140554329Y-122880970D01*
X140532150Y-122870480D01*
X140511107Y-122857868D01*
X140491401Y-122843253D01*
X140473223Y-122826777D01*
X140456747Y-122808599D01*
X140442132Y-122788893D01*
X140429520Y-122767850D01*
X140419030Y-122745671D01*
X140410765Y-122722572D01*
X140404804Y-122698773D01*
X140401204Y-122674505D01*
X140400000Y-122650001D01*
X140400000Y-121749999D01*
X140401204Y-121725495D01*
X140404804Y-121701227D01*
X140410765Y-121677428D01*
X140419030Y-121654329D01*
X140429520Y-121632150D01*
X140442132Y-121611107D01*
X140456747Y-121591401D01*
X140473223Y-121573223D01*
X140491401Y-121556747D01*
X140511107Y-121542132D01*
X140532150Y-121529520D01*
X140554329Y-121519030D01*
X140577428Y-121510765D01*
X140601227Y-121504804D01*
X140625495Y-121501204D01*
X140649999Y-121500000D01*
X141300001Y-121500000D01*
X141324505Y-121501204D01*
X141324505Y-121501204D01*
G37*
D12*
X140975000Y-122200000D03*
D11*
G36*
X143374505Y-121501204D02*
X143398773Y-121504804D01*
X143422572Y-121510765D01*
X143445671Y-121519030D01*
X143467850Y-121529520D01*
X143488893Y-121542132D01*
X143508599Y-121556747D01*
X143526777Y-121573223D01*
X143543253Y-121591401D01*
X143557868Y-121611107D01*
X143570480Y-121632150D01*
X143580970Y-121654329D01*
X143589235Y-121677428D01*
X143595196Y-121701227D01*
X143598796Y-121725495D01*
X143600000Y-121749999D01*
X143600000Y-122650001D01*
X143598796Y-122674505D01*
X143595196Y-122698773D01*
X143589235Y-122722572D01*
X143580970Y-122745671D01*
X143570480Y-122767850D01*
X143557868Y-122788893D01*
X143543253Y-122808599D01*
X143526777Y-122826777D01*
X143508599Y-122843253D01*
X143488893Y-122857868D01*
X143467850Y-122870480D01*
X143445671Y-122880970D01*
X143422572Y-122889235D01*
X143398773Y-122895196D01*
X143374505Y-122898796D01*
X143350001Y-122900000D01*
X142699999Y-122900000D01*
X142675495Y-122898796D01*
X142651227Y-122895196D01*
X142627428Y-122889235D01*
X142604329Y-122880970D01*
X142582150Y-122870480D01*
X142561107Y-122857868D01*
X142541401Y-122843253D01*
X142523223Y-122826777D01*
X142506747Y-122808599D01*
X142492132Y-122788893D01*
X142479520Y-122767850D01*
X142469030Y-122745671D01*
X142460765Y-122722572D01*
X142454804Y-122698773D01*
X142451204Y-122674505D01*
X142450000Y-122650001D01*
X142450000Y-121749999D01*
X142451204Y-121725495D01*
X142454804Y-121701227D01*
X142460765Y-121677428D01*
X142469030Y-121654329D01*
X142479520Y-121632150D01*
X142492132Y-121611107D01*
X142506747Y-121591401D01*
X142523223Y-121573223D01*
X142541401Y-121556747D01*
X142561107Y-121542132D01*
X142582150Y-121529520D01*
X142604329Y-121519030D01*
X142627428Y-121510765D01*
X142651227Y-121504804D01*
X142675495Y-121501204D01*
X142699999Y-121500000D01*
X143350001Y-121500000D01*
X143374505Y-121501204D01*
X143374505Y-121501204D01*
G37*
D12*
X143025000Y-122200000D03*
G04 #@! TD*
D11*
G04 #@! TO.C,C9*
G36*
X148724505Y-95401204D02*
X148748773Y-95404804D01*
X148772572Y-95410765D01*
X148795671Y-95419030D01*
X148817850Y-95429520D01*
X148838893Y-95442132D01*
X148858599Y-95456747D01*
X148876777Y-95473223D01*
X148893253Y-95491401D01*
X148907868Y-95511107D01*
X148920480Y-95532150D01*
X148930970Y-95554329D01*
X148939235Y-95577428D01*
X148945196Y-95601227D01*
X148948796Y-95625495D01*
X148950000Y-95649999D01*
X148950000Y-96300001D01*
X148948796Y-96324505D01*
X148945196Y-96348773D01*
X148939235Y-96372572D01*
X148930970Y-96395671D01*
X148920480Y-96417850D01*
X148907868Y-96438893D01*
X148893253Y-96458599D01*
X148876777Y-96476777D01*
X148858599Y-96493253D01*
X148838893Y-96507868D01*
X148817850Y-96520480D01*
X148795671Y-96530970D01*
X148772572Y-96539235D01*
X148748773Y-96545196D01*
X148724505Y-96548796D01*
X148700001Y-96550000D01*
X147799999Y-96550000D01*
X147775495Y-96548796D01*
X147751227Y-96545196D01*
X147727428Y-96539235D01*
X147704329Y-96530970D01*
X147682150Y-96520480D01*
X147661107Y-96507868D01*
X147641401Y-96493253D01*
X147623223Y-96476777D01*
X147606747Y-96458599D01*
X147592132Y-96438893D01*
X147579520Y-96417850D01*
X147569030Y-96395671D01*
X147560765Y-96372572D01*
X147554804Y-96348773D01*
X147551204Y-96324505D01*
X147550000Y-96300001D01*
X147550000Y-95649999D01*
X147551204Y-95625495D01*
X147554804Y-95601227D01*
X147560765Y-95577428D01*
X147569030Y-95554329D01*
X147579520Y-95532150D01*
X147592132Y-95511107D01*
X147606747Y-95491401D01*
X147623223Y-95473223D01*
X147641401Y-95456747D01*
X147661107Y-95442132D01*
X147682150Y-95429520D01*
X147704329Y-95419030D01*
X147727428Y-95410765D01*
X147751227Y-95404804D01*
X147775495Y-95401204D01*
X147799999Y-95400000D01*
X148700001Y-95400000D01*
X148724505Y-95401204D01*
X148724505Y-95401204D01*
G37*
D12*
X148250000Y-95975000D03*
D11*
G36*
X148724505Y-97451204D02*
X148748773Y-97454804D01*
X148772572Y-97460765D01*
X148795671Y-97469030D01*
X148817850Y-97479520D01*
X148838893Y-97492132D01*
X148858599Y-97506747D01*
X148876777Y-97523223D01*
X148893253Y-97541401D01*
X148907868Y-97561107D01*
X148920480Y-97582150D01*
X148930970Y-97604329D01*
X148939235Y-97627428D01*
X148945196Y-97651227D01*
X148948796Y-97675495D01*
X148950000Y-97699999D01*
X148950000Y-98350001D01*
X148948796Y-98374505D01*
X148945196Y-98398773D01*
X148939235Y-98422572D01*
X148930970Y-98445671D01*
X148920480Y-98467850D01*
X148907868Y-98488893D01*
X148893253Y-98508599D01*
X148876777Y-98526777D01*
X148858599Y-98543253D01*
X148838893Y-98557868D01*
X148817850Y-98570480D01*
X148795671Y-98580970D01*
X148772572Y-98589235D01*
X148748773Y-98595196D01*
X148724505Y-98598796D01*
X148700001Y-98600000D01*
X147799999Y-98600000D01*
X147775495Y-98598796D01*
X147751227Y-98595196D01*
X147727428Y-98589235D01*
X147704329Y-98580970D01*
X147682150Y-98570480D01*
X147661107Y-98557868D01*
X147641401Y-98543253D01*
X147623223Y-98526777D01*
X147606747Y-98508599D01*
X147592132Y-98488893D01*
X147579520Y-98467850D01*
X147569030Y-98445671D01*
X147560765Y-98422572D01*
X147554804Y-98398773D01*
X147551204Y-98374505D01*
X147550000Y-98350001D01*
X147550000Y-97699999D01*
X147551204Y-97675495D01*
X147554804Y-97651227D01*
X147560765Y-97627428D01*
X147569030Y-97604329D01*
X147579520Y-97582150D01*
X147592132Y-97561107D01*
X147606747Y-97541401D01*
X147623223Y-97523223D01*
X147641401Y-97506747D01*
X147661107Y-97492132D01*
X147682150Y-97479520D01*
X147704329Y-97469030D01*
X147727428Y-97460765D01*
X147751227Y-97454804D01*
X147775495Y-97451204D01*
X147799999Y-97450000D01*
X148700001Y-97450000D01*
X148724505Y-97451204D01*
X148724505Y-97451204D01*
G37*
D12*
X148250000Y-98025000D03*
G04 #@! TD*
D11*
G04 #@! TO.C,C7*
G36*
X201349505Y-109801204D02*
X201373773Y-109804804D01*
X201397572Y-109810765D01*
X201420671Y-109819030D01*
X201442850Y-109829520D01*
X201463893Y-109842132D01*
X201483599Y-109856747D01*
X201501777Y-109873223D01*
X201518253Y-109891401D01*
X201532868Y-109911107D01*
X201545480Y-109932150D01*
X201555970Y-109954329D01*
X201564235Y-109977428D01*
X201570196Y-110001227D01*
X201573796Y-110025495D01*
X201575000Y-110049999D01*
X201575000Y-110950001D01*
X201573796Y-110974505D01*
X201570196Y-110998773D01*
X201564235Y-111022572D01*
X201555970Y-111045671D01*
X201545480Y-111067850D01*
X201532868Y-111088893D01*
X201518253Y-111108599D01*
X201501777Y-111126777D01*
X201483599Y-111143253D01*
X201463893Y-111157868D01*
X201442850Y-111170480D01*
X201420671Y-111180970D01*
X201397572Y-111189235D01*
X201373773Y-111195196D01*
X201349505Y-111198796D01*
X201325001Y-111200000D01*
X200674999Y-111200000D01*
X200650495Y-111198796D01*
X200626227Y-111195196D01*
X200602428Y-111189235D01*
X200579329Y-111180970D01*
X200557150Y-111170480D01*
X200536107Y-111157868D01*
X200516401Y-111143253D01*
X200498223Y-111126777D01*
X200481747Y-111108599D01*
X200467132Y-111088893D01*
X200454520Y-111067850D01*
X200444030Y-111045671D01*
X200435765Y-111022572D01*
X200429804Y-110998773D01*
X200426204Y-110974505D01*
X200425000Y-110950001D01*
X200425000Y-110049999D01*
X200426204Y-110025495D01*
X200429804Y-110001227D01*
X200435765Y-109977428D01*
X200444030Y-109954329D01*
X200454520Y-109932150D01*
X200467132Y-109911107D01*
X200481747Y-109891401D01*
X200498223Y-109873223D01*
X200516401Y-109856747D01*
X200536107Y-109842132D01*
X200557150Y-109829520D01*
X200579329Y-109819030D01*
X200602428Y-109810765D01*
X200626227Y-109804804D01*
X200650495Y-109801204D01*
X200674999Y-109800000D01*
X201325001Y-109800000D01*
X201349505Y-109801204D01*
X201349505Y-109801204D01*
G37*
D12*
X201000000Y-110500000D03*
D11*
G36*
X203399505Y-109801204D02*
X203423773Y-109804804D01*
X203447572Y-109810765D01*
X203470671Y-109819030D01*
X203492850Y-109829520D01*
X203513893Y-109842132D01*
X203533599Y-109856747D01*
X203551777Y-109873223D01*
X203568253Y-109891401D01*
X203582868Y-109911107D01*
X203595480Y-109932150D01*
X203605970Y-109954329D01*
X203614235Y-109977428D01*
X203620196Y-110001227D01*
X203623796Y-110025495D01*
X203625000Y-110049999D01*
X203625000Y-110950001D01*
X203623796Y-110974505D01*
X203620196Y-110998773D01*
X203614235Y-111022572D01*
X203605970Y-111045671D01*
X203595480Y-111067850D01*
X203582868Y-111088893D01*
X203568253Y-111108599D01*
X203551777Y-111126777D01*
X203533599Y-111143253D01*
X203513893Y-111157868D01*
X203492850Y-111170480D01*
X203470671Y-111180970D01*
X203447572Y-111189235D01*
X203423773Y-111195196D01*
X203399505Y-111198796D01*
X203375001Y-111200000D01*
X202724999Y-111200000D01*
X202700495Y-111198796D01*
X202676227Y-111195196D01*
X202652428Y-111189235D01*
X202629329Y-111180970D01*
X202607150Y-111170480D01*
X202586107Y-111157868D01*
X202566401Y-111143253D01*
X202548223Y-111126777D01*
X202531747Y-111108599D01*
X202517132Y-111088893D01*
X202504520Y-111067850D01*
X202494030Y-111045671D01*
X202485765Y-111022572D01*
X202479804Y-110998773D01*
X202476204Y-110974505D01*
X202475000Y-110950001D01*
X202475000Y-110049999D01*
X202476204Y-110025495D01*
X202479804Y-110001227D01*
X202485765Y-109977428D01*
X202494030Y-109954329D01*
X202504520Y-109932150D01*
X202517132Y-109911107D01*
X202531747Y-109891401D01*
X202548223Y-109873223D01*
X202566401Y-109856747D01*
X202586107Y-109842132D01*
X202607150Y-109829520D01*
X202629329Y-109819030D01*
X202652428Y-109810765D01*
X202676227Y-109804804D01*
X202700495Y-109801204D01*
X202724999Y-109800000D01*
X203375001Y-109800000D01*
X203399505Y-109801204D01*
X203399505Y-109801204D01*
G37*
D12*
X203050000Y-110500000D03*
G04 #@! TD*
D11*
G04 #@! TO.C,C6*
G36*
X127324505Y-101301204D02*
X127348773Y-101304804D01*
X127372572Y-101310765D01*
X127395671Y-101319030D01*
X127417850Y-101329520D01*
X127438893Y-101342132D01*
X127458599Y-101356747D01*
X127476777Y-101373223D01*
X127493253Y-101391401D01*
X127507868Y-101411107D01*
X127520480Y-101432150D01*
X127530970Y-101454329D01*
X127539235Y-101477428D01*
X127545196Y-101501227D01*
X127548796Y-101525495D01*
X127550000Y-101549999D01*
X127550000Y-102450001D01*
X127548796Y-102474505D01*
X127545196Y-102498773D01*
X127539235Y-102522572D01*
X127530970Y-102545671D01*
X127520480Y-102567850D01*
X127507868Y-102588893D01*
X127493253Y-102608599D01*
X127476777Y-102626777D01*
X127458599Y-102643253D01*
X127438893Y-102657868D01*
X127417850Y-102670480D01*
X127395671Y-102680970D01*
X127372572Y-102689235D01*
X127348773Y-102695196D01*
X127324505Y-102698796D01*
X127300001Y-102700000D01*
X126649999Y-102700000D01*
X126625495Y-102698796D01*
X126601227Y-102695196D01*
X126577428Y-102689235D01*
X126554329Y-102680970D01*
X126532150Y-102670480D01*
X126511107Y-102657868D01*
X126491401Y-102643253D01*
X126473223Y-102626777D01*
X126456747Y-102608599D01*
X126442132Y-102588893D01*
X126429520Y-102567850D01*
X126419030Y-102545671D01*
X126410765Y-102522572D01*
X126404804Y-102498773D01*
X126401204Y-102474505D01*
X126400000Y-102450001D01*
X126400000Y-101549999D01*
X126401204Y-101525495D01*
X126404804Y-101501227D01*
X126410765Y-101477428D01*
X126419030Y-101454329D01*
X126429520Y-101432150D01*
X126442132Y-101411107D01*
X126456747Y-101391401D01*
X126473223Y-101373223D01*
X126491401Y-101356747D01*
X126511107Y-101342132D01*
X126532150Y-101329520D01*
X126554329Y-101319030D01*
X126577428Y-101310765D01*
X126601227Y-101304804D01*
X126625495Y-101301204D01*
X126649999Y-101300000D01*
X127300001Y-101300000D01*
X127324505Y-101301204D01*
X127324505Y-101301204D01*
G37*
D12*
X126975000Y-102000000D03*
D11*
G36*
X129374505Y-101301204D02*
X129398773Y-101304804D01*
X129422572Y-101310765D01*
X129445671Y-101319030D01*
X129467850Y-101329520D01*
X129488893Y-101342132D01*
X129508599Y-101356747D01*
X129526777Y-101373223D01*
X129543253Y-101391401D01*
X129557868Y-101411107D01*
X129570480Y-101432150D01*
X129580970Y-101454329D01*
X129589235Y-101477428D01*
X129595196Y-101501227D01*
X129598796Y-101525495D01*
X129600000Y-101549999D01*
X129600000Y-102450001D01*
X129598796Y-102474505D01*
X129595196Y-102498773D01*
X129589235Y-102522572D01*
X129580970Y-102545671D01*
X129570480Y-102567850D01*
X129557868Y-102588893D01*
X129543253Y-102608599D01*
X129526777Y-102626777D01*
X129508599Y-102643253D01*
X129488893Y-102657868D01*
X129467850Y-102670480D01*
X129445671Y-102680970D01*
X129422572Y-102689235D01*
X129398773Y-102695196D01*
X129374505Y-102698796D01*
X129350001Y-102700000D01*
X128699999Y-102700000D01*
X128675495Y-102698796D01*
X128651227Y-102695196D01*
X128627428Y-102689235D01*
X128604329Y-102680970D01*
X128582150Y-102670480D01*
X128561107Y-102657868D01*
X128541401Y-102643253D01*
X128523223Y-102626777D01*
X128506747Y-102608599D01*
X128492132Y-102588893D01*
X128479520Y-102567850D01*
X128469030Y-102545671D01*
X128460765Y-102522572D01*
X128454804Y-102498773D01*
X128451204Y-102474505D01*
X128450000Y-102450001D01*
X128450000Y-101549999D01*
X128451204Y-101525495D01*
X128454804Y-101501227D01*
X128460765Y-101477428D01*
X128469030Y-101454329D01*
X128479520Y-101432150D01*
X128492132Y-101411107D01*
X128506747Y-101391401D01*
X128523223Y-101373223D01*
X128541401Y-101356747D01*
X128561107Y-101342132D01*
X128582150Y-101329520D01*
X128604329Y-101319030D01*
X128627428Y-101310765D01*
X128651227Y-101304804D01*
X128675495Y-101301204D01*
X128699999Y-101300000D01*
X129350001Y-101300000D01*
X129374505Y-101301204D01*
X129374505Y-101301204D01*
G37*
D12*
X129025000Y-102000000D03*
G04 #@! TD*
D11*
G04 #@! TO.C,C5*
G36*
X134324505Y-101301204D02*
X134348773Y-101304804D01*
X134372572Y-101310765D01*
X134395671Y-101319030D01*
X134417850Y-101329520D01*
X134438893Y-101342132D01*
X134458599Y-101356747D01*
X134476777Y-101373223D01*
X134493253Y-101391401D01*
X134507868Y-101411107D01*
X134520480Y-101432150D01*
X134530970Y-101454329D01*
X134539235Y-101477428D01*
X134545196Y-101501227D01*
X134548796Y-101525495D01*
X134550000Y-101549999D01*
X134550000Y-102450001D01*
X134548796Y-102474505D01*
X134545196Y-102498773D01*
X134539235Y-102522572D01*
X134530970Y-102545671D01*
X134520480Y-102567850D01*
X134507868Y-102588893D01*
X134493253Y-102608599D01*
X134476777Y-102626777D01*
X134458599Y-102643253D01*
X134438893Y-102657868D01*
X134417850Y-102670480D01*
X134395671Y-102680970D01*
X134372572Y-102689235D01*
X134348773Y-102695196D01*
X134324505Y-102698796D01*
X134300001Y-102700000D01*
X133649999Y-102700000D01*
X133625495Y-102698796D01*
X133601227Y-102695196D01*
X133577428Y-102689235D01*
X133554329Y-102680970D01*
X133532150Y-102670480D01*
X133511107Y-102657868D01*
X133491401Y-102643253D01*
X133473223Y-102626777D01*
X133456747Y-102608599D01*
X133442132Y-102588893D01*
X133429520Y-102567850D01*
X133419030Y-102545671D01*
X133410765Y-102522572D01*
X133404804Y-102498773D01*
X133401204Y-102474505D01*
X133400000Y-102450001D01*
X133400000Y-101549999D01*
X133401204Y-101525495D01*
X133404804Y-101501227D01*
X133410765Y-101477428D01*
X133419030Y-101454329D01*
X133429520Y-101432150D01*
X133442132Y-101411107D01*
X133456747Y-101391401D01*
X133473223Y-101373223D01*
X133491401Y-101356747D01*
X133511107Y-101342132D01*
X133532150Y-101329520D01*
X133554329Y-101319030D01*
X133577428Y-101310765D01*
X133601227Y-101304804D01*
X133625495Y-101301204D01*
X133649999Y-101300000D01*
X134300001Y-101300000D01*
X134324505Y-101301204D01*
X134324505Y-101301204D01*
G37*
D12*
X133975000Y-102000000D03*
D11*
G36*
X136374505Y-101301204D02*
X136398773Y-101304804D01*
X136422572Y-101310765D01*
X136445671Y-101319030D01*
X136467850Y-101329520D01*
X136488893Y-101342132D01*
X136508599Y-101356747D01*
X136526777Y-101373223D01*
X136543253Y-101391401D01*
X136557868Y-101411107D01*
X136570480Y-101432150D01*
X136580970Y-101454329D01*
X136589235Y-101477428D01*
X136595196Y-101501227D01*
X136598796Y-101525495D01*
X136600000Y-101549999D01*
X136600000Y-102450001D01*
X136598796Y-102474505D01*
X136595196Y-102498773D01*
X136589235Y-102522572D01*
X136580970Y-102545671D01*
X136570480Y-102567850D01*
X136557868Y-102588893D01*
X136543253Y-102608599D01*
X136526777Y-102626777D01*
X136508599Y-102643253D01*
X136488893Y-102657868D01*
X136467850Y-102670480D01*
X136445671Y-102680970D01*
X136422572Y-102689235D01*
X136398773Y-102695196D01*
X136374505Y-102698796D01*
X136350001Y-102700000D01*
X135699999Y-102700000D01*
X135675495Y-102698796D01*
X135651227Y-102695196D01*
X135627428Y-102689235D01*
X135604329Y-102680970D01*
X135582150Y-102670480D01*
X135561107Y-102657868D01*
X135541401Y-102643253D01*
X135523223Y-102626777D01*
X135506747Y-102608599D01*
X135492132Y-102588893D01*
X135479520Y-102567850D01*
X135469030Y-102545671D01*
X135460765Y-102522572D01*
X135454804Y-102498773D01*
X135451204Y-102474505D01*
X135450000Y-102450001D01*
X135450000Y-101549999D01*
X135451204Y-101525495D01*
X135454804Y-101501227D01*
X135460765Y-101477428D01*
X135469030Y-101454329D01*
X135479520Y-101432150D01*
X135492132Y-101411107D01*
X135506747Y-101391401D01*
X135523223Y-101373223D01*
X135541401Y-101356747D01*
X135561107Y-101342132D01*
X135582150Y-101329520D01*
X135604329Y-101319030D01*
X135627428Y-101310765D01*
X135651227Y-101304804D01*
X135675495Y-101301204D01*
X135699999Y-101300000D01*
X136350001Y-101300000D01*
X136374505Y-101301204D01*
X136374505Y-101301204D01*
G37*
D12*
X136025000Y-102000000D03*
G04 #@! TD*
D11*
G04 #@! TO.C,C4*
G36*
X201349505Y-89601204D02*
X201373773Y-89604804D01*
X201397572Y-89610765D01*
X201420671Y-89619030D01*
X201442850Y-89629520D01*
X201463893Y-89642132D01*
X201483599Y-89656747D01*
X201501777Y-89673223D01*
X201518253Y-89691401D01*
X201532868Y-89711107D01*
X201545480Y-89732150D01*
X201555970Y-89754329D01*
X201564235Y-89777428D01*
X201570196Y-89801227D01*
X201573796Y-89825495D01*
X201575000Y-89849999D01*
X201575000Y-90750001D01*
X201573796Y-90774505D01*
X201570196Y-90798773D01*
X201564235Y-90822572D01*
X201555970Y-90845671D01*
X201545480Y-90867850D01*
X201532868Y-90888893D01*
X201518253Y-90908599D01*
X201501777Y-90926777D01*
X201483599Y-90943253D01*
X201463893Y-90957868D01*
X201442850Y-90970480D01*
X201420671Y-90980970D01*
X201397572Y-90989235D01*
X201373773Y-90995196D01*
X201349505Y-90998796D01*
X201325001Y-91000000D01*
X200674999Y-91000000D01*
X200650495Y-90998796D01*
X200626227Y-90995196D01*
X200602428Y-90989235D01*
X200579329Y-90980970D01*
X200557150Y-90970480D01*
X200536107Y-90957868D01*
X200516401Y-90943253D01*
X200498223Y-90926777D01*
X200481747Y-90908599D01*
X200467132Y-90888893D01*
X200454520Y-90867850D01*
X200444030Y-90845671D01*
X200435765Y-90822572D01*
X200429804Y-90798773D01*
X200426204Y-90774505D01*
X200425000Y-90750001D01*
X200425000Y-89849999D01*
X200426204Y-89825495D01*
X200429804Y-89801227D01*
X200435765Y-89777428D01*
X200444030Y-89754329D01*
X200454520Y-89732150D01*
X200467132Y-89711107D01*
X200481747Y-89691401D01*
X200498223Y-89673223D01*
X200516401Y-89656747D01*
X200536107Y-89642132D01*
X200557150Y-89629520D01*
X200579329Y-89619030D01*
X200602428Y-89610765D01*
X200626227Y-89604804D01*
X200650495Y-89601204D01*
X200674999Y-89600000D01*
X201325001Y-89600000D01*
X201349505Y-89601204D01*
X201349505Y-89601204D01*
G37*
D12*
X201000000Y-90300000D03*
D11*
G36*
X199299505Y-89601204D02*
X199323773Y-89604804D01*
X199347572Y-89610765D01*
X199370671Y-89619030D01*
X199392850Y-89629520D01*
X199413893Y-89642132D01*
X199433599Y-89656747D01*
X199451777Y-89673223D01*
X199468253Y-89691401D01*
X199482868Y-89711107D01*
X199495480Y-89732150D01*
X199505970Y-89754329D01*
X199514235Y-89777428D01*
X199520196Y-89801227D01*
X199523796Y-89825495D01*
X199525000Y-89849999D01*
X199525000Y-90750001D01*
X199523796Y-90774505D01*
X199520196Y-90798773D01*
X199514235Y-90822572D01*
X199505970Y-90845671D01*
X199495480Y-90867850D01*
X199482868Y-90888893D01*
X199468253Y-90908599D01*
X199451777Y-90926777D01*
X199433599Y-90943253D01*
X199413893Y-90957868D01*
X199392850Y-90970480D01*
X199370671Y-90980970D01*
X199347572Y-90989235D01*
X199323773Y-90995196D01*
X199299505Y-90998796D01*
X199275001Y-91000000D01*
X198624999Y-91000000D01*
X198600495Y-90998796D01*
X198576227Y-90995196D01*
X198552428Y-90989235D01*
X198529329Y-90980970D01*
X198507150Y-90970480D01*
X198486107Y-90957868D01*
X198466401Y-90943253D01*
X198448223Y-90926777D01*
X198431747Y-90908599D01*
X198417132Y-90888893D01*
X198404520Y-90867850D01*
X198394030Y-90845671D01*
X198385765Y-90822572D01*
X198379804Y-90798773D01*
X198376204Y-90774505D01*
X198375000Y-90750001D01*
X198375000Y-89849999D01*
X198376204Y-89825495D01*
X198379804Y-89801227D01*
X198385765Y-89777428D01*
X198394030Y-89754329D01*
X198404520Y-89732150D01*
X198417132Y-89711107D01*
X198431747Y-89691401D01*
X198448223Y-89673223D01*
X198466401Y-89656747D01*
X198486107Y-89642132D01*
X198507150Y-89629520D01*
X198529329Y-89619030D01*
X198552428Y-89610765D01*
X198576227Y-89604804D01*
X198600495Y-89601204D01*
X198624999Y-89600000D01*
X199275001Y-89600000D01*
X199299505Y-89601204D01*
X199299505Y-89601204D01*
G37*
D12*
X198950000Y-90300000D03*
G04 #@! TD*
D11*
G04 #@! TO.C,C2*
G36*
X206349505Y-89601204D02*
X206373773Y-89604804D01*
X206397572Y-89610765D01*
X206420671Y-89619030D01*
X206442850Y-89629520D01*
X206463893Y-89642132D01*
X206483599Y-89656747D01*
X206501777Y-89673223D01*
X206518253Y-89691401D01*
X206532868Y-89711107D01*
X206545480Y-89732150D01*
X206555970Y-89754329D01*
X206564235Y-89777428D01*
X206570196Y-89801227D01*
X206573796Y-89825495D01*
X206575000Y-89849999D01*
X206575000Y-90750001D01*
X206573796Y-90774505D01*
X206570196Y-90798773D01*
X206564235Y-90822572D01*
X206555970Y-90845671D01*
X206545480Y-90867850D01*
X206532868Y-90888893D01*
X206518253Y-90908599D01*
X206501777Y-90926777D01*
X206483599Y-90943253D01*
X206463893Y-90957868D01*
X206442850Y-90970480D01*
X206420671Y-90980970D01*
X206397572Y-90989235D01*
X206373773Y-90995196D01*
X206349505Y-90998796D01*
X206325001Y-91000000D01*
X205674999Y-91000000D01*
X205650495Y-90998796D01*
X205626227Y-90995196D01*
X205602428Y-90989235D01*
X205579329Y-90980970D01*
X205557150Y-90970480D01*
X205536107Y-90957868D01*
X205516401Y-90943253D01*
X205498223Y-90926777D01*
X205481747Y-90908599D01*
X205467132Y-90888893D01*
X205454520Y-90867850D01*
X205444030Y-90845671D01*
X205435765Y-90822572D01*
X205429804Y-90798773D01*
X205426204Y-90774505D01*
X205425000Y-90750001D01*
X205425000Y-89849999D01*
X205426204Y-89825495D01*
X205429804Y-89801227D01*
X205435765Y-89777428D01*
X205444030Y-89754329D01*
X205454520Y-89732150D01*
X205467132Y-89711107D01*
X205481747Y-89691401D01*
X205498223Y-89673223D01*
X205516401Y-89656747D01*
X205536107Y-89642132D01*
X205557150Y-89629520D01*
X205579329Y-89619030D01*
X205602428Y-89610765D01*
X205626227Y-89604804D01*
X205650495Y-89601204D01*
X205674999Y-89600000D01*
X206325001Y-89600000D01*
X206349505Y-89601204D01*
X206349505Y-89601204D01*
G37*
D12*
X206000000Y-90300000D03*
D11*
G36*
X204299505Y-89601204D02*
X204323773Y-89604804D01*
X204347572Y-89610765D01*
X204370671Y-89619030D01*
X204392850Y-89629520D01*
X204413893Y-89642132D01*
X204433599Y-89656747D01*
X204451777Y-89673223D01*
X204468253Y-89691401D01*
X204482868Y-89711107D01*
X204495480Y-89732150D01*
X204505970Y-89754329D01*
X204514235Y-89777428D01*
X204520196Y-89801227D01*
X204523796Y-89825495D01*
X204525000Y-89849999D01*
X204525000Y-90750001D01*
X204523796Y-90774505D01*
X204520196Y-90798773D01*
X204514235Y-90822572D01*
X204505970Y-90845671D01*
X204495480Y-90867850D01*
X204482868Y-90888893D01*
X204468253Y-90908599D01*
X204451777Y-90926777D01*
X204433599Y-90943253D01*
X204413893Y-90957868D01*
X204392850Y-90970480D01*
X204370671Y-90980970D01*
X204347572Y-90989235D01*
X204323773Y-90995196D01*
X204299505Y-90998796D01*
X204275001Y-91000000D01*
X203624999Y-91000000D01*
X203600495Y-90998796D01*
X203576227Y-90995196D01*
X203552428Y-90989235D01*
X203529329Y-90980970D01*
X203507150Y-90970480D01*
X203486107Y-90957868D01*
X203466401Y-90943253D01*
X203448223Y-90926777D01*
X203431747Y-90908599D01*
X203417132Y-90888893D01*
X203404520Y-90867850D01*
X203394030Y-90845671D01*
X203385765Y-90822572D01*
X203379804Y-90798773D01*
X203376204Y-90774505D01*
X203375000Y-90750001D01*
X203375000Y-89849999D01*
X203376204Y-89825495D01*
X203379804Y-89801227D01*
X203385765Y-89777428D01*
X203394030Y-89754329D01*
X203404520Y-89732150D01*
X203417132Y-89711107D01*
X203431747Y-89691401D01*
X203448223Y-89673223D01*
X203466401Y-89656747D01*
X203486107Y-89642132D01*
X203507150Y-89629520D01*
X203529329Y-89619030D01*
X203552428Y-89610765D01*
X203576227Y-89604804D01*
X203600495Y-89601204D01*
X203624999Y-89600000D01*
X204275001Y-89600000D01*
X204299505Y-89601204D01*
X204299505Y-89601204D01*
G37*
D12*
X203950000Y-90300000D03*
G04 #@! TD*
D11*
G04 #@! TO.C,C1*
G36*
X137474505Y-94301204D02*
X137498773Y-94304804D01*
X137522572Y-94310765D01*
X137545671Y-94319030D01*
X137567850Y-94329520D01*
X137588893Y-94342132D01*
X137608599Y-94356747D01*
X137626777Y-94373223D01*
X137643253Y-94391401D01*
X137657868Y-94411107D01*
X137670480Y-94432150D01*
X137680970Y-94454329D01*
X137689235Y-94477428D01*
X137695196Y-94501227D01*
X137698796Y-94525495D01*
X137700000Y-94549999D01*
X137700000Y-95450001D01*
X137698796Y-95474505D01*
X137695196Y-95498773D01*
X137689235Y-95522572D01*
X137680970Y-95545671D01*
X137670480Y-95567850D01*
X137657868Y-95588893D01*
X137643253Y-95608599D01*
X137626777Y-95626777D01*
X137608599Y-95643253D01*
X137588893Y-95657868D01*
X137567850Y-95670480D01*
X137545671Y-95680970D01*
X137522572Y-95689235D01*
X137498773Y-95695196D01*
X137474505Y-95698796D01*
X137450001Y-95700000D01*
X136799999Y-95700000D01*
X136775495Y-95698796D01*
X136751227Y-95695196D01*
X136727428Y-95689235D01*
X136704329Y-95680970D01*
X136682150Y-95670480D01*
X136661107Y-95657868D01*
X136641401Y-95643253D01*
X136623223Y-95626777D01*
X136606747Y-95608599D01*
X136592132Y-95588893D01*
X136579520Y-95567850D01*
X136569030Y-95545671D01*
X136560765Y-95522572D01*
X136554804Y-95498773D01*
X136551204Y-95474505D01*
X136550000Y-95450001D01*
X136550000Y-94549999D01*
X136551204Y-94525495D01*
X136554804Y-94501227D01*
X136560765Y-94477428D01*
X136569030Y-94454329D01*
X136579520Y-94432150D01*
X136592132Y-94411107D01*
X136606747Y-94391401D01*
X136623223Y-94373223D01*
X136641401Y-94356747D01*
X136661107Y-94342132D01*
X136682150Y-94329520D01*
X136704329Y-94319030D01*
X136727428Y-94310765D01*
X136751227Y-94304804D01*
X136775495Y-94301204D01*
X136799999Y-94300000D01*
X137450001Y-94300000D01*
X137474505Y-94301204D01*
X137474505Y-94301204D01*
G37*
D12*
X137125000Y-95000000D03*
D11*
G36*
X135424505Y-94301204D02*
X135448773Y-94304804D01*
X135472572Y-94310765D01*
X135495671Y-94319030D01*
X135517850Y-94329520D01*
X135538893Y-94342132D01*
X135558599Y-94356747D01*
X135576777Y-94373223D01*
X135593253Y-94391401D01*
X135607868Y-94411107D01*
X135620480Y-94432150D01*
X135630970Y-94454329D01*
X135639235Y-94477428D01*
X135645196Y-94501227D01*
X135648796Y-94525495D01*
X135650000Y-94549999D01*
X135650000Y-95450001D01*
X135648796Y-95474505D01*
X135645196Y-95498773D01*
X135639235Y-95522572D01*
X135630970Y-95545671D01*
X135620480Y-95567850D01*
X135607868Y-95588893D01*
X135593253Y-95608599D01*
X135576777Y-95626777D01*
X135558599Y-95643253D01*
X135538893Y-95657868D01*
X135517850Y-95670480D01*
X135495671Y-95680970D01*
X135472572Y-95689235D01*
X135448773Y-95695196D01*
X135424505Y-95698796D01*
X135400001Y-95700000D01*
X134749999Y-95700000D01*
X134725495Y-95698796D01*
X134701227Y-95695196D01*
X134677428Y-95689235D01*
X134654329Y-95680970D01*
X134632150Y-95670480D01*
X134611107Y-95657868D01*
X134591401Y-95643253D01*
X134573223Y-95626777D01*
X134556747Y-95608599D01*
X134542132Y-95588893D01*
X134529520Y-95567850D01*
X134519030Y-95545671D01*
X134510765Y-95522572D01*
X134504804Y-95498773D01*
X134501204Y-95474505D01*
X134500000Y-95450001D01*
X134500000Y-94549999D01*
X134501204Y-94525495D01*
X134504804Y-94501227D01*
X134510765Y-94477428D01*
X134519030Y-94454329D01*
X134529520Y-94432150D01*
X134542132Y-94411107D01*
X134556747Y-94391401D01*
X134573223Y-94373223D01*
X134591401Y-94356747D01*
X134611107Y-94342132D01*
X134632150Y-94329520D01*
X134654329Y-94319030D01*
X134677428Y-94310765D01*
X134701227Y-94304804D01*
X134725495Y-94301204D01*
X134749999Y-94300000D01*
X135400001Y-94300000D01*
X135424505Y-94301204D01*
X135424505Y-94301204D01*
G37*
D12*
X135075000Y-95000000D03*
G04 #@! TD*
D11*
G04 #@! TO.C,C8*
G36*
X145874505Y-94301204D02*
X145898773Y-94304804D01*
X145922572Y-94310765D01*
X145945671Y-94319030D01*
X145967850Y-94329520D01*
X145988893Y-94342132D01*
X146008599Y-94356747D01*
X146026777Y-94373223D01*
X146043253Y-94391401D01*
X146057868Y-94411107D01*
X146070480Y-94432150D01*
X146080970Y-94454329D01*
X146089235Y-94477428D01*
X146095196Y-94501227D01*
X146098796Y-94525495D01*
X146100000Y-94549999D01*
X146100000Y-95450001D01*
X146098796Y-95474505D01*
X146095196Y-95498773D01*
X146089235Y-95522572D01*
X146080970Y-95545671D01*
X146070480Y-95567850D01*
X146057868Y-95588893D01*
X146043253Y-95608599D01*
X146026777Y-95626777D01*
X146008599Y-95643253D01*
X145988893Y-95657868D01*
X145967850Y-95670480D01*
X145945671Y-95680970D01*
X145922572Y-95689235D01*
X145898773Y-95695196D01*
X145874505Y-95698796D01*
X145850001Y-95700000D01*
X145199999Y-95700000D01*
X145175495Y-95698796D01*
X145151227Y-95695196D01*
X145127428Y-95689235D01*
X145104329Y-95680970D01*
X145082150Y-95670480D01*
X145061107Y-95657868D01*
X145041401Y-95643253D01*
X145023223Y-95626777D01*
X145006747Y-95608599D01*
X144992132Y-95588893D01*
X144979520Y-95567850D01*
X144969030Y-95545671D01*
X144960765Y-95522572D01*
X144954804Y-95498773D01*
X144951204Y-95474505D01*
X144950000Y-95450001D01*
X144950000Y-94549999D01*
X144951204Y-94525495D01*
X144954804Y-94501227D01*
X144960765Y-94477428D01*
X144969030Y-94454329D01*
X144979520Y-94432150D01*
X144992132Y-94411107D01*
X145006747Y-94391401D01*
X145023223Y-94373223D01*
X145041401Y-94356747D01*
X145061107Y-94342132D01*
X145082150Y-94329520D01*
X145104329Y-94319030D01*
X145127428Y-94310765D01*
X145151227Y-94304804D01*
X145175495Y-94301204D01*
X145199999Y-94300000D01*
X145850001Y-94300000D01*
X145874505Y-94301204D01*
X145874505Y-94301204D01*
G37*
D12*
X145525000Y-95000000D03*
D11*
G36*
X143824505Y-94301204D02*
X143848773Y-94304804D01*
X143872572Y-94310765D01*
X143895671Y-94319030D01*
X143917850Y-94329520D01*
X143938893Y-94342132D01*
X143958599Y-94356747D01*
X143976777Y-94373223D01*
X143993253Y-94391401D01*
X144007868Y-94411107D01*
X144020480Y-94432150D01*
X144030970Y-94454329D01*
X144039235Y-94477428D01*
X144045196Y-94501227D01*
X144048796Y-94525495D01*
X144050000Y-94549999D01*
X144050000Y-95450001D01*
X144048796Y-95474505D01*
X144045196Y-95498773D01*
X144039235Y-95522572D01*
X144030970Y-95545671D01*
X144020480Y-95567850D01*
X144007868Y-95588893D01*
X143993253Y-95608599D01*
X143976777Y-95626777D01*
X143958599Y-95643253D01*
X143938893Y-95657868D01*
X143917850Y-95670480D01*
X143895671Y-95680970D01*
X143872572Y-95689235D01*
X143848773Y-95695196D01*
X143824505Y-95698796D01*
X143800001Y-95700000D01*
X143149999Y-95700000D01*
X143125495Y-95698796D01*
X143101227Y-95695196D01*
X143077428Y-95689235D01*
X143054329Y-95680970D01*
X143032150Y-95670480D01*
X143011107Y-95657868D01*
X142991401Y-95643253D01*
X142973223Y-95626777D01*
X142956747Y-95608599D01*
X142942132Y-95588893D01*
X142929520Y-95567850D01*
X142919030Y-95545671D01*
X142910765Y-95522572D01*
X142904804Y-95498773D01*
X142901204Y-95474505D01*
X142900000Y-95450001D01*
X142900000Y-94549999D01*
X142901204Y-94525495D01*
X142904804Y-94501227D01*
X142910765Y-94477428D01*
X142919030Y-94454329D01*
X142929520Y-94432150D01*
X142942132Y-94411107D01*
X142956747Y-94391401D01*
X142973223Y-94373223D01*
X142991401Y-94356747D01*
X143011107Y-94342132D01*
X143032150Y-94329520D01*
X143054329Y-94319030D01*
X143077428Y-94310765D01*
X143101227Y-94304804D01*
X143125495Y-94301204D01*
X143149999Y-94300000D01*
X143800001Y-94300000D01*
X143824505Y-94301204D01*
X143824505Y-94301204D01*
G37*
D12*
X143475000Y-95000000D03*
G04 #@! TD*
D11*
G04 #@! TO.C,C10*
G36*
X141299505Y-112501204D02*
X141323773Y-112504804D01*
X141347572Y-112510765D01*
X141370671Y-112519030D01*
X141392850Y-112529520D01*
X141413893Y-112542132D01*
X141433599Y-112556747D01*
X141451777Y-112573223D01*
X141468253Y-112591401D01*
X141482868Y-112611107D01*
X141495480Y-112632150D01*
X141505970Y-112654329D01*
X141514235Y-112677428D01*
X141520196Y-112701227D01*
X141523796Y-112725495D01*
X141525000Y-112749999D01*
X141525000Y-113650001D01*
X141523796Y-113674505D01*
X141520196Y-113698773D01*
X141514235Y-113722572D01*
X141505970Y-113745671D01*
X141495480Y-113767850D01*
X141482868Y-113788893D01*
X141468253Y-113808599D01*
X141451777Y-113826777D01*
X141433599Y-113843253D01*
X141413893Y-113857868D01*
X141392850Y-113870480D01*
X141370671Y-113880970D01*
X141347572Y-113889235D01*
X141323773Y-113895196D01*
X141299505Y-113898796D01*
X141275001Y-113900000D01*
X140624999Y-113900000D01*
X140600495Y-113898796D01*
X140576227Y-113895196D01*
X140552428Y-113889235D01*
X140529329Y-113880970D01*
X140507150Y-113870480D01*
X140486107Y-113857868D01*
X140466401Y-113843253D01*
X140448223Y-113826777D01*
X140431747Y-113808599D01*
X140417132Y-113788893D01*
X140404520Y-113767850D01*
X140394030Y-113745671D01*
X140385765Y-113722572D01*
X140379804Y-113698773D01*
X140376204Y-113674505D01*
X140375000Y-113650001D01*
X140375000Y-112749999D01*
X140376204Y-112725495D01*
X140379804Y-112701227D01*
X140385765Y-112677428D01*
X140394030Y-112654329D01*
X140404520Y-112632150D01*
X140417132Y-112611107D01*
X140431747Y-112591401D01*
X140448223Y-112573223D01*
X140466401Y-112556747D01*
X140486107Y-112542132D01*
X140507150Y-112529520D01*
X140529329Y-112519030D01*
X140552428Y-112510765D01*
X140576227Y-112504804D01*
X140600495Y-112501204D01*
X140624999Y-112500000D01*
X141275001Y-112500000D01*
X141299505Y-112501204D01*
X141299505Y-112501204D01*
G37*
D12*
X140950000Y-113200000D03*
D11*
G36*
X143349505Y-112501204D02*
X143373773Y-112504804D01*
X143397572Y-112510765D01*
X143420671Y-112519030D01*
X143442850Y-112529520D01*
X143463893Y-112542132D01*
X143483599Y-112556747D01*
X143501777Y-112573223D01*
X143518253Y-112591401D01*
X143532868Y-112611107D01*
X143545480Y-112632150D01*
X143555970Y-112654329D01*
X143564235Y-112677428D01*
X143570196Y-112701227D01*
X143573796Y-112725495D01*
X143575000Y-112749999D01*
X143575000Y-113650001D01*
X143573796Y-113674505D01*
X143570196Y-113698773D01*
X143564235Y-113722572D01*
X143555970Y-113745671D01*
X143545480Y-113767850D01*
X143532868Y-113788893D01*
X143518253Y-113808599D01*
X143501777Y-113826777D01*
X143483599Y-113843253D01*
X143463893Y-113857868D01*
X143442850Y-113870480D01*
X143420671Y-113880970D01*
X143397572Y-113889235D01*
X143373773Y-113895196D01*
X143349505Y-113898796D01*
X143325001Y-113900000D01*
X142674999Y-113900000D01*
X142650495Y-113898796D01*
X142626227Y-113895196D01*
X142602428Y-113889235D01*
X142579329Y-113880970D01*
X142557150Y-113870480D01*
X142536107Y-113857868D01*
X142516401Y-113843253D01*
X142498223Y-113826777D01*
X142481747Y-113808599D01*
X142467132Y-113788893D01*
X142454520Y-113767850D01*
X142444030Y-113745671D01*
X142435765Y-113722572D01*
X142429804Y-113698773D01*
X142426204Y-113674505D01*
X142425000Y-113650001D01*
X142425000Y-112749999D01*
X142426204Y-112725495D01*
X142429804Y-112701227D01*
X142435765Y-112677428D01*
X142444030Y-112654329D01*
X142454520Y-112632150D01*
X142467132Y-112611107D01*
X142481747Y-112591401D01*
X142498223Y-112573223D01*
X142516401Y-112556747D01*
X142536107Y-112542132D01*
X142557150Y-112529520D01*
X142579329Y-112519030D01*
X142602428Y-112510765D01*
X142626227Y-112504804D01*
X142650495Y-112501204D01*
X142674999Y-112500000D01*
X143325001Y-112500000D01*
X143349505Y-112501204D01*
X143349505Y-112501204D01*
G37*
D12*
X143000000Y-113200000D03*
G04 #@! TD*
D20*
G04 #@! TO.C,U7*
X146125000Y-115595000D03*
X146125000Y-116865000D03*
X146125000Y-118135000D03*
X146125000Y-119405000D03*
X140875000Y-115595000D03*
X140875000Y-116865000D03*
X140875000Y-118135000D03*
X140875000Y-119405000D03*
G04 #@! TD*
D17*
G04 #@! TO.C,T2*
X186210000Y-129600000D03*
X183590000Y-128650000D03*
X183590000Y-130550000D03*
G04 #@! TD*
D21*
G04 #@! TO.C,T1*
X161800000Y-74750000D03*
X160850000Y-77370000D03*
X162750000Y-77370000D03*
G04 #@! TD*
D17*
G04 #@! TO.C,U3*
X177310000Y-93750000D03*
X177310000Y-92800000D03*
X177310000Y-91850000D03*
X174690000Y-91850000D03*
X174690000Y-92800000D03*
X174690000Y-93750000D03*
G04 #@! TD*
D22*
G04 #@! TO.C,P1*
X164575000Y-88150000D03*
X155925000Y-86000000D03*
X164575000Y-83850000D03*
G04 #@! TD*
D11*
G04 #@! TO.C,R6*
G36*
X137874505Y-116301204D02*
X137898773Y-116304804D01*
X137922572Y-116310765D01*
X137945671Y-116319030D01*
X137967850Y-116329520D01*
X137988893Y-116342132D01*
X138008599Y-116356747D01*
X138026777Y-116373223D01*
X138043253Y-116391401D01*
X138057868Y-116411107D01*
X138070480Y-116432150D01*
X138080970Y-116454329D01*
X138089235Y-116477428D01*
X138095196Y-116501227D01*
X138098796Y-116525495D01*
X138100000Y-116549999D01*
X138100000Y-117450001D01*
X138098796Y-117474505D01*
X138095196Y-117498773D01*
X138089235Y-117522572D01*
X138080970Y-117545671D01*
X138070480Y-117567850D01*
X138057868Y-117588893D01*
X138043253Y-117608599D01*
X138026777Y-117626777D01*
X138008599Y-117643253D01*
X137988893Y-117657868D01*
X137967850Y-117670480D01*
X137945671Y-117680970D01*
X137922572Y-117689235D01*
X137898773Y-117695196D01*
X137874505Y-117698796D01*
X137850001Y-117700000D01*
X137199999Y-117700000D01*
X137175495Y-117698796D01*
X137151227Y-117695196D01*
X137127428Y-117689235D01*
X137104329Y-117680970D01*
X137082150Y-117670480D01*
X137061107Y-117657868D01*
X137041401Y-117643253D01*
X137023223Y-117626777D01*
X137006747Y-117608599D01*
X136992132Y-117588893D01*
X136979520Y-117567850D01*
X136969030Y-117545671D01*
X136960765Y-117522572D01*
X136954804Y-117498773D01*
X136951204Y-117474505D01*
X136950000Y-117450001D01*
X136950000Y-116549999D01*
X136951204Y-116525495D01*
X136954804Y-116501227D01*
X136960765Y-116477428D01*
X136969030Y-116454329D01*
X136979520Y-116432150D01*
X136992132Y-116411107D01*
X137006747Y-116391401D01*
X137023223Y-116373223D01*
X137041401Y-116356747D01*
X137061107Y-116342132D01*
X137082150Y-116329520D01*
X137104329Y-116319030D01*
X137127428Y-116310765D01*
X137151227Y-116304804D01*
X137175495Y-116301204D01*
X137199999Y-116300000D01*
X137850001Y-116300000D01*
X137874505Y-116301204D01*
X137874505Y-116301204D01*
G37*
D12*
X137525000Y-117000000D03*
D11*
G36*
X135824505Y-116301204D02*
X135848773Y-116304804D01*
X135872572Y-116310765D01*
X135895671Y-116319030D01*
X135917850Y-116329520D01*
X135938893Y-116342132D01*
X135958599Y-116356747D01*
X135976777Y-116373223D01*
X135993253Y-116391401D01*
X136007868Y-116411107D01*
X136020480Y-116432150D01*
X136030970Y-116454329D01*
X136039235Y-116477428D01*
X136045196Y-116501227D01*
X136048796Y-116525495D01*
X136050000Y-116549999D01*
X136050000Y-117450001D01*
X136048796Y-117474505D01*
X136045196Y-117498773D01*
X136039235Y-117522572D01*
X136030970Y-117545671D01*
X136020480Y-117567850D01*
X136007868Y-117588893D01*
X135993253Y-117608599D01*
X135976777Y-117626777D01*
X135958599Y-117643253D01*
X135938893Y-117657868D01*
X135917850Y-117670480D01*
X135895671Y-117680970D01*
X135872572Y-117689235D01*
X135848773Y-117695196D01*
X135824505Y-117698796D01*
X135800001Y-117700000D01*
X135149999Y-117700000D01*
X135125495Y-117698796D01*
X135101227Y-117695196D01*
X135077428Y-117689235D01*
X135054329Y-117680970D01*
X135032150Y-117670480D01*
X135011107Y-117657868D01*
X134991401Y-117643253D01*
X134973223Y-117626777D01*
X134956747Y-117608599D01*
X134942132Y-117588893D01*
X134929520Y-117567850D01*
X134919030Y-117545671D01*
X134910765Y-117522572D01*
X134904804Y-117498773D01*
X134901204Y-117474505D01*
X134900000Y-117450001D01*
X134900000Y-116549999D01*
X134901204Y-116525495D01*
X134904804Y-116501227D01*
X134910765Y-116477428D01*
X134919030Y-116454329D01*
X134929520Y-116432150D01*
X134942132Y-116411107D01*
X134956747Y-116391401D01*
X134973223Y-116373223D01*
X134991401Y-116356747D01*
X135011107Y-116342132D01*
X135032150Y-116329520D01*
X135054329Y-116319030D01*
X135077428Y-116310765D01*
X135101227Y-116304804D01*
X135125495Y-116301204D01*
X135149999Y-116300000D01*
X135800001Y-116300000D01*
X135824505Y-116301204D01*
X135824505Y-116301204D01*
G37*
D12*
X135475000Y-117000000D03*
G04 #@! TD*
D11*
G04 #@! TO.C,R11*
G36*
X170274505Y-93476204D02*
X170298773Y-93479804D01*
X170322572Y-93485765D01*
X170345671Y-93494030D01*
X170367850Y-93504520D01*
X170388893Y-93517132D01*
X170408599Y-93531747D01*
X170426777Y-93548223D01*
X170443253Y-93566401D01*
X170457868Y-93586107D01*
X170470480Y-93607150D01*
X170480970Y-93629329D01*
X170489235Y-93652428D01*
X170495196Y-93676227D01*
X170498796Y-93700495D01*
X170500000Y-93724999D01*
X170500000Y-94375001D01*
X170498796Y-94399505D01*
X170495196Y-94423773D01*
X170489235Y-94447572D01*
X170480970Y-94470671D01*
X170470480Y-94492850D01*
X170457868Y-94513893D01*
X170443253Y-94533599D01*
X170426777Y-94551777D01*
X170408599Y-94568253D01*
X170388893Y-94582868D01*
X170367850Y-94595480D01*
X170345671Y-94605970D01*
X170322572Y-94614235D01*
X170298773Y-94620196D01*
X170274505Y-94623796D01*
X170250001Y-94625000D01*
X169349999Y-94625000D01*
X169325495Y-94623796D01*
X169301227Y-94620196D01*
X169277428Y-94614235D01*
X169254329Y-94605970D01*
X169232150Y-94595480D01*
X169211107Y-94582868D01*
X169191401Y-94568253D01*
X169173223Y-94551777D01*
X169156747Y-94533599D01*
X169142132Y-94513893D01*
X169129520Y-94492850D01*
X169119030Y-94470671D01*
X169110765Y-94447572D01*
X169104804Y-94423773D01*
X169101204Y-94399505D01*
X169100000Y-94375001D01*
X169100000Y-93724999D01*
X169101204Y-93700495D01*
X169104804Y-93676227D01*
X169110765Y-93652428D01*
X169119030Y-93629329D01*
X169129520Y-93607150D01*
X169142132Y-93586107D01*
X169156747Y-93566401D01*
X169173223Y-93548223D01*
X169191401Y-93531747D01*
X169211107Y-93517132D01*
X169232150Y-93504520D01*
X169254329Y-93494030D01*
X169277428Y-93485765D01*
X169301227Y-93479804D01*
X169325495Y-93476204D01*
X169349999Y-93475000D01*
X170250001Y-93475000D01*
X170274505Y-93476204D01*
X170274505Y-93476204D01*
G37*
D12*
X169800000Y-94050000D03*
D11*
G36*
X170274505Y-91426204D02*
X170298773Y-91429804D01*
X170322572Y-91435765D01*
X170345671Y-91444030D01*
X170367850Y-91454520D01*
X170388893Y-91467132D01*
X170408599Y-91481747D01*
X170426777Y-91498223D01*
X170443253Y-91516401D01*
X170457868Y-91536107D01*
X170470480Y-91557150D01*
X170480970Y-91579329D01*
X170489235Y-91602428D01*
X170495196Y-91626227D01*
X170498796Y-91650495D01*
X170500000Y-91674999D01*
X170500000Y-92325001D01*
X170498796Y-92349505D01*
X170495196Y-92373773D01*
X170489235Y-92397572D01*
X170480970Y-92420671D01*
X170470480Y-92442850D01*
X170457868Y-92463893D01*
X170443253Y-92483599D01*
X170426777Y-92501777D01*
X170408599Y-92518253D01*
X170388893Y-92532868D01*
X170367850Y-92545480D01*
X170345671Y-92555970D01*
X170322572Y-92564235D01*
X170298773Y-92570196D01*
X170274505Y-92573796D01*
X170250001Y-92575000D01*
X169349999Y-92575000D01*
X169325495Y-92573796D01*
X169301227Y-92570196D01*
X169277428Y-92564235D01*
X169254329Y-92555970D01*
X169232150Y-92545480D01*
X169211107Y-92532868D01*
X169191401Y-92518253D01*
X169173223Y-92501777D01*
X169156747Y-92483599D01*
X169142132Y-92463893D01*
X169129520Y-92442850D01*
X169119030Y-92420671D01*
X169110765Y-92397572D01*
X169104804Y-92373773D01*
X169101204Y-92349505D01*
X169100000Y-92325001D01*
X169100000Y-91674999D01*
X169101204Y-91650495D01*
X169104804Y-91626227D01*
X169110765Y-91602428D01*
X169119030Y-91579329D01*
X169129520Y-91557150D01*
X169142132Y-91536107D01*
X169156747Y-91516401D01*
X169173223Y-91498223D01*
X169191401Y-91481747D01*
X169211107Y-91467132D01*
X169232150Y-91454520D01*
X169254329Y-91444030D01*
X169277428Y-91435765D01*
X169301227Y-91429804D01*
X169325495Y-91426204D01*
X169349999Y-91425000D01*
X170250001Y-91425000D01*
X170274505Y-91426204D01*
X170274505Y-91426204D01*
G37*
D12*
X169800000Y-92000000D03*
G04 #@! TD*
D11*
G04 #@! TO.C,R10*
G36*
X180474505Y-91026204D02*
X180498773Y-91029804D01*
X180522572Y-91035765D01*
X180545671Y-91044030D01*
X180567850Y-91054520D01*
X180588893Y-91067132D01*
X180608599Y-91081747D01*
X180626777Y-91098223D01*
X180643253Y-91116401D01*
X180657868Y-91136107D01*
X180670480Y-91157150D01*
X180680970Y-91179329D01*
X180689235Y-91202428D01*
X180695196Y-91226227D01*
X180698796Y-91250495D01*
X180700000Y-91274999D01*
X180700000Y-91925001D01*
X180698796Y-91949505D01*
X180695196Y-91973773D01*
X180689235Y-91997572D01*
X180680970Y-92020671D01*
X180670480Y-92042850D01*
X180657868Y-92063893D01*
X180643253Y-92083599D01*
X180626777Y-92101777D01*
X180608599Y-92118253D01*
X180588893Y-92132868D01*
X180567850Y-92145480D01*
X180545671Y-92155970D01*
X180522572Y-92164235D01*
X180498773Y-92170196D01*
X180474505Y-92173796D01*
X180450001Y-92175000D01*
X179549999Y-92175000D01*
X179525495Y-92173796D01*
X179501227Y-92170196D01*
X179477428Y-92164235D01*
X179454329Y-92155970D01*
X179432150Y-92145480D01*
X179411107Y-92132868D01*
X179391401Y-92118253D01*
X179373223Y-92101777D01*
X179356747Y-92083599D01*
X179342132Y-92063893D01*
X179329520Y-92042850D01*
X179319030Y-92020671D01*
X179310765Y-91997572D01*
X179304804Y-91973773D01*
X179301204Y-91949505D01*
X179300000Y-91925001D01*
X179300000Y-91274999D01*
X179301204Y-91250495D01*
X179304804Y-91226227D01*
X179310765Y-91202428D01*
X179319030Y-91179329D01*
X179329520Y-91157150D01*
X179342132Y-91136107D01*
X179356747Y-91116401D01*
X179373223Y-91098223D01*
X179391401Y-91081747D01*
X179411107Y-91067132D01*
X179432150Y-91054520D01*
X179454329Y-91044030D01*
X179477428Y-91035765D01*
X179501227Y-91029804D01*
X179525495Y-91026204D01*
X179549999Y-91025000D01*
X180450001Y-91025000D01*
X180474505Y-91026204D01*
X180474505Y-91026204D01*
G37*
D12*
X180000000Y-91600000D03*
D11*
G36*
X180474505Y-93076204D02*
X180498773Y-93079804D01*
X180522572Y-93085765D01*
X180545671Y-93094030D01*
X180567850Y-93104520D01*
X180588893Y-93117132D01*
X180608599Y-93131747D01*
X180626777Y-93148223D01*
X180643253Y-93166401D01*
X180657868Y-93186107D01*
X180670480Y-93207150D01*
X180680970Y-93229329D01*
X180689235Y-93252428D01*
X180695196Y-93276227D01*
X180698796Y-93300495D01*
X180700000Y-93324999D01*
X180700000Y-93975001D01*
X180698796Y-93999505D01*
X180695196Y-94023773D01*
X180689235Y-94047572D01*
X180680970Y-94070671D01*
X180670480Y-94092850D01*
X180657868Y-94113893D01*
X180643253Y-94133599D01*
X180626777Y-94151777D01*
X180608599Y-94168253D01*
X180588893Y-94182868D01*
X180567850Y-94195480D01*
X180545671Y-94205970D01*
X180522572Y-94214235D01*
X180498773Y-94220196D01*
X180474505Y-94223796D01*
X180450001Y-94225000D01*
X179549999Y-94225000D01*
X179525495Y-94223796D01*
X179501227Y-94220196D01*
X179477428Y-94214235D01*
X179454329Y-94205970D01*
X179432150Y-94195480D01*
X179411107Y-94182868D01*
X179391401Y-94168253D01*
X179373223Y-94151777D01*
X179356747Y-94133599D01*
X179342132Y-94113893D01*
X179329520Y-94092850D01*
X179319030Y-94070671D01*
X179310765Y-94047572D01*
X179304804Y-94023773D01*
X179301204Y-93999505D01*
X179300000Y-93975001D01*
X179300000Y-93324999D01*
X179301204Y-93300495D01*
X179304804Y-93276227D01*
X179310765Y-93252428D01*
X179319030Y-93229329D01*
X179329520Y-93207150D01*
X179342132Y-93186107D01*
X179356747Y-93166401D01*
X179373223Y-93148223D01*
X179391401Y-93131747D01*
X179411107Y-93117132D01*
X179432150Y-93104520D01*
X179454329Y-93094030D01*
X179477428Y-93085765D01*
X179501227Y-93079804D01*
X179525495Y-93076204D01*
X179549999Y-93075000D01*
X180450001Y-93075000D01*
X180474505Y-93076204D01*
X180474505Y-93076204D01*
G37*
D12*
X180000000Y-93650000D03*
G04 #@! TD*
D11*
G04 #@! TO.C,R8*
G36*
X149299505Y-116101204D02*
X149323773Y-116104804D01*
X149347572Y-116110765D01*
X149370671Y-116119030D01*
X149392850Y-116129520D01*
X149413893Y-116142132D01*
X149433599Y-116156747D01*
X149451777Y-116173223D01*
X149468253Y-116191401D01*
X149482868Y-116211107D01*
X149495480Y-116232150D01*
X149505970Y-116254329D01*
X149514235Y-116277428D01*
X149520196Y-116301227D01*
X149523796Y-116325495D01*
X149525000Y-116349999D01*
X149525000Y-117250001D01*
X149523796Y-117274505D01*
X149520196Y-117298773D01*
X149514235Y-117322572D01*
X149505970Y-117345671D01*
X149495480Y-117367850D01*
X149482868Y-117388893D01*
X149468253Y-117408599D01*
X149451777Y-117426777D01*
X149433599Y-117443253D01*
X149413893Y-117457868D01*
X149392850Y-117470480D01*
X149370671Y-117480970D01*
X149347572Y-117489235D01*
X149323773Y-117495196D01*
X149299505Y-117498796D01*
X149275001Y-117500000D01*
X148624999Y-117500000D01*
X148600495Y-117498796D01*
X148576227Y-117495196D01*
X148552428Y-117489235D01*
X148529329Y-117480970D01*
X148507150Y-117470480D01*
X148486107Y-117457868D01*
X148466401Y-117443253D01*
X148448223Y-117426777D01*
X148431747Y-117408599D01*
X148417132Y-117388893D01*
X148404520Y-117367850D01*
X148394030Y-117345671D01*
X148385765Y-117322572D01*
X148379804Y-117298773D01*
X148376204Y-117274505D01*
X148375000Y-117250001D01*
X148375000Y-116349999D01*
X148376204Y-116325495D01*
X148379804Y-116301227D01*
X148385765Y-116277428D01*
X148394030Y-116254329D01*
X148404520Y-116232150D01*
X148417132Y-116211107D01*
X148431747Y-116191401D01*
X148448223Y-116173223D01*
X148466401Y-116156747D01*
X148486107Y-116142132D01*
X148507150Y-116129520D01*
X148529329Y-116119030D01*
X148552428Y-116110765D01*
X148576227Y-116104804D01*
X148600495Y-116101204D01*
X148624999Y-116100000D01*
X149275001Y-116100000D01*
X149299505Y-116101204D01*
X149299505Y-116101204D01*
G37*
D12*
X148950000Y-116800000D03*
D11*
G36*
X151349505Y-116101204D02*
X151373773Y-116104804D01*
X151397572Y-116110765D01*
X151420671Y-116119030D01*
X151442850Y-116129520D01*
X151463893Y-116142132D01*
X151483599Y-116156747D01*
X151501777Y-116173223D01*
X151518253Y-116191401D01*
X151532868Y-116211107D01*
X151545480Y-116232150D01*
X151555970Y-116254329D01*
X151564235Y-116277428D01*
X151570196Y-116301227D01*
X151573796Y-116325495D01*
X151575000Y-116349999D01*
X151575000Y-117250001D01*
X151573796Y-117274505D01*
X151570196Y-117298773D01*
X151564235Y-117322572D01*
X151555970Y-117345671D01*
X151545480Y-117367850D01*
X151532868Y-117388893D01*
X151518253Y-117408599D01*
X151501777Y-117426777D01*
X151483599Y-117443253D01*
X151463893Y-117457868D01*
X151442850Y-117470480D01*
X151420671Y-117480970D01*
X151397572Y-117489235D01*
X151373773Y-117495196D01*
X151349505Y-117498796D01*
X151325001Y-117500000D01*
X150674999Y-117500000D01*
X150650495Y-117498796D01*
X150626227Y-117495196D01*
X150602428Y-117489235D01*
X150579329Y-117480970D01*
X150557150Y-117470480D01*
X150536107Y-117457868D01*
X150516401Y-117443253D01*
X150498223Y-117426777D01*
X150481747Y-117408599D01*
X150467132Y-117388893D01*
X150454520Y-117367850D01*
X150444030Y-117345671D01*
X150435765Y-117322572D01*
X150429804Y-117298773D01*
X150426204Y-117274505D01*
X150425000Y-117250001D01*
X150425000Y-116349999D01*
X150426204Y-116325495D01*
X150429804Y-116301227D01*
X150435765Y-116277428D01*
X150444030Y-116254329D01*
X150454520Y-116232150D01*
X150467132Y-116211107D01*
X150481747Y-116191401D01*
X150498223Y-116173223D01*
X150516401Y-116156747D01*
X150536107Y-116142132D01*
X150557150Y-116129520D01*
X150579329Y-116119030D01*
X150602428Y-116110765D01*
X150626227Y-116104804D01*
X150650495Y-116101204D01*
X150674999Y-116100000D01*
X151325001Y-116100000D01*
X151349505Y-116101204D01*
X151349505Y-116101204D01*
G37*
D12*
X151000000Y-116800000D03*
G04 #@! TD*
D11*
G04 #@! TO.C,R7*
G36*
X137874505Y-118801204D02*
X137898773Y-118804804D01*
X137922572Y-118810765D01*
X137945671Y-118819030D01*
X137967850Y-118829520D01*
X137988893Y-118842132D01*
X138008599Y-118856747D01*
X138026777Y-118873223D01*
X138043253Y-118891401D01*
X138057868Y-118911107D01*
X138070480Y-118932150D01*
X138080970Y-118954329D01*
X138089235Y-118977428D01*
X138095196Y-119001227D01*
X138098796Y-119025495D01*
X138100000Y-119049999D01*
X138100000Y-119950001D01*
X138098796Y-119974505D01*
X138095196Y-119998773D01*
X138089235Y-120022572D01*
X138080970Y-120045671D01*
X138070480Y-120067850D01*
X138057868Y-120088893D01*
X138043253Y-120108599D01*
X138026777Y-120126777D01*
X138008599Y-120143253D01*
X137988893Y-120157868D01*
X137967850Y-120170480D01*
X137945671Y-120180970D01*
X137922572Y-120189235D01*
X137898773Y-120195196D01*
X137874505Y-120198796D01*
X137850001Y-120200000D01*
X137199999Y-120200000D01*
X137175495Y-120198796D01*
X137151227Y-120195196D01*
X137127428Y-120189235D01*
X137104329Y-120180970D01*
X137082150Y-120170480D01*
X137061107Y-120157868D01*
X137041401Y-120143253D01*
X137023223Y-120126777D01*
X137006747Y-120108599D01*
X136992132Y-120088893D01*
X136979520Y-120067850D01*
X136969030Y-120045671D01*
X136960765Y-120022572D01*
X136954804Y-119998773D01*
X136951204Y-119974505D01*
X136950000Y-119950001D01*
X136950000Y-119049999D01*
X136951204Y-119025495D01*
X136954804Y-119001227D01*
X136960765Y-118977428D01*
X136969030Y-118954329D01*
X136979520Y-118932150D01*
X136992132Y-118911107D01*
X137006747Y-118891401D01*
X137023223Y-118873223D01*
X137041401Y-118856747D01*
X137061107Y-118842132D01*
X137082150Y-118829520D01*
X137104329Y-118819030D01*
X137127428Y-118810765D01*
X137151227Y-118804804D01*
X137175495Y-118801204D01*
X137199999Y-118800000D01*
X137850001Y-118800000D01*
X137874505Y-118801204D01*
X137874505Y-118801204D01*
G37*
D12*
X137525000Y-119500000D03*
D11*
G36*
X135824505Y-118801204D02*
X135848773Y-118804804D01*
X135872572Y-118810765D01*
X135895671Y-118819030D01*
X135917850Y-118829520D01*
X135938893Y-118842132D01*
X135958599Y-118856747D01*
X135976777Y-118873223D01*
X135993253Y-118891401D01*
X136007868Y-118911107D01*
X136020480Y-118932150D01*
X136030970Y-118954329D01*
X136039235Y-118977428D01*
X136045196Y-119001227D01*
X136048796Y-119025495D01*
X136050000Y-119049999D01*
X136050000Y-119950001D01*
X136048796Y-119974505D01*
X136045196Y-119998773D01*
X136039235Y-120022572D01*
X136030970Y-120045671D01*
X136020480Y-120067850D01*
X136007868Y-120088893D01*
X135993253Y-120108599D01*
X135976777Y-120126777D01*
X135958599Y-120143253D01*
X135938893Y-120157868D01*
X135917850Y-120170480D01*
X135895671Y-120180970D01*
X135872572Y-120189235D01*
X135848773Y-120195196D01*
X135824505Y-120198796D01*
X135800001Y-120200000D01*
X135149999Y-120200000D01*
X135125495Y-120198796D01*
X135101227Y-120195196D01*
X135077428Y-120189235D01*
X135054329Y-120180970D01*
X135032150Y-120170480D01*
X135011107Y-120157868D01*
X134991401Y-120143253D01*
X134973223Y-120126777D01*
X134956747Y-120108599D01*
X134942132Y-120088893D01*
X134929520Y-120067850D01*
X134919030Y-120045671D01*
X134910765Y-120022572D01*
X134904804Y-119998773D01*
X134901204Y-119974505D01*
X134900000Y-119950001D01*
X134900000Y-119049999D01*
X134901204Y-119025495D01*
X134904804Y-119001227D01*
X134910765Y-118977428D01*
X134919030Y-118954329D01*
X134929520Y-118932150D01*
X134942132Y-118911107D01*
X134956747Y-118891401D01*
X134973223Y-118873223D01*
X134991401Y-118856747D01*
X135011107Y-118842132D01*
X135032150Y-118829520D01*
X135054329Y-118819030D01*
X135077428Y-118810765D01*
X135101227Y-118804804D01*
X135125495Y-118801204D01*
X135149999Y-118800000D01*
X135800001Y-118800000D01*
X135824505Y-118801204D01*
X135824505Y-118801204D01*
G37*
D12*
X135475000Y-119500000D03*
G04 #@! TD*
D11*
G04 #@! TO.C,R4*
G36*
X155474505Y-77176204D02*
X155498773Y-77179804D01*
X155522572Y-77185765D01*
X155545671Y-77194030D01*
X155567850Y-77204520D01*
X155588893Y-77217132D01*
X155608599Y-77231747D01*
X155626777Y-77248223D01*
X155643253Y-77266401D01*
X155657868Y-77286107D01*
X155670480Y-77307150D01*
X155680970Y-77329329D01*
X155689235Y-77352428D01*
X155695196Y-77376227D01*
X155698796Y-77400495D01*
X155700000Y-77424999D01*
X155700000Y-78075001D01*
X155698796Y-78099505D01*
X155695196Y-78123773D01*
X155689235Y-78147572D01*
X155680970Y-78170671D01*
X155670480Y-78192850D01*
X155657868Y-78213893D01*
X155643253Y-78233599D01*
X155626777Y-78251777D01*
X155608599Y-78268253D01*
X155588893Y-78282868D01*
X155567850Y-78295480D01*
X155545671Y-78305970D01*
X155522572Y-78314235D01*
X155498773Y-78320196D01*
X155474505Y-78323796D01*
X155450001Y-78325000D01*
X154549999Y-78325000D01*
X154525495Y-78323796D01*
X154501227Y-78320196D01*
X154477428Y-78314235D01*
X154454329Y-78305970D01*
X154432150Y-78295480D01*
X154411107Y-78282868D01*
X154391401Y-78268253D01*
X154373223Y-78251777D01*
X154356747Y-78233599D01*
X154342132Y-78213893D01*
X154329520Y-78192850D01*
X154319030Y-78170671D01*
X154310765Y-78147572D01*
X154304804Y-78123773D01*
X154301204Y-78099505D01*
X154300000Y-78075001D01*
X154300000Y-77424999D01*
X154301204Y-77400495D01*
X154304804Y-77376227D01*
X154310765Y-77352428D01*
X154319030Y-77329329D01*
X154329520Y-77307150D01*
X154342132Y-77286107D01*
X154356747Y-77266401D01*
X154373223Y-77248223D01*
X154391401Y-77231747D01*
X154411107Y-77217132D01*
X154432150Y-77204520D01*
X154454329Y-77194030D01*
X154477428Y-77185765D01*
X154501227Y-77179804D01*
X154525495Y-77176204D01*
X154549999Y-77175000D01*
X155450001Y-77175000D01*
X155474505Y-77176204D01*
X155474505Y-77176204D01*
G37*
D12*
X155000000Y-77750000D03*
D11*
G36*
X155474505Y-79226204D02*
X155498773Y-79229804D01*
X155522572Y-79235765D01*
X155545671Y-79244030D01*
X155567850Y-79254520D01*
X155588893Y-79267132D01*
X155608599Y-79281747D01*
X155626777Y-79298223D01*
X155643253Y-79316401D01*
X155657868Y-79336107D01*
X155670480Y-79357150D01*
X155680970Y-79379329D01*
X155689235Y-79402428D01*
X155695196Y-79426227D01*
X155698796Y-79450495D01*
X155700000Y-79474999D01*
X155700000Y-80125001D01*
X155698796Y-80149505D01*
X155695196Y-80173773D01*
X155689235Y-80197572D01*
X155680970Y-80220671D01*
X155670480Y-80242850D01*
X155657868Y-80263893D01*
X155643253Y-80283599D01*
X155626777Y-80301777D01*
X155608599Y-80318253D01*
X155588893Y-80332868D01*
X155567850Y-80345480D01*
X155545671Y-80355970D01*
X155522572Y-80364235D01*
X155498773Y-80370196D01*
X155474505Y-80373796D01*
X155450001Y-80375000D01*
X154549999Y-80375000D01*
X154525495Y-80373796D01*
X154501227Y-80370196D01*
X154477428Y-80364235D01*
X154454329Y-80355970D01*
X154432150Y-80345480D01*
X154411107Y-80332868D01*
X154391401Y-80318253D01*
X154373223Y-80301777D01*
X154356747Y-80283599D01*
X154342132Y-80263893D01*
X154329520Y-80242850D01*
X154319030Y-80220671D01*
X154310765Y-80197572D01*
X154304804Y-80173773D01*
X154301204Y-80149505D01*
X154300000Y-80125001D01*
X154300000Y-79474999D01*
X154301204Y-79450495D01*
X154304804Y-79426227D01*
X154310765Y-79402428D01*
X154319030Y-79379329D01*
X154329520Y-79357150D01*
X154342132Y-79336107D01*
X154356747Y-79316401D01*
X154373223Y-79298223D01*
X154391401Y-79281747D01*
X154411107Y-79267132D01*
X154432150Y-79254520D01*
X154454329Y-79244030D01*
X154477428Y-79235765D01*
X154501227Y-79229804D01*
X154525495Y-79226204D01*
X154549999Y-79225000D01*
X155450001Y-79225000D01*
X155474505Y-79226204D01*
X155474505Y-79226204D01*
G37*
D12*
X155000000Y-79800000D03*
G04 #@! TD*
D11*
G04 #@! TO.C,R1*
G36*
X172474505Y-91276204D02*
X172498773Y-91279804D01*
X172522572Y-91285765D01*
X172545671Y-91294030D01*
X172567850Y-91304520D01*
X172588893Y-91317132D01*
X172608599Y-91331747D01*
X172626777Y-91348223D01*
X172643253Y-91366401D01*
X172657868Y-91386107D01*
X172670480Y-91407150D01*
X172680970Y-91429329D01*
X172689235Y-91452428D01*
X172695196Y-91476227D01*
X172698796Y-91500495D01*
X172700000Y-91524999D01*
X172700000Y-92175001D01*
X172698796Y-92199505D01*
X172695196Y-92223773D01*
X172689235Y-92247572D01*
X172680970Y-92270671D01*
X172670480Y-92292850D01*
X172657868Y-92313893D01*
X172643253Y-92333599D01*
X172626777Y-92351777D01*
X172608599Y-92368253D01*
X172588893Y-92382868D01*
X172567850Y-92395480D01*
X172545671Y-92405970D01*
X172522572Y-92414235D01*
X172498773Y-92420196D01*
X172474505Y-92423796D01*
X172450001Y-92425000D01*
X171549999Y-92425000D01*
X171525495Y-92423796D01*
X171501227Y-92420196D01*
X171477428Y-92414235D01*
X171454329Y-92405970D01*
X171432150Y-92395480D01*
X171411107Y-92382868D01*
X171391401Y-92368253D01*
X171373223Y-92351777D01*
X171356747Y-92333599D01*
X171342132Y-92313893D01*
X171329520Y-92292850D01*
X171319030Y-92270671D01*
X171310765Y-92247572D01*
X171304804Y-92223773D01*
X171301204Y-92199505D01*
X171300000Y-92175001D01*
X171300000Y-91524999D01*
X171301204Y-91500495D01*
X171304804Y-91476227D01*
X171310765Y-91452428D01*
X171319030Y-91429329D01*
X171329520Y-91407150D01*
X171342132Y-91386107D01*
X171356747Y-91366401D01*
X171373223Y-91348223D01*
X171391401Y-91331747D01*
X171411107Y-91317132D01*
X171432150Y-91304520D01*
X171454329Y-91294030D01*
X171477428Y-91285765D01*
X171501227Y-91279804D01*
X171525495Y-91276204D01*
X171549999Y-91275000D01*
X172450001Y-91275000D01*
X172474505Y-91276204D01*
X172474505Y-91276204D01*
G37*
D12*
X172000000Y-91850000D03*
D11*
G36*
X172474505Y-89226204D02*
X172498773Y-89229804D01*
X172522572Y-89235765D01*
X172545671Y-89244030D01*
X172567850Y-89254520D01*
X172588893Y-89267132D01*
X172608599Y-89281747D01*
X172626777Y-89298223D01*
X172643253Y-89316401D01*
X172657868Y-89336107D01*
X172670480Y-89357150D01*
X172680970Y-89379329D01*
X172689235Y-89402428D01*
X172695196Y-89426227D01*
X172698796Y-89450495D01*
X172700000Y-89474999D01*
X172700000Y-90125001D01*
X172698796Y-90149505D01*
X172695196Y-90173773D01*
X172689235Y-90197572D01*
X172680970Y-90220671D01*
X172670480Y-90242850D01*
X172657868Y-90263893D01*
X172643253Y-90283599D01*
X172626777Y-90301777D01*
X172608599Y-90318253D01*
X172588893Y-90332868D01*
X172567850Y-90345480D01*
X172545671Y-90355970D01*
X172522572Y-90364235D01*
X172498773Y-90370196D01*
X172474505Y-90373796D01*
X172450001Y-90375000D01*
X171549999Y-90375000D01*
X171525495Y-90373796D01*
X171501227Y-90370196D01*
X171477428Y-90364235D01*
X171454329Y-90355970D01*
X171432150Y-90345480D01*
X171411107Y-90332868D01*
X171391401Y-90318253D01*
X171373223Y-90301777D01*
X171356747Y-90283599D01*
X171342132Y-90263893D01*
X171329520Y-90242850D01*
X171319030Y-90220671D01*
X171310765Y-90197572D01*
X171304804Y-90173773D01*
X171301204Y-90149505D01*
X171300000Y-90125001D01*
X171300000Y-89474999D01*
X171301204Y-89450495D01*
X171304804Y-89426227D01*
X171310765Y-89402428D01*
X171319030Y-89379329D01*
X171329520Y-89357150D01*
X171342132Y-89336107D01*
X171356747Y-89316401D01*
X171373223Y-89298223D01*
X171391401Y-89281747D01*
X171411107Y-89267132D01*
X171432150Y-89254520D01*
X171454329Y-89244030D01*
X171477428Y-89235765D01*
X171501227Y-89229804D01*
X171525495Y-89226204D01*
X171549999Y-89225000D01*
X172450001Y-89225000D01*
X172474505Y-89226204D01*
X172474505Y-89226204D01*
G37*
D12*
X172000000Y-89800000D03*
G04 #@! TD*
D11*
G04 #@! TO.C,R2*
G36*
X145874505Y-97301204D02*
X145898773Y-97304804D01*
X145922572Y-97310765D01*
X145945671Y-97319030D01*
X145967850Y-97329520D01*
X145988893Y-97342132D01*
X146008599Y-97356747D01*
X146026777Y-97373223D01*
X146043253Y-97391401D01*
X146057868Y-97411107D01*
X146070480Y-97432150D01*
X146080970Y-97454329D01*
X146089235Y-97477428D01*
X146095196Y-97501227D01*
X146098796Y-97525495D01*
X146100000Y-97549999D01*
X146100000Y-98450001D01*
X146098796Y-98474505D01*
X146095196Y-98498773D01*
X146089235Y-98522572D01*
X146080970Y-98545671D01*
X146070480Y-98567850D01*
X146057868Y-98588893D01*
X146043253Y-98608599D01*
X146026777Y-98626777D01*
X146008599Y-98643253D01*
X145988893Y-98657868D01*
X145967850Y-98670480D01*
X145945671Y-98680970D01*
X145922572Y-98689235D01*
X145898773Y-98695196D01*
X145874505Y-98698796D01*
X145850001Y-98700000D01*
X145199999Y-98700000D01*
X145175495Y-98698796D01*
X145151227Y-98695196D01*
X145127428Y-98689235D01*
X145104329Y-98680970D01*
X145082150Y-98670480D01*
X145061107Y-98657868D01*
X145041401Y-98643253D01*
X145023223Y-98626777D01*
X145006747Y-98608599D01*
X144992132Y-98588893D01*
X144979520Y-98567850D01*
X144969030Y-98545671D01*
X144960765Y-98522572D01*
X144954804Y-98498773D01*
X144951204Y-98474505D01*
X144950000Y-98450001D01*
X144950000Y-97549999D01*
X144951204Y-97525495D01*
X144954804Y-97501227D01*
X144960765Y-97477428D01*
X144969030Y-97454329D01*
X144979520Y-97432150D01*
X144992132Y-97411107D01*
X145006747Y-97391401D01*
X145023223Y-97373223D01*
X145041401Y-97356747D01*
X145061107Y-97342132D01*
X145082150Y-97329520D01*
X145104329Y-97319030D01*
X145127428Y-97310765D01*
X145151227Y-97304804D01*
X145175495Y-97301204D01*
X145199999Y-97300000D01*
X145850001Y-97300000D01*
X145874505Y-97301204D01*
X145874505Y-97301204D01*
G37*
D12*
X145525000Y-98000000D03*
D11*
G36*
X143824505Y-97301204D02*
X143848773Y-97304804D01*
X143872572Y-97310765D01*
X143895671Y-97319030D01*
X143917850Y-97329520D01*
X143938893Y-97342132D01*
X143958599Y-97356747D01*
X143976777Y-97373223D01*
X143993253Y-97391401D01*
X144007868Y-97411107D01*
X144020480Y-97432150D01*
X144030970Y-97454329D01*
X144039235Y-97477428D01*
X144045196Y-97501227D01*
X144048796Y-97525495D01*
X144050000Y-97549999D01*
X144050000Y-98450001D01*
X144048796Y-98474505D01*
X144045196Y-98498773D01*
X144039235Y-98522572D01*
X144030970Y-98545671D01*
X144020480Y-98567850D01*
X144007868Y-98588893D01*
X143993253Y-98608599D01*
X143976777Y-98626777D01*
X143958599Y-98643253D01*
X143938893Y-98657868D01*
X143917850Y-98670480D01*
X143895671Y-98680970D01*
X143872572Y-98689235D01*
X143848773Y-98695196D01*
X143824505Y-98698796D01*
X143800001Y-98700000D01*
X143149999Y-98700000D01*
X143125495Y-98698796D01*
X143101227Y-98695196D01*
X143077428Y-98689235D01*
X143054329Y-98680970D01*
X143032150Y-98670480D01*
X143011107Y-98657868D01*
X142991401Y-98643253D01*
X142973223Y-98626777D01*
X142956747Y-98608599D01*
X142942132Y-98588893D01*
X142929520Y-98567850D01*
X142919030Y-98545671D01*
X142910765Y-98522572D01*
X142904804Y-98498773D01*
X142901204Y-98474505D01*
X142900000Y-98450001D01*
X142900000Y-97549999D01*
X142901204Y-97525495D01*
X142904804Y-97501227D01*
X142910765Y-97477428D01*
X142919030Y-97454329D01*
X142929520Y-97432150D01*
X142942132Y-97411107D01*
X142956747Y-97391401D01*
X142973223Y-97373223D01*
X142991401Y-97356747D01*
X143011107Y-97342132D01*
X143032150Y-97329520D01*
X143054329Y-97319030D01*
X143077428Y-97310765D01*
X143101227Y-97304804D01*
X143125495Y-97301204D01*
X143149999Y-97300000D01*
X143800001Y-97300000D01*
X143824505Y-97301204D01*
X143824505Y-97301204D01*
G37*
D12*
X143475000Y-98000000D03*
G04 #@! TD*
D11*
G04 #@! TO.C,R3*
G36*
X151224505Y-95426204D02*
X151248773Y-95429804D01*
X151272572Y-95435765D01*
X151295671Y-95444030D01*
X151317850Y-95454520D01*
X151338893Y-95467132D01*
X151358599Y-95481747D01*
X151376777Y-95498223D01*
X151393253Y-95516401D01*
X151407868Y-95536107D01*
X151420480Y-95557150D01*
X151430970Y-95579329D01*
X151439235Y-95602428D01*
X151445196Y-95626227D01*
X151448796Y-95650495D01*
X151450000Y-95674999D01*
X151450000Y-96325001D01*
X151448796Y-96349505D01*
X151445196Y-96373773D01*
X151439235Y-96397572D01*
X151430970Y-96420671D01*
X151420480Y-96442850D01*
X151407868Y-96463893D01*
X151393253Y-96483599D01*
X151376777Y-96501777D01*
X151358599Y-96518253D01*
X151338893Y-96532868D01*
X151317850Y-96545480D01*
X151295671Y-96555970D01*
X151272572Y-96564235D01*
X151248773Y-96570196D01*
X151224505Y-96573796D01*
X151200001Y-96575000D01*
X150299999Y-96575000D01*
X150275495Y-96573796D01*
X150251227Y-96570196D01*
X150227428Y-96564235D01*
X150204329Y-96555970D01*
X150182150Y-96545480D01*
X150161107Y-96532868D01*
X150141401Y-96518253D01*
X150123223Y-96501777D01*
X150106747Y-96483599D01*
X150092132Y-96463893D01*
X150079520Y-96442850D01*
X150069030Y-96420671D01*
X150060765Y-96397572D01*
X150054804Y-96373773D01*
X150051204Y-96349505D01*
X150050000Y-96325001D01*
X150050000Y-95674999D01*
X150051204Y-95650495D01*
X150054804Y-95626227D01*
X150060765Y-95602428D01*
X150069030Y-95579329D01*
X150079520Y-95557150D01*
X150092132Y-95536107D01*
X150106747Y-95516401D01*
X150123223Y-95498223D01*
X150141401Y-95481747D01*
X150161107Y-95467132D01*
X150182150Y-95454520D01*
X150204329Y-95444030D01*
X150227428Y-95435765D01*
X150251227Y-95429804D01*
X150275495Y-95426204D01*
X150299999Y-95425000D01*
X151200001Y-95425000D01*
X151224505Y-95426204D01*
X151224505Y-95426204D01*
G37*
D12*
X150750000Y-96000000D03*
D11*
G36*
X151224505Y-97476204D02*
X151248773Y-97479804D01*
X151272572Y-97485765D01*
X151295671Y-97494030D01*
X151317850Y-97504520D01*
X151338893Y-97517132D01*
X151358599Y-97531747D01*
X151376777Y-97548223D01*
X151393253Y-97566401D01*
X151407868Y-97586107D01*
X151420480Y-97607150D01*
X151430970Y-97629329D01*
X151439235Y-97652428D01*
X151445196Y-97676227D01*
X151448796Y-97700495D01*
X151450000Y-97724999D01*
X151450000Y-98375001D01*
X151448796Y-98399505D01*
X151445196Y-98423773D01*
X151439235Y-98447572D01*
X151430970Y-98470671D01*
X151420480Y-98492850D01*
X151407868Y-98513893D01*
X151393253Y-98533599D01*
X151376777Y-98551777D01*
X151358599Y-98568253D01*
X151338893Y-98582868D01*
X151317850Y-98595480D01*
X151295671Y-98605970D01*
X151272572Y-98614235D01*
X151248773Y-98620196D01*
X151224505Y-98623796D01*
X151200001Y-98625000D01*
X150299999Y-98625000D01*
X150275495Y-98623796D01*
X150251227Y-98620196D01*
X150227428Y-98614235D01*
X150204329Y-98605970D01*
X150182150Y-98595480D01*
X150161107Y-98582868D01*
X150141401Y-98568253D01*
X150123223Y-98551777D01*
X150106747Y-98533599D01*
X150092132Y-98513893D01*
X150079520Y-98492850D01*
X150069030Y-98470671D01*
X150060765Y-98447572D01*
X150054804Y-98423773D01*
X150051204Y-98399505D01*
X150050000Y-98375001D01*
X150050000Y-97724999D01*
X150051204Y-97700495D01*
X150054804Y-97676227D01*
X150060765Y-97652428D01*
X150069030Y-97629329D01*
X150079520Y-97607150D01*
X150092132Y-97586107D01*
X150106747Y-97566401D01*
X150123223Y-97548223D01*
X150141401Y-97531747D01*
X150161107Y-97517132D01*
X150182150Y-97504520D01*
X150204329Y-97494030D01*
X150227428Y-97485765D01*
X150251227Y-97479804D01*
X150275495Y-97476204D01*
X150299999Y-97475000D01*
X151200001Y-97475000D01*
X151224505Y-97476204D01*
X151224505Y-97476204D01*
G37*
D12*
X150750000Y-98050000D03*
G04 #@! TD*
D11*
G04 #@! TO.C,R5*
G36*
X161049505Y-80301204D02*
X161073773Y-80304804D01*
X161097572Y-80310765D01*
X161120671Y-80319030D01*
X161142850Y-80329520D01*
X161163893Y-80342132D01*
X161183599Y-80356747D01*
X161201777Y-80373223D01*
X161218253Y-80391401D01*
X161232868Y-80411107D01*
X161245480Y-80432150D01*
X161255970Y-80454329D01*
X161264235Y-80477428D01*
X161270196Y-80501227D01*
X161273796Y-80525495D01*
X161275000Y-80549999D01*
X161275000Y-81450001D01*
X161273796Y-81474505D01*
X161270196Y-81498773D01*
X161264235Y-81522572D01*
X161255970Y-81545671D01*
X161245480Y-81567850D01*
X161232868Y-81588893D01*
X161218253Y-81608599D01*
X161201777Y-81626777D01*
X161183599Y-81643253D01*
X161163893Y-81657868D01*
X161142850Y-81670480D01*
X161120671Y-81680970D01*
X161097572Y-81689235D01*
X161073773Y-81695196D01*
X161049505Y-81698796D01*
X161025001Y-81700000D01*
X160374999Y-81700000D01*
X160350495Y-81698796D01*
X160326227Y-81695196D01*
X160302428Y-81689235D01*
X160279329Y-81680970D01*
X160257150Y-81670480D01*
X160236107Y-81657868D01*
X160216401Y-81643253D01*
X160198223Y-81626777D01*
X160181747Y-81608599D01*
X160167132Y-81588893D01*
X160154520Y-81567850D01*
X160144030Y-81545671D01*
X160135765Y-81522572D01*
X160129804Y-81498773D01*
X160126204Y-81474505D01*
X160125000Y-81450001D01*
X160125000Y-80549999D01*
X160126204Y-80525495D01*
X160129804Y-80501227D01*
X160135765Y-80477428D01*
X160144030Y-80454329D01*
X160154520Y-80432150D01*
X160167132Y-80411107D01*
X160181747Y-80391401D01*
X160198223Y-80373223D01*
X160216401Y-80356747D01*
X160236107Y-80342132D01*
X160257150Y-80329520D01*
X160279329Y-80319030D01*
X160302428Y-80310765D01*
X160326227Y-80304804D01*
X160350495Y-80301204D01*
X160374999Y-80300000D01*
X161025001Y-80300000D01*
X161049505Y-80301204D01*
X161049505Y-80301204D01*
G37*
D12*
X160700000Y-81000000D03*
D11*
G36*
X163099505Y-80301204D02*
X163123773Y-80304804D01*
X163147572Y-80310765D01*
X163170671Y-80319030D01*
X163192850Y-80329520D01*
X163213893Y-80342132D01*
X163233599Y-80356747D01*
X163251777Y-80373223D01*
X163268253Y-80391401D01*
X163282868Y-80411107D01*
X163295480Y-80432150D01*
X163305970Y-80454329D01*
X163314235Y-80477428D01*
X163320196Y-80501227D01*
X163323796Y-80525495D01*
X163325000Y-80549999D01*
X163325000Y-81450001D01*
X163323796Y-81474505D01*
X163320196Y-81498773D01*
X163314235Y-81522572D01*
X163305970Y-81545671D01*
X163295480Y-81567850D01*
X163282868Y-81588893D01*
X163268253Y-81608599D01*
X163251777Y-81626777D01*
X163233599Y-81643253D01*
X163213893Y-81657868D01*
X163192850Y-81670480D01*
X163170671Y-81680970D01*
X163147572Y-81689235D01*
X163123773Y-81695196D01*
X163099505Y-81698796D01*
X163075001Y-81700000D01*
X162424999Y-81700000D01*
X162400495Y-81698796D01*
X162376227Y-81695196D01*
X162352428Y-81689235D01*
X162329329Y-81680970D01*
X162307150Y-81670480D01*
X162286107Y-81657868D01*
X162266401Y-81643253D01*
X162248223Y-81626777D01*
X162231747Y-81608599D01*
X162217132Y-81588893D01*
X162204520Y-81567850D01*
X162194030Y-81545671D01*
X162185765Y-81522572D01*
X162179804Y-81498773D01*
X162176204Y-81474505D01*
X162175000Y-81450001D01*
X162175000Y-80549999D01*
X162176204Y-80525495D01*
X162179804Y-80501227D01*
X162185765Y-80477428D01*
X162194030Y-80454329D01*
X162204520Y-80432150D01*
X162217132Y-80411107D01*
X162231747Y-80391401D01*
X162248223Y-80373223D01*
X162266401Y-80356747D01*
X162286107Y-80342132D01*
X162307150Y-80329520D01*
X162329329Y-80319030D01*
X162352428Y-80310765D01*
X162376227Y-80304804D01*
X162400495Y-80301204D01*
X162424999Y-80300000D01*
X163075001Y-80300000D01*
X163099505Y-80301204D01*
X163099505Y-80301204D01*
G37*
D12*
X162750000Y-81000000D03*
G04 #@! TD*
D11*
G04 #@! TO.C,R9*
G36*
X219849505Y-88051204D02*
X219873773Y-88054804D01*
X219897572Y-88060765D01*
X219920671Y-88069030D01*
X219942850Y-88079520D01*
X219963893Y-88092132D01*
X219983599Y-88106747D01*
X220001777Y-88123223D01*
X220018253Y-88141401D01*
X220032868Y-88161107D01*
X220045480Y-88182150D01*
X220055970Y-88204329D01*
X220064235Y-88227428D01*
X220070196Y-88251227D01*
X220073796Y-88275495D01*
X220075000Y-88299999D01*
X220075000Y-89200001D01*
X220073796Y-89224505D01*
X220070196Y-89248773D01*
X220064235Y-89272572D01*
X220055970Y-89295671D01*
X220045480Y-89317850D01*
X220032868Y-89338893D01*
X220018253Y-89358599D01*
X220001777Y-89376777D01*
X219983599Y-89393253D01*
X219963893Y-89407868D01*
X219942850Y-89420480D01*
X219920671Y-89430970D01*
X219897572Y-89439235D01*
X219873773Y-89445196D01*
X219849505Y-89448796D01*
X219825001Y-89450000D01*
X219174999Y-89450000D01*
X219150495Y-89448796D01*
X219126227Y-89445196D01*
X219102428Y-89439235D01*
X219079329Y-89430970D01*
X219057150Y-89420480D01*
X219036107Y-89407868D01*
X219016401Y-89393253D01*
X218998223Y-89376777D01*
X218981747Y-89358599D01*
X218967132Y-89338893D01*
X218954520Y-89317850D01*
X218944030Y-89295671D01*
X218935765Y-89272572D01*
X218929804Y-89248773D01*
X218926204Y-89224505D01*
X218925000Y-89200001D01*
X218925000Y-88299999D01*
X218926204Y-88275495D01*
X218929804Y-88251227D01*
X218935765Y-88227428D01*
X218944030Y-88204329D01*
X218954520Y-88182150D01*
X218967132Y-88161107D01*
X218981747Y-88141401D01*
X218998223Y-88123223D01*
X219016401Y-88106747D01*
X219036107Y-88092132D01*
X219057150Y-88079520D01*
X219079329Y-88069030D01*
X219102428Y-88060765D01*
X219126227Y-88054804D01*
X219150495Y-88051204D01*
X219174999Y-88050000D01*
X219825001Y-88050000D01*
X219849505Y-88051204D01*
X219849505Y-88051204D01*
G37*
D12*
X219500000Y-88750000D03*
D11*
G36*
X217799505Y-88051204D02*
X217823773Y-88054804D01*
X217847572Y-88060765D01*
X217870671Y-88069030D01*
X217892850Y-88079520D01*
X217913893Y-88092132D01*
X217933599Y-88106747D01*
X217951777Y-88123223D01*
X217968253Y-88141401D01*
X217982868Y-88161107D01*
X217995480Y-88182150D01*
X218005970Y-88204329D01*
X218014235Y-88227428D01*
X218020196Y-88251227D01*
X218023796Y-88275495D01*
X218025000Y-88299999D01*
X218025000Y-89200001D01*
X218023796Y-89224505D01*
X218020196Y-89248773D01*
X218014235Y-89272572D01*
X218005970Y-89295671D01*
X217995480Y-89317850D01*
X217982868Y-89338893D01*
X217968253Y-89358599D01*
X217951777Y-89376777D01*
X217933599Y-89393253D01*
X217913893Y-89407868D01*
X217892850Y-89420480D01*
X217870671Y-89430970D01*
X217847572Y-89439235D01*
X217823773Y-89445196D01*
X217799505Y-89448796D01*
X217775001Y-89450000D01*
X217124999Y-89450000D01*
X217100495Y-89448796D01*
X217076227Y-89445196D01*
X217052428Y-89439235D01*
X217029329Y-89430970D01*
X217007150Y-89420480D01*
X216986107Y-89407868D01*
X216966401Y-89393253D01*
X216948223Y-89376777D01*
X216931747Y-89358599D01*
X216917132Y-89338893D01*
X216904520Y-89317850D01*
X216894030Y-89295671D01*
X216885765Y-89272572D01*
X216879804Y-89248773D01*
X216876204Y-89224505D01*
X216875000Y-89200001D01*
X216875000Y-88299999D01*
X216876204Y-88275495D01*
X216879804Y-88251227D01*
X216885765Y-88227428D01*
X216894030Y-88204329D01*
X216904520Y-88182150D01*
X216917132Y-88161107D01*
X216931747Y-88141401D01*
X216948223Y-88123223D01*
X216966401Y-88106747D01*
X216986107Y-88092132D01*
X217007150Y-88079520D01*
X217029329Y-88069030D01*
X217052428Y-88060765D01*
X217076227Y-88054804D01*
X217100495Y-88051204D01*
X217124999Y-88050000D01*
X217775001Y-88050000D01*
X217799505Y-88051204D01*
X217799505Y-88051204D01*
G37*
D12*
X217450000Y-88750000D03*
G04 #@! TD*
M02*
