G04 #@! TF.GenerationSoftware,KiCad,Pcbnew,(5.0.1)-3*
G04 #@! TF.CreationDate,2019-05-30T14:31:15+02:00*
G04 #@! TF.ProjectId,SudTempControl,53756454656D70436F6E74726F6C2E6B,rev?*
G04 #@! TF.SameCoordinates,Original*
G04 #@! TF.FileFunction,Legend,Bot*
G04 #@! TF.FilePolarity,Positive*
%FSLAX46Y46*%
G04 Gerber Fmt 4.6, Leading zero omitted, Abs format (unit mm)*
G04 Created by KiCad (PCBNEW (5.0.1)-3) date 30.05.2019 14:31:15*
%MOMM*%
%LPD*%
G01*
G04 APERTURE LIST*
%ADD10C,0.120000*%
%ADD11C,0.150000*%
G04 APERTURE END LIST*
D10*
G04 #@! TO.C,C18*
X179490000Y-82838748D02*
X179490000Y-83361252D01*
X180910000Y-82838748D02*
X180910000Y-83361252D01*
G04 #@! TO.C,U8*
X178550000Y-80870000D02*
X178550000Y-82370000D01*
X178550000Y-82370000D02*
X178280000Y-82370000D01*
X178280000Y-82370000D02*
X178280000Y-85200000D01*
X171650000Y-80870000D02*
X171650000Y-82370000D01*
X171650000Y-82370000D02*
X171920000Y-82370000D01*
X171920000Y-82370000D02*
X171920000Y-83470000D01*
D11*
G04 #@! TO.C,U1*
X139400000Y-91625000D02*
X139400000Y-93050000D01*
X139625000Y-84375000D02*
X139625000Y-84700000D01*
X132375000Y-84375000D02*
X132375000Y-84700000D01*
X132375000Y-91625000D02*
X132375000Y-91300000D01*
X139625000Y-91625000D02*
X139625000Y-91300000D01*
X132375000Y-91625000D02*
X132700000Y-91625000D01*
X132375000Y-84375000D02*
X132700000Y-84375000D01*
X139625000Y-84375000D02*
X139300000Y-84375000D01*
X139625000Y-91625000D02*
X139400000Y-91625000D01*
D10*
G04 #@! TO.C,C17*
X126011252Y-81290000D02*
X125488748Y-81290000D01*
X126011252Y-82710000D02*
X125488748Y-82710000D01*
G04 #@! TO.C,R15*
X126061252Y-79090000D02*
X125538748Y-79090000D01*
X126061252Y-80510000D02*
X125538748Y-80510000D01*
G04 #@! TO.C,R16*
X128290000Y-118686252D02*
X128290000Y-118163748D01*
X129710000Y-118686252D02*
X129710000Y-118163748D01*
G04 #@! TO.C,R17*
X129710000Y-113636252D02*
X129710000Y-113113748D01*
X128290000Y-113636252D02*
X128290000Y-113113748D01*
G04 #@! TO.C,R18*
X145511252Y-87960000D02*
X144988748Y-87960000D01*
X145511252Y-86540000D02*
X144988748Y-86540000D01*
G04 #@! TO.C,R14*
X130586252Y-79090000D02*
X130063748Y-79090000D01*
X130586252Y-80510000D02*
X130063748Y-80510000D01*
G04 #@! TO.C,C14*
X135486252Y-80460000D02*
X134963748Y-80460000D01*
X135486252Y-79040000D02*
X134963748Y-79040000D01*
G04 #@! TO.C,C13*
X179186252Y-88590000D02*
X178663748Y-88590000D01*
X179186252Y-90010000D02*
X178663748Y-90010000D01*
G04 #@! TO.C,T3*
X185830000Y-126710000D02*
X183400000Y-126710000D01*
X185850000Y-126700000D02*
X185850000Y-125700000D01*
X185850000Y-123650000D02*
X184000000Y-123650000D01*
X185850000Y-124700000D02*
X185850000Y-123650000D01*
G04 #@! TO.C,R13*
X179036252Y-131210000D02*
X178513748Y-131210000D01*
X179036252Y-129790000D02*
X178513748Y-129790000D01*
G04 #@! TO.C,R12*
X179061252Y-126910000D02*
X178538748Y-126910000D01*
X179061252Y-125490000D02*
X178538748Y-125490000D01*
G04 #@! TO.C,BZ1*
X168150000Y-99250000D02*
G75*
G03X168150000Y-99250000I-7600000J0D01*
G01*
G04 #@! TO.C,L1*
X175700000Y-97800000D02*
X174850000Y-97800000D01*
X175700000Y-105400000D02*
X174900000Y-105400000D01*
G04 #@! TO.C,D1*
X176650000Y-95000000D02*
X172750000Y-95000000D01*
X176650000Y-97000000D02*
X172750000Y-97000000D01*
X176650000Y-95000000D02*
X176650000Y-97000000D01*
G04 #@! TO.C,C3*
X175236252Y-90310000D02*
X174713748Y-90310000D01*
X175236252Y-88890000D02*
X174713748Y-88890000D01*
G04 #@! TO.C,C12*
X179113748Y-95090000D02*
X179636252Y-95090000D01*
X179113748Y-96510000D02*
X179636252Y-96510000D01*
G04 #@! TO.C,C11*
X142261252Y-122910000D02*
X141738748Y-122910000D01*
X142261252Y-121490000D02*
X141738748Y-121490000D01*
G04 #@! TO.C,C9*
X147540000Y-97261252D02*
X147540000Y-96738748D01*
X148960000Y-97261252D02*
X148960000Y-96738748D01*
G04 #@! TO.C,C7*
X202286252Y-111210000D02*
X201763748Y-111210000D01*
X202286252Y-109790000D02*
X201763748Y-109790000D01*
G04 #@! TO.C,C6*
X128261252Y-102710000D02*
X127738748Y-102710000D01*
X128261252Y-101290000D02*
X127738748Y-101290000D01*
G04 #@! TO.C,C5*
X135261252Y-102710000D02*
X134738748Y-102710000D01*
X135261252Y-101290000D02*
X134738748Y-101290000D01*
G04 #@! TO.C,C4*
X199713748Y-89590000D02*
X200236252Y-89590000D01*
X199713748Y-91010000D02*
X200236252Y-91010000D01*
G04 #@! TO.C,C2*
X204713748Y-89590000D02*
X205236252Y-89590000D01*
X204713748Y-91010000D02*
X205236252Y-91010000D01*
G04 #@! TO.C,C1*
X135838748Y-94290000D02*
X136361252Y-94290000D01*
X135838748Y-95710000D02*
X136361252Y-95710000D01*
G04 #@! TO.C,C8*
X144238748Y-94290000D02*
X144761252Y-94290000D01*
X144238748Y-95710000D02*
X144761252Y-95710000D01*
G04 #@! TO.C,C10*
X142236252Y-113910000D02*
X141713748Y-113910000D01*
X142236252Y-112490000D02*
X141713748Y-112490000D01*
G04 #@! TO.C,U7*
X145600000Y-114940000D02*
X146790000Y-114940000D01*
X145600000Y-114770000D02*
X145600000Y-114940000D01*
X141400000Y-114770000D02*
X141400000Y-114940000D01*
X145600000Y-120070000D02*
X145600000Y-120240000D01*
X141400000Y-120060000D02*
X141400000Y-120230000D01*
X141400000Y-120230000D02*
X145600000Y-120230000D01*
X141400000Y-114770000D02*
X145600000Y-114770000D01*
G04 #@! TO.C,T2*
X185830000Y-131110000D02*
X183400000Y-131110000D01*
X185850000Y-131100000D02*
X185850000Y-130100000D01*
X185850000Y-128050000D02*
X184000000Y-128050000D01*
X185850000Y-129100000D02*
X185850000Y-128050000D01*
G04 #@! TO.C,T1*
X163310000Y-75130000D02*
X163310000Y-77560000D01*
X163300000Y-75110000D02*
X162300000Y-75110000D01*
X160250000Y-75110000D02*
X160250000Y-76960000D01*
X161300000Y-75110000D02*
X160250000Y-75110000D01*
G04 #@! TO.C,U3*
X176880000Y-94310000D02*
X174450000Y-94310000D01*
X175120000Y-91240000D02*
X176880000Y-91240000D01*
G04 #@! TO.C,P1*
X156880000Y-87240000D02*
X156880000Y-89370000D01*
X156880000Y-82629000D02*
X156880000Y-84760000D01*
X163620000Y-85091000D02*
X163620000Y-86910000D01*
X163084000Y-89370000D02*
X156880000Y-89370000D01*
X163084000Y-82629000D02*
X156880000Y-82629000D01*
G04 #@! TO.C,R6*
X136238748Y-116290000D02*
X136761252Y-116290000D01*
X136238748Y-117710000D02*
X136761252Y-117710000D01*
G04 #@! TO.C,R11*
X170510000Y-92763748D02*
X170510000Y-93286252D01*
X169090000Y-92763748D02*
X169090000Y-93286252D01*
G04 #@! TO.C,R10*
X179290000Y-92886252D02*
X179290000Y-92363748D01*
X180710000Y-92886252D02*
X180710000Y-92363748D01*
G04 #@! TO.C,R8*
X150236252Y-117510000D02*
X149713748Y-117510000D01*
X150236252Y-116090000D02*
X149713748Y-116090000D01*
G04 #@! TO.C,R7*
X136238748Y-118790000D02*
X136761252Y-118790000D01*
X136238748Y-120210000D02*
X136761252Y-120210000D01*
G04 #@! TO.C,R4*
X154290000Y-79036252D02*
X154290000Y-78513748D01*
X155710000Y-79036252D02*
X155710000Y-78513748D01*
G04 #@! TO.C,R1*
X172710000Y-90563748D02*
X172710000Y-91086252D01*
X171290000Y-90563748D02*
X171290000Y-91086252D01*
G04 #@! TO.C,R2*
X144238748Y-97290000D02*
X144761252Y-97290000D01*
X144238748Y-98710000D02*
X144761252Y-98710000D01*
G04 #@! TO.C,R3*
X150040000Y-97286252D02*
X150040000Y-96763748D01*
X151460000Y-97286252D02*
X151460000Y-96763748D01*
G04 #@! TO.C,R5*
X161986252Y-81710000D02*
X161463748Y-81710000D01*
X161986252Y-80290000D02*
X161463748Y-80290000D01*
G04 #@! TO.C,R9*
X218213748Y-88040000D02*
X218736252Y-88040000D01*
X218213748Y-89460000D02*
X218736252Y-89460000D01*
G04 #@! TO.C,C18*
D11*
X182457142Y-82557142D02*
X182504761Y-82509523D01*
X182552380Y-82366666D01*
X182552380Y-82271428D01*
X182504761Y-82128571D01*
X182409523Y-82033333D01*
X182314285Y-81985714D01*
X182123809Y-81938095D01*
X181980952Y-81938095D01*
X181790476Y-81985714D01*
X181695238Y-82033333D01*
X181600000Y-82128571D01*
X181552380Y-82271428D01*
X181552380Y-82366666D01*
X181600000Y-82509523D01*
X181647619Y-82557142D01*
X182552380Y-83509523D02*
X182552380Y-82938095D01*
X182552380Y-83223809D02*
X181552380Y-83223809D01*
X181695238Y-83128571D01*
X181790476Y-83033333D01*
X181838095Y-82938095D01*
X181980952Y-84080952D02*
X181933333Y-83985714D01*
X181885714Y-83938095D01*
X181790476Y-83890476D01*
X181742857Y-83890476D01*
X181647619Y-83938095D01*
X181600000Y-83985714D01*
X181552380Y-84080952D01*
X181552380Y-84271428D01*
X181600000Y-84366666D01*
X181647619Y-84414285D01*
X181742857Y-84461904D01*
X181790476Y-84461904D01*
X181885714Y-84414285D01*
X181933333Y-84366666D01*
X181980952Y-84271428D01*
X181980952Y-84080952D01*
X182028571Y-83985714D01*
X182076190Y-83938095D01*
X182171428Y-83890476D01*
X182361904Y-83890476D01*
X182457142Y-83938095D01*
X182504761Y-83985714D01*
X182552380Y-84080952D01*
X182552380Y-84271428D01*
X182504761Y-84366666D01*
X182457142Y-84414285D01*
X182361904Y-84461904D01*
X182171428Y-84461904D01*
X182076190Y-84414285D01*
X182028571Y-84366666D01*
X181980952Y-84271428D01*
G04 #@! TO.C,U8*
X178802380Y-77838095D02*
X179611904Y-77838095D01*
X179707142Y-77885714D01*
X179754761Y-77933333D01*
X179802380Y-78028571D01*
X179802380Y-78219047D01*
X179754761Y-78314285D01*
X179707142Y-78361904D01*
X179611904Y-78409523D01*
X178802380Y-78409523D01*
X179230952Y-79028571D02*
X179183333Y-78933333D01*
X179135714Y-78885714D01*
X179040476Y-78838095D01*
X178992857Y-78838095D01*
X178897619Y-78885714D01*
X178850000Y-78933333D01*
X178802380Y-79028571D01*
X178802380Y-79219047D01*
X178850000Y-79314285D01*
X178897619Y-79361904D01*
X178992857Y-79409523D01*
X179040476Y-79409523D01*
X179135714Y-79361904D01*
X179183333Y-79314285D01*
X179230952Y-79219047D01*
X179230952Y-79028571D01*
X179278571Y-78933333D01*
X179326190Y-78885714D01*
X179421428Y-78838095D01*
X179611904Y-78838095D01*
X179707142Y-78885714D01*
X179754761Y-78933333D01*
X179802380Y-79028571D01*
X179802380Y-79219047D01*
X179754761Y-79314285D01*
X179707142Y-79361904D01*
X179611904Y-79409523D01*
X179421428Y-79409523D01*
X179326190Y-79361904D01*
X179278571Y-79314285D01*
X179230952Y-79219047D01*
G04 #@! TO.C,U1*
X141502380Y-87238095D02*
X142311904Y-87238095D01*
X142407142Y-87285714D01*
X142454761Y-87333333D01*
X142502380Y-87428571D01*
X142502380Y-87619047D01*
X142454761Y-87714285D01*
X142407142Y-87761904D01*
X142311904Y-87809523D01*
X141502380Y-87809523D01*
X142502380Y-88809523D02*
X142502380Y-88238095D01*
X142502380Y-88523809D02*
X141502380Y-88523809D01*
X141645238Y-88428571D01*
X141740476Y-88333333D01*
X141788095Y-88238095D01*
G04 #@! TO.C,C17*
X126392857Y-84107142D02*
X126440476Y-84154761D01*
X126583333Y-84202380D01*
X126678571Y-84202380D01*
X126821428Y-84154761D01*
X126916666Y-84059523D01*
X126964285Y-83964285D01*
X127011904Y-83773809D01*
X127011904Y-83630952D01*
X126964285Y-83440476D01*
X126916666Y-83345238D01*
X126821428Y-83250000D01*
X126678571Y-83202380D01*
X126583333Y-83202380D01*
X126440476Y-83250000D01*
X126392857Y-83297619D01*
X125440476Y-84202380D02*
X126011904Y-84202380D01*
X125726190Y-84202380D02*
X125726190Y-83202380D01*
X125821428Y-83345238D01*
X125916666Y-83440476D01*
X126011904Y-83488095D01*
X125107142Y-83202380D02*
X124440476Y-83202380D01*
X124869047Y-84202380D01*
G04 #@! TO.C,R15*
X126442857Y-78602380D02*
X126776190Y-78126190D01*
X127014285Y-78602380D02*
X127014285Y-77602380D01*
X126633333Y-77602380D01*
X126538095Y-77650000D01*
X126490476Y-77697619D01*
X126442857Y-77792857D01*
X126442857Y-77935714D01*
X126490476Y-78030952D01*
X126538095Y-78078571D01*
X126633333Y-78126190D01*
X127014285Y-78126190D01*
X125490476Y-78602380D02*
X126061904Y-78602380D01*
X125776190Y-78602380D02*
X125776190Y-77602380D01*
X125871428Y-77745238D01*
X125966666Y-77840476D01*
X126061904Y-77888095D01*
X124585714Y-77602380D02*
X125061904Y-77602380D01*
X125109523Y-78078571D01*
X125061904Y-78030952D01*
X124966666Y-77983333D01*
X124728571Y-77983333D01*
X124633333Y-78030952D01*
X124585714Y-78078571D01*
X124538095Y-78173809D01*
X124538095Y-78411904D01*
X124585714Y-78507142D01*
X124633333Y-78554761D01*
X124728571Y-78602380D01*
X124966666Y-78602380D01*
X125061904Y-78554761D01*
X125109523Y-78507142D01*
G04 #@! TO.C,R16*
X131102380Y-117782142D02*
X130626190Y-117448809D01*
X131102380Y-117210714D02*
X130102380Y-117210714D01*
X130102380Y-117591666D01*
X130150000Y-117686904D01*
X130197619Y-117734523D01*
X130292857Y-117782142D01*
X130435714Y-117782142D01*
X130530952Y-117734523D01*
X130578571Y-117686904D01*
X130626190Y-117591666D01*
X130626190Y-117210714D01*
X131102380Y-118734523D02*
X131102380Y-118163095D01*
X131102380Y-118448809D02*
X130102380Y-118448809D01*
X130245238Y-118353571D01*
X130340476Y-118258333D01*
X130388095Y-118163095D01*
X130102380Y-119591666D02*
X130102380Y-119401190D01*
X130150000Y-119305952D01*
X130197619Y-119258333D01*
X130340476Y-119163095D01*
X130530952Y-119115476D01*
X130911904Y-119115476D01*
X131007142Y-119163095D01*
X131054761Y-119210714D01*
X131102380Y-119305952D01*
X131102380Y-119496428D01*
X131054761Y-119591666D01*
X131007142Y-119639285D01*
X130911904Y-119686904D01*
X130673809Y-119686904D01*
X130578571Y-119639285D01*
X130530952Y-119591666D01*
X130483333Y-119496428D01*
X130483333Y-119305952D01*
X130530952Y-119210714D01*
X130578571Y-119163095D01*
X130673809Y-119115476D01*
G04 #@! TO.C,R17*
X131102380Y-112732142D02*
X130626190Y-112398809D01*
X131102380Y-112160714D02*
X130102380Y-112160714D01*
X130102380Y-112541666D01*
X130150000Y-112636904D01*
X130197619Y-112684523D01*
X130292857Y-112732142D01*
X130435714Y-112732142D01*
X130530952Y-112684523D01*
X130578571Y-112636904D01*
X130626190Y-112541666D01*
X130626190Y-112160714D01*
X131102380Y-113684523D02*
X131102380Y-113113095D01*
X131102380Y-113398809D02*
X130102380Y-113398809D01*
X130245238Y-113303571D01*
X130340476Y-113208333D01*
X130388095Y-113113095D01*
X130102380Y-114017857D02*
X130102380Y-114684523D01*
X131102380Y-114255952D01*
G04 #@! TO.C,R18*
X145892857Y-86052380D02*
X146226190Y-85576190D01*
X146464285Y-86052380D02*
X146464285Y-85052380D01*
X146083333Y-85052380D01*
X145988095Y-85100000D01*
X145940476Y-85147619D01*
X145892857Y-85242857D01*
X145892857Y-85385714D01*
X145940476Y-85480952D01*
X145988095Y-85528571D01*
X146083333Y-85576190D01*
X146464285Y-85576190D01*
X144940476Y-86052380D02*
X145511904Y-86052380D01*
X145226190Y-86052380D02*
X145226190Y-85052380D01*
X145321428Y-85195238D01*
X145416666Y-85290476D01*
X145511904Y-85338095D01*
X144369047Y-85480952D02*
X144464285Y-85433333D01*
X144511904Y-85385714D01*
X144559523Y-85290476D01*
X144559523Y-85242857D01*
X144511904Y-85147619D01*
X144464285Y-85100000D01*
X144369047Y-85052380D01*
X144178571Y-85052380D01*
X144083333Y-85100000D01*
X144035714Y-85147619D01*
X143988095Y-85242857D01*
X143988095Y-85290476D01*
X144035714Y-85385714D01*
X144083333Y-85433333D01*
X144178571Y-85480952D01*
X144369047Y-85480952D01*
X144464285Y-85528571D01*
X144511904Y-85576190D01*
X144559523Y-85671428D01*
X144559523Y-85861904D01*
X144511904Y-85957142D01*
X144464285Y-86004761D01*
X144369047Y-86052380D01*
X144178571Y-86052380D01*
X144083333Y-86004761D01*
X144035714Y-85957142D01*
X143988095Y-85861904D01*
X143988095Y-85671428D01*
X144035714Y-85576190D01*
X144083333Y-85528571D01*
X144178571Y-85480952D01*
G04 #@! TO.C,R14*
X130967857Y-78602380D02*
X131301190Y-78126190D01*
X131539285Y-78602380D02*
X131539285Y-77602380D01*
X131158333Y-77602380D01*
X131063095Y-77650000D01*
X131015476Y-77697619D01*
X130967857Y-77792857D01*
X130967857Y-77935714D01*
X131015476Y-78030952D01*
X131063095Y-78078571D01*
X131158333Y-78126190D01*
X131539285Y-78126190D01*
X130015476Y-78602380D02*
X130586904Y-78602380D01*
X130301190Y-78602380D02*
X130301190Y-77602380D01*
X130396428Y-77745238D01*
X130491666Y-77840476D01*
X130586904Y-77888095D01*
X129158333Y-77935714D02*
X129158333Y-78602380D01*
X129396428Y-77554761D02*
X129634523Y-78269047D01*
X129015476Y-78269047D01*
G04 #@! TO.C,C14*
X135867857Y-78457142D02*
X135915476Y-78504761D01*
X136058333Y-78552380D01*
X136153571Y-78552380D01*
X136296428Y-78504761D01*
X136391666Y-78409523D01*
X136439285Y-78314285D01*
X136486904Y-78123809D01*
X136486904Y-77980952D01*
X136439285Y-77790476D01*
X136391666Y-77695238D01*
X136296428Y-77600000D01*
X136153571Y-77552380D01*
X136058333Y-77552380D01*
X135915476Y-77600000D01*
X135867857Y-77647619D01*
X134915476Y-78552380D02*
X135486904Y-78552380D01*
X135201190Y-78552380D02*
X135201190Y-77552380D01*
X135296428Y-77695238D01*
X135391666Y-77790476D01*
X135486904Y-77838095D01*
X134058333Y-77885714D02*
X134058333Y-78552380D01*
X134296428Y-77504761D02*
X134534523Y-78219047D01*
X133915476Y-78219047D01*
G04 #@! TO.C,C13*
X179567857Y-88007142D02*
X179615476Y-88054761D01*
X179758333Y-88102380D01*
X179853571Y-88102380D01*
X179996428Y-88054761D01*
X180091666Y-87959523D01*
X180139285Y-87864285D01*
X180186904Y-87673809D01*
X180186904Y-87530952D01*
X180139285Y-87340476D01*
X180091666Y-87245238D01*
X179996428Y-87150000D01*
X179853571Y-87102380D01*
X179758333Y-87102380D01*
X179615476Y-87150000D01*
X179567857Y-87197619D01*
X178615476Y-88102380D02*
X179186904Y-88102380D01*
X178901190Y-88102380D02*
X178901190Y-87102380D01*
X178996428Y-87245238D01*
X179091666Y-87340476D01*
X179186904Y-87388095D01*
X178282142Y-87102380D02*
X177663095Y-87102380D01*
X177996428Y-87483333D01*
X177853571Y-87483333D01*
X177758333Y-87530952D01*
X177710714Y-87578571D01*
X177663095Y-87673809D01*
X177663095Y-87911904D01*
X177710714Y-88007142D01*
X177758333Y-88054761D01*
X177853571Y-88102380D01*
X178139285Y-88102380D01*
X178234523Y-88054761D01*
X178282142Y-88007142D01*
G04 #@! TO.C,T3*
X185461904Y-121952380D02*
X184890476Y-121952380D01*
X185176190Y-122952380D02*
X185176190Y-121952380D01*
X184652380Y-121952380D02*
X184033333Y-121952380D01*
X184366666Y-122333333D01*
X184223809Y-122333333D01*
X184128571Y-122380952D01*
X184080952Y-122428571D01*
X184033333Y-122523809D01*
X184033333Y-122761904D01*
X184080952Y-122857142D01*
X184128571Y-122904761D01*
X184223809Y-122952380D01*
X184509523Y-122952380D01*
X184604761Y-122904761D01*
X184652380Y-122857142D01*
G04 #@! TO.C,R13*
X179417857Y-129302380D02*
X179751190Y-128826190D01*
X179989285Y-129302380D02*
X179989285Y-128302380D01*
X179608333Y-128302380D01*
X179513095Y-128350000D01*
X179465476Y-128397619D01*
X179417857Y-128492857D01*
X179417857Y-128635714D01*
X179465476Y-128730952D01*
X179513095Y-128778571D01*
X179608333Y-128826190D01*
X179989285Y-128826190D01*
X178465476Y-129302380D02*
X179036904Y-129302380D01*
X178751190Y-129302380D02*
X178751190Y-128302380D01*
X178846428Y-128445238D01*
X178941666Y-128540476D01*
X179036904Y-128588095D01*
X178132142Y-128302380D02*
X177513095Y-128302380D01*
X177846428Y-128683333D01*
X177703571Y-128683333D01*
X177608333Y-128730952D01*
X177560714Y-128778571D01*
X177513095Y-128873809D01*
X177513095Y-129111904D01*
X177560714Y-129207142D01*
X177608333Y-129254761D01*
X177703571Y-129302380D01*
X177989285Y-129302380D01*
X178084523Y-129254761D01*
X178132142Y-129207142D01*
G04 #@! TO.C,R12*
X179442857Y-125002380D02*
X179776190Y-124526190D01*
X180014285Y-125002380D02*
X180014285Y-124002380D01*
X179633333Y-124002380D01*
X179538095Y-124050000D01*
X179490476Y-124097619D01*
X179442857Y-124192857D01*
X179442857Y-124335714D01*
X179490476Y-124430952D01*
X179538095Y-124478571D01*
X179633333Y-124526190D01*
X180014285Y-124526190D01*
X178490476Y-125002380D02*
X179061904Y-125002380D01*
X178776190Y-125002380D02*
X178776190Y-124002380D01*
X178871428Y-124145238D01*
X178966666Y-124240476D01*
X179061904Y-124288095D01*
X178109523Y-124097619D02*
X178061904Y-124050000D01*
X177966666Y-124002380D01*
X177728571Y-124002380D01*
X177633333Y-124050000D01*
X177585714Y-124097619D01*
X177538095Y-124192857D01*
X177538095Y-124288095D01*
X177585714Y-124430952D01*
X178157142Y-125002380D01*
X177538095Y-125002380D01*
G04 #@! TO.C,BZ1*
X161440952Y-108068571D02*
X161298095Y-108116190D01*
X161250476Y-108163809D01*
X161202857Y-108259047D01*
X161202857Y-108401904D01*
X161250476Y-108497142D01*
X161298095Y-108544761D01*
X161393333Y-108592380D01*
X161774285Y-108592380D01*
X161774285Y-107592380D01*
X161440952Y-107592380D01*
X161345714Y-107640000D01*
X161298095Y-107687619D01*
X161250476Y-107782857D01*
X161250476Y-107878095D01*
X161298095Y-107973333D01*
X161345714Y-108020952D01*
X161440952Y-108068571D01*
X161774285Y-108068571D01*
X160869523Y-107592380D02*
X160202857Y-107592380D01*
X160869523Y-108592380D01*
X160202857Y-108592380D01*
X159298095Y-108592380D02*
X159869523Y-108592380D01*
X159583809Y-108592380D02*
X159583809Y-107592380D01*
X159679047Y-107735238D01*
X159774285Y-107830476D01*
X159869523Y-107878095D01*
X157120952Y-101861428D02*
X156359047Y-101861428D01*
X156740000Y-102242380D02*
X156740000Y-101480476D01*
G04 #@! TO.C,L1*
X180566666Y-101302380D02*
X181042857Y-101302380D01*
X181042857Y-100302380D01*
X179709523Y-101302380D02*
X180280952Y-101302380D01*
X179995238Y-101302380D02*
X179995238Y-100302380D01*
X180090476Y-100445238D01*
X180185714Y-100540476D01*
X180280952Y-100588095D01*
G04 #@! TO.C,D1*
X171688095Y-96552380D02*
X171688095Y-95552380D01*
X171450000Y-95552380D01*
X171307142Y-95600000D01*
X171211904Y-95695238D01*
X171164285Y-95790476D01*
X171116666Y-95980952D01*
X171116666Y-96123809D01*
X171164285Y-96314285D01*
X171211904Y-96409523D01*
X171307142Y-96504761D01*
X171450000Y-96552380D01*
X171688095Y-96552380D01*
X170164285Y-96552380D02*
X170735714Y-96552380D01*
X170450000Y-96552380D02*
X170450000Y-95552380D01*
X170545238Y-95695238D01*
X170640476Y-95790476D01*
X170735714Y-95838095D01*
G04 #@! TO.C,C3*
X175141666Y-88307142D02*
X175189285Y-88354761D01*
X175332142Y-88402380D01*
X175427380Y-88402380D01*
X175570238Y-88354761D01*
X175665476Y-88259523D01*
X175713095Y-88164285D01*
X175760714Y-87973809D01*
X175760714Y-87830952D01*
X175713095Y-87640476D01*
X175665476Y-87545238D01*
X175570238Y-87450000D01*
X175427380Y-87402380D01*
X175332142Y-87402380D01*
X175189285Y-87450000D01*
X175141666Y-87497619D01*
X174808333Y-87402380D02*
X174189285Y-87402380D01*
X174522619Y-87783333D01*
X174379761Y-87783333D01*
X174284523Y-87830952D01*
X174236904Y-87878571D01*
X174189285Y-87973809D01*
X174189285Y-88211904D01*
X174236904Y-88307142D01*
X174284523Y-88354761D01*
X174379761Y-88402380D01*
X174665476Y-88402380D01*
X174760714Y-88354761D01*
X174808333Y-88307142D01*
G04 #@! TO.C,C12*
X183692857Y-96207142D02*
X183740476Y-96254761D01*
X183883333Y-96302380D01*
X183978571Y-96302380D01*
X184121428Y-96254761D01*
X184216666Y-96159523D01*
X184264285Y-96064285D01*
X184311904Y-95873809D01*
X184311904Y-95730952D01*
X184264285Y-95540476D01*
X184216666Y-95445238D01*
X184121428Y-95350000D01*
X183978571Y-95302380D01*
X183883333Y-95302380D01*
X183740476Y-95350000D01*
X183692857Y-95397619D01*
X182740476Y-96302380D02*
X183311904Y-96302380D01*
X183026190Y-96302380D02*
X183026190Y-95302380D01*
X183121428Y-95445238D01*
X183216666Y-95540476D01*
X183311904Y-95588095D01*
X182359523Y-95397619D02*
X182311904Y-95350000D01*
X182216666Y-95302380D01*
X181978571Y-95302380D01*
X181883333Y-95350000D01*
X181835714Y-95397619D01*
X181788095Y-95492857D01*
X181788095Y-95588095D01*
X181835714Y-95730952D01*
X182407142Y-96302380D01*
X181788095Y-96302380D01*
G04 #@! TO.C,C11*
X142642857Y-124507142D02*
X142690476Y-124554761D01*
X142833333Y-124602380D01*
X142928571Y-124602380D01*
X143071428Y-124554761D01*
X143166666Y-124459523D01*
X143214285Y-124364285D01*
X143261904Y-124173809D01*
X143261904Y-124030952D01*
X143214285Y-123840476D01*
X143166666Y-123745238D01*
X143071428Y-123650000D01*
X142928571Y-123602380D01*
X142833333Y-123602380D01*
X142690476Y-123650000D01*
X142642857Y-123697619D01*
X141690476Y-124602380D02*
X142261904Y-124602380D01*
X141976190Y-124602380D02*
X141976190Y-123602380D01*
X142071428Y-123745238D01*
X142166666Y-123840476D01*
X142261904Y-123888095D01*
X140738095Y-124602380D02*
X141309523Y-124602380D01*
X141023809Y-124602380D02*
X141023809Y-123602380D01*
X141119047Y-123745238D01*
X141214285Y-123840476D01*
X141309523Y-123888095D01*
G04 #@! TO.C,C9*
X148607142Y-99833333D02*
X148654761Y-99785714D01*
X148702380Y-99642857D01*
X148702380Y-99547619D01*
X148654761Y-99404761D01*
X148559523Y-99309523D01*
X148464285Y-99261904D01*
X148273809Y-99214285D01*
X148130952Y-99214285D01*
X147940476Y-99261904D01*
X147845238Y-99309523D01*
X147750000Y-99404761D01*
X147702380Y-99547619D01*
X147702380Y-99642857D01*
X147750000Y-99785714D01*
X147797619Y-99833333D01*
X148702380Y-100309523D02*
X148702380Y-100500000D01*
X148654761Y-100595238D01*
X148607142Y-100642857D01*
X148464285Y-100738095D01*
X148273809Y-100785714D01*
X147892857Y-100785714D01*
X147797619Y-100738095D01*
X147750000Y-100690476D01*
X147702380Y-100595238D01*
X147702380Y-100404761D01*
X147750000Y-100309523D01*
X147797619Y-100261904D01*
X147892857Y-100214285D01*
X148130952Y-100214285D01*
X148226190Y-100261904D01*
X148273809Y-100309523D01*
X148321428Y-100404761D01*
X148321428Y-100595238D01*
X148273809Y-100690476D01*
X148226190Y-100738095D01*
X148130952Y-100785714D01*
G04 #@! TO.C,C7*
X202166666Y-112857142D02*
X202214285Y-112904761D01*
X202357142Y-112952380D01*
X202452380Y-112952380D01*
X202595238Y-112904761D01*
X202690476Y-112809523D01*
X202738095Y-112714285D01*
X202785714Y-112523809D01*
X202785714Y-112380952D01*
X202738095Y-112190476D01*
X202690476Y-112095238D01*
X202595238Y-112000000D01*
X202452380Y-111952380D01*
X202357142Y-111952380D01*
X202214285Y-112000000D01*
X202166666Y-112047619D01*
X201833333Y-111952380D02*
X201166666Y-111952380D01*
X201595238Y-112952380D01*
G04 #@! TO.C,C6*
X128216666Y-104107142D02*
X128264285Y-104154761D01*
X128407142Y-104202380D01*
X128502380Y-104202380D01*
X128645238Y-104154761D01*
X128740476Y-104059523D01*
X128788095Y-103964285D01*
X128835714Y-103773809D01*
X128835714Y-103630952D01*
X128788095Y-103440476D01*
X128740476Y-103345238D01*
X128645238Y-103250000D01*
X128502380Y-103202380D01*
X128407142Y-103202380D01*
X128264285Y-103250000D01*
X128216666Y-103297619D01*
X127359523Y-103202380D02*
X127550000Y-103202380D01*
X127645238Y-103250000D01*
X127692857Y-103297619D01*
X127788095Y-103440476D01*
X127835714Y-103630952D01*
X127835714Y-104011904D01*
X127788095Y-104107142D01*
X127740476Y-104154761D01*
X127645238Y-104202380D01*
X127454761Y-104202380D01*
X127359523Y-104154761D01*
X127311904Y-104107142D01*
X127264285Y-104011904D01*
X127264285Y-103773809D01*
X127311904Y-103678571D01*
X127359523Y-103630952D01*
X127454761Y-103583333D01*
X127645238Y-103583333D01*
X127740476Y-103630952D01*
X127788095Y-103678571D01*
X127835714Y-103773809D01*
G04 #@! TO.C,C5*
X135266666Y-104257142D02*
X135314285Y-104304761D01*
X135457142Y-104352380D01*
X135552380Y-104352380D01*
X135695238Y-104304761D01*
X135790476Y-104209523D01*
X135838095Y-104114285D01*
X135885714Y-103923809D01*
X135885714Y-103780952D01*
X135838095Y-103590476D01*
X135790476Y-103495238D01*
X135695238Y-103400000D01*
X135552380Y-103352380D01*
X135457142Y-103352380D01*
X135314285Y-103400000D01*
X135266666Y-103447619D01*
X134361904Y-103352380D02*
X134838095Y-103352380D01*
X134885714Y-103828571D01*
X134838095Y-103780952D01*
X134742857Y-103733333D01*
X134504761Y-103733333D01*
X134409523Y-103780952D01*
X134361904Y-103828571D01*
X134314285Y-103923809D01*
X134314285Y-104161904D01*
X134361904Y-104257142D01*
X134409523Y-104304761D01*
X134504761Y-104352380D01*
X134742857Y-104352380D01*
X134838095Y-104304761D01*
X134885714Y-104257142D01*
G04 #@! TO.C,C4*
X200141666Y-88957142D02*
X200189285Y-89004761D01*
X200332142Y-89052380D01*
X200427380Y-89052380D01*
X200570238Y-89004761D01*
X200665476Y-88909523D01*
X200713095Y-88814285D01*
X200760714Y-88623809D01*
X200760714Y-88480952D01*
X200713095Y-88290476D01*
X200665476Y-88195238D01*
X200570238Y-88100000D01*
X200427380Y-88052380D01*
X200332142Y-88052380D01*
X200189285Y-88100000D01*
X200141666Y-88147619D01*
X199284523Y-88385714D02*
X199284523Y-89052380D01*
X199522619Y-88004761D02*
X199760714Y-88719047D01*
X199141666Y-88719047D01*
G04 #@! TO.C,C2*
X204966666Y-88957142D02*
X205014285Y-89004761D01*
X205157142Y-89052380D01*
X205252380Y-89052380D01*
X205395238Y-89004761D01*
X205490476Y-88909523D01*
X205538095Y-88814285D01*
X205585714Y-88623809D01*
X205585714Y-88480952D01*
X205538095Y-88290476D01*
X205490476Y-88195238D01*
X205395238Y-88100000D01*
X205252380Y-88052380D01*
X205157142Y-88052380D01*
X205014285Y-88100000D01*
X204966666Y-88147619D01*
X204585714Y-88147619D02*
X204538095Y-88100000D01*
X204442857Y-88052380D01*
X204204761Y-88052380D01*
X204109523Y-88100000D01*
X204061904Y-88147619D01*
X204014285Y-88242857D01*
X204014285Y-88338095D01*
X204061904Y-88480952D01*
X204633333Y-89052380D01*
X204014285Y-89052380D01*
G04 #@! TO.C,C1*
X136266666Y-97007142D02*
X136314285Y-97054761D01*
X136457142Y-97102380D01*
X136552380Y-97102380D01*
X136695238Y-97054761D01*
X136790476Y-96959523D01*
X136838095Y-96864285D01*
X136885714Y-96673809D01*
X136885714Y-96530952D01*
X136838095Y-96340476D01*
X136790476Y-96245238D01*
X136695238Y-96150000D01*
X136552380Y-96102380D01*
X136457142Y-96102380D01*
X136314285Y-96150000D01*
X136266666Y-96197619D01*
X135314285Y-97102380D02*
X135885714Y-97102380D01*
X135600000Y-97102380D02*
X135600000Y-96102380D01*
X135695238Y-96245238D01*
X135790476Y-96340476D01*
X135885714Y-96388095D01*
G04 #@! TO.C,C8*
X144666666Y-93607142D02*
X144714285Y-93654761D01*
X144857142Y-93702380D01*
X144952380Y-93702380D01*
X145095238Y-93654761D01*
X145190476Y-93559523D01*
X145238095Y-93464285D01*
X145285714Y-93273809D01*
X145285714Y-93130952D01*
X145238095Y-92940476D01*
X145190476Y-92845238D01*
X145095238Y-92750000D01*
X144952380Y-92702380D01*
X144857142Y-92702380D01*
X144714285Y-92750000D01*
X144666666Y-92797619D01*
X144095238Y-93130952D02*
X144190476Y-93083333D01*
X144238095Y-93035714D01*
X144285714Y-92940476D01*
X144285714Y-92892857D01*
X144238095Y-92797619D01*
X144190476Y-92750000D01*
X144095238Y-92702380D01*
X143904761Y-92702380D01*
X143809523Y-92750000D01*
X143761904Y-92797619D01*
X143714285Y-92892857D01*
X143714285Y-92940476D01*
X143761904Y-93035714D01*
X143809523Y-93083333D01*
X143904761Y-93130952D01*
X144095238Y-93130952D01*
X144190476Y-93178571D01*
X144238095Y-93226190D01*
X144285714Y-93321428D01*
X144285714Y-93511904D01*
X144238095Y-93607142D01*
X144190476Y-93654761D01*
X144095238Y-93702380D01*
X143904761Y-93702380D01*
X143809523Y-93654761D01*
X143761904Y-93607142D01*
X143714285Y-93511904D01*
X143714285Y-93321428D01*
X143761904Y-93226190D01*
X143809523Y-93178571D01*
X143904761Y-93130952D01*
G04 #@! TO.C,C10*
X142617857Y-111907142D02*
X142665476Y-111954761D01*
X142808333Y-112002380D01*
X142903571Y-112002380D01*
X143046428Y-111954761D01*
X143141666Y-111859523D01*
X143189285Y-111764285D01*
X143236904Y-111573809D01*
X143236904Y-111430952D01*
X143189285Y-111240476D01*
X143141666Y-111145238D01*
X143046428Y-111050000D01*
X142903571Y-111002380D01*
X142808333Y-111002380D01*
X142665476Y-111050000D01*
X142617857Y-111097619D01*
X141665476Y-112002380D02*
X142236904Y-112002380D01*
X141951190Y-112002380D02*
X141951190Y-111002380D01*
X142046428Y-111145238D01*
X142141666Y-111240476D01*
X142236904Y-111288095D01*
X141046428Y-111002380D02*
X140951190Y-111002380D01*
X140855952Y-111050000D01*
X140808333Y-111097619D01*
X140760714Y-111192857D01*
X140713095Y-111383333D01*
X140713095Y-111621428D01*
X140760714Y-111811904D01*
X140808333Y-111907142D01*
X140855952Y-111954761D01*
X140951190Y-112002380D01*
X141046428Y-112002380D01*
X141141666Y-111954761D01*
X141189285Y-111907142D01*
X141236904Y-111811904D01*
X141284523Y-111621428D01*
X141284523Y-111383333D01*
X141236904Y-111192857D01*
X141189285Y-111097619D01*
X141141666Y-111050000D01*
X141046428Y-111002380D01*
G04 #@! TO.C,U7*
X146611904Y-120702380D02*
X146611904Y-121511904D01*
X146564285Y-121607142D01*
X146516666Y-121654761D01*
X146421428Y-121702380D01*
X146230952Y-121702380D01*
X146135714Y-121654761D01*
X146088095Y-121607142D01*
X146040476Y-121511904D01*
X146040476Y-120702380D01*
X145659523Y-120702380D02*
X144992857Y-120702380D01*
X145421428Y-121702380D01*
G04 #@! TO.C,T2*
X185661904Y-131502380D02*
X185090476Y-131502380D01*
X185376190Y-132502380D02*
X185376190Y-131502380D01*
X184804761Y-131597619D02*
X184757142Y-131550000D01*
X184661904Y-131502380D01*
X184423809Y-131502380D01*
X184328571Y-131550000D01*
X184280952Y-131597619D01*
X184233333Y-131692857D01*
X184233333Y-131788095D01*
X184280952Y-131930952D01*
X184852380Y-132502380D01*
X184233333Y-132502380D01*
G04 #@! TO.C,T1*
X163702380Y-75298095D02*
X163702380Y-75869523D01*
X164702380Y-75583809D02*
X163702380Y-75583809D01*
X164702380Y-76726666D02*
X164702380Y-76155238D01*
X164702380Y-76440952D02*
X163702380Y-76440952D01*
X163845238Y-76345714D01*
X163940476Y-76250476D01*
X163988095Y-76155238D01*
G04 #@! TO.C,U3*
X173361904Y-93202380D02*
X173361904Y-94011904D01*
X173314285Y-94107142D01*
X173266666Y-94154761D01*
X173171428Y-94202380D01*
X172980952Y-94202380D01*
X172885714Y-94154761D01*
X172838095Y-94107142D01*
X172790476Y-94011904D01*
X172790476Y-93202380D01*
X172409523Y-93202380D02*
X171790476Y-93202380D01*
X172123809Y-93583333D01*
X171980952Y-93583333D01*
X171885714Y-93630952D01*
X171838095Y-93678571D01*
X171790476Y-93773809D01*
X171790476Y-94011904D01*
X171838095Y-94107142D01*
X171885714Y-94154761D01*
X171980952Y-94202380D01*
X172266666Y-94202380D01*
X172361904Y-94154761D01*
X172409523Y-94107142D01*
G04 #@! TO.C,P1*
X156788095Y-90902380D02*
X156788095Y-89902380D01*
X156407142Y-89902380D01*
X156311904Y-89950000D01*
X156264285Y-89997619D01*
X156216666Y-90092857D01*
X156216666Y-90235714D01*
X156264285Y-90330952D01*
X156311904Y-90378571D01*
X156407142Y-90426190D01*
X156788095Y-90426190D01*
X155264285Y-90902380D02*
X155835714Y-90902380D01*
X155550000Y-90902380D02*
X155550000Y-89902380D01*
X155645238Y-90045238D01*
X155740476Y-90140476D01*
X155835714Y-90188095D01*
G04 #@! TO.C,R6*
X136616666Y-115452380D02*
X136950000Y-114976190D01*
X137188095Y-115452380D02*
X137188095Y-114452380D01*
X136807142Y-114452380D01*
X136711904Y-114500000D01*
X136664285Y-114547619D01*
X136616666Y-114642857D01*
X136616666Y-114785714D01*
X136664285Y-114880952D01*
X136711904Y-114928571D01*
X136807142Y-114976190D01*
X137188095Y-114976190D01*
X135759523Y-114452380D02*
X135950000Y-114452380D01*
X136045238Y-114500000D01*
X136092857Y-114547619D01*
X136188095Y-114690476D01*
X136235714Y-114880952D01*
X136235714Y-115261904D01*
X136188095Y-115357142D01*
X136140476Y-115404761D01*
X136045238Y-115452380D01*
X135854761Y-115452380D01*
X135759523Y-115404761D01*
X135711904Y-115357142D01*
X135664285Y-115261904D01*
X135664285Y-115023809D01*
X135711904Y-114928571D01*
X135759523Y-114880952D01*
X135854761Y-114833333D01*
X136045238Y-114833333D01*
X136140476Y-114880952D01*
X136188095Y-114928571D01*
X136235714Y-115023809D01*
G04 #@! TO.C,R11*
X168602380Y-92382142D02*
X168126190Y-92048809D01*
X168602380Y-91810714D02*
X167602380Y-91810714D01*
X167602380Y-92191666D01*
X167650000Y-92286904D01*
X167697619Y-92334523D01*
X167792857Y-92382142D01*
X167935714Y-92382142D01*
X168030952Y-92334523D01*
X168078571Y-92286904D01*
X168126190Y-92191666D01*
X168126190Y-91810714D01*
X168602380Y-93334523D02*
X168602380Y-92763095D01*
X168602380Y-93048809D02*
X167602380Y-93048809D01*
X167745238Y-92953571D01*
X167840476Y-92858333D01*
X167888095Y-92763095D01*
X168602380Y-94286904D02*
X168602380Y-93715476D01*
X168602380Y-94001190D02*
X167602380Y-94001190D01*
X167745238Y-93905952D01*
X167840476Y-93810714D01*
X167888095Y-93715476D01*
G04 #@! TO.C,R10*
X182102380Y-91982142D02*
X181626190Y-91648809D01*
X182102380Y-91410714D02*
X181102380Y-91410714D01*
X181102380Y-91791666D01*
X181150000Y-91886904D01*
X181197619Y-91934523D01*
X181292857Y-91982142D01*
X181435714Y-91982142D01*
X181530952Y-91934523D01*
X181578571Y-91886904D01*
X181626190Y-91791666D01*
X181626190Y-91410714D01*
X182102380Y-92934523D02*
X182102380Y-92363095D01*
X182102380Y-92648809D02*
X181102380Y-92648809D01*
X181245238Y-92553571D01*
X181340476Y-92458333D01*
X181388095Y-92363095D01*
X181102380Y-93553571D02*
X181102380Y-93648809D01*
X181150000Y-93744047D01*
X181197619Y-93791666D01*
X181292857Y-93839285D01*
X181483333Y-93886904D01*
X181721428Y-93886904D01*
X181911904Y-93839285D01*
X182007142Y-93791666D01*
X182054761Y-93744047D01*
X182102380Y-93648809D01*
X182102380Y-93553571D01*
X182054761Y-93458333D01*
X182007142Y-93410714D01*
X181911904Y-93363095D01*
X181721428Y-93315476D01*
X181483333Y-93315476D01*
X181292857Y-93363095D01*
X181197619Y-93410714D01*
X181150000Y-93458333D01*
X181102380Y-93553571D01*
G04 #@! TO.C,R8*
X150141666Y-115602380D02*
X150475000Y-115126190D01*
X150713095Y-115602380D02*
X150713095Y-114602380D01*
X150332142Y-114602380D01*
X150236904Y-114650000D01*
X150189285Y-114697619D01*
X150141666Y-114792857D01*
X150141666Y-114935714D01*
X150189285Y-115030952D01*
X150236904Y-115078571D01*
X150332142Y-115126190D01*
X150713095Y-115126190D01*
X149570238Y-115030952D02*
X149665476Y-114983333D01*
X149713095Y-114935714D01*
X149760714Y-114840476D01*
X149760714Y-114792857D01*
X149713095Y-114697619D01*
X149665476Y-114650000D01*
X149570238Y-114602380D01*
X149379761Y-114602380D01*
X149284523Y-114650000D01*
X149236904Y-114697619D01*
X149189285Y-114792857D01*
X149189285Y-114840476D01*
X149236904Y-114935714D01*
X149284523Y-114983333D01*
X149379761Y-115030952D01*
X149570238Y-115030952D01*
X149665476Y-115078571D01*
X149713095Y-115126190D01*
X149760714Y-115221428D01*
X149760714Y-115411904D01*
X149713095Y-115507142D01*
X149665476Y-115554761D01*
X149570238Y-115602380D01*
X149379761Y-115602380D01*
X149284523Y-115554761D01*
X149236904Y-115507142D01*
X149189285Y-115411904D01*
X149189285Y-115221428D01*
X149236904Y-115126190D01*
X149284523Y-115078571D01*
X149379761Y-115030952D01*
G04 #@! TO.C,R7*
X136616666Y-121852380D02*
X136950000Y-121376190D01*
X137188095Y-121852380D02*
X137188095Y-120852380D01*
X136807142Y-120852380D01*
X136711904Y-120900000D01*
X136664285Y-120947619D01*
X136616666Y-121042857D01*
X136616666Y-121185714D01*
X136664285Y-121280952D01*
X136711904Y-121328571D01*
X136807142Y-121376190D01*
X137188095Y-121376190D01*
X136283333Y-120852380D02*
X135616666Y-120852380D01*
X136045238Y-121852380D01*
G04 #@! TO.C,R4*
X157102380Y-78608333D02*
X156626190Y-78275000D01*
X157102380Y-78036904D02*
X156102380Y-78036904D01*
X156102380Y-78417857D01*
X156150000Y-78513095D01*
X156197619Y-78560714D01*
X156292857Y-78608333D01*
X156435714Y-78608333D01*
X156530952Y-78560714D01*
X156578571Y-78513095D01*
X156626190Y-78417857D01*
X156626190Y-78036904D01*
X156435714Y-79465476D02*
X157102380Y-79465476D01*
X156054761Y-79227380D02*
X156769047Y-78989285D01*
X156769047Y-79608333D01*
G04 #@! TO.C,R1*
X170552380Y-89633333D02*
X170076190Y-89300000D01*
X170552380Y-89061904D02*
X169552380Y-89061904D01*
X169552380Y-89442857D01*
X169600000Y-89538095D01*
X169647619Y-89585714D01*
X169742857Y-89633333D01*
X169885714Y-89633333D01*
X169980952Y-89585714D01*
X170028571Y-89538095D01*
X170076190Y-89442857D01*
X170076190Y-89061904D01*
X170552380Y-90585714D02*
X170552380Y-90014285D01*
X170552380Y-90300000D02*
X169552380Y-90300000D01*
X169695238Y-90204761D01*
X169790476Y-90109523D01*
X169838095Y-90014285D01*
G04 #@! TO.C,R2*
X144666666Y-100102380D02*
X145000000Y-99626190D01*
X145238095Y-100102380D02*
X145238095Y-99102380D01*
X144857142Y-99102380D01*
X144761904Y-99150000D01*
X144714285Y-99197619D01*
X144666666Y-99292857D01*
X144666666Y-99435714D01*
X144714285Y-99530952D01*
X144761904Y-99578571D01*
X144857142Y-99626190D01*
X145238095Y-99626190D01*
X144285714Y-99197619D02*
X144238095Y-99150000D01*
X144142857Y-99102380D01*
X143904761Y-99102380D01*
X143809523Y-99150000D01*
X143761904Y-99197619D01*
X143714285Y-99292857D01*
X143714285Y-99388095D01*
X143761904Y-99530952D01*
X144333333Y-100102380D01*
X143714285Y-100102380D01*
G04 #@! TO.C,R3*
X151202380Y-99833333D02*
X150726190Y-99500000D01*
X151202380Y-99261904D02*
X150202380Y-99261904D01*
X150202380Y-99642857D01*
X150250000Y-99738095D01*
X150297619Y-99785714D01*
X150392857Y-99833333D01*
X150535714Y-99833333D01*
X150630952Y-99785714D01*
X150678571Y-99738095D01*
X150726190Y-99642857D01*
X150726190Y-99261904D01*
X150202380Y-100166666D02*
X150202380Y-100785714D01*
X150583333Y-100452380D01*
X150583333Y-100595238D01*
X150630952Y-100690476D01*
X150678571Y-100738095D01*
X150773809Y-100785714D01*
X151011904Y-100785714D01*
X151107142Y-100738095D01*
X151154761Y-100690476D01*
X151202380Y-100595238D01*
X151202380Y-100309523D01*
X151154761Y-100214285D01*
X151107142Y-100166666D01*
G04 #@! TO.C,R5*
X161891666Y-79802380D02*
X162225000Y-79326190D01*
X162463095Y-79802380D02*
X162463095Y-78802380D01*
X162082142Y-78802380D01*
X161986904Y-78850000D01*
X161939285Y-78897619D01*
X161891666Y-78992857D01*
X161891666Y-79135714D01*
X161939285Y-79230952D01*
X161986904Y-79278571D01*
X162082142Y-79326190D01*
X162463095Y-79326190D01*
X160986904Y-78802380D02*
X161463095Y-78802380D01*
X161510714Y-79278571D01*
X161463095Y-79230952D01*
X161367857Y-79183333D01*
X161129761Y-79183333D01*
X161034523Y-79230952D01*
X160986904Y-79278571D01*
X160939285Y-79373809D01*
X160939285Y-79611904D01*
X160986904Y-79707142D01*
X161034523Y-79754761D01*
X161129761Y-79802380D01*
X161367857Y-79802380D01*
X161463095Y-79754761D01*
X161510714Y-79707142D01*
G04 #@! TO.C,R9*
X218641666Y-90852380D02*
X218975000Y-90376190D01*
X219213095Y-90852380D02*
X219213095Y-89852380D01*
X218832142Y-89852380D01*
X218736904Y-89900000D01*
X218689285Y-89947619D01*
X218641666Y-90042857D01*
X218641666Y-90185714D01*
X218689285Y-90280952D01*
X218736904Y-90328571D01*
X218832142Y-90376190D01*
X219213095Y-90376190D01*
X218165476Y-90852380D02*
X217975000Y-90852380D01*
X217879761Y-90804761D01*
X217832142Y-90757142D01*
X217736904Y-90614285D01*
X217689285Y-90423809D01*
X217689285Y-90042857D01*
X217736904Y-89947619D01*
X217784523Y-89900000D01*
X217879761Y-89852380D01*
X218070238Y-89852380D01*
X218165476Y-89900000D01*
X218213095Y-89947619D01*
X218260714Y-90042857D01*
X218260714Y-90280952D01*
X218213095Y-90376190D01*
X218165476Y-90423809D01*
X218070238Y-90471428D01*
X217879761Y-90471428D01*
X217784523Y-90423809D01*
X217736904Y-90376190D01*
X217689285Y-90280952D01*
G04 #@! TD*
M02*
