M48
;DRILL file {KiCad (5.0.1)-3} date 30.05.2019 12:54:21
;FORMAT={-:-/ absolute / metric / decimal}
FMAT,2
METRIC,TZ
T1C0.400
T2C0.550
T3C0.600
T4C0.760
T5C0.800
T6C0.850
T7C0.900
T8C1.000
T9C1.200
T10C1.300
T11C1.500
T12C2.500
T13C3.500
T14C0.800
T15C2.390
T16C3.250
T17C3.450
%
G90
G05
M71
T1
X126.4Y-90.3
X126.6Y-93.
X128.25Y-94.8
X129.6Y-93.5
X132.75Y-79.8
X133.2Y-117.
X133.2Y-119.5
X134.Y-87.4
X134.8Y-88.3
X136.375Y-97.1
X137.1Y-89.3
X137.5Y-86.
X137.85Y-77.25
X141.85Y-88.4
X143.475Y-93.475
X145.05Y-84.
X148.2Y-86.
X149.7Y-105.
X150.6Y-88.
X152.425Y-82.75
X158.3Y-116.2
X159.8Y-117.2
X168.Y-83.85
X170.Y-79.
X192.2Y-119.3
X192.2Y-120.4
X192.2Y-121.4
X192.2Y-122.4
X192.2Y-123.4
X198.5Y-119.3
X198.5Y-120.4
X198.5Y-121.4
X198.5Y-122.4
X198.5Y-123.4
X215.25Y-88.75
T3
X155.Y-81.5
T4
X215.Y-110.92
X215.Y-113.46
X215.Y-116.
X217.54Y-109.65
X217.54Y-112.19
X217.54Y-114.73
X215.Y-94.42
X215.Y-96.96
X215.Y-99.5
X217.54Y-93.15
X217.54Y-95.69
X217.54Y-98.23
X215.Y-78.42
X215.Y-80.96
X215.Y-83.5
X217.54Y-77.15
X217.54Y-79.69
X217.54Y-82.23
T5
X184.7Y-78.
X129.Y-98.5
X133.9Y-98.5
T7
X140.875Y-111.075
X176.Y-86.8
X184.7Y-84.4
X207.Y-84.5
X209.54Y-84.5
X201.46Y-84.5
X204.Y-84.5
T8
X125.8Y-122.1
X156.75Y-99.25
X164.35Y-99.25
X114.Y-79.7
X114.Y-82.24
X114.Y-84.78
X116.54Y-79.7
X116.54Y-82.24
X116.54Y-84.78
X194.Y-96.38
X194.Y-98.92
X194.Y-101.46
X194.Y-104.
X201.Y-93.
X201.Y-107.5
X203.5Y-93.
X206.Y-93.
X206.Y-107.5
X194.25Y-84.75
X196.79Y-84.75
X111.9Y-89.95
X114.44Y-89.95
X116.98Y-89.95
T9
X119.301Y-74.641
X121.841Y-74.641
X124.381Y-74.641
X126.921Y-74.641
X129.461Y-74.641
X132.001Y-74.641
X134.541Y-74.641
X137.081Y-74.641
X139.621Y-74.641
X142.161Y-74.641
X144.701Y-74.641
X147.241Y-74.641
X149.781Y-74.641
X152.321Y-74.641
X154.861Y-74.641
X157.401Y-74.641
T10
X195.2Y-77.1
X200.2Y-77.1
X212.76Y-128.
X217.84Y-128.
X222.92Y-128.
X228.Y-128.
T12
X113.802Y-74.641
X113.802Y-105.641
X188.8Y-105.641
X188.801Y-74.641
T13
X111.675Y-74.65
X111.675Y-129.654
X204.675Y-74.65
X204.675Y-129.651
X210.25Y-74.7
X228.07Y-121.38
T14
X112.95Y-94.625
X112.95Y-99.625
T15
X120.07Y-113.5
T16
X223.89Y-107.75
X223.89Y-117.91
X223.89Y-91.25
X223.89Y-101.41
X223.89Y-75.25
X223.89Y-85.41
T17
X128.4Y-129.5
X183.6Y-113.5
T2
X110.525Y-93.25G85X109.875Y-93.25
G05
X110.525Y-101.G85X109.875Y-101.
G05
T6
X114.275Y-93.4G85X113.725Y-93.4
G05
X114.275Y-100.85G85X113.725Y-100.85
G05
T11
X197.9Y-99.85G85X197.9Y-101.15
G05
X209.1Y-99.85G85X209.1Y-101.15
G05
T0
M30
